<svg width="76" height="75" viewBox="0 0 76 75" fill="none" xmlns="http://www.w3.org/2000/svg">
<path d="M30.6281 68.0172C45.6288 68.0172 57.7894 55.8997 57.7894 40.9521C57.7894 26.0044 45.6288 13.8869 30.6281 13.8869C15.6273 13.8869 3.4668 26.0044 3.4668 40.9521C3.4668 55.8997 15.6273 68.0172 30.6281 68.0172Z" fill="#FFF8E8"/>
<path d="M43.8019 59.8157C58.8027 59.8157 70.9632 47.6982 70.9632 32.7505C70.9632 17.8029 58.8027 5.68536 43.8019 5.68536C28.8011 5.68536 16.6406 17.8029 16.6406 32.7505C16.6406 47.6982 28.8011 59.8157 43.8019 59.8157Z" fill="#FCF0D7"/>
<path d="M71.7876 16.3474L72.7165 17.8823L74.2568 18.8078L72.7165 19.7334L71.7876 21.2684L70.8588 19.7334L69.3184 18.8078L70.8588 17.8823L71.7876 16.3474Z" fill="#FCEDCD"/>
<path d="M17.2539 5.64728L19.0404 5.85548L20.7181 5.20886L20.5091 6.9891L21.1581 8.66076L19.3715 8.45256L17.6939 9.09917L17.9028 7.31894L17.2539 5.64728Z" fill="#FCEDCD"/>
<path d="M14.1684 66.377L15.0973 67.9119L16.6376 68.8375L15.0973 69.763L14.1684 71.2979L13.2395 69.763L11.6992 68.8375L13.2395 67.9119L14.1684 66.377Z" fill="#FCEDCD"/>
<path d="M57.2583 68.0477C57.1211 67.6376 57.176 66.8174 58.4929 66.8174" stroke="#FCEDCD"/>
<path d="M1.05126 52.8441C0.914082 52.434 0.968953 51.6139 2.28586 51.6139" stroke="#FCEDCD"/>
<path d="M74.7661 44.6692C74.629 44.2591 74.6838 43.439 76.0007 43.439" stroke="#FCEDCD"/>
<path d="M1.97314 25.3979C1.83596 24.9878 1.89083 24.1677 3.20774 24.1677" stroke="#FCEDCD"/>
<path d="M48.4317 3.9931C48.0564 4.20629 47.2431 4.30855 46.9922 3.01202" stroke="#FCEDCD"/>
<mask id="path-11-inside-1_5921_2092" fill="white">
<path d="M21.1831 67.5877C21.1831 66.5077 21.1831 65.5602 21.1831 64.4982C20.876 64.4982 20.5849 64.4982 20.2958 64.4982C15.1105 64.4982 9.92523 64.5003 4.73992 64.4982C2.25266 64.4962 1 63.2436 1 60.7563C1 47.8844 1 35.0105 1 22.1385C1 19.6493 2.24664 18.4026 4.73992 18.4026C16.1123 18.4026 27.4846 18.4026 38.857 18.4026C39.1781 18.4026 39.4973 18.4026 39.9109 18.4026C39.9109 17.5896 39.9028 16.8468 39.9129 16.1041C39.9269 14.9618 40.3345 14.2953 41.4687 14.1508C43.3075 13.9159 44.4959 13.135 44.9436 11.2379C45.0781 10.6658 45.2166 10.2543 44.8452 9.7464C44.4498 9.20237 44.1185 8.60615 43.7953 8.01395C43.3718 7.24107 43.4521 6.51436 44.0463 5.86796C44.5883 5.27776 45.1584 4.71165 45.7446 4.16763C46.4111 3.54932 47.1498 3.46903 47.9548 3.91468C48.5892 4.26599 49.2175 4.63135 49.8198 5.03686C50.2172 5.30586 50.5505 5.3701 50.9781 5.09508C51.3314 4.86823 51.7309 4.65343 52.1384 4.57916C53.1823 4.38845 53.5316 3.73 53.7524 2.76239C54.3787 0.00412493 54.4329 0.000109803 57.2575 0.00412475C57.683 0.00412475 58.1167 -0.0199649 58.5322 0.0482892C59.2689 0.168738 59.7327 0.640494 59.9294 1.35114C60.1422 2.12201 60.2968 2.91095 60.5377 3.67178C60.6119 3.90665 60.8549 4.15157 61.0817 4.26198C61.7542 4.5892 62.4468 4.88831 63.1574 5.12118C63.4385 5.21352 63.8319 5.19144 64.0929 5.06296C64.7634 4.72972 65.3797 4.29008 66.0341 3.92472C66.8713 3.45899 67.61 3.54531 68.3046 4.19975C68.8687 4.73173 69.4187 5.28378 69.9427 5.85591C70.559 6.52842 70.6232 7.24709 70.1936 8.06815C70.1816 8.09023 70.1715 8.11231 70.1595 8.13439C69.7018 8.93538 68.9289 9.71428 68.8767 10.5414C68.8245 11.3684 69.4729 12.2517 69.8584 13.0888C69.9527 13.2956 70.1976 13.5024 70.4165 13.5706C71.1311 13.7955 71.8679 13.948 72.5926 14.1448C73.6224 14.4258 74.0721 14.9799 74.0962 16.0157C74.1142 16.7665 74.1162 17.5193 74.0941 18.2701C74.066 19.1896 73.6144 19.7737 72.7371 20.0267C72.0405 20.2274 71.3399 20.4282 70.6272 20.5486C70.0973 20.6369 69.8664 20.9059 69.7359 21.3958C69.6135 21.8515 69.4709 22.3313 69.208 22.7127C68.6981 23.4554 68.8346 24.0697 69.3425 24.7322C69.6757 25.1658 69.9327 25.6617 70.1956 26.1434C70.6353 26.9545 70.563 27.6772 69.9427 28.3537C69.4187 28.9258 68.8667 29.4759 68.2966 30.0018C67.5699 30.6723 66.8371 30.7365 65.9599 30.2327C65.3315 29.8713 64.7393 29.4377 64.0869 29.1286C63.8079 28.9961 63.3903 29.0101 63.0811 29.1065C62.3685 29.3313 61.702 29.7067 60.9833 29.9075C60.4634 30.052 60.2948 30.2869 60.347 30.7948C60.3851 31.1641 60.355 31.5436 60.355 32.0394C60.6581 32.0394 60.9211 32.0394 61.1821 32.0394C64.5888 32.0394 67.9954 32.0374 71.4021 32.0394C73.6987 32.0414 74.9714 33.3222 74.9714 35.6268C74.9734 47.2219 74.9734 58.8171 74.9714 70.4123C74.9714 72.753 73.7067 74.0177 71.3419 74.0177C52.7045 74.0197 34.0691 74.0197 15.4317 74.0177C14.2754 74.0177 14.0767 73.8149 14.0747 72.6647C14.0727 72.0383 14.0646 71.412 14.0787 70.7857C14.1148 69.0893 15.3012 67.7624 16.9935 67.6299C18.0635 67.5456 19.1456 67.5938 20.2216 67.5837C20.5167 67.5857 20.8098 67.5877 21.1831 67.5877ZM58.5864 32.0414C58.5864 31.6961 58.5864 31.4271 58.5864 31.1601C58.5864 28.181 58.5864 25.1999 58.5864 22.2208C58.5864 20.6149 58.1488 20.1812 56.5348 20.1812C39.3046 20.1812 22.0725 20.1812 4.84231 20.1812C3.16606 20.1812 2.75252 20.5908 2.75252 22.255C2.75252 32.0956 2.75252 41.9362 2.75252 51.7769C2.75252 52.0439 2.75252 52.3129 2.75252 52.616C13.2898 52.616 23.7427 52.616 34.2659 52.616C34.2659 52.2767 34.2659 51.9816 34.2659 51.6865C34.2659 46.4792 34.3321 41.2678 34.2357 36.0624C34.1916 33.6835 35.4302 31.9551 38.3189 32.0053C44.7529 32.1177 51.1909 32.0394 57.6288 32.0394C57.9219 32.0414 58.215 32.0414 58.5864 32.0414ZM73.2189 41.5749C60.7766 41.5749 48.4246 41.5749 36.0284 41.5749C36.0284 41.9001 36.0284 42.1731 36.0284 42.4461C36.0284 51.6845 36.0284 60.9249 36.0284 70.1633C36.0284 71.8697 36.452 72.2953 38.1584 72.2953C49.1272 72.2953 60.096 72.2953 71.0669 72.2953C72.8134 72.2953 73.2209 71.8837 73.2209 70.1152C73.2209 60.9009 73.2209 51.6865 73.2209 42.4722C73.2189 42.1972 73.2189 41.9222 73.2189 41.5749ZM2.75252 54.4669C2.75252 56.6049 2.75052 58.6766 2.75252 60.7503C2.75453 62.272 3.20621 62.7256 4.71383 62.7256C14.2754 62.7256 23.837 62.7256 33.4006 62.7256C33.6676 62.7256 33.9346 62.7256 34.2157 62.7256C34.2157 59.9212 34.2157 57.2091 34.2157 54.4669C23.7346 54.4669 13.3058 54.4669 2.75252 54.4669ZM45.3772 7.02426C45.3772 7.12464 45.3672 7.15475 45.3792 7.17281C45.8791 8.04004 46.3609 8.91731 46.8889 9.76647C47.202 10.2724 47.2121 10.708 46.9109 11.2299C46.5616 11.8322 46.134 12.4625 46.0377 13.125C45.8068 14.7049 44.8352 15.2087 43.4179 15.4737C41.6253 15.809 41.6594 15.8953 41.6293 17.702C41.6212 18.234 41.8059 18.4167 42.3198 18.4086C43.446 18.3886 44.5742 18.4026 45.7004 18.4026C46.921 18.4026 48.1415 18.4026 49.4042 18.4026C49.3882 18.0975 49.3821 17.8767 49.3621 17.6599C48.9124 12.6111 53.6882 8.45559 58.6286 9.59985C61.7422 10.3205 64.0929 12.7937 64.5687 15.8531C65.0645 19.033 63.6553 21.986 60.8428 23.7024C60.638 23.8288 60.3731 24.0757 60.367 24.2725C60.3249 25.5693 60.345 26.8681 60.345 28.3557C61.2543 27.9421 62.0634 27.633 62.8121 27.2134C63.3903 26.8902 63.86 26.8902 64.4101 27.2496C65.2231 27.7815 66.0723 28.2613 66.9957 28.8154C67.5317 28.2192 68.0617 27.633 68.6218 27.0087C68.1621 26.2217 67.6963 25.3645 67.1704 24.5455C66.803 23.9734 66.7789 23.4755 67.1403 22.8813C67.4896 22.3092 67.879 21.6909 67.9774 21.0525C68.2143 19.5208 69.1578 19.0169 70.5449 18.7579C72.3757 18.4167 72.3497 18.3344 72.3557 16.4734C72.3577 16.086 72.2613 15.8853 71.8538 15.7949C71.0006 15.6022 70.1655 15.3332 69.3123 15.1365C68.7623 15.01 68.4853 14.7109 68.2966 14.1749C67.9412 13.1651 67.5197 12.1754 67.0579 11.2098C66.8171 10.706 66.7769 10.2884 67.082 9.80863C67.6301 8.94742 68.142 8.06614 68.684 7.1688C68.1079 6.56254 67.5638 5.99041 67.0238 5.4223C66.0562 5.9864 65.1609 6.48626 64.2876 7.02426C63.8038 7.32338 63.3903 7.27921 62.8864 7.03229C61.969 6.58462 61.0295 6.16306 60.0619 5.84989C59.4055 5.6371 59.0562 5.30185 58.9176 4.63537C58.7229 3.69185 58.4639 2.76039 58.217 1.76468C57.5405 1.76468 56.9403 1.78676 56.3421 1.75665C55.9385 1.73658 55.7719 1.87911 55.6836 2.27659C55.4849 3.15385 55.2861 4.03915 54.9689 4.87626C54.8344 5.2336 54.457 5.58691 54.1017 5.75955C53.1401 6.22729 52.1063 6.5505 51.1467 7.02426C50.5826 7.3033 50.139 7.31535 49.615 6.97608C48.7819 6.43607 47.9167 5.94625 47.0515 5.42631C46.4532 5.99644 45.8972 6.52641 45.3772 7.02426ZM36.0364 39.722C48.4667 39.722 60.8007 39.722 73.2209 39.722C73.2209 38.4071 73.2229 37.1384 73.2209 35.8697C73.2189 34.2095 72.8114 33.808 71.1251 33.808C60.1342 33.808 49.1433 33.808 38.1523 33.808C37.9014 33.808 37.6505 33.8 37.4015 33.824C36.6287 33.8943 36.0666 34.4082 36.0485 35.1731C36.0104 36.6666 36.0364 38.1662 36.0364 39.722ZM60.4172 21.8274C62.7499 20.4081 63.5931 17.0777 62.3183 14.4921C60.9492 11.7137 57.7071 10.4671 54.8103 11.6073C52.1043 12.6713 50.5184 15.7126 51.3234 18.4147C52.9936 18.4147 54.6899 18.4147 56.3842 18.4147C58.9357 18.4147 59.9575 19.2678 60.4172 21.8274ZM15.8814 72.2511C22.1166 72.2511 28.3057 72.2511 34.4766 72.2511C34.3823 71.2775 34.292 70.348 34.1936 69.3383C32.4471 69.3383 30.7026 69.3383 28.9561 69.3383C25.1519 69.3383 21.3498 69.3363 17.5456 69.3403C16.6362 69.3423 16.0039 69.7257 15.8975 70.4424C15.8132 71.0205 15.8814 71.6208 15.8814 72.2511ZM34.2096 67.5436C34.2096 66.5178 34.2096 65.5361 34.2096 64.5504C30.4416 64.5504 26.7278 64.5504 22.9999 64.5504C22.9999 65.5682 22.9999 66.5338 22.9999 67.5436C26.7519 67.5436 30.4657 67.5436 34.2096 67.5436Z"/>
</mask>
<path d="M21.1831 67.5877C21.1831 66.5077 21.1831 65.5602 21.1831 64.4982C20.876 64.4982 20.5849 64.4982 20.2958 64.4982C15.1105 64.4982 9.92523 64.5003 4.73992 64.4982C2.25266 64.4962 1 63.2436 1 60.7563C1 47.8844 1 35.0105 1 22.1385C1 19.6493 2.24664 18.4026 4.73992 18.4026C16.1123 18.4026 27.4846 18.4026 38.857 18.4026C39.1781 18.4026 39.4973 18.4026 39.9109 18.4026C39.9109 17.5896 39.9028 16.8468 39.9129 16.1041C39.9269 14.9618 40.3345 14.2953 41.4687 14.1508C43.3075 13.9159 44.4959 13.135 44.9436 11.2379C45.0781 10.6658 45.2166 10.2543 44.8452 9.7464C44.4498 9.20237 44.1185 8.60615 43.7953 8.01395C43.3718 7.24107 43.4521 6.51436 44.0463 5.86796C44.5883 5.27776 45.1584 4.71165 45.7446 4.16763C46.4111 3.54932 47.1498 3.46903 47.9548 3.91468C48.5892 4.26599 49.2175 4.63135 49.8198 5.03686C50.2172 5.30586 50.5505 5.3701 50.9781 5.09508C51.3314 4.86823 51.7309 4.65343 52.1384 4.57916C53.1823 4.38845 53.5316 3.73 53.7524 2.76239C54.3787 0.00412493 54.4329 0.000109803 57.2575 0.00412475C57.683 0.00412475 58.1167 -0.0199649 58.5322 0.0482892C59.2689 0.168738 59.7327 0.640494 59.9294 1.35114C60.1422 2.12201 60.2968 2.91095 60.5377 3.67178C60.6119 3.90665 60.8549 4.15157 61.0817 4.26198C61.7542 4.5892 62.4468 4.88831 63.1574 5.12118C63.4385 5.21352 63.8319 5.19144 64.0929 5.06296C64.7634 4.72972 65.3797 4.29008 66.0341 3.92472C66.8713 3.45899 67.61 3.54531 68.3046 4.19975C68.8687 4.73173 69.4187 5.28378 69.9427 5.85591C70.559 6.52842 70.6232 7.24709 70.1936 8.06815C70.1816 8.09023 70.1715 8.11231 70.1595 8.13439C69.7018 8.93538 68.9289 9.71428 68.8767 10.5414C68.8245 11.3684 69.4729 12.2517 69.8584 13.0888C69.9527 13.2956 70.1976 13.5024 70.4165 13.5706C71.1311 13.7955 71.8679 13.948 72.5926 14.1448C73.6224 14.4258 74.0721 14.9799 74.0962 16.0157C74.1142 16.7665 74.1162 17.5193 74.0941 18.2701C74.066 19.1896 73.6144 19.7737 72.7371 20.0267C72.0405 20.2274 71.3399 20.4282 70.6272 20.5486C70.0973 20.6369 69.8664 20.9059 69.7359 21.3958C69.6135 21.8515 69.4709 22.3313 69.208 22.7127C68.6981 23.4554 68.8346 24.0697 69.3425 24.7322C69.6757 25.1658 69.9327 25.6617 70.1956 26.1434C70.6353 26.9545 70.563 27.6772 69.9427 28.3537C69.4187 28.9258 68.8667 29.4759 68.2966 30.0018C67.5699 30.6723 66.8371 30.7365 65.9599 30.2327C65.3315 29.8713 64.7393 29.4377 64.0869 29.1286C63.8079 28.9961 63.3903 29.0101 63.0811 29.1065C62.3685 29.3313 61.702 29.7067 60.9833 29.9075C60.4634 30.052 60.2948 30.2869 60.347 30.7948C60.3851 31.1641 60.355 31.5436 60.355 32.0394C60.6581 32.0394 60.9211 32.0394 61.1821 32.0394C64.5888 32.0394 67.9954 32.0374 71.4021 32.0394C73.6987 32.0414 74.9714 33.3222 74.9714 35.6268C74.9734 47.2219 74.9734 58.8171 74.9714 70.4123C74.9714 72.753 73.7067 74.0177 71.3419 74.0177C52.7045 74.0197 34.0691 74.0197 15.4317 74.0177C14.2754 74.0177 14.0767 73.8149 14.0747 72.6647C14.0727 72.0383 14.0646 71.412 14.0787 70.7857C14.1148 69.0893 15.3012 67.7624 16.9935 67.6299C18.0635 67.5456 19.1456 67.5938 20.2216 67.5837C20.5167 67.5857 20.8098 67.5877 21.1831 67.5877ZM58.5864 32.0414C58.5864 31.6961 58.5864 31.4271 58.5864 31.1601C58.5864 28.181 58.5864 25.1999 58.5864 22.2208C58.5864 20.6149 58.1488 20.1812 56.5348 20.1812C39.3046 20.1812 22.0725 20.1812 4.84231 20.1812C3.16606 20.1812 2.75252 20.5908 2.75252 22.255C2.75252 32.0956 2.75252 41.9362 2.75252 51.7769C2.75252 52.0439 2.75252 52.3129 2.75252 52.616C13.2898 52.616 23.7427 52.616 34.2659 52.616C34.2659 52.2767 34.2659 51.9816 34.2659 51.6865C34.2659 46.4792 34.3321 41.2678 34.2357 36.0624C34.1916 33.6835 35.4302 31.9551 38.3189 32.0053C44.7529 32.1177 51.1909 32.0394 57.6288 32.0394C57.9219 32.0414 58.215 32.0414 58.5864 32.0414ZM73.2189 41.5749C60.7766 41.5749 48.4246 41.5749 36.0284 41.5749C36.0284 41.9001 36.0284 42.1731 36.0284 42.4461C36.0284 51.6845 36.0284 60.9249 36.0284 70.1633C36.0284 71.8697 36.452 72.2953 38.1584 72.2953C49.1272 72.2953 60.096 72.2953 71.0669 72.2953C72.8134 72.2953 73.2209 71.8837 73.2209 70.1152C73.2209 60.9009 73.2209 51.6865 73.2209 42.4722C73.2189 42.1972 73.2189 41.9222 73.2189 41.5749ZM2.75252 54.4669C2.75252 56.6049 2.75052 58.6766 2.75252 60.7503C2.75453 62.272 3.20621 62.7256 4.71383 62.7256C14.2754 62.7256 23.837 62.7256 33.4006 62.7256C33.6676 62.7256 33.9346 62.7256 34.2157 62.7256C34.2157 59.9212 34.2157 57.2091 34.2157 54.4669C23.7346 54.4669 13.3058 54.4669 2.75252 54.4669ZM45.3772 7.02426C45.3772 7.12464 45.3672 7.15475 45.3792 7.17281C45.8791 8.04004 46.3609 8.91731 46.8889 9.76647C47.202 10.2724 47.2121 10.708 46.9109 11.2299C46.5616 11.8322 46.134 12.4625 46.0377 13.125C45.8068 14.7049 44.8352 15.2087 43.4179 15.4737C41.6253 15.809 41.6594 15.8953 41.6293 17.702C41.6212 18.234 41.8059 18.4167 42.3198 18.4086C43.446 18.3886 44.5742 18.4026 45.7004 18.4026C46.921 18.4026 48.1415 18.4026 49.4042 18.4026C49.3882 18.0975 49.3821 17.8767 49.3621 17.6599C48.9124 12.6111 53.6882 8.45559 58.6286 9.59985C61.7422 10.3205 64.0929 12.7937 64.5687 15.8531C65.0645 19.033 63.6553 21.986 60.8428 23.7024C60.638 23.8288 60.3731 24.0757 60.367 24.2725C60.3249 25.5693 60.345 26.8681 60.345 28.3557C61.2543 27.9421 62.0634 27.633 62.8121 27.2134C63.3903 26.8902 63.86 26.8902 64.4101 27.2496C65.2231 27.7815 66.0723 28.2613 66.9957 28.8154C67.5317 28.2192 68.0617 27.633 68.6218 27.0087C68.1621 26.2217 67.6963 25.3645 67.1704 24.5455C66.803 23.9734 66.7789 23.4755 67.1403 22.8813C67.4896 22.3092 67.879 21.6909 67.9774 21.0525C68.2143 19.5208 69.1578 19.0169 70.5449 18.7579C72.3757 18.4167 72.3497 18.3344 72.3557 16.4734C72.3577 16.086 72.2613 15.8853 71.8538 15.7949C71.0006 15.6022 70.1655 15.3332 69.3123 15.1365C68.7623 15.01 68.4853 14.7109 68.2966 14.1749C67.9412 13.1651 67.5197 12.1754 67.0579 11.2098C66.8171 10.706 66.7769 10.2884 67.082 9.80863C67.6301 8.94742 68.142 8.06614 68.684 7.1688C68.1079 6.56254 67.5638 5.99041 67.0238 5.4223C66.0562 5.9864 65.1609 6.48626 64.2876 7.02426C63.8038 7.32338 63.3903 7.27921 62.8864 7.03229C61.969 6.58462 61.0295 6.16306 60.0619 5.84989C59.4055 5.6371 59.0562 5.30185 58.9176 4.63537C58.7229 3.69185 58.4639 2.76039 58.217 1.76468C57.5405 1.76468 56.9403 1.78676 56.3421 1.75665C55.9385 1.73658 55.7719 1.87911 55.6836 2.27659C55.4849 3.15385 55.2861 4.03915 54.9689 4.87626C54.8344 5.2336 54.457 5.58691 54.1017 5.75955C53.1401 6.22729 52.1063 6.5505 51.1467 7.02426C50.5826 7.3033 50.139 7.31535 49.615 6.97608C48.7819 6.43607 47.9167 5.94625 47.0515 5.42631C46.4532 5.99644 45.8972 6.52641 45.3772 7.02426ZM36.0364 39.722C48.4667 39.722 60.8007 39.722 73.2209 39.722C73.2209 38.4071 73.2229 37.1384 73.2209 35.8697C73.2189 34.2095 72.8114 33.808 71.1251 33.808C60.1342 33.808 49.1433 33.808 38.1523 33.808C37.9014 33.808 37.6505 33.8 37.4015 33.824C36.6287 33.8943 36.0666 34.4082 36.0485 35.1731C36.0104 36.6666 36.0364 38.1662 36.0364 39.722ZM60.4172 21.8274C62.7499 20.4081 63.5931 17.0777 62.3183 14.4921C60.9492 11.7137 57.7071 10.4671 54.8103 11.6073C52.1043 12.6713 50.5184 15.7126 51.3234 18.4147C52.9936 18.4147 54.6899 18.4147 56.3842 18.4147C58.9357 18.4147 59.9575 19.2678 60.4172 21.8274ZM15.8814 72.2511C22.1166 72.2511 28.3057 72.2511 34.4766 72.2511C34.3823 71.2775 34.292 70.348 34.1936 69.3383C32.4471 69.3383 30.7026 69.3383 28.9561 69.3383C25.1519 69.3383 21.3498 69.3363 17.5456 69.3403C16.6362 69.3423 16.0039 69.7257 15.8975 70.4424C15.8132 71.0205 15.8814 71.6208 15.8814 72.2511ZM34.2096 67.5436C34.2096 66.5178 34.2096 65.5361 34.2096 64.5504C30.4416 64.5504 26.7278 64.5504 22.9999 64.5504C22.9999 65.5682 22.9999 66.5338 22.9999 67.5436C26.7519 67.5436 30.4657 67.5436 34.2096 67.5436Z" stroke="#0C253D" stroke-width="4" mask="url(#path-11-inside-1_5921_2092)"/>
<path d="M14.6798 41.2487L14.6796 41.2491C14.5241 41.5824 14.3819 41.7266 14.2894 41.7804C14.228 41.8162 14.1577 41.8335 14.0206 41.7734L14.0193 41.7728C13.8878 41.7156 13.8535 41.6524 13.8395 41.5818C13.8189 41.4777 13.8335 41.2775 13.9823 40.9562C14.3673 40.126 14.7555 39.2984 15.1442 38.4697C15.3388 38.0548 15.5336 37.6397 15.7281 37.2237L15.7283 37.2234C16.0972 36.433 16.466 35.6427 16.8347 34.8524C18.1136 32.1116 19.3922 29.3715 20.6745 26.6324L20.6752 26.631C20.7046 26.5676 20.7319 26.5006 20.7542 26.4459C20.7563 26.4407 20.7584 26.4356 20.7604 26.4306C20.7859 26.3682 20.8061 26.3195 20.8267 26.2769C20.8436 26.2418 20.8563 26.2202 20.8647 26.2077C20.9643 26.1526 21.0788 26.1036 21.1853 26.0753C21.2419 26.0603 21.289 26.053 21.3252 26.0512C21.3428 26.0504 21.3555 26.0509 21.3639 26.0517C21.375 26.061 21.4092 26.0906 21.4698 26.1682C21.503 26.2108 21.5341 26.254 21.5711 26.3053C21.5785 26.3156 21.5861 26.3262 21.5941 26.3372C21.58 26.3765 21.5669 26.4131 21.5546 26.4478C21.4955 26.6134 21.4533 26.7318 21.3959 26.8569C19.1599 31.6562 16.9218 36.4535 14.6798 41.2487Z" stroke="#0C253D"/>
<path d="M12.7003 31.3223L8.24708 33.4677L8.22667 33.4579L12.7003 31.1794V31.3223ZM7.59726 33.7785L7.71939 34.0227L7.59726 34.267L7.29688 34.114V33.9315L7.59726 33.7785ZM12.7003 36.7232V36.8661L8.22667 34.5876L8.24708 34.5777L12.7003 36.7232Z" stroke="#F7B019"/>
<path d="M23.2978 31.3223L27.751 33.4677L27.7714 33.4579L23.2978 31.1794V31.3223ZM28.4008 33.7785L28.2787 34.0227L28.4008 34.267L28.7012 34.114V33.9315L28.4008 33.7785ZM23.2978 36.7232V36.8661L27.7714 34.5876L27.751 34.5777L23.2978 36.7232Z" stroke="#F7B019"/>
<line x1="40.3939" y1="46.0809" x2="68.3939" y2="58.0809" stroke="#F7B019" stroke-width="2"/>
<line x1="68.3939" y1="45.9191" x2="40.3939" y2="57.9191" stroke="#F7B019" stroke-width="2"/>
<rect x="40" y="45" width="29" height="14" rx="1" stroke="#F7B019" stroke-width="1.5"/>
<path d="M40.1793 63.8597L40.1797 63.8597C41.4288 63.864 42.6773 63.8632 43.9271 63.8624C44.4277 63.862 44.9285 63.8617 45.4296 63.8617C45.935 63.8617 46.4412 63.8611 46.9478 63.8604C48.2169 63.8588 49.4888 63.8571 50.7587 63.8657L40.1793 63.8597ZM40.1793 63.8597C39.8324 63.8588 39.6516 63.7859 39.5728 63.7254M40.1793 63.8597L39.5728 63.7254M51.4468 63.4601L51.4469 63.4595C51.4588 63.3517 51.4283 63.2935 51.3593 63.2406C51.2673 63.1701 51.0743 63.094 50.7483 63.0931C48.5456 63.0894 46.3427 63.0895 44.1395 63.0897C42.8172 63.0898 41.4946 63.0899 40.172 63.0891L51.4468 63.4601ZM51.4468 63.4601C51.4228 63.6796 51.35 63.7411 51.295 63.774M51.4468 63.4601L51.295 63.774M39.5728 63.7254C39.523 63.6871 39.4805 63.6327 39.492 63.484M39.5728 63.7254L39.492 63.484M39.492 63.484C39.502 63.3614 39.5288 63.2934 39.55 63.2568C39.5694 63.2232 39.5935 63.1993 39.6297 63.1781C39.7204 63.125 39.8862 63.0891 40.1717 63.0891L39.492 63.484ZM51.295 63.774C51.2044 63.8284 51.0397 63.8676 50.7588 63.8657L51.295 63.774Z" stroke="#0C253D"/>
<path d="M39.8269 68.4931L39.8277 68.4931C40.6942 68.498 41.5598 68.4971 42.4274 68.4961C42.7752 68.4958 43.1234 68.4954 43.4721 68.4954C43.8218 68.4954 44.1726 68.4947 44.524 68.4939C45.4061 68.4921 46.2923 68.4902 47.1761 68.4999L39.8269 68.4931ZM39.8269 68.4931C39.6634 68.4925 39.608 68.4436 39.5829 68.4124C39.5465 68.367 39.4892 68.2478 39.5017 67.9872C39.5191 67.6399 39.6002 67.5519 39.6128 67.54C39.6218 67.5315 39.6585 67.5 39.8205 67.5C40.7397 67.5008 41.6584 67.5007 42.5769 67.5006C44.1066 67.5005 45.6355 67.5003 47.1649 67.5045C47.3059 67.5052 47.3735 67.5524 47.412 67.6002C47.4578 67.657 47.5129 67.7804 47.4974 68.0077L47.4973 68.0081M39.8269 68.4931L47.4973 68.0081M47.4973 68.0081C47.4748 68.3424 47.3956 68.4387 47.3757 68.458M47.4973 68.0081L47.3757 68.458M47.3757 68.458C47.3636 68.4698 47.326 68.5015 47.1764 68.4999L47.3757 68.458Z" stroke="#F7B019"/>
<path d="M57.8269 68.4931L57.8277 68.4931C58.6942 68.498 59.5598 68.4971 60.4274 68.4961C60.7752 68.4958 61.1234 68.4954 61.4721 68.4954C61.8218 68.4954 62.1726 68.4947 62.524 68.4939C63.4061 68.4921 64.2923 68.4902 65.1761 68.4999L57.8269 68.4931ZM57.8269 68.4931C57.6634 68.4925 57.608 68.4436 57.5829 68.4124C57.5465 68.367 57.4892 68.2478 57.5017 67.9872C57.5191 67.6399 57.6002 67.5519 57.6128 67.54C57.6218 67.5315 57.6585 67.5 57.8205 67.5C58.7397 67.5008 59.6584 67.5007 60.5769 67.5006C62.1066 67.5005 63.6355 67.5003 65.1649 67.5045C65.3059 67.5052 65.3735 67.5524 65.412 67.6002C65.4578 67.657 65.5129 67.7804 65.4974 68.0077L65.4973 68.0081M57.8269 68.4931L65.4973 68.0081M65.4973 68.0081C65.4748 68.3424 65.3956 68.4387 65.3757 68.458M65.4973 68.0081L65.3757 68.458M65.3757 68.458C65.3636 68.4698 65.326 68.5015 65.1764 68.4999L65.3757 68.458Z" stroke="#F7B019"/>
<path d="M69.0669 63.8578L69.0673 63.8578C69.4062 63.8569 69.6022 63.783 69.6941 63.715C69.7592 63.6669 69.79 63.6146 69.7794 63.5048C69.7578 63.285 69.6851 63.2199 69.629 63.1849C69.5395 63.1292 69.3761 63.0872 69.099 63.0872C67.3363 63.0892 65.5732 63.0892 63.8103 63.0892H63.81C62.047 63.0892 60.2844 63.0892 58.5223 63.0912C58.1803 63.0921 57.9994 63.165 57.9167 63.2281C57.8576 63.2732 57.8125 63.3378 57.8166 63.4864L69.0669 63.8578ZM69.0669 63.8578C67.6484 63.8626 66.2287 63.8622 64.8088 63.8619C64.4535 63.8618 64.0981 63.8618 63.7428 63.8618C63.311 63.8618 62.8791 63.8619 62.4473 63.862M69.0669 63.8578L62.4473 63.862M62.4473 63.862C61.154 63.8624 59.8609 63.8628 58.5687 63.8598L62.4473 63.862ZM58.5687 63.8598C58.2013 63.8589 58.0113 63.7916 57.9237 63.7311C57.8662 63.6913 57.8209 63.6362 57.8167 63.4866L58.5687 63.8598Z" stroke="#0C253D"/>
<path d="M31.8253 58.6184C31.8053 59.2828 31.2652 59.7707 30.5887 59.7345C29.9503 59.7004 29.4786 59.1865 29.4987 58.5461C29.5187 57.8796 30.0587 57.3918 30.7373 57.4299C31.3736 57.4641 31.8454 57.98 31.8253 58.6184Z" fill="#F7B019"/>
<path d="M44.3836 35.6227C45.03 35.6268 45.5178 36.1025 45.5318 36.7429C45.5459 37.4134 45.038 37.9313 44.3695 37.9273C43.701 37.9233 43.2032 37.4014 43.2232 36.7269C43.2413 36.0905 43.7351 35.6207 44.3836 35.6227Z" fill="#F7B019"/>
<path d="M40.1705 37.9273C39.5 37.9353 38.9901 37.4214 39.0022 36.7489C39.0122 36.1085 39.496 35.6308 40.1444 35.6227C40.7908 35.6167 41.2907 36.0845 41.3128 36.7208C41.3348 37.3913 40.835 37.9213 40.1705 37.9273Z" fill="#F7B019"/>
<path d="M49.7542 36.761C49.7602 37.4274 49.2402 37.9393 48.5718 37.9273C47.9354 37.9152 47.4476 37.4214 47.4395 36.785C47.4315 36.1166 47.9474 35.6127 48.6219 35.6247C49.2744 35.6368 49.7501 36.1166 49.7542 36.761Z" fill="#F7B019"/>
</svg>
