<svg width="61" height="80" viewBox="0 0 61 80" fill="none" xmlns="http://www.w3.org/2000/svg">
<path d="M55.9694 16.4932C54.4443 15.3555 52.2801 14.647 49.5248 14.3266C52.0609 11.5391 55.3026 8.19449 59.2519 4.29164L59.254 4.28956C59.4935 4.0501 59.6285 3.74794 59.6285 3.404C59.6285 3.17873 59.5153 2.99019 59.4317 2.87238C59.336 2.73746 59.2062 2.59694 59.0557 2.45332C58.7583 2.1694 58.3291 1.82548 57.7792 1.42447C57.4655 1.12842 57.0598 1.004 56.6205 1.004C56.1272 1.004 55.6504 1.21188 55.2003 1.54523C51.9217 3.54843 47.0701 7.82203 40.6634 14.32C35.3679 14.7412 30.4638 15.8871 25.9548 17.7613C21.3582 19.6211 18.1103 22.4057 16.272 26.1349L16.272 26.1349L16.2702 26.1386C15.5294 27.673 15.1565 29.2671 15.1565 30.916C15.1565 32.5903 16.0818 34.3431 17.7716 36.1628C17.7681 36.1641 17.7645 36.1655 17.7609 36.1668C17.476 36.2737 17.0368 36.4145 16.4353 36.59C15.2527 36.8988 13.7966 37.3591 12.07 37.9685L12.0656 37.9701C10.37 38.5867 8.65162 39.3563 6.91051 40.2781L6.91049 40.2781L6.90503 40.2811C5.16619 41.2295 3.66861 42.5451 2.41245 44.22L2.4109 44.2221C1.17008 45.8945 0.564453 47.9552 0.564453 50.372C0.564453 52.8803 1.84571 55.4291 4.27212 58.0105L4.27576 58.0143C6.69978 60.5393 10.7048 62.2681 16.1982 63.2638C14.5639 65.4085 13.3092 67.2974 12.4411 68.928C11.4912 70.7123 10.9765 72.2378 10.9765 73.476C10.9765 74.7165 11.2469 75.8613 11.794 76.9009L11.7987 76.9098L11.8037 76.9185C12.0957 77.4229 12.3985 77.8327 12.718 78.1218C13.0378 78.4112 13.4119 78.612 13.8325 78.612C14.1809 78.612 14.5142 78.5137 14.7783 78.2716C15.0115 78.0578 15.1462 77.7727 15.2164 77.4635C16.6792 75.1044 19.77 70.6528 24.5002 64.096H26.1445C33.5387 64.096 40.4567 63.0505 46.8952 60.9555L46.8952 60.9555L46.9009 60.9536C50.0913 59.8729 52.6907 58.4233 54.6792 56.5918L54.6796 56.5914C56.7381 54.6913 57.8045 52.5127 57.8045 50.068C57.8045 48.1975 57.3569 46.7019 56.3736 45.6752C55.3863 44.6444 53.9418 44.172 52.1365 44.172C50.1253 44.172 47.4775 44.7773 44.2173 45.9488C40.9687 47.0835 38.0281 48.7603 35.3982 50.9777L35.1722 51.1683L35.2302 51.4581C35.255 51.5825 35.2729 51.6778 35.2843 51.7462C35.2885 51.7715 35.2915 51.7915 35.2937 51.8067C35.2944 51.812 35.295 51.8168 35.2956 51.821C35.2959 51.8241 35.2962 51.8266 35.2965 51.8285V52.316H35.7965H35.7968H35.7971H35.7974H35.7977H35.798H35.7983H35.7986H35.7989H35.7992H35.7995H35.7999H35.8002H35.8005H35.8008H35.8012H35.8015H35.8018H35.8022H35.8025H35.8029H35.8032H35.8035H35.8039H35.8042H35.8046H35.805H35.8053H35.8057H35.806H35.8064H35.8068H35.8071H35.8075H35.8079H35.8083H35.8086H35.809H35.8094H35.8098H35.8102H35.8106H35.811H35.8114H35.8118H35.8122H35.8126H35.813H35.8134H35.8138H35.8142H35.8146H35.815H35.8154H35.8159H35.8163H35.8167H35.8171H35.8176H35.818H35.8184H35.8189H35.8193H35.8198H35.8202H35.8207H35.8211H35.8216H35.822H35.8225H35.8229H35.8234H35.8238H35.8243H35.8248H35.8252H35.8257H35.8262H35.8267H35.8271H35.8276H35.8281H35.8286H35.8291H35.8296H35.8301H35.8306H35.8311H35.8316H35.8321H35.8326H35.8331H35.8336H35.8341H35.8346H35.8351H35.8356H35.8362H35.8367H35.8372H35.8377H35.8383H35.8388H35.8393H35.8399H35.8404H35.841H35.8415H35.842H35.8426H35.8431H35.8437H35.8443H35.8448H35.8454H35.8459H35.8465H35.8471H35.8476H35.8482H35.8488H35.8494H35.8499H35.8505H35.8511H35.8517H35.8523H35.8529H35.8535H35.854H35.8546H35.8552H35.8559H35.8565H35.8571H35.8577H35.8583H35.8589H35.8595H35.8601H35.8607H35.8614H35.862H35.8626H35.8633H35.8639H35.8645H35.8652H35.8658H35.8664H35.8671H35.8677H35.8684H35.869H35.8697H35.8703H35.871H35.8717H35.8723H35.873H35.8736H35.8743H35.875H35.8757H35.8763H35.877H35.8777H35.8784H35.8791H35.8797H35.8804H35.8811H35.8818H35.8825H35.8832H35.8839H35.8846H35.8853H35.886H35.8868H35.8875H35.8882H35.8889H35.8896H35.8903H35.8911H35.8918H35.8925H35.8933H35.894H35.8947H35.8955H35.8962H35.8969H35.8977H35.8984H35.8992H35.8999H35.9007H35.9015H35.9022H35.903H35.9037H35.9045H35.9053H35.9061H35.9068H35.9076H35.9084H35.9092H35.9099H35.9107H35.9115H35.9123H35.9131H35.9139H35.9147H35.9155H35.9163H35.9171H35.9179H35.9187H35.9195H35.9203H35.9211H35.922H35.9228H35.9236H35.9244H35.9253H35.9261H35.9269H35.9277H35.9286H35.9294H35.9303H35.9311H35.932H35.9328H35.9337H35.9345H35.9354H35.9362H35.9371H35.9379H35.9388H35.9397H35.9405H35.9414H35.9423H35.9432H35.944H35.9449H35.9458H35.9467H35.9476H35.9485H35.9493H35.9502H35.9511H35.952H35.9529H35.9538H35.9547H35.9557H35.9566H35.9575H35.9584H35.9593H35.9602H35.9612H35.9621H35.963H35.9639H35.9649H35.9658H35.9667H35.9677H35.9686H35.9696H35.9705H35.9714H35.9724H35.9734H35.9743H35.9753H35.9762H35.9772H35.9781H35.9791H35.9801H35.981H35.982H35.983H35.984H35.985H35.9859H35.9869H35.9879H35.9889H35.9899H35.9909H35.9919H35.9929H35.9939H35.9949H35.9959H35.9969H35.9979H35.9989H35.9999H36.0009H36.002H36.003H36.004H36.005H36.0061H36.0071H36.0081H36.0092H36.0102H36.0112H36.0123H36.0133H36.0144H36.0154H36.0165H36.0175H36.0186H36.0197H36.0207H36.0218H36.0228H36.0239H36.025H36.0261H36.0271H36.0282H36.0293H36.0304H36.0315H36.0325H36.0336H36.0347H36.0358H36.0369H36.038H36.0391H36.0402H36.0413H36.0424H36.0435H36.0446H36.0458H36.0469H36.048H36.0491H36.0502H36.0514H36.0525H36.0536H36.0548H36.0559H36.057H36.0582H36.0593H36.0605H36.0616H36.0628H36.0639H36.0651H36.0662H36.0674H36.0685H36.0697H36.0709H36.072H36.0732H36.0744H36.0756H36.0767H36.0779H36.0791H36.0803H36.0815H36.0826H36.0838H36.085H36.0862H36.0874H36.0886H36.0898H36.091H36.0922H36.0934H36.0947H36.0959H36.0971H36.0983H36.0995H36.1008H36.102H36.1032H36.1044H36.1057H36.1069H36.1081H36.1094H36.1106H36.1119H36.1131H36.1144H36.1156H36.1169H36.1181H36.1194H36.1206H36.1219H36.1232H36.1244H36.1257H36.127H36.1283H36.1295H36.1308H36.1321H36.1334H36.1347H36.136H36.1372H36.1385H36.1398H36.1411H36.1424H36.1437H36.145H36.1463H36.1477H36.149H36.1503H36.1516H36.1529H36.1542H36.1556H36.1569H36.1582H36.1595H36.1609H36.1622H36.1635H36.1649H36.1662H36.1676H36.1689H36.1703H36.1716H36.173H36.1743H36.1757H36.177H36.1784H36.1798H36.1811H36.1825H36.1839H36.1853H36.1866H36.188H36.1894H36.1908H36.1922H36.1935H36.1949H36.1963H36.1977H36.1991H36.2005H36.2019H36.2033H36.2047H36.2061H36.2076H36.209H36.2104H36.2118H36.2132H36.2146H36.2161H36.2175H36.2189H36.2204H36.2218H36.2232H36.2247H36.2261H36.2276H36.229H36.2305H36.2319H36.2334H36.2348H36.2363H36.2377H36.2392H36.2407H36.2421H36.2436H36.2451H36.2465H36.248H36.2495H36.251H36.2525C36.6617 52.316 37.1945 52.1547 37.8061 51.9003C38.0939 51.7907 38.6807 51.6401 39.6021 51.4508C40.518 51.2626 41.7335 51.0421 43.2507 50.7892C46.3275 50.2848 48.8308 50.036 50.7685 50.036C51.7494 50.036 52.4543 50.0806 52.9031 50.1611C52.9485 50.1693 52.9898 50.1776 53.0273 50.1858C52.9453 50.2514 52.8419 50.3268 52.7141 50.412C52.2483 50.7225 51.5312 51.1162 50.5495 51.5945C48.6242 52.5325 45.5774 53.5103 41.3814 54.5214C37.272 55.4734 32.5744 55.952 27.2845 55.952C22.0773 55.952 16.8401 55.0009 11.5706 53.0938C8.92312 52.1357 6.96982 51.2389 5.68724 50.4083C5.04579 49.9929 4.59336 49.6075 4.30578 49.2569C4.019 48.9073 3.92045 48.6232 3.92045 48.396C3.92045 47.8319 4.25301 47.2078 5.13157 46.5311C6.00776 45.8562 7.35651 45.187 9.2102 44.5357C12.9306 43.2286 16.803 42.2477 20.8279 41.5937C24.9151 40.9377 28.0718 40.6133 30.3112 40.612L34.5537 40.8393L34.5671 40.84H34.5805C35.4485 40.84 36.1799 40.5672 36.6788 39.9519C37.1615 39.3566 37.3605 38.5199 37.3605 37.528C37.3605 36.3376 37.0568 35.336 36.1652 34.9488C35.8126 34.7621 35.3474 34.6408 34.8032 34.563C34.2398 34.4825 33.5557 34.444 32.7565 34.444H31.3125C29.5603 34.444 27.808 34.344 26.0555 34.144C23.5418 33.7917 21.7046 33.3192 20.5088 32.7452C19.2969 32.1635 18.8925 31.5575 18.8925 30.992C18.8925 30.9943 18.8924 30.9955 18.8925 30.9955C18.8929 30.9955 18.8958 30.9642 18.9155 30.8853C18.935 30.8074 18.9653 30.7045 19.0081 30.5743C19.5346 29.5203 20.6315 28.4721 22.3864 27.4534C24.1514 26.429 26.5365 25.4608 29.5561 24.5549L29.5561 24.5549L29.5598 24.5538C35.5987 22.6918 41.3756 21.764 46.8925 21.764C49.6886 21.764 51.9262 21.9344 53.6168 22.2676C55.3164 22.6025 56.3834 23.0874 56.9349 23.6531C57.089 23.8323 57.2302 23.9819 57.3552 24.0913C57.4187 24.1468 57.4897 24.2024 57.5655 24.2466C57.6309 24.2848 57.7552 24.348 57.9125 24.348H58.3461L58.4074 23.9187C58.5115 23.19 58.5645 22.5074 58.5645 21.872C58.5645 19.5988 57.7017 17.7856 55.9694 16.4932ZM53.2529 49.9657C53.2529 49.9658 53.2525 49.9665 53.2516 49.968C53.2524 49.9664 53.2529 49.9657 53.2529 49.9657Z" stroke="black"/>
</svg>
