<svg width="81" height="75" viewBox="0 0 81 75" fill="none" xmlns="http://www.w3.org/2000/svg">
<ellipse cx="32.6564" cy="41.3109" rx="29.4767" ry="29.2875" fill="#FFF8E8"/>
<ellipse cx="46.9454" cy="32.4359" rx="29.4767" ry="29.2875" fill="#FCF0D7"/>
<path d="M77.3203 14.6836L78.3284 16.3445L80 17.3461L78.3284 18.3477L77.3203 20.0086L76.3123 18.3477L74.6406 17.3461L76.3123 16.3445L77.3203 14.6836Z" fill="#FCEDCD"/>
<path d="M18.141 3.10606L20.0798 3.33136L21.9005 2.63165L21.6737 4.55806L22.3779 6.36698L20.4391 6.14168L18.6185 6.8414L18.8452 4.91499L18.141 3.10606Z" fill="#FCEDCD"/>
<path d="M14.7891 68.8203L15.7971 70.4812L17.4688 71.4828L15.7971 72.4844L14.7891 74.1453L13.781 72.4844L12.1094 71.4828L13.781 70.4812L14.7891 68.8203Z" fill="#FCEDCD"/>
<path d="M61.5556 70.6281C61.4068 70.1844 61.4663 69.2969 62.8955 69.2969" stroke="#FCEDCD"/>
<path d="M0.55563 54.1789C0.406758 53.7352 0.466307 52.8477 1.89548 52.8477" stroke="#FCEDCD"/>
<path d="M79.1572 46.1906C79.0083 45.7469 79.0679 44.8594 80.497 44.8594" stroke="#FCEDCD"/>
<path d="M1.55563 24.4797C1.40676 24.0359 1.46631 23.1484 2.89548 23.1484" stroke="#FCEDCD"/>
<path d="M51.9759 1.31672C51.5687 1.54742 50.6861 1.65808 50.4138 0.255088" stroke="#FCEDCD"/>
<g clip-path="url(#clip0_9800_5535)">
<mask id="path-11-inside-1_9800_5535" fill="white">
<path d="M17.2441 7C19.2493 7 21.2544 7 23.3203 7C23.3793 7.82564 23.3793 7.82564 23.4395 8.66797C23.8475 9.16661 23.8475 9.16661 24.2669 9.20782C24.7359 9.12626 24.893 8.95605 25.2117 8.6084C25.3047 8.50888 25.3978 8.40936 25.4937 8.30682C25.5628 8.22942 25.6319 8.15202 25.7031 8.07227C26.1517 8.24717 26.3009 8.46438 26.5439 8.8722C27.2587 9.8998 28.0456 10.7201 29.3099 10.9559C31.1013 11.1966 32.9363 11.1128 34.7382 11.0745C35.4574 11.0618 36.1765 11.0611 36.8958 11.0603C38.3199 11.0585 39.7437 11.0459 41.1677 11.026C42.5458 11.0067 43.9239 10.9914 45.3021 10.9822C45.3872 10.9817 45.4723 10.9811 45.5599 10.9805C46.4899 10.9743 47.42 10.9691 48.35 10.9642C48.597 10.9629 48.844 10.9616 49.0911 10.9603C49.254 10.9594 49.4169 10.9586 49.5798 10.9578C50.6118 10.9524 51.6437 10.9431 52.6756 10.9295C53.267 10.922 53.8585 10.9163 54.4499 10.9108C54.7233 10.9079 54.9967 10.904 55.2701 10.8993C57.9026 10.854 57.9026 10.854 58.9434 11.4082C59.0792 11.4721 59.215 11.536 59.3549 11.6018C59.4703 11.6643 59.5858 11.7268 59.7047 11.7912C59.8369 11.8623 59.969 11.9334 60.1051 12.0066C60.2427 12.0819 60.3802 12.1572 60.522 12.2347C60.6699 12.3149 60.8179 12.3949 60.9658 12.4749C61.9659 13.0172 62.9565 13.5757 63.9441 14.1404C65.1055 14.8006 66.2866 15.4233 67.4692 16.0444C68.4922 16.5826 69.5002 17.1425 70.5 17.7227C70.3382 18.208 70.1333 18.2449 69.6837 18.4775C69.612 18.5151 69.5403 18.5527 69.4665 18.5914C69.3117 18.6724 69.1566 18.753 69.0013 18.833C68.5887 19.0459 68.1781 19.2624 67.7672 19.4786C67.6846 19.5219 67.602 19.5653 67.5168 19.61C66.81 19.9818 66.115 20.3717 65.4216 20.7682C63.8721 21.6451 62.2999 22.4815 60.7305 23.3223C60.6911 28.3154 60.6518 33.3086 60.6113 38.4531C60.8865 38.4531 61.1618 38.4531 61.4453 38.4531C61.5814 38.9747 61.7171 39.4963 61.8525 40.018C61.8987 40.1955 61.9449 40.3731 61.9912 40.5505C62.0577 40.8054 62.1239 41.0603 62.1899 41.3153C62.2108 41.3949 62.2316 41.4744 62.2531 41.5564C62.3984 42.1194 62.3984 42.1194 62.3984 42.3848C62.5164 42.3848 62.6343 42.3848 62.7559 42.3848C62.7681 42.2581 62.7804 42.1314 62.7931 42.0008C62.8804 41.3036 63.0593 40.6298 63.2324 39.9498C63.265 39.8187 63.2975 39.6877 63.3311 39.5526C63.5742 38.5879 63.5742 38.5879 63.709 38.4531C64.0613 38.4426 64.4108 38.4394 64.7631 38.4415C64.9215 38.4417 64.9215 38.4417 65.0831 38.442C65.4218 38.4427 65.7605 38.4442 66.0992 38.4457C66.3283 38.4463 66.5573 38.4468 66.7864 38.4473C67.3491 38.4486 67.9119 38.4507 68.4746 38.4531C68.4885 39.551 68.499 40.6488 68.5055 41.7467C68.5086 42.2567 68.5128 42.7665 68.5195 43.2764C68.5261 43.7693 68.5296 44.2621 68.5311 44.755C68.5322 44.9422 68.5344 45.1294 68.5376 45.3166C68.5574 46.5104 68.5144 47.5478 67.6507 48.465C66.254 49.7715 66.254 49.7715 65.6152 49.7715C65.6277 49.9194 65.6277 49.9194 65.6405 50.0703C65.8419 52.4686 66.0273 54.868 66.2008 57.2685C66.2224 57.5661 66.2441 57.8636 66.2659 58.1612C66.2969 58.5843 66.3273 59.0075 66.3575 59.4307C66.3668 59.5565 66.3761 59.6824 66.3857 59.812C66.4381 60.5571 66.4606 61.296 66.4492 62.043C66.5318 62.0403 66.6144 62.0377 66.6996 62.035C67.0356 62.0249 67.3715 62.0191 67.7076 62.0132C67.8257 62.0092 67.9437 62.0052 68.0653 62.0011C68.8294 61.9909 69.2854 62.0605 69.9043 62.5195C70.5261 63.3213 70.5249 63.9569 70.5298 64.9321C70.5322 65.0542 70.5347 65.1763 70.5372 65.3021C70.5419 66.2026 70.4584 66.8017 69.8522 67.5011C69.2983 67.9739 68.8848 68.0347 68.1671 68.0303C68.0752 68.0307 67.9833 68.0311 67.8887 68.0315C67.5791 68.0325 67.2695 68.0318 66.9598 68.0311C66.7363 68.0314 66.5128 68.0319 66.2893 68.0324C65.6737 68.0337 65.0581 68.0334 64.4425 68.0329C63.7791 68.0326 63.1158 68.0337 62.4524 68.0346C61.1522 68.0361 59.852 68.0363 58.5519 68.036C57.4954 68.0358 56.4389 68.036 55.3824 68.0365C55.2322 68.0366 55.082 68.0367 54.9273 68.0367C54.6223 68.0369 54.3172 68.037 54.0121 68.0372C51.9629 68.0381 49.9136 68.0386 47.8643 68.0381C47.744 68.0381 47.744 68.0381 47.6214 68.038C47.215 68.0379 46.8087 68.0378 46.4023 68.0377C46.3216 68.0377 46.2409 68.0377 46.1578 68.0377C45.9946 68.0376 45.8314 68.0376 45.6682 68.0375C43.1287 68.0369 40.5892 68.0379 38.0497 68.0401C35.1975 68.0425 32.3454 68.0438 29.4932 68.0433C27.9827 68.0431 26.4722 68.0434 24.9616 68.0451C23.6757 68.0465 22.3897 68.0467 21.1038 68.0452C20.4474 68.0445 19.791 68.0444 19.1346 68.0458C18.534 68.0471 17.9335 68.0467 17.3329 68.0451C17.1153 68.0448 16.8977 68.045 16.6801 68.046C16.3849 68.0472 16.0898 68.0462 15.7946 68.0446C15.7096 68.0455 15.6246 68.0464 15.5371 68.0473C14.7983 68.0392 14.3379 67.834 13.8188 67.3149C13.2072 66.4315 13.2831 65.5356 13.297 64.4959C13.2982 64.3324 13.2994 64.1689 13.3005 64.0054C13.303 63.6507 13.3063 63.2961 13.3102 62.9414C13.3164 62.3641 13.321 61.7869 13.3252 61.2096C13.3299 60.5875 13.3346 59.9655 13.3399 59.3435C13.3529 57.7995 13.3614 56.2556 13.3672 54.7116C13.3676 54.5998 13.368 54.4879 13.3684 54.3727C13.3719 53.4518 13.3752 52.531 13.3784 51.6101C13.3813 50.7809 13.3843 49.9517 13.3876 49.1225C13.3883 48.9452 13.3883 48.9452 13.389 48.7643C13.3968 46.8527 13.4132 44.9413 13.4325 43.0297C13.4522 41.0638 13.4618 39.098 13.4623 37.132C13.463 35.9213 13.4715 34.7112 13.4903 33.5007C13.5025 32.669 13.5048 31.8378 13.4998 31.0061C13.4971 30.5274 13.4986 30.0496 13.5118 29.5711C13.5549 27.9313 13.5872 26.4467 12.4093 25.1835C11.9076 24.6764 11.3629 24.2232 10.7945 23.7926C10.7212 23.716 10.6478 23.6394 10.5723 23.5605C10.5893 23.2326 10.6577 23.1202 10.8813 22.8801C10.9562 22.8147 11.0312 22.7493 11.1084 22.6819C11.3957 22.404 11.5228 22.2565 11.6743 21.8777C11.6676 21.5205 11.6676 21.5205 11.4509 21.2001C10.9112 20.8048 10.9112 20.8048 9.5 20.8203C9.5 18.8545 9.5 16.8887 9.5 14.8633C10.2667 14.8043 10.2667 14.8043 11.0488 14.7441C11.4651 14.5176 11.4651 14.5176 11.6445 14.1484C11.7107 13.7973 11.7107 13.7973 11.5254 13.4336C11.2831 13.1764 11.0326 12.941 10.7649 12.7104C10.6696 12.5966 10.6696 12.5966 10.5723 12.4805C10.6158 12.0718 10.7792 11.8722 11.0658 11.5889C11.1445 11.5102 11.2233 11.4315 11.3043 11.3505C11.3897 11.2669 11.4751 11.1834 11.5631 11.0973C11.6502 11.0107 11.7373 10.9241 11.827 10.8349C12.1054 10.5585 12.385 10.2834 12.6647 10.0083C12.8536 9.82114 13.0425 9.6339 13.2313 9.44657C13.6943 8.98752 14.1583 8.52951 14.623 8.07227C15.0032 8.25269 15.2596 8.44799 15.5613 8.74243C15.8858 9.03249 16.0103 9.13653 16.4474 9.21899C16.8109 9.16419 16.8109 9.16419 17.125 8.78711C17.1643 8.19736 17.2036 7.60762 17.2441 7ZM19.2695 9.02539C19.2032 9.19003 19.1368 9.35467 19.0685 9.52429C18.6965 10.3541 18.1591 10.772 17.3633 11.1699C16.4329 11.449 15.6351 11.2252 14.7422 10.9316C14.3097 11.3641 13.8772 11.7966 13.4316 12.2422C13.5103 12.5174 13.5889 12.7926 13.6699 13.0762C13.7856 14.2693 13.6879 15.0896 12.9327 16.0175C12.4922 16.3797 12.0309 16.6246 11.5254 16.8887C11.5254 17.5571 11.5254 18.2254 11.5254 18.9141C11.6753 18.9657 11.8252 19.0173 11.9796 19.0704C12.3577 19.2006 12.5586 19.3452 12.8359 19.6289C12.9146 19.6289 12.9932 19.6289 13.0742 19.6289C13.1562 19.7865 13.2347 19.9458 13.3125 20.1055C13.3764 20.2185 13.4403 20.3315 13.5061 20.448C13.9048 21.3829 13.7319 22.5035 13.4316 23.4414C13.8292 23.9446 14.2147 24.3823 14.7422 24.752C15.1486 24.7509 15.4284 24.6482 15.8075 24.5062C16.5609 24.2753 17.3158 24.4899 18.0037 24.8339C18.6561 25.4086 18.9888 25.8159 19.2695 26.6582C19.9379 26.6582 20.6063 26.6582 21.2949 26.6582C21.376 26.4764 21.4571 26.2945 21.5406 26.1072C21.8946 25.3992 22.319 24.9761 23.0076 24.5956C24.0234 24.3295 24.8344 24.4227 25.8223 24.752C26.6991 24.081 26.6991 24.081 27.1668 23.1575C27.0993 22.8948 27.0993 22.8948 26.9955 22.6367C26.7428 21.9672 26.8262 21.2617 27.0956 20.6118C27.5712 19.6755 28.0764 19.2877 29.0391 18.9141C29.0391 18.2064 29.0391 17.4987 29.0391 16.7695C28.8769 16.7081 28.7147 16.6467 28.5476 16.5834C27.7981 16.2475 27.3559 15.7548 27.0286 15.0048C26.7806 14.2446 26.8107 13.5244 27.0956 12.7858C27.1847 12.5247 27.1847 12.5247 27.1328 12.2422C26.747 11.7413 26.3043 11.3384 25.8223 10.9316C25.7515 10.9588 25.6807 10.986 25.6077 11.014C24.6462 11.3475 23.7538 11.3931 22.8065 10.9763C21.9832 10.509 21.6631 9.88446 21.2949 9.02539C20.6265 9.02539 19.9582 9.02539 19.2695 9.02539ZM29.0944 13.237C28.8781 13.6284 28.8374 13.8272 28.9199 14.2676C29.097 14.6441 29.097 14.6441 29.5156 14.8633C30.0814 14.9139 30.6134 14.8899 31.1836 14.8633C31.1836 15.4923 31.1836 16.1214 31.1836 16.7695C39.558 16.7695 47.9324 16.7695 56.5605 16.7695C56.5605 15.5114 56.5605 14.2533 56.5605 12.957C53.1081 12.9436 49.6557 12.9329 46.2033 12.9266C45.7958 12.9259 45.3884 12.9251 44.981 12.9243C44.8999 12.9242 44.8188 12.924 44.7352 12.9238C43.4212 12.9212 42.1071 12.9165 40.7931 12.9111C39.4452 12.9055 38.0973 12.9022 36.7493 12.901C35.9921 12.9002 35.2348 12.8984 34.4775 12.894C33.7652 12.89 33.053 12.8888 32.3407 12.8897C32.0788 12.8895 31.817 12.8883 31.5551 12.886C31.1984 12.8831 30.8418 12.8838 30.485 12.8854C30.3807 12.8837 30.2764 12.8819 30.169 12.8801C29.5708 12.8864 29.5708 12.8864 29.0944 13.237ZM58.7051 13.791C58.7051 16.4645 58.7051 19.138 58.7051 21.8926C59.2291 21.7179 59.6099 21.5671 60.0766 21.3006C60.1963 21.2326 60.316 21.1645 60.4394 21.0944C60.5625 21.0236 60.6856 20.9528 60.8124 20.8799C60.9369 20.8091 61.0613 20.7383 61.1896 20.6653C61.863 20.2816 61.863 20.2816 62.5176 19.8672C62.5494 19.5545 62.5591 19.2702 62.5525 18.9578C62.5517 18.8234 62.5517 18.8234 62.5509 18.6864C62.5489 18.3998 62.5445 18.1134 62.5399 17.8269C62.5381 17.6328 62.5365 17.4388 62.535 17.2447C62.5311 16.7686 62.5249 16.2925 62.5176 15.8164C62.4093 15.7545 62.301 15.6926 62.1894 15.6289C62.0844 15.5689 62.0844 15.5689 61.9774 15.5077C61.8241 15.4202 61.6709 15.3326 61.5176 15.245C61.1906 15.0582 60.8637 14.8714 60.5371 14.6841C60.294 14.5448 60.0506 14.4061 59.8071 14.2676C59.7257 14.2207 59.6443 14.1739 59.5605 14.1256C59.1582 13.8763 59.1582 13.8763 58.7051 13.791ZM64.543 17.0078C64.543 17.5976 64.543 18.1873 64.543 18.7949C65.0541 18.5197 65.5652 18.2445 66.0918 17.9609C66.0918 17.8823 66.0918 17.8037 66.0918 17.7227C65.8787 17.6029 65.6651 17.4839 65.4514 17.3652C65.3325 17.2989 65.2137 17.2325 65.0912 17.1642C64.8037 16.9899 64.8037 16.9899 64.543 17.0078ZM31.1836 18.9141C31.1836 19.5431 31.1836 20.1722 31.1836 20.8203C30.6077 20.8029 30.6077 20.8029 30.0317 20.7854C29.5985 20.8235 29.3833 20.9178 29.0391 21.1777C28.8691 21.5177 28.8829 21.7537 28.9199 22.1309C29.081 22.4677 29.081 22.4677 29.3965 22.7266C29.7587 22.8147 30.1138 22.8044 30.485 22.7982C30.5964 22.7987 30.7077 22.7992 30.8224 22.7997C31.1964 22.8007 31.5702 22.7974 31.9442 22.7942C32.2119 22.794 32.4795 22.7941 32.7472 22.7945C33.4749 22.7946 34.2024 22.7911 34.93 22.787C35.6901 22.7832 36.4501 22.7829 37.2102 22.7822C38.4862 22.7805 39.7622 22.7768 41.0382 22.7715C42.3524 22.766 43.6667 22.7618 44.981 22.7593C45.062 22.7591 45.143 22.759 45.2265 22.7588C45.6329 22.758 46.0393 22.7573 46.4457 22.7565C49.8174 22.7504 53.189 22.7397 56.5605 22.7266C56.5605 21.4684 56.5605 20.2103 56.5605 18.9141C48.1861 18.9141 39.8118 18.9141 31.1836 18.9141ZM58.1763 24.5116C57.629 24.6679 57.1286 24.6672 56.5624 24.666C56.3834 24.667 56.3834 24.667 56.2008 24.6681C55.8013 24.6701 55.4018 24.6704 55.0022 24.6708C54.7157 24.6719 54.4292 24.6731 54.1427 24.6744C53.526 24.677 52.9094 24.6789 52.2927 24.6801C51.4011 24.6818 50.5094 24.6849 49.6178 24.6882C48.1712 24.6936 46.7245 24.698 45.2778 24.7017C43.8727 24.7053 42.4676 24.7094 41.0625 24.7141C40.9759 24.7144 40.8893 24.7147 40.8 24.715C40.3653 24.7165 39.9306 24.718 39.4959 24.7195C35.8912 24.7318 32.2864 24.7424 28.6816 24.752C28.6816 24.8306 28.6816 24.9092 28.6816 24.9902C28.603 24.9902 28.5244 24.9902 28.4434 24.9902C28.4434 25.0689 28.4434 25.1475 28.4434 25.2285C28.3647 25.2285 28.2861 25.2285 28.2051 25.2285C28.0344 25.3973 28.0344 25.3973 27.8551 25.6232C27.4794 26.062 27.0941 26.4879 26.6935 26.9039C26.6383 26.9636 26.5831 27.0234 26.5262 27.0849C26.1296 27.4913 26.1296 27.4913 25.8074 27.4954C25.5414 27.3497 25.3867 27.1859 25.1893 26.9561C24.8836 26.6392 24.7495 26.5389 24.3181 26.3901C23.9095 26.3932 23.9095 26.3932 23.566 26.6061C23.1773 27.1744 23.1773 27.1744 23.3203 28.6836C21.3152 28.6836 19.31 28.6836 17.2441 28.6836C17.2441 28.0938 17.2441 27.5041 17.2441 26.8965C16.7193 26.3728 16.7193 26.3728 16.2166 26.4274C15.8147 26.539 15.6953 26.5724 15.457 26.8965C15.4037 27.201 15.4037 27.201 15.4131 27.5508C15.4123 27.6876 15.4116 27.8244 15.4109 27.9654C15.4119 28.1164 15.413 28.2674 15.414 28.423C15.4139 28.5845 15.4136 28.746 15.4131 28.9075C15.4123 29.3523 15.4138 29.797 15.4155 30.2417C15.4171 30.721 15.4166 31.2002 15.4163 31.6795C15.4161 32.5101 15.4172 33.3407 15.4192 34.1714C15.4221 35.3724 15.4231 36.5733 15.4235 37.7743C15.4243 39.7227 15.4267 41.671 15.4301 43.6194C15.4333 45.5124 15.4359 47.4053 15.4374 49.2983C15.4375 49.4161 15.4376 49.5339 15.4377 49.6553C15.4384 50.5767 15.4391 51.4981 15.4398 52.4196C15.4432 56.9379 15.4504 61.4563 15.457 65.9746C26.4263 65.9746 37.3956 65.9746 48.6973 65.9746C48.7366 65.2276 48.7759 64.4806 48.8164 63.7109C49.2341 62.7364 49.2341 62.7364 49.7695 62.2812C50.1174 62.1653 50.3717 62.1391 50.7352 62.1244C50.8523 62.1194 50.9694 62.1144 51.0901 62.1093C51.2121 62.1046 51.3341 62.0999 51.4598 62.0951C51.5832 62.0899 51.7066 62.0848 51.8338 62.0795C52.1385 62.0669 52.4433 62.0547 52.748 62.043C52.9632 59.59 53.1559 57.1356 53.3336 54.6796C53.3552 54.3825 53.3769 54.0854 53.3987 53.7882C53.4297 53.3651 53.4601 52.9419 53.4903 52.5187C53.5043 52.3303 53.5043 52.3303 53.5185 52.1381C53.5432 51.7862 53.5641 51.4344 53.582 51.082C53.5916 50.9002 53.5916 50.9002 53.6014 50.7148C53.605 50.5979 53.6086 50.481 53.6122 50.3605C53.616 50.2562 53.6197 50.1519 53.6235 50.0445C53.5713 49.7007 53.4617 49.6031 53.1902 49.3945C53.0204 49.2927 52.848 49.1951 52.6736 49.1013C51.7758 48.5578 51.1829 48.0547 50.8418 47.0312C50.8277 46.7555 50.8207 46.4793 50.8173 46.2032C50.8162 46.1195 50.815 46.0358 50.8138 45.9495C50.81 45.673 50.807 45.3964 50.8041 45.1199C50.8016 44.9281 50.7991 44.7363 50.7966 44.5444C50.79 44.0397 50.7841 43.535 50.7784 43.0302C50.7713 42.4245 50.7635 41.8189 50.7557 41.2132C50.744 40.2932 50.7335 39.3732 50.7227 38.4531C53.0816 38.5121 53.0816 38.5121 55.4883 38.5723C55.9601 40.4595 55.9601 40.4595 56.4414 42.3848C56.5594 42.3848 56.6773 42.3848 56.7988 42.3848C57.4496 40.4436 57.4496 40.4436 57.752 38.4531C58.0272 38.4531 58.3024 38.4531 58.5859 38.4531C58.5859 33.8138 58.5859 29.1745 58.5859 24.3945C58.433 24.3871 58.433 24.3871 58.1763 24.5116ZM52.748 40.4785C52.739 41.316 52.7327 42.1534 52.7284 42.9909C52.7266 43.2758 52.7242 43.5606 52.7211 43.8455C52.7167 44.2551 52.7147 44.6647 52.7131 45.0743C52.7113 45.2015 52.7094 45.3287 52.7075 45.4598C52.7075 45.579 52.7075 45.6983 52.7075 45.8211C52.7067 45.9256 52.7059 46.0301 52.7051 46.1378C52.7967 46.7725 53.1602 47.1235 53.6619 47.4992C54.7908 48.2796 55.7092 48.4017 57.059 48.3851C57.2629 48.3862 57.4668 48.3876 57.6707 48.3894C58.0952 48.3917 58.5195 48.3896 58.944 48.3845C59.4826 48.3784 60.0205 48.3836 60.5592 48.392C60.9794 48.3973 61.3995 48.3962 61.8198 48.3934C62.0181 48.3928 62.2164 48.3942 62.4147 48.3976C63.9279 48.4192 64.859 48.0232 66.0435 47.0838C66.4123 46.7055 66.4789 46.3493 66.4763 45.8346C66.4762 45.7154 66.4762 45.5962 66.4762 45.4733C66.475 45.3455 66.4738 45.2176 66.4725 45.0859C66.472 44.8886 66.472 44.8886 66.4715 44.6873C66.4701 44.2673 66.4671 43.8473 66.4641 43.4272C66.4629 43.1424 66.4618 42.8576 66.4609 42.5728C66.4582 41.8747 66.4542 41.1766 66.4492 40.4785C66.0954 40.4785 65.7415 40.4785 65.3769 40.4785C65.1143 41.2386 64.8928 41.999 64.6993 42.7794C64.6725 42.8842 64.6457 42.9891 64.6181 43.097C64.5929 43.1982 64.5676 43.2993 64.5416 43.4035C64.5189 43.494 64.4962 43.5845 64.4728 43.6778C64.4089 43.9682 64.4089 43.9682 64.4238 44.4102C63.205 44.4102 61.9862 44.4102 60.7305 44.4102C60.6617 44.0932 60.5929 43.7762 60.522 43.4496C60.3025 42.4507 60.0506 41.464 59.7773 40.4785C59.6594 40.4785 59.5414 40.4785 59.4199 40.4785C59.2838 41 59.1481 41.5217 59.0127 42.0434C58.9666 42.2209 58.9203 42.3984 58.874 42.5759C58.8075 42.8308 58.7414 43.0857 58.6753 43.3407C58.6544 43.4202 58.6336 43.4998 58.6121 43.5818C58.5033 43.9907 58.5033 43.9907 58.4668 44.4102C57.248 44.4102 56.0292 44.4102 54.7734 44.4102C54.7341 44.0956 54.6948 43.7811 54.6543 43.457C54.6042 43.2179 54.5498 42.9796 54.4905 42.7427C54.4591 42.6173 54.4278 42.4919 54.3955 42.3627C54.363 42.2348 54.3304 42.1069 54.2969 41.9752C54.248 41.7786 54.248 41.7786 54.1982 41.578C54.0961 40.9847 54.0961 40.9847 53.8203 40.4785C53.6393 40.47 53.4579 40.4685 53.2767 40.4711C53.1291 40.4727 53.1291 40.4727 52.9784 40.4743C52.8644 40.4764 52.8644 40.4764 52.748 40.4785ZM55.6074 50.3672C55.4798 52.1052 55.4798 52.1052 55.3533 53.8432C55.3019 54.5533 55.2503 55.2634 55.198 55.9734C55.1557 56.5465 55.1141 57.1197 55.0728 57.693C55.0571 57.9104 55.0411 58.1278 55.025 58.3452C55.0021 58.6524 54.9801 58.9597 54.9582 59.267C54.9515 59.3545 54.9448 59.4421 54.9379 59.5324C54.8794 60.3744 54.8926 61.1913 54.8926 62.043C58.0379 62.043 61.1832 62.043 64.4238 62.043C64.1486 58.19 63.8734 54.337 63.5898 50.3672C60.9556 50.3672 58.3214 50.3672 55.6074 50.3672ZM50.8418 64.0684C50.8418 64.6974 50.8418 65.3265 50.8418 65.9746C56.6213 65.9746 62.4008 65.9746 68.3555 65.9746C68.3555 65.3455 68.3555 64.7165 68.3555 64.0684C62.576 64.0684 56.7964 64.0684 50.8418 64.0684Z"/>
</mask>
<path d="M17.2441 7C19.2493 7 21.2544 7 23.3203 7C23.3793 7.82564 23.3793 7.82564 23.4395 8.66797C23.8475 9.16661 23.8475 9.16661 24.2669 9.20782C24.7359 9.12626 24.893 8.95605 25.2117 8.6084C25.3047 8.50888 25.3978 8.40936 25.4937 8.30682C25.5628 8.22942 25.6319 8.15202 25.7031 8.07227C26.1517 8.24717 26.3009 8.46438 26.5439 8.8722C27.2587 9.8998 28.0456 10.7201 29.3099 10.9559C31.1013 11.1966 32.9363 11.1128 34.7382 11.0745C35.4574 11.0618 36.1765 11.0611 36.8958 11.0603C38.3199 11.0585 39.7437 11.0459 41.1677 11.026C42.5458 11.0067 43.9239 10.9914 45.3021 10.9822C45.3872 10.9817 45.4723 10.9811 45.5599 10.9805C46.4899 10.9743 47.42 10.9691 48.35 10.9642C48.597 10.9629 48.844 10.9616 49.0911 10.9603C49.254 10.9594 49.4169 10.9586 49.5798 10.9578C50.6118 10.9524 51.6437 10.9431 52.6756 10.9295C53.267 10.922 53.8585 10.9163 54.4499 10.9108C54.7233 10.9079 54.9967 10.904 55.2701 10.8993C57.9026 10.854 57.9026 10.854 58.9434 11.4082C59.0792 11.4721 59.215 11.536 59.3549 11.6018C59.4703 11.6643 59.5858 11.7268 59.7047 11.7912C59.8369 11.8623 59.969 11.9334 60.1051 12.0066C60.2427 12.0819 60.3802 12.1572 60.522 12.2347C60.6699 12.3149 60.8179 12.3949 60.9658 12.4749C61.9659 13.0172 62.9565 13.5757 63.9441 14.1404C65.1055 14.8006 66.2866 15.4233 67.4692 16.0444C68.4922 16.5826 69.5002 17.1425 70.5 17.7227C70.3382 18.208 70.1333 18.2449 69.6837 18.4775C69.612 18.5151 69.5403 18.5527 69.4665 18.5914C69.3117 18.6724 69.1566 18.753 69.0013 18.833C68.5887 19.0459 68.1781 19.2624 67.7672 19.4786C67.6846 19.5219 67.602 19.5653 67.5168 19.61C66.81 19.9818 66.115 20.3717 65.4216 20.7682C63.8721 21.6451 62.2999 22.4815 60.7305 23.3223C60.6911 28.3154 60.6518 33.3086 60.6113 38.4531C60.8865 38.4531 61.1618 38.4531 61.4453 38.4531C61.5814 38.9747 61.7171 39.4963 61.8525 40.018C61.8987 40.1955 61.9449 40.3731 61.9912 40.5505C62.0577 40.8054 62.1239 41.0603 62.1899 41.3153C62.2108 41.3949 62.2316 41.4744 62.2531 41.5564C62.3984 42.1194 62.3984 42.1194 62.3984 42.3848C62.5164 42.3848 62.6343 42.3848 62.7559 42.3848C62.7681 42.2581 62.7804 42.1314 62.7931 42.0008C62.8804 41.3036 63.0593 40.6298 63.2324 39.9498C63.265 39.8187 63.2975 39.6877 63.3311 39.5526C63.5742 38.5879 63.5742 38.5879 63.709 38.4531C64.0613 38.4426 64.4108 38.4394 64.7631 38.4415C64.9215 38.4417 64.9215 38.4417 65.0831 38.442C65.4218 38.4427 65.7605 38.4442 66.0992 38.4457C66.3283 38.4463 66.5573 38.4468 66.7864 38.4473C67.3491 38.4486 67.9119 38.4507 68.4746 38.4531C68.4885 39.551 68.499 40.6488 68.5055 41.7467C68.5086 42.2567 68.5128 42.7665 68.5195 43.2764C68.5261 43.7693 68.5296 44.2621 68.5311 44.755C68.5322 44.9422 68.5344 45.1294 68.5376 45.3166C68.5574 46.5104 68.5144 47.5478 67.6507 48.465C66.254 49.7715 66.254 49.7715 65.6152 49.7715C65.6277 49.9194 65.6277 49.9194 65.6405 50.0703C65.8419 52.4686 66.0273 54.868 66.2008 57.2685C66.2224 57.5661 66.2441 57.8636 66.2659 58.1612C66.2969 58.5843 66.3273 59.0075 66.3575 59.4307C66.3668 59.5565 66.3761 59.6824 66.3857 59.812C66.4381 60.5571 66.4606 61.296 66.4492 62.043C66.5318 62.0403 66.6144 62.0377 66.6996 62.035C67.0356 62.0249 67.3715 62.0191 67.7076 62.0132C67.8257 62.0092 67.9437 62.0052 68.0653 62.0011C68.8294 61.9909 69.2854 62.0605 69.9043 62.5195C70.5261 63.3213 70.5249 63.9569 70.5298 64.9321C70.5322 65.0542 70.5347 65.1763 70.5372 65.3021C70.5419 66.2026 70.4584 66.8017 69.8522 67.5011C69.2983 67.9739 68.8848 68.0347 68.1671 68.0303C68.0752 68.0307 67.9833 68.0311 67.8887 68.0315C67.5791 68.0325 67.2695 68.0318 66.9598 68.0311C66.7363 68.0314 66.5128 68.0319 66.2893 68.0324C65.6737 68.0337 65.0581 68.0334 64.4425 68.0329C63.7791 68.0326 63.1158 68.0337 62.4524 68.0346C61.1522 68.0361 59.852 68.0363 58.5519 68.036C57.4954 68.0358 56.4389 68.036 55.3824 68.0365C55.2322 68.0366 55.082 68.0367 54.9273 68.0367C54.6223 68.0369 54.3172 68.037 54.0121 68.0372C51.9629 68.0381 49.9136 68.0386 47.8643 68.0381C47.744 68.0381 47.744 68.0381 47.6214 68.038C47.215 68.0379 46.8087 68.0378 46.4023 68.0377C46.3216 68.0377 46.2409 68.0377 46.1578 68.0377C45.9946 68.0376 45.8314 68.0376 45.6682 68.0375C43.1287 68.0369 40.5892 68.0379 38.0497 68.0401C35.1975 68.0425 32.3454 68.0438 29.4932 68.0433C27.9827 68.0431 26.4722 68.0434 24.9616 68.0451C23.6757 68.0465 22.3897 68.0467 21.1038 68.0452C20.4474 68.0445 19.791 68.0444 19.1346 68.0458C18.534 68.0471 17.9335 68.0467 17.3329 68.0451C17.1153 68.0448 16.8977 68.045 16.6801 68.046C16.3849 68.0472 16.0898 68.0462 15.7946 68.0446C15.7096 68.0455 15.6246 68.0464 15.5371 68.0473C14.7983 68.0392 14.3379 67.834 13.8188 67.3149C13.2072 66.4315 13.2831 65.5356 13.297 64.4959C13.2982 64.3324 13.2994 64.1689 13.3005 64.0054C13.303 63.6507 13.3063 63.2961 13.3102 62.9414C13.3164 62.3641 13.321 61.7869 13.3252 61.2096C13.3299 60.5875 13.3346 59.9655 13.3399 59.3435C13.3529 57.7995 13.3614 56.2556 13.3672 54.7116C13.3676 54.5998 13.368 54.4879 13.3684 54.3727C13.3719 53.4518 13.3752 52.531 13.3784 51.6101C13.3813 50.7809 13.3843 49.9517 13.3876 49.1225C13.3883 48.9452 13.3883 48.9452 13.389 48.7643C13.3968 46.8527 13.4132 44.9413 13.4325 43.0297C13.4522 41.0638 13.4618 39.098 13.4623 37.132C13.463 35.9213 13.4715 34.7112 13.4903 33.5007C13.5025 32.669 13.5048 31.8378 13.4998 31.0061C13.4971 30.5274 13.4986 30.0496 13.5118 29.5711C13.5549 27.9313 13.5872 26.4467 12.4093 25.1835C11.9076 24.6764 11.3629 24.2232 10.7945 23.7926C10.7212 23.716 10.6478 23.6394 10.5723 23.5605C10.5893 23.2326 10.6577 23.1202 10.8813 22.8801C10.9562 22.8147 11.0312 22.7493 11.1084 22.6819C11.3957 22.404 11.5228 22.2565 11.6743 21.8777C11.6676 21.5205 11.6676 21.5205 11.4509 21.2001C10.9112 20.8048 10.9112 20.8048 9.5 20.8203C9.5 18.8545 9.5 16.8887 9.5 14.8633C10.2667 14.8043 10.2667 14.8043 11.0488 14.7441C11.4651 14.5176 11.4651 14.5176 11.6445 14.1484C11.7107 13.7973 11.7107 13.7973 11.5254 13.4336C11.2831 13.1764 11.0326 12.941 10.7649 12.7104C10.6696 12.5966 10.6696 12.5966 10.5723 12.4805C10.6158 12.0718 10.7792 11.8722 11.0658 11.5889C11.1445 11.5102 11.2233 11.4315 11.3043 11.3505C11.3897 11.2669 11.4751 11.1834 11.5631 11.0973C11.6502 11.0107 11.7373 10.9241 11.827 10.8349C12.1054 10.5585 12.385 10.2834 12.6647 10.0083C12.8536 9.82114 13.0425 9.6339 13.2313 9.44657C13.6943 8.98752 14.1583 8.52951 14.623 8.07227C15.0032 8.25269 15.2596 8.44799 15.5613 8.74243C15.8858 9.03249 16.0103 9.13653 16.4474 9.21899C16.8109 9.16419 16.8109 9.16419 17.125 8.78711C17.1643 8.19736 17.2036 7.60762 17.2441 7ZM19.2695 9.02539C19.2032 9.19003 19.1368 9.35467 19.0685 9.52429C18.6965 10.3541 18.1591 10.772 17.3633 11.1699C16.4329 11.449 15.6351 11.2252 14.7422 10.9316C14.3097 11.3641 13.8772 11.7966 13.4316 12.2422C13.5103 12.5174 13.5889 12.7926 13.6699 13.0762C13.7856 14.2693 13.6879 15.0896 12.9327 16.0175C12.4922 16.3797 12.0309 16.6246 11.5254 16.8887C11.5254 17.5571 11.5254 18.2254 11.5254 18.9141C11.6753 18.9657 11.8252 19.0173 11.9796 19.0704C12.3577 19.2006 12.5586 19.3452 12.8359 19.6289C12.9146 19.6289 12.9932 19.6289 13.0742 19.6289C13.1562 19.7865 13.2347 19.9458 13.3125 20.1055C13.3764 20.2185 13.4403 20.3315 13.5061 20.448C13.9048 21.3829 13.7319 22.5035 13.4316 23.4414C13.8292 23.9446 14.2147 24.3823 14.7422 24.752C15.1486 24.7509 15.4284 24.6482 15.8075 24.5062C16.5609 24.2753 17.3158 24.4899 18.0037 24.8339C18.6561 25.4086 18.9888 25.8159 19.2695 26.6582C19.9379 26.6582 20.6063 26.6582 21.2949 26.6582C21.376 26.4764 21.4571 26.2945 21.5406 26.1072C21.8946 25.3992 22.319 24.9761 23.0076 24.5956C24.0234 24.3295 24.8344 24.4227 25.8223 24.752C26.6991 24.081 26.6991 24.081 27.1668 23.1575C27.0993 22.8948 27.0993 22.8948 26.9955 22.6367C26.7428 21.9672 26.8262 21.2617 27.0956 20.6118C27.5712 19.6755 28.0764 19.2877 29.0391 18.9141C29.0391 18.2064 29.0391 17.4987 29.0391 16.7695C28.8769 16.7081 28.7147 16.6467 28.5476 16.5834C27.7981 16.2475 27.3559 15.7548 27.0286 15.0048C26.7806 14.2446 26.8107 13.5244 27.0956 12.7858C27.1847 12.5247 27.1847 12.5247 27.1328 12.2422C26.747 11.7413 26.3043 11.3384 25.8223 10.9316C25.7515 10.9588 25.6807 10.986 25.6077 11.014C24.6462 11.3475 23.7538 11.3931 22.8065 10.9763C21.9832 10.509 21.6631 9.88446 21.2949 9.02539C20.6265 9.02539 19.9582 9.02539 19.2695 9.02539ZM29.0944 13.237C28.8781 13.6284 28.8374 13.8272 28.9199 14.2676C29.097 14.6441 29.097 14.6441 29.5156 14.8633C30.0814 14.9139 30.6134 14.8899 31.1836 14.8633C31.1836 15.4923 31.1836 16.1214 31.1836 16.7695C39.558 16.7695 47.9324 16.7695 56.5605 16.7695C56.5605 15.5114 56.5605 14.2533 56.5605 12.957C53.1081 12.9436 49.6557 12.9329 46.2033 12.9266C45.7958 12.9259 45.3884 12.9251 44.981 12.9243C44.8999 12.9242 44.8188 12.924 44.7352 12.9238C43.4212 12.9212 42.1071 12.9165 40.7931 12.9111C39.4452 12.9055 38.0973 12.9022 36.7493 12.901C35.9921 12.9002 35.2348 12.8984 34.4775 12.894C33.7652 12.89 33.053 12.8888 32.3407 12.8897C32.0788 12.8895 31.817 12.8883 31.5551 12.886C31.1984 12.8831 30.8418 12.8838 30.485 12.8854C30.3807 12.8837 30.2764 12.8819 30.169 12.8801C29.5708 12.8864 29.5708 12.8864 29.0944 13.237ZM58.7051 13.791C58.7051 16.4645 58.7051 19.138 58.7051 21.8926C59.2291 21.7179 59.6099 21.5671 60.0766 21.3006C60.1963 21.2326 60.316 21.1645 60.4394 21.0944C60.5625 21.0236 60.6856 20.9528 60.8124 20.8799C60.9369 20.8091 61.0613 20.7383 61.1896 20.6653C61.863 20.2816 61.863 20.2816 62.5176 19.8672C62.5494 19.5545 62.5591 19.2702 62.5525 18.9578C62.5517 18.8234 62.5517 18.8234 62.5509 18.6864C62.5489 18.3998 62.5445 18.1134 62.5399 17.8269C62.5381 17.6328 62.5365 17.4388 62.535 17.2447C62.5311 16.7686 62.5249 16.2925 62.5176 15.8164C62.4093 15.7545 62.301 15.6926 62.1894 15.6289C62.0844 15.5689 62.0844 15.5689 61.9774 15.5077C61.8241 15.4202 61.6709 15.3326 61.5176 15.245C61.1906 15.0582 60.8637 14.8714 60.5371 14.6841C60.294 14.5448 60.0506 14.4061 59.8071 14.2676C59.7257 14.2207 59.6443 14.1739 59.5605 14.1256C59.1582 13.8763 59.1582 13.8763 58.7051 13.791ZM64.543 17.0078C64.543 17.5976 64.543 18.1873 64.543 18.7949C65.0541 18.5197 65.5652 18.2445 66.0918 17.9609C66.0918 17.8823 66.0918 17.8037 66.0918 17.7227C65.8787 17.6029 65.6651 17.4839 65.4514 17.3652C65.3325 17.2989 65.2137 17.2325 65.0912 17.1642C64.8037 16.9899 64.8037 16.9899 64.543 17.0078ZM31.1836 18.9141C31.1836 19.5431 31.1836 20.1722 31.1836 20.8203C30.6077 20.8029 30.6077 20.8029 30.0317 20.7854C29.5985 20.8235 29.3833 20.9178 29.0391 21.1777C28.8691 21.5177 28.8829 21.7537 28.9199 22.1309C29.081 22.4677 29.081 22.4677 29.3965 22.7266C29.7587 22.8147 30.1138 22.8044 30.485 22.7982C30.5964 22.7987 30.7077 22.7992 30.8224 22.7997C31.1964 22.8007 31.5702 22.7974 31.9442 22.7942C32.2119 22.794 32.4795 22.7941 32.7472 22.7945C33.4749 22.7946 34.2024 22.7911 34.93 22.787C35.6901 22.7832 36.4501 22.7829 37.2102 22.7822C38.4862 22.7805 39.7622 22.7768 41.0382 22.7715C42.3524 22.766 43.6667 22.7618 44.981 22.7593C45.062 22.7591 45.143 22.759 45.2265 22.7588C45.6329 22.758 46.0393 22.7573 46.4457 22.7565C49.8174 22.7504 53.189 22.7397 56.5605 22.7266C56.5605 21.4684 56.5605 20.2103 56.5605 18.9141C48.1861 18.9141 39.8118 18.9141 31.1836 18.9141ZM58.1763 24.5116C57.629 24.6679 57.1286 24.6672 56.5624 24.666C56.3834 24.667 56.3834 24.667 56.2008 24.6681C55.8013 24.6701 55.4018 24.6704 55.0022 24.6708C54.7157 24.6719 54.4292 24.6731 54.1427 24.6744C53.526 24.677 52.9094 24.6789 52.2927 24.6801C51.4011 24.6818 50.5094 24.6849 49.6178 24.6882C48.1712 24.6936 46.7245 24.698 45.2778 24.7017C43.8727 24.7053 42.4676 24.7094 41.0625 24.7141C40.9759 24.7144 40.8893 24.7147 40.8 24.715C40.3653 24.7165 39.9306 24.718 39.4959 24.7195C35.8912 24.7318 32.2864 24.7424 28.6816 24.752C28.6816 24.8306 28.6816 24.9092 28.6816 24.9902C28.603 24.9902 28.5244 24.9902 28.4434 24.9902C28.4434 25.0689 28.4434 25.1475 28.4434 25.2285C28.3647 25.2285 28.2861 25.2285 28.2051 25.2285C28.0344 25.3973 28.0344 25.3973 27.8551 25.6232C27.4794 26.062 27.0941 26.4879 26.6935 26.9039C26.6383 26.9636 26.5831 27.0234 26.5262 27.0849C26.1296 27.4913 26.1296 27.4913 25.8074 27.4954C25.5414 27.3497 25.3867 27.1859 25.1893 26.9561C24.8836 26.6392 24.7495 26.5389 24.3181 26.3901C23.9095 26.3932 23.9095 26.3932 23.566 26.6061C23.1773 27.1744 23.1773 27.1744 23.3203 28.6836C21.3152 28.6836 19.31 28.6836 17.2441 28.6836C17.2441 28.0938 17.2441 27.5041 17.2441 26.8965C16.7193 26.3728 16.7193 26.3728 16.2166 26.4274C15.8147 26.539 15.6953 26.5724 15.457 26.8965C15.4037 27.201 15.4037 27.201 15.4131 27.5508C15.4123 27.6876 15.4116 27.8244 15.4109 27.9654C15.4119 28.1164 15.413 28.2674 15.414 28.423C15.4139 28.5845 15.4136 28.746 15.4131 28.9075C15.4123 29.3523 15.4138 29.797 15.4155 30.2417C15.4171 30.721 15.4166 31.2002 15.4163 31.6795C15.4161 32.5101 15.4172 33.3407 15.4192 34.1714C15.4221 35.3724 15.4231 36.5733 15.4235 37.7743C15.4243 39.7227 15.4267 41.671 15.4301 43.6194C15.4333 45.5124 15.4359 47.4053 15.4374 49.2983C15.4375 49.4161 15.4376 49.5339 15.4377 49.6553C15.4384 50.5767 15.4391 51.4981 15.4398 52.4196C15.4432 56.9379 15.4504 61.4563 15.457 65.9746C26.4263 65.9746 37.3956 65.9746 48.6973 65.9746C48.7366 65.2276 48.7759 64.4806 48.8164 63.7109C49.2341 62.7364 49.2341 62.7364 49.7695 62.2812C50.1174 62.1653 50.3717 62.1391 50.7352 62.1244C50.8523 62.1194 50.9694 62.1144 51.0901 62.1093C51.2121 62.1046 51.3341 62.0999 51.4598 62.0951C51.5832 62.0899 51.7066 62.0848 51.8338 62.0795C52.1385 62.0669 52.4433 62.0547 52.748 62.043C52.9632 59.59 53.1559 57.1356 53.3336 54.6796C53.3552 54.3825 53.3769 54.0854 53.3987 53.7882C53.4297 53.3651 53.4601 52.9419 53.4903 52.5187C53.5043 52.3303 53.5043 52.3303 53.5185 52.1381C53.5432 51.7862 53.5641 51.4344 53.582 51.082C53.5916 50.9002 53.5916 50.9002 53.6014 50.7148C53.605 50.5979 53.6086 50.481 53.6122 50.3605C53.616 50.2562 53.6197 50.1519 53.6235 50.0445C53.5713 49.7007 53.4617 49.6031 53.1902 49.3945C53.0204 49.2927 52.848 49.1951 52.6736 49.1013C51.7758 48.5578 51.1829 48.0547 50.8418 47.0312C50.8277 46.7555 50.8207 46.4793 50.8173 46.2032C50.8162 46.1195 50.815 46.0358 50.8138 45.9495C50.81 45.673 50.807 45.3964 50.8041 45.1199C50.8016 44.9281 50.7991 44.7363 50.7966 44.5444C50.79 44.0397 50.7841 43.535 50.7784 43.0302C50.7713 42.4245 50.7635 41.8189 50.7557 41.2132C50.744 40.2932 50.7335 39.3732 50.7227 38.4531C53.0816 38.5121 53.0816 38.5121 55.4883 38.5723C55.9601 40.4595 55.9601 40.4595 56.4414 42.3848C56.5594 42.3848 56.6773 42.3848 56.7988 42.3848C57.4496 40.4436 57.4496 40.4436 57.752 38.4531C58.0272 38.4531 58.3024 38.4531 58.5859 38.4531C58.5859 33.8138 58.5859 29.1745 58.5859 24.3945C58.433 24.3871 58.433 24.3871 58.1763 24.5116ZM52.748 40.4785C52.739 41.316 52.7327 42.1534 52.7284 42.9909C52.7266 43.2758 52.7242 43.5606 52.7211 43.8455C52.7167 44.2551 52.7147 44.6647 52.7131 45.0743C52.7113 45.2015 52.7094 45.3287 52.7075 45.4598C52.7075 45.579 52.7075 45.6983 52.7075 45.8211C52.7067 45.9256 52.7059 46.0301 52.7051 46.1378C52.7967 46.7725 53.1602 47.1235 53.6619 47.4992C54.7908 48.2796 55.7092 48.4017 57.059 48.3851C57.2629 48.3862 57.4668 48.3876 57.6707 48.3894C58.0952 48.3917 58.5195 48.3896 58.944 48.3845C59.4826 48.3784 60.0205 48.3836 60.5592 48.392C60.9794 48.3973 61.3995 48.3962 61.8198 48.3934C62.0181 48.3928 62.2164 48.3942 62.4147 48.3976C63.9279 48.4192 64.859 48.0232 66.0435 47.0838C66.4123 46.7055 66.4789 46.3493 66.4763 45.8346C66.4762 45.7154 66.4762 45.5962 66.4762 45.4733C66.475 45.3455 66.4738 45.2176 66.4725 45.0859C66.472 44.8886 66.472 44.8886 66.4715 44.6873C66.4701 44.2673 66.4671 43.8473 66.4641 43.4272C66.4629 43.1424 66.4618 42.8576 66.4609 42.5728C66.4582 41.8747 66.4542 41.1766 66.4492 40.4785C66.0954 40.4785 65.7415 40.4785 65.3769 40.4785C65.1143 41.2386 64.8928 41.999 64.6993 42.7794C64.6725 42.8842 64.6457 42.9891 64.6181 43.097C64.5929 43.1982 64.5676 43.2993 64.5416 43.4035C64.5189 43.494 64.4962 43.5845 64.4728 43.6778C64.4089 43.9682 64.4089 43.9682 64.4238 44.4102C63.205 44.4102 61.9862 44.4102 60.7305 44.4102C60.6617 44.0932 60.5929 43.7762 60.522 43.4496C60.3025 42.4507 60.0506 41.464 59.7773 40.4785C59.6594 40.4785 59.5414 40.4785 59.4199 40.4785C59.2838 41 59.1481 41.5217 59.0127 42.0434C58.9666 42.2209 58.9203 42.3984 58.874 42.5759C58.8075 42.8308 58.7414 43.0857 58.6753 43.3407C58.6544 43.4202 58.6336 43.4998 58.6121 43.5818C58.5033 43.9907 58.5033 43.9907 58.4668 44.4102C57.248 44.4102 56.0292 44.4102 54.7734 44.4102C54.7341 44.0956 54.6948 43.7811 54.6543 43.457C54.6042 43.2179 54.5498 42.9796 54.4905 42.7427C54.4591 42.6173 54.4278 42.4919 54.3955 42.3627C54.363 42.2348 54.3304 42.1069 54.2969 41.9752C54.248 41.7786 54.248 41.7786 54.1982 41.578C54.0961 40.9847 54.0961 40.9847 53.8203 40.4785C53.6393 40.47 53.4579 40.4685 53.2767 40.4711C53.1291 40.4727 53.1291 40.4727 52.9784 40.4743C52.8644 40.4764 52.8644 40.4764 52.748 40.4785ZM55.6074 50.3672C55.4798 52.1052 55.4798 52.1052 55.3533 53.8432C55.3019 54.5533 55.2503 55.2634 55.198 55.9734C55.1557 56.5465 55.1141 57.1197 55.0728 57.693C55.0571 57.9104 55.0411 58.1278 55.025 58.3452C55.0021 58.6524 54.9801 58.9597 54.9582 59.267C54.9515 59.3545 54.9448 59.4421 54.9379 59.5324C54.8794 60.3744 54.8926 61.1913 54.8926 62.043C58.0379 62.043 61.1832 62.043 64.4238 62.043C64.1486 58.19 63.8734 54.337 63.5898 50.3672C60.9556 50.3672 58.3214 50.3672 55.6074 50.3672ZM50.8418 64.0684C50.8418 64.6974 50.8418 65.3265 50.8418 65.9746C56.6213 65.9746 62.4008 65.9746 68.3555 65.9746C68.3555 65.3455 68.3555 64.7165 68.3555 64.0684C62.576 64.0684 56.7964 64.0684 50.8418 64.0684Z" stroke="#0C253D" stroke-width="3" mask="url(#path-11-inside-1_9800_5535)"/>
<mask id="path-12-inside-2_9800_5535" fill="white">
<path d="M21.9404 32.4758C22.0412 32.4752 22.142 32.4746 22.2458 32.474C22.579 32.4723 22.9122 32.4715 23.2455 32.4708C23.4776 32.4701 23.7097 32.4694 23.9418 32.4688C24.4285 32.4675 24.9152 32.4668 25.402 32.4664C26.0243 32.4657 26.6465 32.4629 27.2688 32.4595C27.7484 32.4573 28.2279 32.4566 28.7075 32.4565C28.9368 32.4561 29.1662 32.4551 29.3955 32.4536C29.7171 32.4515 30.0386 32.4518 30.3603 32.4525C30.4541 32.4514 30.548 32.4503 30.6447 32.4492C31.3274 32.4543 32.04 32.5405 32.5631 33.0254C32.9699 33.5032 33.1065 33.7872 33.103 34.4022C33.1024 34.5784 33.1024 34.5784 33.1018 34.7582C33.1003 34.9427 33.1003 34.9427 33.0988 35.131C33.0982 35.2549 33.0977 35.3789 33.0971 35.5066C33.0957 35.8133 33.0936 36.12 33.0913 36.4267C33.7204 36.4267 34.3494 36.4267 34.9976 36.4267C34.992 36.2657 34.9865 36.1048 34.9808 35.9389C34.9763 35.7242 34.972 35.5095 34.9678 35.2948C34.9638 35.1892 34.9598 35.0835 34.9557 34.9746C34.945 34.2491 35.0453 33.6896 35.4741 33.0907C36.1885 32.5103 36.7746 32.4771 37.6669 32.4758C37.7677 32.4752 37.8685 32.4746 37.9724 32.474C38.3056 32.4723 38.6388 32.4715 38.972 32.4708C39.2041 32.4701 39.4362 32.4694 39.6683 32.4688C40.1551 32.4675 40.6418 32.4668 41.1285 32.4664C41.7508 32.4657 42.3731 32.4629 42.9953 32.4595C43.4749 32.4573 43.9545 32.4566 44.4341 32.4565C44.6634 32.4561 44.8927 32.4551 45.122 32.4536C45.4437 32.4515 45.7652 32.4518 46.0868 32.4525C46.1807 32.4514 46.2746 32.4503 46.3713 32.4492C47.0549 32.4543 47.7608 32.543 48.2897 33.0212C48.7867 33.5953 48.8362 34.0684 48.839 34.7961C48.8398 34.8844 48.8405 34.9728 48.8413 35.0639C48.8437 35.3563 48.8451 35.6488 48.8463 35.9412C48.8468 36.0412 48.8472 36.1412 48.8477 36.2443C48.8502 36.7735 48.8519 37.3027 48.853 37.8319C48.8544 38.3779 48.8585 38.9239 48.8632 39.47C48.8663 39.8904 48.8673 40.3107 48.8677 40.7311C48.8683 40.9324 48.8697 41.1337 48.8719 41.3349C48.8748 41.617 48.8747 41.8989 48.8739 42.1809C48.8762 42.3049 48.8762 42.3049 48.8785 42.4314C48.8722 43.0245 48.7084 43.3546 48.3413 43.8134C47.7055 44.3872 47.2187 44.4261 46.389 44.4207C46.2917 44.4205 46.1943 44.4204 46.094 44.4202C45.7833 44.4195 45.4725 44.418 45.1618 44.4165C44.951 44.4159 44.7403 44.4154 44.5295 44.4149C44.013 44.4137 43.4965 44.4113 42.98 44.4091C42.98 45.6672 42.98 46.9253 42.98 48.2216C43.2785 48.216 43.5771 48.2105 43.8847 48.2048C44.1765 48.2011 44.4683 48.1982 44.7601 48.1954C44.9616 48.193 45.1632 48.1898 45.3647 48.1856C45.6557 48.1798 45.9466 48.1771 46.2377 48.175C46.3266 48.1726 46.4155 48.1701 46.5071 48.1676C47.1688 48.1673 47.6684 48.3326 48.2222 48.6981C48.7737 49.278 48.836 49.7506 48.839 50.5226C48.8398 50.611 48.8405 50.6994 48.8413 50.7904C48.8437 51.0829 48.8451 51.3753 48.8463 51.6678C48.8468 51.7678 48.8472 51.8678 48.8477 51.9708C48.8502 52.5 48.8519 53.0292 48.853 53.5584C48.8544 54.1045 48.8585 54.6505 48.8632 55.1965C48.8663 55.6169 48.8673 56.0373 48.8677 56.4577C48.8683 56.659 48.8697 56.8602 48.8719 57.0615C48.8748 57.3435 48.8747 57.6254 48.8739 57.9075C48.8762 58.0315 48.8762 58.0315 48.8785 58.1579C48.8722 58.751 48.7084 59.0812 48.3413 59.5399C47.6976 60.1208 47.1941 60.154 46.3547 60.1567C46.2491 60.1575 46.1434 60.1583 46.0346 60.1591C45.6847 60.1614 45.3348 60.1628 44.9849 60.164C44.8653 60.1645 44.7458 60.165 44.6226 60.1655C43.9897 60.168 43.3569 60.1697 42.724 60.1708C42.0709 60.1721 41.4178 60.1762 40.7646 60.181C40.2619 60.1841 39.7593 60.1851 39.2566 60.1855C39.0159 60.1861 38.7752 60.1875 38.5344 60.1897C38.1971 60.1926 37.8598 60.1925 37.5224 60.1916C37.374 60.1939 37.374 60.1939 37.2226 60.1963C36.5438 60.1902 36.1531 60.0472 35.5933 59.6591C35.0443 59.0667 34.9823 58.6426 34.9746 57.8493C34.9731 57.7191 34.9731 57.7191 34.9716 57.5862C34.9687 57.2987 34.9667 57.0113 34.965 56.7238C34.9644 56.6255 34.9637 56.5271 34.9631 56.4257C34.9599 55.9047 34.9576 55.3838 34.9559 54.8628C34.9543 54.4325 34.951 54.0023 34.9461 53.5721C34.9402 53.0518 34.9373 52.5315 34.9364 52.0112C34.9356 51.8135 34.9338 51.6157 34.9309 51.418C34.9055 49.5522 34.9055 49.5522 35.4353 48.8567C35.9302 48.3598 36.4205 48.2292 37.1024 48.208C37.2764 48.2081 37.4503 48.2087 37.6242 48.2099C37.7621 48.2102 37.7621 48.2102 37.9027 48.2105C38.1952 48.2111 38.4877 48.2126 38.7803 48.2141C38.979 48.2147 39.1777 48.2153 39.3765 48.2158C39.8628 48.217 40.3491 48.2193 40.8355 48.2216C40.8355 46.9635 40.8355 45.7053 40.8355 44.4091C40.3706 44.4153 40.3706 44.4153 39.8963 44.4216C39.5946 44.4244 39.293 44.4266 38.9913 44.4287C38.7824 44.4305 38.5735 44.4329 38.3646 44.436C38.0635 44.4404 37.7625 44.4424 37.4614 44.444C37.3686 44.4458 37.2759 44.4477 37.1803 44.4496C36.5223 44.4498 36.0202 44.3324 35.5165 43.8729C35.0173 43.2318 34.9808 42.7689 34.9859 41.9802C34.9862 41.8342 34.9862 41.8342 34.9864 41.6852C34.9871 41.3745 34.9886 41.0637 34.9901 40.7529C34.9907 40.5422 34.9913 40.3315 34.9918 40.1207C34.993 39.6042 34.9953 39.0877 34.9976 38.5712C34.3685 38.5712 33.7394 38.5712 33.0913 38.5712C33.0951 38.7713 33.0951 38.7713 33.0989 38.9754C33.1075 39.4723 33.113 39.9692 33.1175 40.4662C33.1199 40.6809 33.1231 40.8956 33.1273 41.1103C33.1331 41.4197 33.1358 41.7289 33.1379 42.0384C33.1403 42.1337 33.1428 42.229 33.1453 42.3273C33.1456 42.9598 33.0309 43.3099 32.6148 43.8134C31.9762 44.3759 31.5808 44.4272 30.7479 44.4283C30.5875 44.4292 30.5875 44.4292 30.4238 44.4301C30.0688 44.4318 29.7139 44.4326 29.3589 44.4333C29.1125 44.434 28.8661 44.4346 28.6198 44.4353C28.1026 44.4366 27.5854 44.4373 27.0681 44.4377C26.4058 44.4383 25.7434 44.4412 25.081 44.4446C24.5718 44.4468 24.0626 44.4474 23.5534 44.4476C23.3093 44.448 23.0651 44.4489 22.821 44.4505C22.479 44.4525 22.1371 44.4523 21.7952 44.4515C21.6945 44.4526 21.5939 44.4537 21.4901 44.4549C20.8183 44.4501 20.3053 44.3431 19.7899 43.8729C19.3197 43.269 19.2556 42.8891 19.2499 42.1337C19.2491 42.048 19.2483 41.9623 19.2475 41.8741C19.2452 41.5905 19.2438 41.3069 19.2426 41.0233C19.2421 40.9263 19.2416 40.8292 19.2411 40.7292C19.2387 40.2152 19.237 39.7011 19.2358 39.1871C19.2345 38.6576 19.2304 38.1282 19.2257 37.5988C19.2226 37.1904 19.2216 36.7821 19.2211 36.3737C19.2206 36.1787 19.2192 35.9836 19.217 35.7885C19.1966 33.8772 19.1966 33.8772 19.7476 33.0907C20.462 32.5103 21.0481 32.4771 21.9404 32.4758ZM21.2964 34.6395C21.2964 37.1951 21.2964 39.7507 21.2964 42.3837C24.5203 42.3837 27.7443 42.3837 31.0659 42.3837C31.0659 39.8281 31.0659 37.2726 31.0659 34.6395C27.842 34.6395 24.618 34.6395 21.2964 34.6395ZM37.023 34.6395C37.023 37.1951 37.023 39.7507 37.023 42.3837C40.2469 42.3837 43.4708 42.3837 46.7925 42.3837C46.7925 39.8281 46.7925 37.2726 46.7925 34.6395C43.5685 34.6395 40.3446 34.6395 37.023 34.6395ZM37.023 50.3661C37.023 52.9217 37.023 55.4772 37.023 58.1102C40.2469 58.1102 43.4708 58.1102 46.7925 58.1102C46.7925 55.5547 46.7925 52.9991 46.7925 50.3661C43.5685 50.3661 40.3446 50.3661 37.023 50.3661Z"/>
</mask>
<path d="M21.9404 32.4758C22.0412 32.4752 22.142 32.4746 22.2458 32.474C22.579 32.4723 22.9122 32.4715 23.2455 32.4708C23.4776 32.4701 23.7097 32.4694 23.9418 32.4688C24.4285 32.4675 24.9152 32.4668 25.402 32.4664C26.0243 32.4657 26.6465 32.4629 27.2688 32.4595C27.7484 32.4573 28.2279 32.4566 28.7075 32.4565C28.9368 32.4561 29.1662 32.4551 29.3955 32.4536C29.7171 32.4515 30.0386 32.4518 30.3603 32.4525C30.4541 32.4514 30.548 32.4503 30.6447 32.4492C31.3274 32.4543 32.04 32.5405 32.5631 33.0254C32.9699 33.5032 33.1065 33.7872 33.103 34.4022C33.1024 34.5784 33.1024 34.5784 33.1018 34.7582C33.1003 34.9427 33.1003 34.9427 33.0988 35.131C33.0982 35.2549 33.0977 35.3789 33.0971 35.5066C33.0957 35.8133 33.0936 36.12 33.0913 36.4267C33.7204 36.4267 34.3494 36.4267 34.9976 36.4267C34.992 36.2657 34.9865 36.1048 34.9808 35.9389C34.9763 35.7242 34.972 35.5095 34.9678 35.2948C34.9638 35.1892 34.9598 35.0835 34.9557 34.9746C34.945 34.2491 35.0453 33.6896 35.4741 33.0907C36.1885 32.5103 36.7746 32.4771 37.6669 32.4758C37.7677 32.4752 37.8685 32.4746 37.9724 32.474C38.3056 32.4723 38.6388 32.4715 38.972 32.4708C39.2041 32.4701 39.4362 32.4694 39.6683 32.4688C40.1551 32.4675 40.6418 32.4668 41.1285 32.4664C41.7508 32.4657 42.3731 32.4629 42.9953 32.4595C43.4749 32.4573 43.9545 32.4566 44.4341 32.4565C44.6634 32.4561 44.8927 32.4551 45.122 32.4536C45.4437 32.4515 45.7652 32.4518 46.0868 32.4525C46.1807 32.4514 46.2746 32.4503 46.3713 32.4492C47.0549 32.4543 47.7608 32.543 48.2897 33.0212C48.7867 33.5953 48.8362 34.0684 48.839 34.7961C48.8398 34.8844 48.8405 34.9728 48.8413 35.0639C48.8437 35.3563 48.8451 35.6488 48.8463 35.9412C48.8468 36.0412 48.8472 36.1412 48.8477 36.2443C48.8502 36.7735 48.8519 37.3027 48.853 37.8319C48.8544 38.3779 48.8585 38.9239 48.8632 39.47C48.8663 39.8904 48.8673 40.3107 48.8677 40.7311C48.8683 40.9324 48.8697 41.1337 48.8719 41.3349C48.8748 41.617 48.8747 41.8989 48.8739 42.1809C48.8762 42.3049 48.8762 42.3049 48.8785 42.4314C48.8722 43.0245 48.7084 43.3546 48.3413 43.8134C47.7055 44.3872 47.2187 44.4261 46.389 44.4207C46.2917 44.4205 46.1943 44.4204 46.094 44.4202C45.7833 44.4195 45.4725 44.418 45.1618 44.4165C44.951 44.4159 44.7403 44.4154 44.5295 44.4149C44.013 44.4137 43.4965 44.4113 42.98 44.4091C42.98 45.6672 42.98 46.9253 42.98 48.2216C43.2785 48.216 43.5771 48.2105 43.8847 48.2048C44.1765 48.2011 44.4683 48.1982 44.7601 48.1954C44.9616 48.193 45.1632 48.1898 45.3647 48.1856C45.6557 48.1798 45.9466 48.1771 46.2377 48.175C46.3266 48.1726 46.4155 48.1701 46.5071 48.1676C47.1688 48.1673 47.6684 48.3326 48.2222 48.6981C48.7737 49.278 48.836 49.7506 48.839 50.5226C48.8398 50.611 48.8405 50.6994 48.8413 50.7904C48.8437 51.0829 48.8451 51.3753 48.8463 51.6678C48.8468 51.7678 48.8472 51.8678 48.8477 51.9708C48.8502 52.5 48.8519 53.0292 48.853 53.5584C48.8544 54.1045 48.8585 54.6505 48.8632 55.1965C48.8663 55.6169 48.8673 56.0373 48.8677 56.4577C48.8683 56.659 48.8697 56.8602 48.8719 57.0615C48.8748 57.3435 48.8747 57.6254 48.8739 57.9075C48.8762 58.0315 48.8762 58.0315 48.8785 58.1579C48.8722 58.751 48.7084 59.0812 48.3413 59.5399C47.6976 60.1208 47.1941 60.154 46.3547 60.1567C46.2491 60.1575 46.1434 60.1583 46.0346 60.1591C45.6847 60.1614 45.3348 60.1628 44.9849 60.164C44.8653 60.1645 44.7458 60.165 44.6226 60.1655C43.9897 60.168 43.3569 60.1697 42.724 60.1708C42.0709 60.1721 41.4178 60.1762 40.7646 60.181C40.2619 60.1841 39.7593 60.1851 39.2566 60.1855C39.0159 60.1861 38.7752 60.1875 38.5344 60.1897C38.1971 60.1926 37.8598 60.1925 37.5224 60.1916C37.374 60.1939 37.374 60.1939 37.2226 60.1963C36.5438 60.1902 36.1531 60.0472 35.5933 59.6591C35.0443 59.0667 34.9823 58.6426 34.9746 57.8493C34.9731 57.7191 34.9731 57.7191 34.9716 57.5862C34.9687 57.2987 34.9667 57.0113 34.965 56.7238C34.9644 56.6255 34.9637 56.5271 34.9631 56.4257C34.9599 55.9047 34.9576 55.3838 34.9559 54.8628C34.9543 54.4325 34.951 54.0023 34.9461 53.5721C34.9402 53.0518 34.9373 52.5315 34.9364 52.0112C34.9356 51.8135 34.9338 51.6157 34.9309 51.418C34.9055 49.5522 34.9055 49.5522 35.4353 48.8567C35.9302 48.3598 36.4205 48.2292 37.1024 48.208C37.2764 48.2081 37.4503 48.2087 37.6242 48.2099C37.7621 48.2102 37.7621 48.2102 37.9027 48.2105C38.1952 48.2111 38.4877 48.2126 38.7803 48.2141C38.979 48.2147 39.1777 48.2153 39.3765 48.2158C39.8628 48.217 40.3491 48.2193 40.8355 48.2216C40.8355 46.9635 40.8355 45.7053 40.8355 44.4091C40.3706 44.4153 40.3706 44.4153 39.8963 44.4216C39.5946 44.4244 39.293 44.4266 38.9913 44.4287C38.7824 44.4305 38.5735 44.4329 38.3646 44.436C38.0635 44.4404 37.7625 44.4424 37.4614 44.444C37.3686 44.4458 37.2759 44.4477 37.1803 44.4496C36.5223 44.4498 36.0202 44.3324 35.5165 43.8729C35.0173 43.2318 34.9808 42.7689 34.9859 41.9802C34.9862 41.8342 34.9862 41.8342 34.9864 41.6852C34.9871 41.3745 34.9886 41.0637 34.9901 40.7529C34.9907 40.5422 34.9913 40.3315 34.9918 40.1207C34.993 39.6042 34.9953 39.0877 34.9976 38.5712C34.3685 38.5712 33.7394 38.5712 33.0913 38.5712C33.0951 38.7713 33.0951 38.7713 33.0989 38.9754C33.1075 39.4723 33.113 39.9692 33.1175 40.4662C33.1199 40.6809 33.1231 40.8956 33.1273 41.1103C33.1331 41.4197 33.1358 41.7289 33.1379 42.0384C33.1403 42.1337 33.1428 42.229 33.1453 42.3273C33.1456 42.9598 33.0309 43.3099 32.6148 43.8134C31.9762 44.3759 31.5808 44.4272 30.7479 44.4283C30.5875 44.4292 30.5875 44.4292 30.4238 44.4301C30.0688 44.4318 29.7139 44.4326 29.3589 44.4333C29.1125 44.434 28.8661 44.4346 28.6198 44.4353C28.1026 44.4366 27.5854 44.4373 27.0681 44.4377C26.4058 44.4383 25.7434 44.4412 25.081 44.4446C24.5718 44.4468 24.0626 44.4474 23.5534 44.4476C23.3093 44.448 23.0651 44.4489 22.821 44.4505C22.479 44.4525 22.1371 44.4523 21.7952 44.4515C21.6945 44.4526 21.5939 44.4537 21.4901 44.4549C20.8183 44.4501 20.3053 44.3431 19.7899 43.8729C19.3197 43.269 19.2556 42.8891 19.2499 42.1337C19.2491 42.048 19.2483 41.9623 19.2475 41.8741C19.2452 41.5905 19.2438 41.3069 19.2426 41.0233C19.2421 40.9263 19.2416 40.8292 19.2411 40.7292C19.2387 40.2152 19.237 39.7011 19.2358 39.1871C19.2345 38.6576 19.2304 38.1282 19.2257 37.5988C19.2226 37.1904 19.2216 36.7821 19.2211 36.3737C19.2206 36.1787 19.2192 35.9836 19.217 35.7885C19.1966 33.8772 19.1966 33.8772 19.7476 33.0907C20.462 32.5103 21.0481 32.4771 21.9404 32.4758ZM21.2964 34.6395C21.2964 37.1951 21.2964 39.7507 21.2964 42.3837C24.5203 42.3837 27.7443 42.3837 31.0659 42.3837C31.0659 39.8281 31.0659 37.2726 31.0659 34.6395C27.842 34.6395 24.618 34.6395 21.2964 34.6395ZM37.023 34.6395C37.023 37.1951 37.023 39.7507 37.023 42.3837C40.2469 42.3837 43.4708 42.3837 46.7925 42.3837C46.7925 39.8281 46.7925 37.2726 46.7925 34.6395C43.5685 34.6395 40.3446 34.6395 37.023 34.6395ZM37.023 50.3661C37.023 52.9217 37.023 55.4772 37.023 58.1102C40.2469 58.1102 43.4708 58.1102 46.7925 58.1102C46.7925 55.5547 46.7925 52.9991 46.7925 50.3661C43.5685 50.3661 40.3446 50.3661 37.023 50.3661Z" stroke="#F7B019" stroke-width="3" mask="url(#path-12-inside-2_9800_5535)"/>
<path d="M16.3926 12.9551C18.9334 11.2199 21.8891 11.2097 24.3574 13.0713C25.6414 14.1868 26.394 15.7108 26.5303 17.4141C26.5691 19.3261 26.0157 20.916 24.7178 22.3066C23.3148 23.6198 21.7068 24.081 19.7432 24.0391C18.1234 23.9579 16.7621 23.2057 15.6006 21.9863C14.5304 20.7056 13.9896 19.1381 14.085 17.4873C14.2811 15.6657 15.0103 14.0892 16.3926 12.9551ZM22.5947 12.7031C20.2327 11.7209 17.828 12.2909 16.0615 14.1367L16.043 14.1553L16.0273 14.1748C14.9087 15.5162 14.5987 16.9897 14.708 18.6074L14.7109 18.6465L14.7178 18.6855C14.9615 20.0874 15.736 21.4844 16.9102 22.3721L16.9424 22.3965L16.9775 22.418C18.4004 23.2677 19.8668 23.7515 21.6514 23.3135L21.6699 23.3096L21.6875 23.3047C23.4512 22.7792 24.551 21.7822 25.4062 20.2295L25.4111 20.2207L25.416 20.2109C26.0451 18.9903 26.0114 17.5217 25.7578 16.3496L25.749 16.3096L25.7363 16.2715L25.6377 15.999C25.1165 14.6523 24.1313 13.5391 22.8799 12.8311L22.8525 12.8154L22.8232 12.8027L22.5947 12.7031Z" stroke="#F7B019" stroke-width="1.5"/>
<path d="M18.7148 16.125C19.5681 15.4637 20.6246 15.3795 21.5781 15.9082C22.1139 16.294 22.436 16.7595 22.5781 17.3789C22.6617 18.0505 22.5548 18.6198 22.2275 19.1895C21.7483 19.7268 21.2534 20.0358 20.6309 20.1133C19.8573 20.145 19.3445 20.0432 18.8105 19.6562C18.2789 19.0916 18.0173 18.5008 17.9941 17.7471C18.0506 17.1322 18.2847 16.6264 18.7148 16.125ZM20.2188 16.1289C20.1169 16.1292 19.9995 16.1386 19.8818 16.1719C19.7583 16.2068 19.6581 16.2577 19.582 16.3018C19.5116 16.3426 19.4339 16.3942 19.3633 16.4404L19.2812 16.4941L19.2168 16.5664C19.0057 16.801 18.8327 17.0468 18.7334 17.3564C18.6388 17.6516 18.6319 17.9439 18.6367 18.2139L18.6406 18.4385L18.7676 18.623C18.9076 18.8276 19.0607 19.0102 19.2656 19.1641C19.4654 19.3141 19.6768 19.4083 19.8848 19.4883L20.0059 19.5352L20.1357 19.5381C20.4247 19.5451 20.6823 19.5033 20.9346 19.3936C21.1622 19.2945 21.3537 19.1515 21.5049 19.0381L21.6465 18.9316L21.7256 18.7734C21.9944 18.2358 21.9603 17.8143 21.9199 17.4102L21.8994 17.208L21.7793 17.043C21.6397 16.8516 21.49 16.6793 21.2969 16.5303C21.1051 16.3824 20.9031 16.2822 20.6914 16.1953L20.582 16.1504L20.4629 16.1416L20.2188 16.1289Z" stroke="#0C253D" stroke-width="1.5"/>
<path d="M30.4336 52.9062V53.5508H20.0195V52.9062H30.4336Z" stroke="#0C253D" stroke-width="1.5"/>
<path d="M30.4336 48.9727V49.6172H20.0195V48.9727H30.4336Z" stroke="#F7B019" stroke-width="1.5"/>
<path d="M28.4082 56.8359V57.4805H20.0195V56.8359H28.4082Z" stroke="#F7B019" stroke-width="1.5"/>
<path d="M28.4102 60.7656V61.4102H23.9531V60.7656H28.4102Z" stroke="#F7B019" stroke-width="1.5"/>
<path d="M19.2695 60.0156C19.9379 60.0156 20.6063 60.0156 21.2949 60.0156C21.2949 60.7233 21.2949 61.431 21.2949 62.1602C20.6265 62.1602 19.9582 62.1602 19.2695 62.1602C19.2695 61.4525 19.2695 60.7448 19.2695 60.0156Z" fill="#0C253D"/>
<path d="M54.6562 28.5625C55.3246 28.5625 55.993 28.5625 56.6816 28.5625C56.6816 29.2702 56.6816 29.9779 56.6816 30.707C56.0133 30.707 55.3449 30.707 54.6562 30.707C54.6562 29.9993 54.6562 29.2916 54.6562 28.5625Z" fill="#F7B019"/>
<path d="M50.7227 28.5625C51.391 28.5625 52.0594 28.5625 52.748 28.5625C52.748 29.2702 52.748 29.9779 52.748 30.707C52.0797 30.707 51.4113 30.707 50.7227 30.707C50.7227 29.9993 50.7227 29.2916 50.7227 28.5625Z" fill="#0C253D"/>
<path d="M46.7891 28.5625C47.4574 28.5625 48.1258 28.5625 48.8145 28.5625C48.8145 29.2702 48.8145 29.9779 48.8145 30.707C48.1461 30.707 47.4777 30.707 46.7891 30.707C46.7891 29.9993 46.7891 29.2916 46.7891 28.5625Z" fill="#F7B019"/>
</g>
<defs>
<clipPath id="clip0_9800_5535">
<rect width="61" height="61" fill="white" transform="translate(9.5 7)"/>
</clipPath>
</defs>
</svg>
