<svg width="81" height="75" viewBox="0 0 81 75" fill="none" xmlns="http://www.w3.org/2000/svg">
<ellipse cx="32.6564" cy="41.3109" rx="29.4767" ry="29.2875" fill="#FFF8E8"/>
<ellipse cx="46.9454" cy="32.4359" rx="29.4767" ry="29.2875" fill="#FCF0D7"/>
<path d="M77.3203 14.6836L78.3284 16.3445L80 17.3461L78.3284 18.3477L77.3203 20.0086L76.3123 18.3477L74.6406 17.3461L76.3123 16.3445L77.3203 14.6836Z" fill="#FCEDCD"/>
<path d="M18.141 3.10606L20.0798 3.33136L21.9005 2.63165L21.6737 4.55806L22.3779 6.36698L20.4391 6.14168L18.6185 6.8414L18.8452 4.91499L18.141 3.10606Z" fill="#FCEDCD"/>
<path d="M14.7891 68.8203L15.7971 70.4812L17.4688 71.4828L15.7971 72.4844L14.7891 74.1453L13.781 72.4844L12.1094 71.4828L13.781 70.4812L14.7891 68.8203Z" fill="#FCEDCD"/>
<path d="M61.5556 70.6281C61.4068 70.1844 61.4663 69.2969 62.8955 69.2969" stroke="#FCEDCD"/>
<path d="M0.55563 54.1789C0.406758 53.7352 0.466307 52.8477 1.89548 52.8477" stroke="#FCEDCD"/>
<path d="M79.1572 46.1906C79.0083 45.7469 79.0679 44.8594 80.497 44.8594" stroke="#FCEDCD"/>
<path d="M1.55563 24.4797C1.40676 24.0359 1.46631 23.1484 2.89548 23.1484" stroke="#FCEDCD"/>
<path d="M51.9759 1.31672C51.5687 1.54742 50.6861 1.65808 50.4138 0.255088" stroke="#FCEDCD"/>
<g clip-path="url(#clip0_9800_5565)">
<mask id="path-11-inside-1_9800_5565" fill="white">
<path d="M13.2601 7.92168C13.3759 7.92105 13.3759 7.92105 13.4941 7.92041C13.7533 7.9193 14.0125 7.91989 14.2717 7.92047C14.4592 7.92002 14.6468 7.91948 14.8343 7.91883C15.3501 7.91737 15.8658 7.91741 16.3815 7.91769C16.9376 7.91774 17.4937 7.91642 18.0498 7.91529C19.1394 7.91331 20.2289 7.91266 21.3185 7.91252C22.2041 7.91241 23.0897 7.91192 23.9753 7.91117C26.4854 7.90907 28.9956 7.90797 31.5058 7.90815C31.7088 7.90816 31.7088 7.90816 31.9159 7.90818C32.1192 7.90819 32.1192 7.90819 32.3266 7.90821C34.5232 7.9083 36.7197 7.90602 38.9163 7.90266C41.1711 7.89924 43.4259 7.89759 45.6808 7.8978C46.9469 7.89788 48.2131 7.89722 49.4792 7.89466C50.5572 7.89249 51.6352 7.89197 52.7132 7.89359C53.2632 7.89437 53.8132 7.89438 54.3633 7.89231C54.8669 7.89044 55.3705 7.89078 55.8742 7.89286C56.0562 7.89323 56.2383 7.89279 56.4204 7.89146C57.5138 7.88403 58.3513 7.90994 59.2106 8.66299C59.2748 8.74054 59.339 8.8181 59.4052 8.89801C59.4712 8.97526 59.5372 9.05251 59.6053 9.1321C60.0171 9.7298 60.0493 10.281 60.0433 10.9904C60.0435 11.143 60.0435 11.143 60.0436 11.2987C60.0437 11.6396 60.0421 11.9804 60.0405 12.3213C60.0402 12.5657 60.0401 12.8102 60.0401 13.0546C60.0398 13.5811 60.0389 14.1077 60.0375 14.6342C60.0355 15.4673 60.0359 16.3005 60.0368 17.1337C60.039 19.503 60.0398 21.8723 60.0342 24.2416C60.031 25.5501 60.0309 26.8586 60.0341 28.1671C60.0356 28.8592 60.0356 29.5513 60.0319 30.2434C60.0285 30.8949 60.0289 31.5463 60.0322 32.1978C60.0328 32.4363 60.0319 32.6747 60.0295 32.9131C60.0163 34.2845 60.0624 35.2069 60.9689 36.3078C61.1472 36.6157 61.3024 36.9312 61.4529 37.2535C61.4922 37.3377 61.5316 37.4219 61.5721 37.5086C61.8725 38.1757 62.1111 38.8549 62.3241 39.5544C62.3525 39.6471 62.3809 39.7399 62.4102 39.8354C62.8169 41.2464 62.9241 42.6556 62.9198 44.119C62.9197 44.2439 62.9197 44.2439 62.9196 44.3713C62.9126 46.3311 62.5867 48.0853 61.9033 49.9219C61.6844 50.501 61.6844 50.501 61.8029 51.0812C62.0205 51.3424 62.0205 51.3424 62.2971 51.5978C62.3972 51.6952 62.4974 51.7926 62.6005 51.8929C62.8124 52.0955 63.0243 52.2981 63.2363 52.5007C63.3869 52.6472 63.3869 52.6472 63.5406 52.7967C63.6328 52.8847 63.7251 52.9728 63.8201 53.0635C64.101 53.3842 64.2722 53.6608 64.424 54.0598C64.3871 54.3943 64.3871 54.3943 64.3188 54.7471C64.3016 55.4959 64.5551 55.8416 65.0451 56.3651C65.5081 56.8266 65.9833 57.2731 66.4642 57.7159C66.7555 57.9894 67.0456 58.2641 67.3345 58.5402C67.5138 58.711 67.6946 58.8802 67.8771 59.0475C68.7772 59.8933 69.4803 60.9003 69.587 62.1557C69.6178 63.6182 69.3854 64.7517 68.3556 65.8547C67.3174 66.8302 66.3644 67.1151 64.9533 67.1034C62.9848 67.0265 61.8015 65.6588 60.5375 64.3082C60.3348 64.0942 60.132 63.8804 59.9292 63.6666C59.7922 63.5207 59.6566 63.3736 59.5222 63.2254C58.7438 62.3174 58.7438 62.3174 57.6929 61.845C57.4281 61.8531 57.1633 61.8698 56.8997 61.8964C56.5087 61.9271 56.2536 61.8524 55.9292 61.6259C55.3443 61.1076 54.8182 60.5285 54.2898 59.9537C54.1937 59.8534 54.0977 59.753 53.9987 59.6496C53.9129 59.5572 53.8271 59.4647 53.7387 59.3695C53.4684 59.1458 53.4684 59.1458 53.1014 59.2035C52.8232 59.281 52.5511 59.3574 52.2805 59.4574C49.3255 60.5172 45.8089 60.8792 42.7404 60.0168C42.6465 59.9912 42.5526 59.9655 42.4559 59.9391C40.154 59.2909 37.9998 58.2528 36.1876 56.6808C36.1239 56.6267 36.0601 56.5725 35.9944 56.5167C34.1918 54.9776 32.8651 53.1198 31.8702 50.9719C31.8268 50.8789 31.7834 50.7859 31.7386 50.69C31.6328 50.4631 31.5274 50.2361 31.422 50.009C31.2769 50.0087 31.2769 50.0087 31.1288 50.0084C28.7731 50.004 26.4174 49.997 24.0617 49.9871C22.9224 49.9823 21.7832 49.9785 20.644 49.9767C19.6509 49.9751 18.6578 49.9719 17.6647 49.9667C17.139 49.964 16.6133 49.9622 16.0876 49.9623C15.5924 49.9624 15.0973 49.9602 14.602 49.9564C14.4207 49.9554 14.2394 49.9552 14.058 49.9559C12.9628 49.9594 12.1189 49.9333 11.2584 49.1792C11.1942 49.1016 11.13 49.0241 11.0638 48.9442C10.9978 48.8669 10.9318 48.7896 10.8637 48.7101C10.5268 48.2211 10.4235 47.7915 10.4226 47.2021C10.4218 47.0695 10.4211 46.937 10.4203 46.8004C10.4206 46.6553 10.421 46.5103 10.4214 46.3609C10.4208 46.2063 10.4203 46.0518 10.4198 45.8926C10.4183 45.4638 10.4183 45.035 10.4186 44.6062C10.4187 44.1437 10.4173 43.6812 10.4162 43.2186C10.4142 42.3125 10.4136 41.4064 10.4134 40.5003C10.4133 39.7638 10.4128 39.0272 10.4121 38.2907C10.41 36.2025 10.4089 34.1143 10.4091 32.0261C10.4091 31.9135 10.4091 31.8009 10.4091 31.6849C10.4091 31.5722 10.4091 31.4595 10.4091 31.3433C10.4092 29.5166 10.4069 27.6898 10.4036 25.863C10.4002 23.9873 10.3985 22.1116 10.3987 20.2359C10.3988 19.1829 10.3981 18.1298 10.3956 17.0768C10.3934 16.1801 10.3929 15.2835 10.3945 14.3869C10.3953 13.9295 10.3953 13.4722 10.3932 13.0148C10.391 12.5187 10.3925 12.0227 10.3943 11.5267C10.3931 11.3824 10.3919 11.2382 10.3906 11.0896C10.3984 10.1418 10.5217 9.49035 11.1639 8.75746C11.2415 8.69326 11.319 8.62907 11.3989 8.56293C11.4762 8.49689 11.5534 8.43085 11.633 8.36281C12.1647 7.9965 12.6203 7.92246 13.2601 7.92168ZM12.5978 10.216C12.1825 11.1473 12.1825 11.1473 12.3595 13.6711C27.457 13.6711 42.5545 13.6711 58.1095 13.6711C58.3226 11.1048 58.3226 11.1048 57.7521 10.0969C57.3109 9.83512 56.906 9.82866 56.4004 9.82826C56.2469 9.82757 56.0934 9.82687 55.9353 9.82616C55.7652 9.82659 55.5951 9.82704 55.4251 9.82752C55.2442 9.82716 55.0634 9.8267 54.8825 9.82614C54.3854 9.82491 53.8882 9.82518 53.391 9.82568C52.8549 9.82598 52.3188 9.8249 51.7827 9.82401C50.7324 9.82249 49.6821 9.82228 48.6317 9.82256C47.7782 9.82277 46.9246 9.82256 46.0711 9.82206C45.9497 9.82198 45.8283 9.82191 45.7032 9.82184C45.4566 9.8217 45.21 9.82155 44.9634 9.82141C42.6499 9.82011 40.3364 9.82037 38.0229 9.82109C35.9055 9.82171 33.7881 9.82037 31.6707 9.8181C29.4975 9.8158 27.3243 9.81481 25.1511 9.81526C23.9306 9.81549 22.7101 9.81519 21.4897 9.81351C20.4507 9.81209 19.4118 9.81192 18.3729 9.81336C17.8427 9.81407 17.3125 9.81419 16.7823 9.81277C16.297 9.81148 15.8118 9.81184 15.3265 9.81351C15.1509 9.81383 14.9752 9.81354 14.7995 9.81259C14.5609 9.81139 14.3223 9.8126 14.0836 9.81393C13.9511 9.81393 13.8185 9.81392 13.6819 9.81391C13.2441 9.86687 12.9662 9.97374 12.5978 10.216ZM12.3595 15.5773C12.3521 20.7524 12.3448 25.9274 12.3372 31.2592C12.3339 32.8948 12.3307 34.5303 12.3273 36.2155C12.3261 37.6783 12.3261 37.6783 12.3254 39.1412C12.3251 39.794 12.3237 40.4469 12.3218 41.0998C12.3195 41.8525 12.3185 42.6052 12.319 43.358C12.3192 43.7432 12.3186 44.1283 12.3169 44.5134C12.3151 44.9258 12.3155 45.3381 12.3165 45.7504C12.3155 45.8707 12.3144 45.9909 12.3134 46.1149C12.3174 46.7389 12.3355 47.2224 12.7169 47.7453C13.1534 48.0033 13.5492 48.0131 14.0491 48.0122C14.2714 48.0127 14.2714 48.0127 14.4982 48.0132C14.6614 48.0124 14.8247 48.0115 14.988 48.0106C15.1606 48.0106 15.3332 48.0106 15.5059 48.0107C15.9738 48.0108 16.4416 48.0094 16.9095 48.0077C17.3988 48.0062 17.8881 48.0061 18.3773 48.0058C19.3035 48.0051 20.2297 48.0031 21.1558 48.0007C22.2104 47.9981 23.2649 47.9968 24.3194 47.9956C26.4884 47.9931 28.6573 47.9889 30.8263 47.9836C30.8096 47.8571 30.7928 47.7307 30.7756 47.6004C30.6246 46.4412 30.5399 45.3111 30.5433 44.1413C30.5434 44.0561 30.5435 43.971 30.5435 43.8832C30.5485 42.4669 30.6608 41.126 31.0646 39.7629C31.0901 39.6759 31.1156 39.5889 31.142 39.4992C32.4627 35.1505 35.3331 31.9091 39.2853 29.7551C39.5233 29.6354 39.7615 29.5161 40.0001 29.3976C40.0008 29.3268 40.0015 29.2559 40.0022 29.1829C40.0099 28.4466 40.0199 27.7103 40.0314 26.974C40.0354 26.699 40.0387 26.4241 40.0414 26.1492C40.0454 25.7543 40.0516 25.3596 40.0583 24.9648C40.0591 24.8415 40.0598 24.7183 40.0606 24.5913C40.0641 24.4196 40.0641 24.4196 40.0678 24.2444C40.0697 24.0932 40.0697 24.0932 40.0718 23.939C40.1306 23.6169 40.2116 23.5106 40.4767 23.3215C40.8399 23.2859 41.1783 23.2714 41.5415 23.274C41.6981 23.2735 41.6981 23.2735 41.8579 23.273C42.0787 23.2727 42.2994 23.2734 42.5201 23.2749C42.8582 23.2768 43.1962 23.2749 43.5343 23.2726C43.7487 23.2728 43.9631 23.2733 44.1775 23.274C44.2788 23.2733 44.38 23.2726 44.4844 23.2718C45.1876 23.2802 45.1876 23.2802 45.4473 23.4759C45.707 23.8218 45.6573 24.2355 45.6607 24.652C45.6639 24.7941 45.6639 24.7941 45.6672 24.939C45.6736 25.2412 45.6777 25.5435 45.6816 25.8458C45.6856 26.0508 45.6897 26.2558 45.694 26.4608C45.7044 26.9632 45.7116 27.4655 45.7189 27.968C46.3479 27.968 46.977 27.968 47.6251 27.968C47.6269 27.6667 47.6286 27.3654 47.6304 27.0549C47.6364 26.0606 47.6443 25.0662 47.6532 24.0719C47.6585 23.4689 47.6632 22.8659 47.6664 22.2629C47.6695 21.6812 47.6743 21.0995 47.6803 20.5178C47.6823 20.2957 47.6837 20.0735 47.6844 19.8513C47.6856 19.5407 47.6889 19.2301 47.6928 18.9194C47.6926 18.8271 47.6924 18.7348 47.6922 18.6397C47.7031 18.0238 47.7031 18.0238 47.8967 17.7244C48.2794 17.4973 48.7336 17.5522 49.1665 17.5553C49.2709 17.5549 49.3754 17.5546 49.4829 17.5542C49.7037 17.554 49.9244 17.5546 50.1451 17.5561C50.4832 17.558 50.8212 17.5561 51.1593 17.5539C51.3737 17.5541 51.5881 17.5545 51.8025 17.5553C51.9038 17.5545 52.005 17.5538 52.1094 17.5531C52.8115 17.5615 52.8115 17.5615 53.0726 17.7545C53.2567 18.0034 53.2702 18.1301 53.2722 18.4373C53.2745 18.5824 53.2745 18.5824 53.2768 18.7305C53.2765 18.8889 53.2765 18.8889 53.2763 19.0506C53.2775 19.1623 53.2787 19.2739 53.2799 19.3889C53.2835 19.7582 53.2846 20.1276 53.2857 20.497C53.2877 20.7529 53.2899 21.0088 53.2922 21.2648C53.2979 21.9387 53.3014 22.6127 53.3045 23.2867C53.3081 23.9743 53.3136 24.6618 53.319 25.3494C53.3292 26.6988 53.3373 28.0482 53.3439 29.3976C53.482 29.4695 53.6201 29.5414 53.7623 29.6154C53.9458 29.7116 54.1293 29.8078 54.3128 29.904C54.4036 29.9511 54.4943 29.9983 54.5878 30.0469C55.7489 30.6571 56.7356 31.4536 57.7381 32.2942C57.9521 32.5077 57.9521 32.5077 58.1095 32.4953C58.1095 26.9124 58.1095 21.3294 58.1095 15.5773C43.012 15.5773 27.9145 15.5773 12.3595 15.5773ZM49.5314 19.3898C49.5314 22.2992 49.5314 25.2087 49.5314 28.2062C50.4762 28.4576 50.4762 28.4576 51.4376 28.5637C51.4376 25.5363 51.4376 22.5089 51.4376 19.3898C50.8086 19.3898 50.1795 19.3898 49.5314 19.3898ZM41.9064 25.1086C41.9064 26.2488 41.9064 27.3889 41.9064 28.5637C42.7845 28.4491 42.7845 28.4491 43.8126 28.2062C43.8126 27.184 43.8126 26.1618 43.8126 25.1086C43.1836 25.1086 42.5545 25.1086 41.9064 25.1086ZM36.545 34.1633C36.4661 34.235 36.3872 34.3067 36.3058 34.3806C34.5399 36.011 33.5004 38.3302 32.8517 40.5969C32.811 40.7314 32.7703 40.8659 32.7284 41.0045C32.1531 43.2842 32.2805 45.9805 32.9708 48.2219C33.0082 48.3446 33.0082 48.3446 33.0463 48.4697C34.1455 51.9501 36.6513 55.0255 39.8917 56.7232C40.2807 56.9181 40.6748 57.0998 41.0724 57.2765C41.1994 57.334 41.3264 57.3914 41.4573 57.4506C44.8754 58.8802 48.7692 58.7227 52.1766 57.355C53.9602 56.5949 55.4275 55.5368 56.799 54.1789C56.8779 54.1072 56.9568 54.0354 57.0382 53.9616C58.2782 52.8167 59.0943 51.2913 59.7775 49.7707C59.8351 49.6435 59.8927 49.5164 59.952 49.3853C61.148 46.5209 61.2857 43.0831 60.3732 40.1203C60.3483 40.0385 60.3234 39.9567 60.2977 39.8724C59.1362 36.1947 56.4838 33.1841 53.0922 31.3953C47.5186 28.6093 40.9127 29.8389 36.545 34.1633ZM60.3732 52.8683C60.2044 53.076 60.0447 53.291 59.8892 53.5087C59.3773 54.2106 58.8253 54.8572 58.2286 55.4894C58.1084 55.6212 58.1084 55.6212 57.9857 55.7556C57.2039 56.5814 56.2951 57.2197 55.3693 57.8723C55.5669 58.3875 55.9496 58.7175 56.3373 59.0934C56.4044 59.1595 56.4715 59.2255 56.5407 59.2936C56.7057 59.4558 56.8714 59.6172 57.0372 59.7785C57.4375 59.6047 57.6987 59.3843 58.0054 59.0757C58.1007 58.9803 58.1961 58.8849 58.2944 58.7866C58.3962 58.6836 58.498 58.5806 58.6028 58.4745C58.7079 58.369 58.813 58.2636 58.9213 58.155C59.1999 57.8753 59.4779 57.5951 59.7557 57.3147C60.0396 57.0284 60.3241 56.7427 60.6087 56.457C61.1662 55.8968 61.7231 55.336 62.2794 54.7746C62.1205 54.4455 61.9719 54.1984 61.7135 53.9387C61.6508 53.8758 61.5882 53.8128 61.5236 53.7479C61.4585 53.6837 61.3934 53.6195 61.3263 53.5534C61.2286 53.4543 61.2286 53.4543 61.129 53.3533C60.8109 52.9884 60.8109 52.9884 60.3732 52.8683ZM62.4446 57.4418C62.3141 57.5722 62.1844 57.7034 62.0551 57.835C61.9867 57.9038 61.9183 57.9725 61.8478 58.0434C61.6287 58.2638 61.4105 58.485 61.1923 58.7062C61.0442 58.8555 60.896 59.0048 60.7478 59.1539C60.384 59.5204 60.021 59.8875 59.6583 60.2551C59.8189 60.6124 59.9979 60.8633 60.2732 61.141C60.3878 61.2573 60.3878 61.2573 60.5047 61.3759C60.5872 61.4583 60.6698 61.5407 60.7548 61.6256C60.84 61.7114 60.9253 61.7971 61.0131 61.8855C61.1935 62.0665 61.3741 62.2473 61.5551 62.4277C61.831 62.7033 62.1053 62.9803 62.3795 63.2575C62.5552 63.4335 62.7309 63.6093 62.9068 63.7851C62.9883 63.8677 63.0699 63.9504 63.1539 64.0356C63.777 64.6527 64.3263 65.0694 65.2356 65.0877C66.0019 65.0658 66.5005 64.8434 67.045 64.3058C67.5178 63.7178 67.5761 63.1135 67.5849 62.3768C67.4133 61.4695 66.7523 60.8641 66.1208 60.2406C66.0321 60.1519 65.9434 60.0632 65.8521 59.9718C65.6656 59.7856 65.4788 59.5999 65.2915 59.4146C65.0038 59.1297 64.7178 58.8433 64.4319 58.5566C64.2503 58.3757 64.0686 58.1949 63.8869 58.0142C63.801 57.9282 63.7151 57.8422 63.6266 57.7536C63.5471 57.6752 63.4676 57.5968 63.3856 57.516C63.3156 57.4466 63.2456 57.3771 63.1735 57.3056C62.8389 57.0289 62.7583 57.1553 62.4446 57.4418Z"/>
</mask>
<path d="M13.2601 7.92168C13.3759 7.92105 13.3759 7.92105 13.4941 7.92041C13.7533 7.9193 14.0125 7.91989 14.2717 7.92047C14.4592 7.92002 14.6468 7.91948 14.8343 7.91883C15.3501 7.91737 15.8658 7.91741 16.3815 7.91769C16.9376 7.91774 17.4937 7.91642 18.0498 7.91529C19.1394 7.91331 20.2289 7.91266 21.3185 7.91252C22.2041 7.91241 23.0897 7.91192 23.9753 7.91117C26.4854 7.90907 28.9956 7.90797 31.5058 7.90815C31.7088 7.90816 31.7088 7.90816 31.9159 7.90818C32.1192 7.90819 32.1192 7.90819 32.3266 7.90821C34.5232 7.9083 36.7197 7.90602 38.9163 7.90266C41.1711 7.89924 43.4259 7.89759 45.6808 7.8978C46.9469 7.89788 48.2131 7.89722 49.4792 7.89466C50.5572 7.89249 51.6352 7.89197 52.7132 7.89359C53.2632 7.89437 53.8132 7.89438 54.3633 7.89231C54.8669 7.89044 55.3705 7.89078 55.8742 7.89286C56.0562 7.89323 56.2383 7.89279 56.4204 7.89146C57.5138 7.88403 58.3513 7.90994 59.2106 8.66299C59.2748 8.74054 59.339 8.8181 59.4052 8.89801C59.4712 8.97526 59.5372 9.05251 59.6053 9.1321C60.0171 9.7298 60.0493 10.281 60.0433 10.9904C60.0435 11.143 60.0435 11.143 60.0436 11.2987C60.0437 11.6396 60.0421 11.9804 60.0405 12.3213C60.0402 12.5657 60.0401 12.8102 60.0401 13.0546C60.0398 13.5811 60.0389 14.1077 60.0375 14.6342C60.0355 15.4673 60.0359 16.3005 60.0368 17.1337C60.039 19.503 60.0398 21.8723 60.0342 24.2416C60.031 25.5501 60.0309 26.8586 60.0341 28.1671C60.0356 28.8592 60.0356 29.5513 60.0319 30.2434C60.0285 30.8949 60.0289 31.5463 60.0322 32.1978C60.0328 32.4363 60.0319 32.6747 60.0295 32.9131C60.0163 34.2845 60.0624 35.2069 60.9689 36.3078C61.1472 36.6157 61.3024 36.9312 61.4529 37.2535C61.4922 37.3377 61.5316 37.4219 61.5721 37.5086C61.8725 38.1757 62.1111 38.8549 62.3241 39.5544C62.3525 39.6471 62.3809 39.7399 62.4102 39.8354C62.8169 41.2464 62.9241 42.6556 62.9198 44.119C62.9197 44.2439 62.9197 44.2439 62.9196 44.3713C62.9126 46.3311 62.5867 48.0853 61.9033 49.9219C61.6844 50.501 61.6844 50.501 61.8029 51.0812C62.0205 51.3424 62.0205 51.3424 62.2971 51.5978C62.3972 51.6952 62.4974 51.7926 62.6005 51.8929C62.8124 52.0955 63.0243 52.2981 63.2363 52.5007C63.3869 52.6472 63.3869 52.6472 63.5406 52.7967C63.6328 52.8847 63.7251 52.9728 63.8201 53.0635C64.101 53.3842 64.2722 53.6608 64.424 54.0598C64.3871 54.3943 64.3871 54.3943 64.3188 54.7471C64.3016 55.4959 64.5551 55.8416 65.0451 56.3651C65.5081 56.8266 65.9833 57.2731 66.4642 57.7159C66.7555 57.9894 67.0456 58.2641 67.3345 58.5402C67.5138 58.711 67.6946 58.8802 67.8771 59.0475C68.7772 59.8933 69.4803 60.9003 69.587 62.1557C69.6178 63.6182 69.3854 64.7517 68.3556 65.8547C67.3174 66.8302 66.3644 67.1151 64.9533 67.1034C62.9848 67.0265 61.8015 65.6588 60.5375 64.3082C60.3348 64.0942 60.132 63.8804 59.9292 63.6666C59.7922 63.5207 59.6566 63.3736 59.5222 63.2254C58.7438 62.3174 58.7438 62.3174 57.6929 61.845C57.4281 61.8531 57.1633 61.8698 56.8997 61.8964C56.5087 61.9271 56.2536 61.8524 55.9292 61.6259C55.3443 61.1076 54.8182 60.5285 54.2898 59.9537C54.1937 59.8534 54.0977 59.753 53.9987 59.6496C53.9129 59.5572 53.8271 59.4647 53.7387 59.3695C53.4684 59.1458 53.4684 59.1458 53.1014 59.2035C52.8232 59.281 52.5511 59.3574 52.2805 59.4574C49.3255 60.5172 45.8089 60.8792 42.7404 60.0168C42.6465 59.9912 42.5526 59.9655 42.4559 59.9391C40.154 59.2909 37.9998 58.2528 36.1876 56.6808C36.1239 56.6267 36.0601 56.5725 35.9944 56.5167C34.1918 54.9776 32.8651 53.1198 31.8702 50.9719C31.8268 50.8789 31.7834 50.7859 31.7386 50.69C31.6328 50.4631 31.5274 50.2361 31.422 50.009C31.2769 50.0087 31.2769 50.0087 31.1288 50.0084C28.7731 50.004 26.4174 49.997 24.0617 49.9871C22.9224 49.9823 21.7832 49.9785 20.644 49.9767C19.6509 49.9751 18.6578 49.9719 17.6647 49.9667C17.139 49.964 16.6133 49.9622 16.0876 49.9623C15.5924 49.9624 15.0973 49.9602 14.602 49.9564C14.4207 49.9554 14.2394 49.9552 14.058 49.9559C12.9628 49.9594 12.1189 49.9333 11.2584 49.1792C11.1942 49.1016 11.13 49.0241 11.0638 48.9442C10.9978 48.8669 10.9318 48.7896 10.8637 48.7101C10.5268 48.2211 10.4235 47.7915 10.4226 47.2021C10.4218 47.0695 10.4211 46.937 10.4203 46.8004C10.4206 46.6553 10.421 46.5103 10.4214 46.3609C10.4208 46.2063 10.4203 46.0518 10.4198 45.8926C10.4183 45.4638 10.4183 45.035 10.4186 44.6062C10.4187 44.1437 10.4173 43.6812 10.4162 43.2186C10.4142 42.3125 10.4136 41.4064 10.4134 40.5003C10.4133 39.7638 10.4128 39.0272 10.4121 38.2907C10.41 36.2025 10.4089 34.1143 10.4091 32.0261C10.4091 31.9135 10.4091 31.8009 10.4091 31.6849C10.4091 31.5722 10.4091 31.4595 10.4091 31.3433C10.4092 29.5166 10.4069 27.6898 10.4036 25.863C10.4002 23.9873 10.3985 22.1116 10.3987 20.2359C10.3988 19.1829 10.3981 18.1298 10.3956 17.0768C10.3934 16.1801 10.3929 15.2835 10.3945 14.3869C10.3953 13.9295 10.3953 13.4722 10.3932 13.0148C10.391 12.5187 10.3925 12.0227 10.3943 11.5267C10.3931 11.3824 10.3919 11.2382 10.3906 11.0896C10.3984 10.1418 10.5217 9.49035 11.1639 8.75746C11.2415 8.69326 11.319 8.62907 11.3989 8.56293C11.4762 8.49689 11.5534 8.43085 11.633 8.36281C12.1647 7.9965 12.6203 7.92246 13.2601 7.92168ZM12.5978 10.216C12.1825 11.1473 12.1825 11.1473 12.3595 13.6711C27.457 13.6711 42.5545 13.6711 58.1095 13.6711C58.3226 11.1048 58.3226 11.1048 57.7521 10.0969C57.3109 9.83512 56.906 9.82866 56.4004 9.82826C56.2469 9.82757 56.0934 9.82687 55.9353 9.82616C55.7652 9.82659 55.5951 9.82704 55.4251 9.82752C55.2442 9.82716 55.0634 9.8267 54.8825 9.82614C54.3854 9.82491 53.8882 9.82518 53.391 9.82568C52.8549 9.82598 52.3188 9.8249 51.7827 9.82401C50.7324 9.82249 49.6821 9.82228 48.6317 9.82256C47.7782 9.82277 46.9246 9.82256 46.0711 9.82206C45.9497 9.82198 45.8283 9.82191 45.7032 9.82184C45.4566 9.8217 45.21 9.82155 44.9634 9.82141C42.6499 9.82011 40.3364 9.82037 38.0229 9.82109C35.9055 9.82171 33.7881 9.82037 31.6707 9.8181C29.4975 9.8158 27.3243 9.81481 25.1511 9.81526C23.9306 9.81549 22.7101 9.81519 21.4897 9.81351C20.4507 9.81209 19.4118 9.81192 18.3729 9.81336C17.8427 9.81407 17.3125 9.81419 16.7823 9.81277C16.297 9.81148 15.8118 9.81184 15.3265 9.81351C15.1509 9.81383 14.9752 9.81354 14.7995 9.81259C14.5609 9.81139 14.3223 9.8126 14.0836 9.81393C13.9511 9.81393 13.8185 9.81392 13.6819 9.81391C13.2441 9.86687 12.9662 9.97374 12.5978 10.216ZM12.3595 15.5773C12.3521 20.7524 12.3448 25.9274 12.3372 31.2592C12.3339 32.8948 12.3307 34.5303 12.3273 36.2155C12.3261 37.6783 12.3261 37.6783 12.3254 39.1412C12.3251 39.794 12.3237 40.4469 12.3218 41.0998C12.3195 41.8525 12.3185 42.6052 12.319 43.358C12.3192 43.7432 12.3186 44.1283 12.3169 44.5134C12.3151 44.9258 12.3155 45.3381 12.3165 45.7504C12.3155 45.8707 12.3144 45.9909 12.3134 46.1149C12.3174 46.7389 12.3355 47.2224 12.7169 47.7453C13.1534 48.0033 13.5492 48.0131 14.0491 48.0122C14.2714 48.0127 14.2714 48.0127 14.4982 48.0132C14.6614 48.0124 14.8247 48.0115 14.988 48.0106C15.1606 48.0106 15.3332 48.0106 15.5059 48.0107C15.9738 48.0108 16.4416 48.0094 16.9095 48.0077C17.3988 48.0062 17.8881 48.0061 18.3773 48.0058C19.3035 48.0051 20.2297 48.0031 21.1558 48.0007C22.2104 47.9981 23.2649 47.9968 24.3194 47.9956C26.4884 47.9931 28.6573 47.9889 30.8263 47.9836C30.8096 47.8571 30.7928 47.7307 30.7756 47.6004C30.6246 46.4412 30.5399 45.3111 30.5433 44.1413C30.5434 44.0561 30.5435 43.971 30.5435 43.8832C30.5485 42.4669 30.6608 41.126 31.0646 39.7629C31.0901 39.6759 31.1156 39.5889 31.142 39.4992C32.4627 35.1505 35.3331 31.9091 39.2853 29.7551C39.5233 29.6354 39.7615 29.5161 40.0001 29.3976C40.0008 29.3268 40.0015 29.2559 40.0022 29.1829C40.0099 28.4466 40.0199 27.7103 40.0314 26.974C40.0354 26.699 40.0387 26.4241 40.0414 26.1492C40.0454 25.7543 40.0516 25.3596 40.0583 24.9648C40.0591 24.8415 40.0598 24.7183 40.0606 24.5913C40.0641 24.4196 40.0641 24.4196 40.0678 24.2444C40.0697 24.0932 40.0697 24.0932 40.0718 23.939C40.1306 23.6169 40.2116 23.5106 40.4767 23.3215C40.8399 23.2859 41.1783 23.2714 41.5415 23.274C41.6981 23.2735 41.6981 23.2735 41.8579 23.273C42.0787 23.2727 42.2994 23.2734 42.5201 23.2749C42.8582 23.2768 43.1962 23.2749 43.5343 23.2726C43.7487 23.2728 43.9631 23.2733 44.1775 23.274C44.2788 23.2733 44.38 23.2726 44.4844 23.2718C45.1876 23.2802 45.1876 23.2802 45.4473 23.4759C45.707 23.8218 45.6573 24.2355 45.6607 24.652C45.6639 24.7941 45.6639 24.7941 45.6672 24.939C45.6736 25.2412 45.6777 25.5435 45.6816 25.8458C45.6856 26.0508 45.6897 26.2558 45.694 26.4608C45.7044 26.9632 45.7116 27.4655 45.7189 27.968C46.3479 27.968 46.977 27.968 47.6251 27.968C47.6269 27.6667 47.6286 27.3654 47.6304 27.0549C47.6364 26.0606 47.6443 25.0662 47.6532 24.0719C47.6585 23.4689 47.6632 22.8659 47.6664 22.2629C47.6695 21.6812 47.6743 21.0995 47.6803 20.5178C47.6823 20.2957 47.6837 20.0735 47.6844 19.8513C47.6856 19.5407 47.6889 19.2301 47.6928 18.9194C47.6926 18.8271 47.6924 18.7348 47.6922 18.6397C47.7031 18.0238 47.7031 18.0238 47.8967 17.7244C48.2794 17.4973 48.7336 17.5522 49.1665 17.5553C49.2709 17.5549 49.3754 17.5546 49.4829 17.5542C49.7037 17.554 49.9244 17.5546 50.1451 17.5561C50.4832 17.558 50.8212 17.5561 51.1593 17.5539C51.3737 17.5541 51.5881 17.5545 51.8025 17.5553C51.9038 17.5545 52.005 17.5538 52.1094 17.5531C52.8115 17.5615 52.8115 17.5615 53.0726 17.7545C53.2567 18.0034 53.2702 18.1301 53.2722 18.4373C53.2745 18.5824 53.2745 18.5824 53.2768 18.7305C53.2765 18.8889 53.2765 18.8889 53.2763 19.0506C53.2775 19.1623 53.2787 19.2739 53.2799 19.3889C53.2835 19.7582 53.2846 20.1276 53.2857 20.497C53.2877 20.7529 53.2899 21.0088 53.2922 21.2648C53.2979 21.9387 53.3014 22.6127 53.3045 23.2867C53.3081 23.9743 53.3136 24.6618 53.319 25.3494C53.3292 26.6988 53.3373 28.0482 53.3439 29.3976C53.482 29.4695 53.6201 29.5414 53.7623 29.6154C53.9458 29.7116 54.1293 29.8078 54.3128 29.904C54.4036 29.9511 54.4943 29.9983 54.5878 30.0469C55.7489 30.6571 56.7356 31.4536 57.7381 32.2942C57.9521 32.5077 57.9521 32.5077 58.1095 32.4953C58.1095 26.9124 58.1095 21.3294 58.1095 15.5773C43.012 15.5773 27.9145 15.5773 12.3595 15.5773ZM49.5314 19.3898C49.5314 22.2992 49.5314 25.2087 49.5314 28.2062C50.4762 28.4576 50.4762 28.4576 51.4376 28.5637C51.4376 25.5363 51.4376 22.5089 51.4376 19.3898C50.8086 19.3898 50.1795 19.3898 49.5314 19.3898ZM41.9064 25.1086C41.9064 26.2488 41.9064 27.3889 41.9064 28.5637C42.7845 28.4491 42.7845 28.4491 43.8126 28.2062C43.8126 27.184 43.8126 26.1618 43.8126 25.1086C43.1836 25.1086 42.5545 25.1086 41.9064 25.1086ZM36.545 34.1633C36.4661 34.235 36.3872 34.3067 36.3058 34.3806C34.5399 36.011 33.5004 38.3302 32.8517 40.5969C32.811 40.7314 32.7703 40.8659 32.7284 41.0045C32.1531 43.2842 32.2805 45.9805 32.9708 48.2219C33.0082 48.3446 33.0082 48.3446 33.0463 48.4697C34.1455 51.9501 36.6513 55.0255 39.8917 56.7232C40.2807 56.9181 40.6748 57.0998 41.0724 57.2765C41.1994 57.334 41.3264 57.3914 41.4573 57.4506C44.8754 58.8802 48.7692 58.7227 52.1766 57.355C53.9602 56.5949 55.4275 55.5368 56.799 54.1789C56.8779 54.1072 56.9568 54.0354 57.0382 53.9616C58.2782 52.8167 59.0943 51.2913 59.7775 49.7707C59.8351 49.6435 59.8927 49.5164 59.952 49.3853C61.148 46.5209 61.2857 43.0831 60.3732 40.1203C60.3483 40.0385 60.3234 39.9567 60.2977 39.8724C59.1362 36.1947 56.4838 33.1841 53.0922 31.3953C47.5186 28.6093 40.9127 29.8389 36.545 34.1633ZM60.3732 52.8683C60.2044 53.076 60.0447 53.291 59.8892 53.5087C59.3773 54.2106 58.8253 54.8572 58.2286 55.4894C58.1084 55.6212 58.1084 55.6212 57.9857 55.7556C57.2039 56.5814 56.2951 57.2197 55.3693 57.8723C55.5669 58.3875 55.9496 58.7175 56.3373 59.0934C56.4044 59.1595 56.4715 59.2255 56.5407 59.2936C56.7057 59.4558 56.8714 59.6172 57.0372 59.7785C57.4375 59.6047 57.6987 59.3843 58.0054 59.0757C58.1007 58.9803 58.1961 58.8849 58.2944 58.7866C58.3962 58.6836 58.498 58.5806 58.6028 58.4745C58.7079 58.369 58.813 58.2636 58.9213 58.155C59.1999 57.8753 59.4779 57.5951 59.7557 57.3147C60.0396 57.0284 60.3241 56.7427 60.6087 56.457C61.1662 55.8968 61.7231 55.336 62.2794 54.7746C62.1205 54.4455 61.9719 54.1984 61.7135 53.9387C61.6508 53.8758 61.5882 53.8128 61.5236 53.7479C61.4585 53.6837 61.3934 53.6195 61.3263 53.5534C61.2286 53.4543 61.2286 53.4543 61.129 53.3533C60.8109 52.9884 60.8109 52.9884 60.3732 52.8683ZM62.4446 57.4418C62.3141 57.5722 62.1844 57.7034 62.0551 57.835C61.9867 57.9038 61.9183 57.9725 61.8478 58.0434C61.6287 58.2638 61.4105 58.485 61.1923 58.7062C61.0442 58.8555 60.896 59.0048 60.7478 59.1539C60.384 59.5204 60.021 59.8875 59.6583 60.2551C59.8189 60.6124 59.9979 60.8633 60.2732 61.141C60.3878 61.2573 60.3878 61.2573 60.5047 61.3759C60.5872 61.4583 60.6698 61.5407 60.7548 61.6256C60.84 61.7114 60.9253 61.7971 61.0131 61.8855C61.1935 62.0665 61.3741 62.2473 61.5551 62.4277C61.831 62.7033 62.1053 62.9803 62.3795 63.2575C62.5552 63.4335 62.7309 63.6093 62.9068 63.7851C62.9883 63.8677 63.0699 63.9504 63.1539 64.0356C63.777 64.6527 64.3263 65.0694 65.2356 65.0877C66.0019 65.0658 66.5005 64.8434 67.045 64.3058C67.5178 63.7178 67.5761 63.1135 67.5849 62.3768C67.4133 61.4695 66.7523 60.8641 66.1208 60.2406C66.0321 60.1519 65.9434 60.0632 65.8521 59.9718C65.6656 59.7856 65.4788 59.5999 65.2915 59.4146C65.0038 59.1297 64.7178 58.8433 64.4319 58.5566C64.2503 58.3757 64.0686 58.1949 63.8869 58.0142C63.801 57.9282 63.7151 57.8422 63.6266 57.7536C63.5471 57.6752 63.4676 57.5968 63.3856 57.516C63.3156 57.4466 63.2456 57.3771 63.1735 57.3056C62.8389 57.0289 62.7583 57.1553 62.4446 57.4418Z" stroke="#0C253D" stroke-width="2.8" mask="url(#path-11-inside-1_9800_5565)"/>
<path d="M38.5645 35.5361C42.3032 31.4729 49.2052 31.4842 53.6289 34.5479C56.1366 36.4695 57.7734 39.031 58.3672 42.1289C58.5705 44.0601 58.5441 46.0066 57.9668 47.7822L57.9658 47.7832C57.9294 47.896 57.9291 47.8988 57.8936 48.0088C57.3026 49.7662 56.3421 51.1968 55.0244 52.5303L55.0137 52.541L55.0039 52.5527C54.929 52.6361 54.8535 52.7189 54.7764 52.8047C53.1423 54.5806 50.3833 55.7966 47.9561 55.9297C44.092 55.9788 41.1644 55.2017 38.3955 52.6465L38.1279 52.3936C35.8244 50.0819 34.8978 47.1005 34.8926 43.8086C34.9047 42.6502 35.0286 41.6241 35.375 40.5586V40.5576C35.4115 40.4445 35.4114 40.4419 35.4473 40.3311L35.4482 40.332C36.0392 38.5746 36.9987 37.144 38.3164 35.8105L38.3379 35.7891C38.4128 35.7057 38.4873 35.6219 38.5645 35.5361ZM37.4326 50.25C39.0568 52.6862 41.4854 54.4162 44.3867 55.0518L44.4082 55.0557C47.2755 55.5845 49.8517 55.0897 52.3525 53.6709C52.454 53.6134 52.5557 53.5563 52.6602 53.4971L52.6719 53.4902L52.6826 53.4834C53.9283 52.7091 55.097 51.5975 55.9102 50.3662L56.0176 50.2031V49.2393H36.7588L37.4326 50.25ZM39.999 35.5381C39.6005 35.5381 39.3138 35.7893 39.1924 35.9033C39.1162 35.9749 39.0489 36.0497 38.999 36.1045C38.941 36.1683 38.9132 36.1988 38.8906 36.2207L38.8857 36.2256L38.8799 36.2305C36.5858 38.5606 35.5804 41.3831 35.5977 44.5869L35.5986 44.5996C35.6309 45.89 35.8317 47.0597 36.4385 48.2734L36.6182 48.6328H56.7607L56.9248 48.2246C57.972 45.6067 58.0256 42.8317 57.0518 40.209L56.8428 39.6865L56.8379 39.6748L56.7061 39.3916C56.0274 37.986 55.0791 36.7268 53.8867 35.6963L53.7031 35.5381H52.6924V40.9561L53.2881 41.0059C53.6766 41.0382 54.0654 41.0705 54.4619 41.1035C54.4982 41.1511 54.5042 41.1694 54.5059 41.1748C54.5097 41.1868 54.5168 41.2151 54.5215 41.2852L54.5293 41.6006C54.5283 41.7398 54.5284 41.7442 54.5273 41.8945V41.9014L54.5283 42.2178C54.5286 42.4361 54.5278 42.6546 54.5264 42.873V42.874C54.5244 43.2166 54.526 43.5583 54.5283 43.8965C54.5281 44.1087 54.528 44.321 54.5273 44.5332V44.54L54.5293 44.8467C54.5272 45.0181 54.526 45.1354 54.5225 45.2246C54.5205 45.2755 54.5158 45.3082 54.5137 45.3291C54.4958 45.3357 54.4816 45.3394 54.4678 45.3418C54.442 45.3462 54.4061 45.3499 54.3467 45.3516C54.2827 45.3533 54.2164 45.3524 54.1152 45.3525H54.1113C53.976 45.3535 53.8406 45.3544 53.7012 45.3555C53.5533 45.3548 53.4053 45.3543 53.2529 45.3535H53.248C53.0886 45.354 52.929 45.3547 52.7695 45.3555H51.4775C51.0243 45.3546 50.5705 45.3559 50.1191 45.3564C49.3609 45.3571 48.6024 45.3562 47.8438 45.3545C46.9644 45.3525 46.0848 45.3525 45.2061 45.3545C44.4535 45.3561 43.7009 45.3564 42.9482 45.3555C42.4976 45.3549 42.0461 45.3553 41.5947 45.3564C41.1734 45.3575 40.7518 45.3566 40.3301 45.3545H40.3291C40.0985 45.3538 39.8681 45.3544 39.6406 45.3555C39.4381 45.354 39.4374 45.3541 39.2295 45.3525H38.915C38.8842 45.3478 38.8613 45.343 38.8428 45.3398C38.8276 45.2918 38.8155 45.2306 38.8096 45.1484C38.7963 44.9636 38.8124 44.8215 38.8145 44.54V44.5332L38.8135 44.2168C38.8132 43.9984 38.814 43.78 38.8154 43.5615V43.5605C38.8174 43.2196 38.8148 42.8796 38.8125 42.543C38.8127 42.3291 38.8138 42.1152 38.8145 41.9014V41.8945C38.8138 41.7975 38.8122 41.7004 38.8115 41.6006C38.8138 41.4139 38.8155 41.3009 38.8213 41.2168C38.8239 41.1797 38.8271 41.1575 38.8291 41.1455C38.8312 41.1429 38.8337 41.1396 38.8369 41.1357C38.845 41.126 38.8555 41.1162 38.8662 41.1045C39.3427 41.0648 39.425 41.0582 40.0527 41.0059L40.6484 40.9561V35.5381H39.999ZM39.3486 44.8203H53.9922V41.6143H39.3486V44.8203ZM43.8115 33.5127C43.3313 33.5127 42.908 33.671 42.5645 33.8301C42.3924 33.9097 42.222 33.9988 42.0732 34.0752C41.9187 34.1546 41.7814 34.2233 41.6484 34.2803L41.2549 34.4492V41.0078H44.4609V33.5127H43.8115ZM52.0859 34.4863L51.7412 34.3037C51.293 34.0659 51.0181 33.919 50.7314 33.8115C50.4431 33.7034 50.1491 33.6375 49.6748 33.5293L48.8799 33.3477V41.0078H52.0859V34.4863ZM48.2734 33.248L47.7236 33.1631C47.2286 33.0864 46.9107 33.0352 46.6104 33.0352C46.3004 33.0352 46.0175 33.0895 45.6006 33.166L45.0674 33.2637V41.0078H48.2734V33.248Z" stroke="#F7B019" stroke-width="1.3"/>
<path d="M22.668 21.8887C22.8535 21.8896 22.9359 21.8974 22.9951 21.9121C23.026 21.9198 23.0615 21.9343 23.1152 21.9678C23.1676 22.045 23.1796 22.0796 23.1846 22.1016C23.1979 22.1597 23.2013 22.2354 23.1992 22.4795V22.9189C23.1968 23.0694 23.1939 23.22 23.1914 23.375V23.3818C23.1905 23.5417 23.1899 23.7015 23.1895 23.8613C23.1876 24.2777 23.183 24.6946 23.1777 25.1133V25.1143C23.1728 25.5443 23.1704 25.9742 23.168 26.4014C23.1629 27.2391 23.1546 28.0777 23.1445 28.916L23.1367 29.5811L23.8027 29.5732C23.891 29.5722 23.9793 29.5704 24.0703 29.5693C24.9035 29.5598 25.7372 29.5535 26.5703 29.5488C27 29.5463 27.4305 29.5425 27.8613 29.5371C28.273 29.532 28.6852 29.5296 29.0977 29.5283H29.0986L29.8096 29.5195H30.2383C30.3987 29.5182 30.4231 29.5176 30.5449 29.5166C30.6616 29.5402 30.6929 29.5595 30.7041 29.5674C30.7225 29.5803 30.7468 29.6045 30.7979 29.665C31.0069 31.323 30.4342 33.0622 29.4609 34.501C28.2359 36.1165 26.5511 37.3285 24.6035 37.7598C22.1811 38.0435 19.9154 37.7768 18.0352 36.3594C16.4138 35.0332 15.153 33.2522 14.9102 31.2402C14.7453 28.7434 15.078 26.5481 16.6514 24.7217C18.2333 22.9907 20.1377 21.9462 22.4385 21.8965H22.4463C22.5596 21.8928 22.5676 21.891 22.668 21.8877V21.8887ZM29.4863 30.1865C26.9671 29.8263 24.9889 29.8849 23.2334 30.6104C21.4775 31.336 20.0353 32.6911 18.5088 34.7295L18.1787 35.1699L18.5596 35.5684C18.9927 36.0208 19.3639 36.3159 19.9316 36.5547L20.1885 36.6543C20.3197 36.7022 20.4508 36.7504 20.5859 36.7998L20.5957 36.8027L20.6045 36.8057C22.2496 37.3519 24.2669 37.2731 25.8535 36.543L25.873 36.5342L25.8906 36.5244C26.382 36.2591 26.8333 35.9668 27.2754 35.6445L27.2744 35.6436C27.3456 35.5943 27.4178 35.5458 27.4912 35.4951L27.5039 35.4873L27.5156 35.4775C28.9795 34.3627 29.766 32.6056 30.0361 30.9336L30.1416 30.2803L29.4863 30.1865ZM21.8887 22.6738C20.1516 22.6738 18.5854 23.8502 17.5518 24.8174L17.5361 24.832L17.5215 24.8477C16.1658 26.2967 15.5775 28.0782 15.5205 29.9766L15.5195 30L15.5205 30.0244C15.5845 31.4788 15.9806 33.0308 17.1484 34.1572L17.54 34.5342L17.9805 34.2158C19.3953 33.1925 20.1861 32.6248 20.8066 31.9219C21.4292 31.2166 21.8706 30.386 22.6641 28.9082L22.7217 28.8018L22.7363 28.6816C22.9676 26.8455 22.7821 24.9786 22.5322 23.2314L22.4521 22.6738H21.8887Z" stroke="#F7B019" stroke-width="1.3"/>
<path d="M15.9209 40.9482H15.9307C16.0505 40.9474 16.1704 40.9471 16.2939 40.9463C16.6878 40.9442 17.0821 40.9457 17.4795 40.9473H17.4834C17.7591 40.9469 18.0348 40.9459 18.3105 40.9453C18.8877 40.9446 19.4654 40.946 20.043 40.9482L22.2744 40.9463H23.9805C24.2549 40.9466 24.5293 40.9464 24.8037 40.9453C25.1827 40.9441 25.5629 40.9456 25.9443 40.9482H25.9541C26.1206 40.9468 26.1242 40.9467 26.2871 40.9453C26.4802 40.9478 26.6081 40.9503 26.7061 40.9551C26.8039 40.9599 26.8409 40.9664 26.8545 40.9697C26.8584 40.9704 26.8592 40.966 26.958 41.0312C26.9858 41.0808 26.9963 41.1062 27.002 41.124C27.0091 41.1468 27.0199 41.1909 27.0205 41.3242V41.3311C27.022 41.4248 27.0238 41.5187 27.0254 41.6152L27.0225 41.9023V41.9121C27.0231 42.0677 27.0227 42.0679 27.0234 42.2266C27.0238 42.4432 27.0235 42.6602 27.0215 42.877V42.8779L27.0244 43.8955L27.0225 44.5273V44.5361C27.0234 44.6363 27.0244 44.7367 27.0254 44.8398C27.024 44.9283 27.022 45.0173 27.0205 45.1084V45.1152C27.0203 45.1658 27.0198 45.2165 27.0195 45.2676C26.994 45.3507 26.98 45.3714 26.9756 45.377C26.9645 45.3909 26.9418 45.4103 26.8799 45.457C26.6002 45.4933 26.31 45.4933 25.9541 45.4902H25.9443C25.8242 45.4911 25.7039 45.4913 25.5801 45.4922H24.3916C24.1156 45.4925 23.8395 45.4926 23.5635 45.4932L21.8311 45.4912C21.0868 45.4885 20.3431 45.4903 19.6006 45.4932H17.8945C17.6199 45.4928 17.3449 45.493 17.0703 45.4941L15.9307 45.4902H15.9209C15.8105 45.4912 15.6995 45.4912 15.5859 45.4922C15.3937 45.4897 15.2657 45.4892 15.168 45.4844C15.0708 45.4796 15.0342 45.473 15.0205 45.4697C15.0163 45.4687 15.0182 45.4741 14.917 45.4072C14.8894 45.3579 14.8777 45.3332 14.8721 45.3154C14.8649 45.2927 14.8541 45.2488 14.8535 45.1152V45.1084L14.8496 44.8398C14.8506 44.7397 14.8515 44.6393 14.8525 44.5361V44.5273C14.8521 44.4234 14.8511 44.319 14.8506 44.2119C14.8503 43.9955 14.8516 43.779 14.8535 43.5625V43.5615C14.8561 43.2222 14.8536 42.8843 14.8506 42.5508C14.8509 42.338 14.8516 42.1248 14.8525 41.9121V41.9023C14.8516 41.8075 14.8505 41.7127 14.8496 41.6152C14.8511 41.5215 14.852 41.4276 14.8535 41.3311V41.1689C14.8811 41.0901 14.9103 41.0574 14.9238 41.0439C14.941 41.0268 14.9722 41.0037 15.0459 40.9834C15.1262 40.9613 15.2362 40.948 15.3926 40.9443C15.5582 40.9404 15.7102 40.9464 15.9209 40.9482ZM15.5215 44.8223H26.3525V41.6162H15.5215V44.8223Z" stroke="#0C253D" stroke-width="1.3"/>
<path d="M26.6699 17.9668C27.041 17.908 27.4889 17.9761 28.0039 18.0293C30.2129 18.389 32.0023 19.6061 33.376 21.4023C34.2225 22.7109 34.7021 24.1208 34.7354 25.6582V25.665C34.7378 25.7396 34.7406 25.8142 34.7432 25.8906C34.7423 26.0723 34.735 26.1681 34.7168 26.2432C34.7049 26.2919 34.6824 26.3425 34.6387 26.4121C34.5432 26.4745 34.4771 26.4969 34.415 26.5088C34.3075 26.5293 34.1887 26.5276 33.9209 26.5283H33.917C33.8342 26.5292 33.7513 26.5294 33.666 26.5303H32.2773L31.085 26.5293C30.5708 26.5266 30.0569 26.5274 29.5449 26.5303H27.7998C27.5407 26.5315 27.2808 26.531 27.0186 26.5283H27.0137C26.8781 26.528 26.7425 26.5277 26.6035 26.5273C26.5288 26.5154 26.48 26.5077 26.4414 26.5C26.3996 26.4917 26.3869 26.4865 26.3838 26.4854C26.3748 26.482 26.3657 26.4757 26.293 26.4287C26.2446 26.3399 26.2242 26.269 26.2119 26.1992C26.1915 26.0833 26.1911 25.9556 26.1904 25.7051V25.7002L26.1875 25.4492C26.1855 25.1802 26.1869 24.9101 26.1885 24.6367V24.6328L26.1875 24.0605C26.1868 23.6634 26.1872 23.2658 26.1895 22.8682L26.1885 21.3291V20.1533L26.1875 19.583C26.1863 19.3239 26.1878 19.064 26.1904 18.8018V18.3984C26.2237 18.2211 26.2858 18.1407 26.3359 18.0967C26.397 18.0431 26.4983 17.994 26.6699 17.9668ZM27.0586 25.6602H33.9121L33.7412 24.9775C33.1711 22.6971 32.2618 21.0459 30.1592 19.7568L30.1348 19.7412L30.1074 19.7285C29.3137 19.3519 28.5699 19.114 27.6982 18.9688L27.0586 18.8613V25.6602Z" stroke="#F7B019" stroke-width="1.1"/>
</g>
<defs>
<clipPath id="clip0_9800_5565">
<rect width="61" height="61" fill="white" transform="translate(9.5 7)"/>
</clipPath>
</defs>
</svg>
