<svg width="81" height="75" viewBox="0 0 81 75" fill="none" xmlns="http://www.w3.org/2000/svg">
<ellipse cx="32.6564" cy="41.3109" rx="29.4767" ry="29.2875" fill="#FFF8E8"/>
<ellipse cx="46.9454" cy="32.4359" rx="29.4767" ry="29.2875" fill="#FCF0D7"/>
<path d="M77.3203 14.6836L78.3284 16.3445L80 17.3461L78.3284 18.3477L77.3203 20.0086L76.3123 18.3477L74.6406 17.3461L76.3123 16.3445L77.3203 14.6836Z" fill="#FCEDCD"/>
<path d="M18.141 3.10606L20.0798 3.33136L21.9005 2.63165L21.6737 4.55806L22.3779 6.36698L20.4391 6.14168L18.6185 6.8414L18.8452 4.91499L18.141 3.10606Z" fill="#FCEDCD"/>
<path d="M14.7891 68.8203L15.7971 70.4812L17.4688 71.4828L15.7971 72.4844L14.7891 74.1453L13.781 72.4844L12.1094 71.4828L13.781 70.4812L14.7891 68.8203Z" fill="#FCEDCD"/>
<path d="M61.5556 70.632C61.4068 70.1883 61.4663 69.3008 62.8955 69.3008" stroke="#FCEDCD"/>
<path d="M0.55563 54.1789C0.406758 53.7352 0.466307 52.8477 1.89548 52.8477" stroke="#FCEDCD"/>
<path d="M79.1572 46.1906C79.0083 45.7469 79.0679 44.8594 80.497 44.8594" stroke="#FCEDCD"/>
<path d="M1.55563 24.4797C1.40676 24.0359 1.46631 23.1484 2.89548 23.1484" stroke="#FCEDCD"/>
<path d="M51.9759 1.31672C51.5687 1.54742 50.6861 1.65808 50.4138 0.255088" stroke="#FCEDCD"/>
<mask id="path-11-inside-1_15002_4099" fill="white">
<path d="M68.8329 7.48243C69.4906 7.97727 69.9617 8.5795 70.1435 9.38868C70.4929 12.313 69.1587 14.7776 67.4032 17.0137C65.4149 19.4981 63.0773 21.5603 60.2883 23.1024C59.8127 23.377 59.3719 23.6863 58.9312 24.0132C58.706 24.1621 58.706 24.1621 58.4677 24.1621C58.4677 24.2408 58.4677 24.3194 58.4677 24.4004C58.6127 24.4373 58.7576 24.4741 58.907 24.5121C60.1812 24.9422 61.3585 25.8652 62.0419 27.0215C62.7763 28.6071 62.8993 30.2783 63.0099 32.0031C63.0202 32.1552 63.0305 32.3073 63.0411 32.464C63.066 32.8341 63.0904 33.2041 63.1142 33.5742C63.1822 33.5749 63.2502 33.5756 63.3203 33.5763C64.0317 33.584 64.7429 33.5941 65.4542 33.6055C65.7193 33.6094 65.9844 33.6128 66.2495 33.6155C66.6316 33.6195 67.0137 33.6258 67.3958 33.6324C67.5133 33.6332 67.6309 33.6339 67.752 33.6347C68.5464 33.6514 69.2784 33.7265 69.9122 34.2556C69.9664 34.3256 70.0206 34.3956 70.0764 34.4678C70.1328 34.5378 70.1892 34.6078 70.2472 34.68C70.5089 35.0783 70.5301 35.4553 70.5456 35.9198C70.5514 36.0382 70.5572 36.1566 70.5632 36.2786C70.4227 37.1648 69.7354 37.8624 69.1754 38.5335C69.0382 38.7001 68.9011 38.8669 68.764 39.0338C68.6958 39.1167 68.6275 39.1997 68.5572 39.2852C68.2522 39.6589 67.9537 40.0375 67.6564 40.4174C67.603 40.4855 67.5497 40.5537 67.4947 40.6239C67.3449 40.8155 67.1953 41.0074 67.0458 41.1992C66.9578 41.3121 66.8698 41.425 66.7791 41.5413C66.5898 41.7845 66.4007 42.0279 66.2118 42.2715C66.391 42.6721 66.6232 42.978 66.9043 43.314C66.9999 43.4292 67.0954 43.5443 67.1938 43.663C67.2725 43.7576 67.2725 43.7576 67.3528 43.8542C70.5639 47.7264 70.5639 47.7264 70.5381 49.1658C70.4721 49.8279 70.1386 50.164 69.6669 50.589C69.1846 50.9407 68.8411 50.9838 68.2538 50.9823C68.1394 50.9823 68.0249 50.9823 67.907 50.9823C67.7844 50.9816 67.6617 50.981 67.5354 50.9804C67.4091 50.9802 67.2829 50.9801 67.1528 50.9799C66.7498 50.9792 66.3468 50.9777 65.9438 50.9762C65.6704 50.9756 65.3971 50.9751 65.1237 50.9746C64.4539 50.9733 63.784 50.9713 63.1142 50.9688C63.1088 51.0628 63.1035 51.1569 63.098 51.2538C62.7425 57.3342 62.7425 57.3342 60.9157 59.0331C59.8637 59.9255 58.4537 60.4268 57.1869 60.9319C55.1697 61.7384 53.767 62.6114 52.4111 64.3428C49.7243 67.7521 49.7243 67.7521 47.5852 68.0439C47.2925 68.0625 47.0033 68.0676 46.71 68.0654C46.603 68.0651 46.4961 68.0648 46.3859 68.0644C45.1312 68.0352 43.9478 67.7317 42.7411 67.4102C42.4657 67.3403 42.1902 67.2707 41.9146 67.2017C41.7535 67.1609 41.7535 67.1609 41.5893 67.1193C39.7264 66.6731 37.9239 67.188 36.1254 67.6825C34.6069 68.0987 32.5999 68.3717 31.1207 67.701C29.5828 66.8017 28.4844 65.5517 27.4092 64.1636C26.1198 62.5002 24.7253 61.6955 22.7925 60.917C18.6697 59.2521 18.6697 59.2521 17.7216 57.1641C17.2795 55.8572 17.134 54.5636 17.0365 53.1952C17.0216 53.0045 17.0066 52.8137 16.9914 52.623C16.8876 51.3016 16.8876 51.3016 16.8876 50.9688C16.8178 50.9696 16.748 50.9704 16.6761 50.9712C15.9474 50.9791 15.2188 50.9845 14.4901 50.9884C14.2184 50.9902 13.9467 50.9926 13.6751 50.9957C13.2838 51.0001 12.8926 51.0021 12.5013 51.0037C12.3805 51.0055 12.2597 51.0074 12.1353 51.0093C11.3456 51.0094 10.7137 50.9502 10.1012 50.4024C10.0456 50.3313 9.99005 50.2602 9.93277 50.1869C9.87533 50.1155 9.81789 50.0441 9.75871 49.9705C9.34069 49.3884 9.42276 48.6758 9.50088 47.9902C9.66338 47.5674 9.92504 47.2624 10.2157 46.918C10.3314 46.7746 10.4468 46.6309 10.562 46.487C10.8262 46.1583 11.0926 45.8316 11.3606 45.506C11.7381 45.0463 12.1063 44.5799 12.472 44.1107C12.898 43.5648 13.3321 43.0295 13.7899 42.5098C13.6182 41.9809 13.3267 41.6159 12.9634 41.2067C12.3151 40.4587 11.6995 39.6898 11.0935 38.9073C10.9269 38.6925 10.7594 38.4785 10.5918 38.2645C10.4838 38.1258 10.3758 37.9871 10.2678 37.8484C10.1239 37.6636 10.1239 37.6636 9.97698 37.4752C9.44308 36.7417 9.4054 36.1416 9.50088 35.2422C9.69208 34.6603 10.0617 34.2604 10.5731 33.9317C11.2349 33.6441 11.8736 33.6523 12.5827 33.644C12.7676 33.6406 12.7676 33.6406 12.9563 33.637C13.3483 33.63 13.7404 33.6244 14.1325 33.6189C14.399 33.6144 14.6655 33.6097 14.932 33.6049C15.5839 33.5935 16.2357 33.5834 16.8876 33.5742C16.8959 33.4537 16.9043 33.3331 16.9128 33.2089C16.9449 32.7524 16.9792 32.2962 17.0141 31.8399C17.0288 31.6441 17.0429 31.4483 17.0564 31.2525C17.1964 29.2249 17.4308 27.2106 18.9949 25.7407C20.2381 24.7632 21.6496 24.2056 23.1107 23.6495C25.1589 22.8658 26.5029 21.7442 27.8383 20.0205C29.0115 18.5073 30.3824 16.9656 32.3759 16.6563C33.8686 16.5558 35.2198 16.7734 36.6649 17.1328C36.7553 17.1551 36.8457 17.1773 36.9388 17.2002C37.3479 17.3013 37.7562 17.4042 38.164 17.5103C40.0607 17.972 41.6176 17.5724 43.4703 17.1008C45.5156 16.5816 47.5304 16.2694 49.4428 17.3488C49.8142 17.5805 50.1138 17.8171 50.4108 18.1381C50.514 18.2388 50.6172 18.3396 50.7235 18.4434C51.1426 18.4093 51.2215 18.3022 51.5301 17.9854C51.6521 17.8412 51.7729 17.696 51.8926 17.5498C51.9562 17.4738 52.0197 17.3978 52.0852 17.3195C52.6381 16.6551 53.1813 15.9845 53.6797 15.2778C54.2985 14.402 54.9871 13.6166 55.7274 12.8438C55.7898 12.7775 55.8522 12.7113 55.9164 12.6431C58.4507 9.95866 64.8685 4.82901 68.8329 7.48243ZM59.6591 11.8906C59.5956 11.9405 59.5322 11.9903 59.4668 12.0417C57.8236 13.3482 56.355 14.8303 55.1317 16.5371C55.3228 16.9979 55.6353 17.3266 55.9732 17.6838C56.0922 17.8116 56.2112 17.9395 56.3301 18.0673C56.419 18.1625 56.419 18.1625 56.5097 18.2595C56.7533 18.5217 56.9926 18.7876 57.2316 19.054C57.3173 19.1493 57.403 19.2447 57.4913 19.343C57.6733 19.546 57.8551 19.7493 58.0367 19.9526C58.1298 20.0566 58.2229 20.1606 58.3188 20.2677C58.4017 20.3606 58.4846 20.4535 58.5701 20.5493C58.8457 20.8486 59.1313 21.1359 59.4208 21.4219C63.1257 19.1223 67.1766 15.7352 68.2372 11.2949C68.3421 10.3723 68.3421 10.3723 68.1162 9.49153C67.8671 9.18159 67.6613 9.03787 67.2841 8.91212C64.4264 8.65266 61.8371 10.1734 59.6591 11.8906ZM53.8212 18.2051C53.6014 18.4531 53.3865 18.7035 53.1734 18.9572C52.7135 19.5001 52.2485 20.0351 51.766 20.5581C51.3843 20.9769 51.0067 21.398 50.6416 21.8314C50.523 21.9713 50.523 21.9713 50.402 22.1139C50.2235 22.3601 50.2235 22.3601 50.2586 22.6231C50.384 22.8896 50.5222 23.0391 50.7384 23.2388C51.12 23.6041 51.4695 23.9848 51.8144 24.3846C52.0613 24.6702 52.3117 24.9524 52.5628 25.2344C52.6437 25.3253 52.7246 25.4162 52.808 25.5099C52.8672 25.5762 52.9263 25.6426 52.9872 25.7109C53.6427 25.3534 54.24 24.9464 54.8413 24.5047C55.0298 24.3673 55.2183 24.23 55.4068 24.0928C55.5001 24.0246 55.5935 23.9565 55.6897 23.8863C56.1026 23.586 56.518 23.2893 56.9337 22.9931C57.0049 22.9423 57.0761 22.8915 57.1495 22.8392C57.3108 22.7241 57.4723 22.6091 57.6337 22.4942C57.4667 22.1193 57.2682 21.8568 56.9845 21.5615C56.903 21.476 56.8215 21.3904 56.7376 21.3023C56.6524 21.214 56.5673 21.1257 56.4795 21.0347C55.7811 20.3059 55.1006 19.5675 54.4499 18.7956C54.2822 18.5969 54.1115 18.4007 53.9403 18.2051C53.901 18.2051 53.8617 18.2051 53.8212 18.2051ZM30.5888 19.8731C30.5144 19.9414 30.4401 20.0097 30.3635 20.0802C29.8581 20.5599 29.4326 21.0787 29.0102 21.6304C27.3886 23.7273 25.6541 24.7469 23.185 25.7073C21.5844 26.3344 20.176 26.922 19.4198 28.5429C18.8073 30.1208 18.913 32.0372 18.913 33.6934C20.2891 33.6934 21.6651 33.6934 23.0829 33.6934C23.2377 33.4083 23.3925 33.1233 23.552 32.8296C24.3074 31.4715 25.2317 30.2962 26.2997 29.166C26.359 29.0971 26.4183 29.0281 26.4794 28.9571C26.7667 28.7171 27.0271 28.759 27.3869 28.7756C27.6103 28.8086 27.6103 28.8086 27.8485 28.9352C28.0514 29.3282 28.0394 29.5625 27.9677 30C27.8006 30.246 27.6095 30.4486 27.4041 30.6637C27.0704 31.0209 26.7668 31.3965 26.4635 31.7797C26.3822 31.8799 26.3823 31.8799 26.2993 31.9822C25.8613 32.5353 25.5813 33.0564 25.2274 33.6934C34.9779 33.6934 44.7284 33.6934 54.7743 33.6934C54.3768 32.9778 54.0142 32.3663 53.5085 31.7424C53.4516 31.6707 53.3948 31.599 53.3363 31.5251C53.0753 31.1982 52.8099 30.8877 52.5106 30.5957C52.1034 30.723 51.8118 30.9059 51.4831 31.1691C49.7508 32.4991 47.5617 32.7282 45.451 32.469C43.3702 32.1268 41.1617 30.9693 39.8817 29.2852C39.7381 28.9979 39.7386 28.8015 39.7328 28.481C39.7282 28.3308 39.7282 28.3308 39.7235 28.1775C39.7745 27.7573 39.8904 27.4972 40.12 27.1406C40.4686 26.8917 40.4686 26.8917 40.8721 26.6715C41.5087 26.3096 41.951 25.947 42.3837 25.3535C40.3977 24.7454 37.5385 25.1806 35.5927 25.7109C35.5029 25.7346 35.4132 25.7582 35.3208 25.7826C34.0577 26.1261 32.9309 26.6586 31.7895 27.2961C30.8288 27.8282 30.8288 27.8282 30.2313 27.8555C29.8888 27.7438 29.8888 27.7438 29.6356 27.4981C29.5457 26.8682 29.5457 26.8682 29.6356 26.5449C31.2583 24.5379 35.3158 23.7619 37.7274 23.4713C38.4587 23.4005 39.1996 23.4248 39.9339 23.4249C40.0697 23.4244 40.0697 23.4244 40.2084 23.4238C41.23 23.4203 42.2233 23.4427 43.2326 23.6185C43.7952 23.7152 43.7952 23.7152 44.3155 23.5492C44.5406 23.345 44.5406 23.345 44.7432 23.1075C45.0954 22.7628 45.482 22.5637 45.9207 22.3452C46.0034 22.3038 46.0861 22.2623 46.1714 22.2195C46.6886 21.9727 47.1605 21.8331 47.7301 21.7421C48.6672 21.5713 49.0995 20.9641 49.6513 20.2305C49.0072 19.4119 48.4005 18.859 47.3876 18.5625C46.0811 18.4188 44.8891 18.7109 43.6347 19.0316C43.3644 19.0988 43.094 19.1654 42.8235 19.2319C42.6571 19.273 42.4908 19.3146 42.3247 19.3568C40.019 19.938 37.9935 19.4755 35.7407 18.8934C33.6655 18.3627 32.1711 18.3382 30.5888 19.8731ZM45.161 25.1596C44.7062 25.6156 44.269 26.0849 43.8506 26.5747C43.2338 27.2954 42.5558 27.9682 41.6688 28.332C42.0622 29.309 43.3739 29.8409 44.2899 30.2383C45.9873 30.8964 47.8484 30.9728 49.5321 30.2383C50.6535 29.6301 51.4614 28.794 51.9447 27.6098C51.9032 27.1213 51.6754 26.9642 51.3211 26.6441C51.0923 26.4361 50.8942 26.2215 50.6938 25.9865C50.274 25.4992 49.8397 25.0264 49.4019 24.5553C49.1461 24.2784 48.9038 24.0006 48.6735 23.7018C48.603 23.6178 48.5325 23.5338 48.4599 23.4473C47.1839 23.4473 46.0327 24.3117 45.161 25.1596ZM56.0109 25.8343C55.8574 25.952 55.7059 26.0724 55.5562 26.195C55.405 26.3131 55.2537 26.4311 55.1024 26.5491C55.0287 26.6085 54.9549 26.668 54.8789 26.7292C54.6592 26.8992 54.4325 27.0493 54.2 27.2011C53.6878 27.5646 53.5745 27.9687 53.4554 28.5731C53.4346 28.9256 53.4346 28.9256 53.6136 29.1781C53.7759 29.3325 53.9445 29.4803 54.1172 29.623C54.4599 29.9179 54.7324 30.2453 55.0052 30.6032C55.0547 30.668 55.1043 30.7327 55.1553 30.7995C55.8313 31.7043 56.4141 32.6839 56.9189 33.6934C58.2949 33.6934 59.671 33.6934 61.0888 33.6934C61.0888 32.7426 61.0731 31.822 60.992 30.8787C60.9836 30.7644 60.9752 30.6501 60.9666 30.5324C60.8646 29.3275 60.6143 28.1742 59.7782 27.2598C58.9933 26.6376 58.0836 26.201 57.1571 25.8301C57.0447 25.773 56.9323 25.7158 56.8165 25.657C56.3947 25.5835 56.3489 25.6079 56.0109 25.8343ZM11.5263 35.5996C11.487 35.7962 11.4476 35.9928 11.4071 36.1953C11.5868 36.4608 11.7563 36.6712 11.973 36.9027C12.0959 37.0405 12.2184 37.1786 12.3407 37.3169C12.4353 37.4229 12.4353 37.4229 12.5319 37.5311C12.8207 37.8623 13.0894 38.2081 13.3581 38.5558C13.7125 39.0127 14.0704 39.4657 14.4382 39.912C14.5075 39.9961 14.5768 40.0803 14.6482 40.1671C14.782 40.3292 14.9162 40.4909 15.0511 40.6521C16.0418 41.8541 16.0418 41.8541 16.0676 42.5061C15.8818 43.0101 15.5831 43.3573 15.2345 43.7608C15.092 43.9307 14.9496 44.1007 14.8073 44.2708C14.7359 44.3554 14.6645 44.4401 14.591 44.5273C14.2959 44.881 14.0127 45.2434 13.7304 45.6074C13.3785 46.0606 13.0215 46.508 12.6535 46.9482C12.5824 47.0337 12.5114 47.1192 12.4382 47.2072C12.3 47.3731 12.1609 47.5382 12.0208 47.7024C11.5579 48.2516 11.5579 48.2516 11.4071 48.9434C11.5978 49.1341 11.7982 49.0775 12.0624 49.0777C12.2373 49.0782 12.2373 49.0782 12.4157 49.0788C12.6101 49.0785 12.6101 49.0785 12.8084 49.0782C13.0131 49.0785 13.0131 49.0785 13.2219 49.0789C13.6025 49.0795 13.983 49.0796 14.3635 49.0794C14.7732 49.0794 15.183 49.0801 15.5927 49.0807C16.3033 49.0816 17.0138 49.0822 17.7244 49.0826C18.8471 49.0833 19.9698 49.0853 21.0924 49.0875C21.4762 49.0883 21.86 49.089 22.2438 49.0898C22.3397 49.09 22.4357 49.0902 22.5345 49.0904C23.6272 49.0925 24.7199 49.0944 25.8126 49.0962C25.9126 49.0964 26.0125 49.0965 26.1155 49.0967C27.735 49.0993 29.3544 49.1006 30.9739 49.1015C32.6353 49.1025 34.2966 49.1052 35.958 49.1096C36.9834 49.1122 38.0089 49.1134 39.0344 49.1126C39.737 49.1123 40.4396 49.1136 41.1422 49.1163C41.5478 49.1178 41.9535 49.1186 42.3592 49.1172C42.7986 49.1162 43.2379 49.118 43.6773 49.1206C43.8061 49.1196 43.9349 49.1186 44.0676 49.1176C44.9258 49.127 44.9258 49.127 45.3223 49.4014C45.5415 49.7553 45.5495 49.9643 45.4814 50.3731C45.2181 50.7261 45.0764 50.8378 44.6373 50.9101C44.4192 50.9108 44.4192 50.9108 44.1967 50.9115C44.0749 50.9128 44.0749 50.9128 43.9507 50.9142C43.6788 50.9166 43.4071 50.9156 43.1352 50.9147C42.9403 50.9157 42.7453 50.9169 42.5504 50.9184C42.0212 50.9217 41.4921 50.9221 40.9628 50.922C40.4098 50.9224 39.8568 50.9254 39.3038 50.9282C38.2565 50.933 37.2092 50.9354 36.162 50.937C34.9697 50.9389 33.7775 50.9435 32.5852 50.9483C30.1326 50.9581 27.68 50.9645 25.2274 50.9688C25.301 51.1196 25.3749 51.2703 25.4491 51.4209C25.4902 51.5048 25.5314 51.5887 25.5738 51.6752C25.7686 52.0442 26.0106 52.3712 26.2699 52.6963C26.3257 52.7664 26.3815 52.8365 26.439 52.9087C29.5022 56.6649 33.6949 58.9945 38.5261 59.4855C42.8754 59.8791 47.3581 58.5265 50.7235 55.7344C51.132 55.3881 51.5261 55.0303 51.9149 54.6621C52.0203 54.5644 52.1257 54.4668 52.2342 54.3661C52.8719 53.7555 53.4246 53.1232 53.9478 52.4133C54.0032 52.3382 54.0586 52.2631 54.1158 52.1857C54.3998 51.7895 54.5961 51.4249 54.7743 50.9688C54.6963 50.9683 54.6182 50.9679 54.5378 50.9674C53.726 50.9625 52.9144 50.9542 52.1027 50.944C51.7997 50.9407 51.4967 50.9381 51.1936 50.9365C50.7583 50.9339 50.323 50.9284 49.8877 50.9222C49.752 50.9221 49.6164 50.9219 49.4766 50.9218C49.3502 50.9194 49.2238 50.9171 49.0936 50.9147C48.9825 50.9136 48.8714 50.9125 48.7569 50.9115C48.3694 50.8308 48.2257 50.6803 47.9833 50.3731C47.9237 50.0156 47.9237 50.0156 47.9833 49.6582C48.2476 49.3028 48.3894 49.1931 48.8311 49.1212C48.9783 49.1207 49.1254 49.1203 49.277 49.1198C49.3592 49.1189 49.4413 49.118 49.526 49.1171C49.8011 49.1147 50.0762 49.1157 50.3513 49.1166C50.5486 49.1156 50.7459 49.1143 50.9431 49.1129C51.4787 49.1096 52.0143 49.1092 52.5499 49.1093C53.1096 49.1089 53.6693 49.1059 54.229 49.1031C55.289 49.0982 56.3489 49.0958 57.4088 49.0943C58.6155 49.0924 59.8221 49.0878 61.0288 49.083C63.511 49.0732 65.9932 49.0667 68.4755 49.0625C68.5563 48.8417 68.5563 48.8417 68.5946 48.5859C68.4211 48.3151 68.2496 48.0855 68.0436 47.8413C67.9846 47.7688 67.9255 47.6963 67.8647 47.6217C67.7378 47.4662 67.6103 47.3113 67.4822 47.157C67.2205 46.8413 66.9623 46.5228 66.704 46.2044C66.5742 46.0444 66.4443 45.8846 66.3142 45.7249C65.8765 45.1875 65.4424 44.6474 65.013 44.1033C64.9604 44.0371 64.9079 43.9709 64.8538 43.9027C64.7087 43.718 64.5666 43.5309 64.4247 43.3438C64.2849 43.1691 64.2849 43.1691 64.1422 42.991C63.9481 42.6289 63.9481 42.6289 63.9305 42.2273C64.1142 41.6466 64.4277 41.286 64.8268 40.8344C64.9804 40.6545 65.1338 40.4746 65.2871 40.2945C65.3634 40.2057 65.4396 40.117 65.5182 40.0255C65.8762 39.6033 66.2141 39.1663 66.5523 38.7282C66.8516 38.3428 67.1585 37.9664 67.4754 37.5952C67.5836 37.4669 67.5836 37.4669 67.6941 37.336C67.8349 37.1696 67.9772 37.0044 68.1211 36.8406C68.1846 36.7651 68.2481 36.6896 68.3135 36.6119C68.3707 36.5457 68.4279 36.4796 68.4868 36.4115C68.6477 36.1442 68.6477 36.1442 68.4755 35.5996C49.6822 35.5996 30.889 35.5996 11.5263 35.5996ZM18.913 50.9688C18.8071 54.2419 18.8071 54.2419 19.9704 57.2013C21.0685 58.2971 22.6121 58.8141 24.029 59.3576C26.1038 60.1552 27.5959 61.2102 28.958 62.9722C30.4262 64.9064 30.4262 64.9064 32.495 66.0996C34.0794 66.2674 35.5044 65.8624 37.0275 65.4719C39.4077 64.8835 41.3749 65.0613 43.7307 65.6659C45.9419 66.2658 45.9419 66.2658 48.1471 65.8688C49.1963 65.2382 49.9599 64.3735 50.6937 63.4131C52.5041 61.0521 54.4809 59.8496 57.2588 58.81C58.5413 58.317 59.9077 57.6882 60.514 56.3869C61.1264 54.6899 61.1099 52.7517 61.0888 50.9688C60.5294 50.9302 59.9708 50.9023 59.4104 50.8837C59.2204 50.8759 59.0303 50.8654 58.8406 50.8519C58.2095 50.8083 57.6518 50.8011 57.038 50.9688C56.5803 51.4258 56.3446 51.9311 56.0849 52.5176C55.9885 52.6731 55.8883 52.8265 55.7814 52.9751C55.6948 53.0969 55.6082 53.2186 55.5189 53.3441C52.5054 57.5277 48.1716 60.2075 43.0985 61.0957C38.1018 61.8415 32.9078 60.7603 28.8021 57.7466C27.02 56.3969 25.5574 54.9061 24.2808 53.0658C24.2219 52.9827 24.163 52.8995 24.1022 52.8138C23.9169 52.5176 23.9169 52.5176 23.7343 52.1118C23.5139 51.6583 23.3227 51.3245 22.9638 50.9688C22.2593 50.7774 21.6008 50.8207 20.8788 50.872C20.688 50.8797 20.4972 50.8868 20.3064 50.8931C19.8412 50.9101 19.3774 50.9368 18.913 50.9688Z"/>
</mask>
<path d="M68.8329 7.48243C69.4906 7.97727 69.9617 8.5795 70.1435 9.38868C70.4929 12.313 69.1587 14.7776 67.4032 17.0137C65.4149 19.4981 63.0773 21.5603 60.2883 23.1024C59.8127 23.377 59.3719 23.6863 58.9312 24.0132C58.706 24.1621 58.706 24.1621 58.4677 24.1621C58.4677 24.2408 58.4677 24.3194 58.4677 24.4004C58.6127 24.4373 58.7576 24.4741 58.907 24.5121C60.1812 24.9422 61.3585 25.8652 62.0419 27.0215C62.7763 28.6071 62.8993 30.2783 63.0099 32.0031C63.0202 32.1552 63.0305 32.3073 63.0411 32.464C63.066 32.8341 63.0904 33.2041 63.1142 33.5742C63.1822 33.5749 63.2502 33.5756 63.3203 33.5763C64.0317 33.584 64.7429 33.5941 65.4542 33.6055C65.7193 33.6094 65.9844 33.6128 66.2495 33.6155C66.6316 33.6195 67.0137 33.6258 67.3958 33.6324C67.5133 33.6332 67.6309 33.6339 67.752 33.6347C68.5464 33.6514 69.2784 33.7265 69.9122 34.2556C69.9664 34.3256 70.0206 34.3956 70.0764 34.4678C70.1328 34.5378 70.1892 34.6078 70.2472 34.68C70.5089 35.0783 70.5301 35.4553 70.5456 35.9198C70.5514 36.0382 70.5572 36.1566 70.5632 36.2786C70.4227 37.1648 69.7354 37.8624 69.1754 38.5335C69.0382 38.7001 68.9011 38.8669 68.764 39.0338C68.6958 39.1167 68.6275 39.1997 68.5572 39.2852C68.2522 39.6589 67.9537 40.0375 67.6564 40.4174C67.603 40.4855 67.5497 40.5537 67.4947 40.6239C67.3449 40.8155 67.1953 41.0074 67.0458 41.1992C66.9578 41.3121 66.8698 41.425 66.7791 41.5413C66.5898 41.7845 66.4007 42.0279 66.2118 42.2715C66.391 42.6721 66.6232 42.978 66.9043 43.314C66.9999 43.4292 67.0954 43.5443 67.1938 43.663C67.2725 43.7576 67.2725 43.7576 67.3528 43.8542C70.5639 47.7264 70.5639 47.7264 70.5381 49.1658C70.4721 49.8279 70.1386 50.164 69.6669 50.589C69.1846 50.9407 68.8411 50.9838 68.2538 50.9823C68.1394 50.9823 68.0249 50.9823 67.907 50.9823C67.7844 50.9816 67.6617 50.981 67.5354 50.9804C67.4091 50.9802 67.2829 50.9801 67.1528 50.9799C66.7498 50.9792 66.3468 50.9777 65.9438 50.9762C65.6704 50.9756 65.3971 50.9751 65.1237 50.9746C64.4539 50.9733 63.784 50.9713 63.1142 50.9688C63.1088 51.0628 63.1035 51.1569 63.098 51.2538C62.7425 57.3342 62.7425 57.3342 60.9157 59.0331C59.8637 59.9255 58.4537 60.4268 57.1869 60.9319C55.1697 61.7384 53.767 62.6114 52.4111 64.3428C49.7243 67.7521 49.7243 67.7521 47.5852 68.0439C47.2925 68.0625 47.0033 68.0676 46.71 68.0654C46.603 68.0651 46.4961 68.0648 46.3859 68.0644C45.1312 68.0352 43.9478 67.7317 42.7411 67.4102C42.4657 67.3403 42.1902 67.2707 41.9146 67.2017C41.7535 67.1609 41.7535 67.1609 41.5893 67.1193C39.7264 66.6731 37.9239 67.188 36.1254 67.6825C34.6069 68.0987 32.5999 68.3717 31.1207 67.701C29.5828 66.8017 28.4844 65.5517 27.4092 64.1636C26.1198 62.5002 24.7253 61.6955 22.7925 60.917C18.6697 59.2521 18.6697 59.2521 17.7216 57.1641C17.2795 55.8572 17.134 54.5636 17.0365 53.1952C17.0216 53.0045 17.0066 52.8137 16.9914 52.623C16.8876 51.3016 16.8876 51.3016 16.8876 50.9688C16.8178 50.9696 16.748 50.9704 16.6761 50.9712C15.9474 50.9791 15.2188 50.9845 14.4901 50.9884C14.2184 50.9902 13.9467 50.9926 13.6751 50.9957C13.2838 51.0001 12.8926 51.0021 12.5013 51.0037C12.3805 51.0055 12.2597 51.0074 12.1353 51.0093C11.3456 51.0094 10.7137 50.9502 10.1012 50.4024C10.0456 50.3313 9.99005 50.2602 9.93277 50.1869C9.87533 50.1155 9.81789 50.0441 9.75871 49.9705C9.34069 49.3884 9.42276 48.6758 9.50088 47.9902C9.66338 47.5674 9.92504 47.2624 10.2157 46.918C10.3314 46.7746 10.4468 46.6309 10.562 46.487C10.8262 46.1583 11.0926 45.8316 11.3606 45.506C11.7381 45.0463 12.1063 44.5799 12.472 44.1107C12.898 43.5648 13.3321 43.0295 13.7899 42.5098C13.6182 41.9809 13.3267 41.6159 12.9634 41.2067C12.3151 40.4587 11.6995 39.6898 11.0935 38.9073C10.9269 38.6925 10.7594 38.4785 10.5918 38.2645C10.4838 38.1258 10.3758 37.9871 10.2678 37.8484C10.1239 37.6636 10.1239 37.6636 9.97698 37.4752C9.44308 36.7417 9.4054 36.1416 9.50088 35.2422C9.69208 34.6603 10.0617 34.2604 10.5731 33.9317C11.2349 33.6441 11.8736 33.6523 12.5827 33.644C12.7676 33.6406 12.7676 33.6406 12.9563 33.637C13.3483 33.63 13.7404 33.6244 14.1325 33.6189C14.399 33.6144 14.6655 33.6097 14.932 33.6049C15.5839 33.5935 16.2357 33.5834 16.8876 33.5742C16.8959 33.4537 16.9043 33.3331 16.9128 33.2089C16.9449 32.7524 16.9792 32.2962 17.0141 31.8399C17.0288 31.6441 17.0429 31.4483 17.0564 31.2525C17.1964 29.2249 17.4308 27.2106 18.9949 25.7407C20.2381 24.7632 21.6496 24.2056 23.1107 23.6495C25.1589 22.8658 26.5029 21.7442 27.8383 20.0205C29.0115 18.5073 30.3824 16.9656 32.3759 16.6563C33.8686 16.5558 35.2198 16.7734 36.6649 17.1328C36.7553 17.1551 36.8457 17.1773 36.9388 17.2002C37.3479 17.3013 37.7562 17.4042 38.164 17.5103C40.0607 17.972 41.6176 17.5724 43.4703 17.1008C45.5156 16.5816 47.5304 16.2694 49.4428 17.3488C49.8142 17.5805 50.1138 17.8171 50.4108 18.1381C50.514 18.2388 50.6172 18.3396 50.7235 18.4434C51.1426 18.4093 51.2215 18.3022 51.5301 17.9854C51.6521 17.8412 51.7729 17.696 51.8926 17.5498C51.9562 17.4738 52.0197 17.3978 52.0852 17.3195C52.6381 16.6551 53.1813 15.9845 53.6797 15.2778C54.2985 14.402 54.9871 13.6166 55.7274 12.8438C55.7898 12.7775 55.8522 12.7113 55.9164 12.6431C58.4507 9.95866 64.8685 4.82901 68.8329 7.48243ZM59.6591 11.8906C59.5956 11.9405 59.5322 11.9903 59.4668 12.0417C57.8236 13.3482 56.355 14.8303 55.1317 16.5371C55.3228 16.9979 55.6353 17.3266 55.9732 17.6838C56.0922 17.8116 56.2112 17.9395 56.3301 18.0673C56.419 18.1625 56.419 18.1625 56.5097 18.2595C56.7533 18.5217 56.9926 18.7876 57.2316 19.054C57.3173 19.1493 57.403 19.2447 57.4913 19.343C57.6733 19.546 57.8551 19.7493 58.0367 19.9526C58.1298 20.0566 58.2229 20.1606 58.3188 20.2677C58.4017 20.3606 58.4846 20.4535 58.5701 20.5493C58.8457 20.8486 59.1313 21.1359 59.4208 21.4219C63.1257 19.1223 67.1766 15.7352 68.2372 11.2949C68.3421 10.3723 68.3421 10.3723 68.1162 9.49153C67.8671 9.18159 67.6613 9.03787 67.2841 8.91212C64.4264 8.65266 61.8371 10.1734 59.6591 11.8906ZM53.8212 18.2051C53.6014 18.4531 53.3865 18.7035 53.1734 18.9572C52.7135 19.5001 52.2485 20.0351 51.766 20.5581C51.3843 20.9769 51.0067 21.398 50.6416 21.8314C50.523 21.9713 50.523 21.9713 50.402 22.1139C50.2235 22.3601 50.2235 22.3601 50.2586 22.6231C50.384 22.8896 50.5222 23.0391 50.7384 23.2388C51.12 23.6041 51.4695 23.9848 51.8144 24.3846C52.0613 24.6702 52.3117 24.9524 52.5628 25.2344C52.6437 25.3253 52.7246 25.4162 52.808 25.5099C52.8672 25.5762 52.9263 25.6426 52.9872 25.7109C53.6427 25.3534 54.24 24.9464 54.8413 24.5047C55.0298 24.3673 55.2183 24.23 55.4068 24.0928C55.5001 24.0246 55.5935 23.9565 55.6897 23.8863C56.1026 23.586 56.518 23.2893 56.9337 22.9931C57.0049 22.9423 57.0761 22.8915 57.1495 22.8392C57.3108 22.7241 57.4723 22.6091 57.6337 22.4942C57.4667 22.1193 57.2682 21.8568 56.9845 21.5615C56.903 21.476 56.8215 21.3904 56.7376 21.3023C56.6524 21.214 56.5673 21.1257 56.4795 21.0347C55.7811 20.3059 55.1006 19.5675 54.4499 18.7956C54.2822 18.5969 54.1115 18.4007 53.9403 18.2051C53.901 18.2051 53.8617 18.2051 53.8212 18.2051ZM30.5888 19.8731C30.5144 19.9414 30.4401 20.0097 30.3635 20.0802C29.8581 20.5599 29.4326 21.0787 29.0102 21.6304C27.3886 23.7273 25.6541 24.7469 23.185 25.7073C21.5844 26.3344 20.176 26.922 19.4198 28.5429C18.8073 30.1208 18.913 32.0372 18.913 33.6934C20.2891 33.6934 21.6651 33.6934 23.0829 33.6934C23.2377 33.4083 23.3925 33.1233 23.552 32.8296C24.3074 31.4715 25.2317 30.2962 26.2997 29.166C26.359 29.0971 26.4183 29.0281 26.4794 28.9571C26.7667 28.7171 27.0271 28.759 27.3869 28.7756C27.6103 28.8086 27.6103 28.8086 27.8485 28.9352C28.0514 29.3282 28.0394 29.5625 27.9677 30C27.8006 30.246 27.6095 30.4486 27.4041 30.6637C27.0704 31.0209 26.7668 31.3965 26.4635 31.7797C26.3822 31.8799 26.3823 31.8799 26.2993 31.9822C25.8613 32.5353 25.5813 33.0564 25.2274 33.6934C34.9779 33.6934 44.7284 33.6934 54.7743 33.6934C54.3768 32.9778 54.0142 32.3663 53.5085 31.7424C53.4516 31.6707 53.3948 31.599 53.3363 31.5251C53.0753 31.1982 52.8099 30.8877 52.5106 30.5957C52.1034 30.723 51.8118 30.9059 51.4831 31.1691C49.7508 32.4991 47.5617 32.7282 45.451 32.469C43.3702 32.1268 41.1617 30.9693 39.8817 29.2852C39.7381 28.9979 39.7386 28.8015 39.7328 28.481C39.7282 28.3308 39.7282 28.3308 39.7235 28.1775C39.7745 27.7573 39.8904 27.4972 40.12 27.1406C40.4686 26.8917 40.4686 26.8917 40.8721 26.6715C41.5087 26.3096 41.951 25.947 42.3837 25.3535C40.3977 24.7454 37.5385 25.1806 35.5927 25.7109C35.5029 25.7346 35.4132 25.7582 35.3208 25.7826C34.0577 26.1261 32.9309 26.6586 31.7895 27.2961C30.8288 27.8282 30.8288 27.8282 30.2313 27.8555C29.8888 27.7438 29.8888 27.7438 29.6356 27.4981C29.5457 26.8682 29.5457 26.8682 29.6356 26.5449C31.2583 24.5379 35.3158 23.7619 37.7274 23.4713C38.4587 23.4005 39.1996 23.4248 39.9339 23.4249C40.0697 23.4244 40.0697 23.4244 40.2084 23.4238C41.23 23.4203 42.2233 23.4427 43.2326 23.6185C43.7952 23.7152 43.7952 23.7152 44.3155 23.5492C44.5406 23.345 44.5406 23.345 44.7432 23.1075C45.0954 22.7628 45.482 22.5637 45.9207 22.3452C46.0034 22.3038 46.0861 22.2623 46.1714 22.2195C46.6886 21.9727 47.1605 21.8331 47.7301 21.7421C48.6672 21.5713 49.0995 20.9641 49.6513 20.2305C49.0072 19.4119 48.4005 18.859 47.3876 18.5625C46.0811 18.4188 44.8891 18.7109 43.6347 19.0316C43.3644 19.0988 43.094 19.1654 42.8235 19.2319C42.6571 19.273 42.4908 19.3146 42.3247 19.3568C40.019 19.938 37.9935 19.4755 35.7407 18.8934C33.6655 18.3627 32.1711 18.3382 30.5888 19.8731ZM45.161 25.1596C44.7062 25.6156 44.269 26.0849 43.8506 26.5747C43.2338 27.2954 42.5558 27.9682 41.6688 28.332C42.0622 29.309 43.3739 29.8409 44.2899 30.2383C45.9873 30.8964 47.8484 30.9728 49.5321 30.2383C50.6535 29.6301 51.4614 28.794 51.9447 27.6098C51.9032 27.1213 51.6754 26.9642 51.3211 26.6441C51.0923 26.4361 50.8942 26.2215 50.6938 25.9865C50.274 25.4992 49.8397 25.0264 49.4019 24.5553C49.1461 24.2784 48.9038 24.0006 48.6735 23.7018C48.603 23.6178 48.5325 23.5338 48.4599 23.4473C47.1839 23.4473 46.0327 24.3117 45.161 25.1596ZM56.0109 25.8343C55.8574 25.952 55.7059 26.0724 55.5562 26.195C55.405 26.3131 55.2537 26.4311 55.1024 26.5491C55.0287 26.6085 54.9549 26.668 54.8789 26.7292C54.6592 26.8992 54.4325 27.0493 54.2 27.2011C53.6878 27.5646 53.5745 27.9687 53.4554 28.5731C53.4346 28.9256 53.4346 28.9256 53.6136 29.1781C53.7759 29.3325 53.9445 29.4803 54.1172 29.623C54.4599 29.9179 54.7324 30.2453 55.0052 30.6032C55.0547 30.668 55.1043 30.7327 55.1553 30.7995C55.8313 31.7043 56.4141 32.6839 56.9189 33.6934C58.2949 33.6934 59.671 33.6934 61.0888 33.6934C61.0888 32.7426 61.0731 31.822 60.992 30.8787C60.9836 30.7644 60.9752 30.6501 60.9666 30.5324C60.8646 29.3275 60.6143 28.1742 59.7782 27.2598C58.9933 26.6376 58.0836 26.201 57.1571 25.8301C57.0447 25.773 56.9323 25.7158 56.8165 25.657C56.3947 25.5835 56.3489 25.6079 56.0109 25.8343ZM11.5263 35.5996C11.487 35.7962 11.4476 35.9928 11.4071 36.1953C11.5868 36.4608 11.7563 36.6712 11.973 36.9027C12.0959 37.0405 12.2184 37.1786 12.3407 37.3169C12.4353 37.4229 12.4353 37.4229 12.5319 37.5311C12.8207 37.8623 13.0894 38.2081 13.3581 38.5558C13.7125 39.0127 14.0704 39.4657 14.4382 39.912C14.5075 39.9961 14.5768 40.0803 14.6482 40.1671C14.782 40.3292 14.9162 40.4909 15.0511 40.6521C16.0418 41.8541 16.0418 41.8541 16.0676 42.5061C15.8818 43.0101 15.5831 43.3573 15.2345 43.7608C15.092 43.9307 14.9496 44.1007 14.8073 44.2708C14.7359 44.3554 14.6645 44.4401 14.591 44.5273C14.2959 44.881 14.0127 45.2434 13.7304 45.6074C13.3785 46.0606 13.0215 46.508 12.6535 46.9482C12.5824 47.0337 12.5114 47.1192 12.4382 47.2072C12.3 47.3731 12.1609 47.5382 12.0208 47.7024C11.5579 48.2516 11.5579 48.2516 11.4071 48.9434C11.5978 49.1341 11.7982 49.0775 12.0624 49.0777C12.2373 49.0782 12.2373 49.0782 12.4157 49.0788C12.6101 49.0785 12.6101 49.0785 12.8084 49.0782C13.0131 49.0785 13.0131 49.0785 13.2219 49.0789C13.6025 49.0795 13.983 49.0796 14.3635 49.0794C14.7732 49.0794 15.183 49.0801 15.5927 49.0807C16.3033 49.0816 17.0138 49.0822 17.7244 49.0826C18.8471 49.0833 19.9698 49.0853 21.0924 49.0875C21.4762 49.0883 21.86 49.089 22.2438 49.0898C22.3397 49.09 22.4357 49.0902 22.5345 49.0904C23.6272 49.0925 24.7199 49.0944 25.8126 49.0962C25.9126 49.0964 26.0125 49.0965 26.1155 49.0967C27.735 49.0993 29.3544 49.1006 30.9739 49.1015C32.6353 49.1025 34.2966 49.1052 35.958 49.1096C36.9834 49.1122 38.0089 49.1134 39.0344 49.1126C39.737 49.1123 40.4396 49.1136 41.1422 49.1163C41.5478 49.1178 41.9535 49.1186 42.3592 49.1172C42.7986 49.1162 43.2379 49.118 43.6773 49.1206C43.8061 49.1196 43.9349 49.1186 44.0676 49.1176C44.9258 49.127 44.9258 49.127 45.3223 49.4014C45.5415 49.7553 45.5495 49.9643 45.4814 50.3731C45.2181 50.7261 45.0764 50.8378 44.6373 50.9101C44.4192 50.9108 44.4192 50.9108 44.1967 50.9115C44.0749 50.9128 44.0749 50.9128 43.9507 50.9142C43.6788 50.9166 43.4071 50.9156 43.1352 50.9147C42.9403 50.9157 42.7453 50.9169 42.5504 50.9184C42.0212 50.9217 41.4921 50.9221 40.9628 50.922C40.4098 50.9224 39.8568 50.9254 39.3038 50.9282C38.2565 50.933 37.2092 50.9354 36.162 50.937C34.9697 50.9389 33.7775 50.9435 32.5852 50.9483C30.1326 50.9581 27.68 50.9645 25.2274 50.9688C25.301 51.1196 25.3749 51.2703 25.4491 51.4209C25.4902 51.5048 25.5314 51.5887 25.5738 51.6752C25.7686 52.0442 26.0106 52.3712 26.2699 52.6963C26.3257 52.7664 26.3815 52.8365 26.439 52.9087C29.5022 56.6649 33.6949 58.9945 38.5261 59.4855C42.8754 59.8791 47.3581 58.5265 50.7235 55.7344C51.132 55.3881 51.5261 55.0303 51.9149 54.6621C52.0203 54.5644 52.1257 54.4668 52.2342 54.3661C52.8719 53.7555 53.4246 53.1232 53.9478 52.4133C54.0032 52.3382 54.0586 52.2631 54.1158 52.1857C54.3998 51.7895 54.5961 51.4249 54.7743 50.9688C54.6963 50.9683 54.6182 50.9679 54.5378 50.9674C53.726 50.9625 52.9144 50.9542 52.1027 50.944C51.7997 50.9407 51.4967 50.9381 51.1936 50.9365C50.7583 50.9339 50.323 50.9284 49.8877 50.9222C49.752 50.9221 49.6164 50.9219 49.4766 50.9218C49.3502 50.9194 49.2238 50.9171 49.0936 50.9147C48.9825 50.9136 48.8714 50.9125 48.7569 50.9115C48.3694 50.8308 48.2257 50.6803 47.9833 50.3731C47.9237 50.0156 47.9237 50.0156 47.9833 49.6582C48.2476 49.3028 48.3894 49.1931 48.8311 49.1212C48.9783 49.1207 49.1254 49.1203 49.277 49.1198C49.3592 49.1189 49.4413 49.118 49.526 49.1171C49.8011 49.1147 50.0762 49.1157 50.3513 49.1166C50.5486 49.1156 50.7459 49.1143 50.9431 49.1129C51.4787 49.1096 52.0143 49.1092 52.5499 49.1093C53.1096 49.1089 53.6693 49.1059 54.229 49.1031C55.289 49.0982 56.3489 49.0958 57.4088 49.0943C58.6155 49.0924 59.8221 49.0878 61.0288 49.083C63.511 49.0732 65.9932 49.0667 68.4755 49.0625C68.5563 48.8417 68.5563 48.8417 68.5946 48.5859C68.4211 48.3151 68.2496 48.0855 68.0436 47.8413C67.9846 47.7688 67.9255 47.6963 67.8647 47.6217C67.7378 47.4662 67.6103 47.3113 67.4822 47.157C67.2205 46.8413 66.9623 46.5228 66.704 46.2044C66.5742 46.0444 66.4443 45.8846 66.3142 45.7249C65.8765 45.1875 65.4424 44.6474 65.013 44.1033C64.9604 44.0371 64.9079 43.9709 64.8538 43.9027C64.7087 43.718 64.5666 43.5309 64.4247 43.3438C64.2849 43.1691 64.2849 43.1691 64.1422 42.991C63.9481 42.6289 63.9481 42.6289 63.9305 42.2273C64.1142 41.6466 64.4277 41.286 64.8268 40.8344C64.9804 40.6545 65.1338 40.4746 65.2871 40.2945C65.3634 40.2057 65.4396 40.117 65.5182 40.0255C65.8762 39.6033 66.2141 39.1663 66.5523 38.7282C66.8516 38.3428 67.1585 37.9664 67.4754 37.5952C67.5836 37.4669 67.5836 37.4669 67.6941 37.336C67.8349 37.1696 67.9772 37.0044 68.1211 36.8406C68.1846 36.7651 68.2481 36.6896 68.3135 36.6119C68.3707 36.5457 68.4279 36.4796 68.4868 36.4115C68.6477 36.1442 68.6477 36.1442 68.4755 35.5996C49.6822 35.5996 30.889 35.5996 11.5263 35.5996ZM18.913 50.9688C18.8071 54.2419 18.8071 54.2419 19.9704 57.2013C21.0685 58.2971 22.6121 58.8141 24.029 59.3576C26.1038 60.1552 27.5959 61.2102 28.958 62.9722C30.4262 64.9064 30.4262 64.9064 32.495 66.0996C34.0794 66.2674 35.5044 65.8624 37.0275 65.4719C39.4077 64.8835 41.3749 65.0613 43.7307 65.6659C45.9419 66.2658 45.9419 66.2658 48.1471 65.8688C49.1963 65.2382 49.9599 64.3735 50.6937 63.4131C52.5041 61.0521 54.4809 59.8496 57.2588 58.81C58.5413 58.317 59.9077 57.6882 60.514 56.3869C61.1264 54.6899 61.1099 52.7517 61.0888 50.9688C60.5294 50.9302 59.9708 50.9023 59.4104 50.8837C59.2204 50.8759 59.0303 50.8654 58.8406 50.8519C58.2095 50.8083 57.6518 50.8011 57.038 50.9688C56.5803 51.4258 56.3446 51.9311 56.0849 52.5176C55.9885 52.6731 55.8883 52.8265 55.7814 52.9751C55.6948 53.0969 55.6082 53.2186 55.5189 53.3441C52.5054 57.5277 48.1716 60.2075 43.0985 61.0957C38.1018 61.8415 32.9078 60.7603 28.8021 57.7466C27.02 56.3969 25.5574 54.9061 24.2808 53.0658C24.2219 52.9827 24.163 52.8995 24.1022 52.8138C23.9169 52.5176 23.9169 52.5176 23.7343 52.1118C23.5139 51.6583 23.3227 51.3245 22.9638 50.9688C22.2593 50.7774 21.6008 50.8207 20.8788 50.872C20.688 50.8797 20.4972 50.8868 20.3064 50.8931C19.8412 50.9101 19.3774 50.9368 18.913 50.9688Z" stroke="#0C253D" stroke-width="4" mask="url(#path-11-inside-1_15002_4099)"/>
<path d="M46.1937 37.5083C46.7098 37.8513 47.0276 38.2863 47.3628 38.7965C47.4762 38.9654 47.5898 39.1342 47.7034 39.3029C47.7656 39.3955 47.8277 39.4881 47.8917 39.5835C48.295 40.1792 48.7084 40.7681 49.1201 41.358C49.2841 41.5933 49.4481 41.8287 49.612 42.064C49.6823 42.1648 49.7526 42.2656 49.825 42.3695C49.9669 42.5745 50.1062 42.7813 50.2445 42.9888C50.2456 42.8397 50.2467 42.6906 50.2479 42.537C50.2526 41.9836 50.2604 41.4304 50.2692 40.8771C50.2726 40.6376 50.2751 40.3982 50.2768 40.1587C50.2793 39.8144 50.2849 39.4703 50.291 39.126C50.2912 39.019 50.2913 38.912 50.2915 38.8018C50.3088 38.0622 50.3088 38.0622 50.5804 37.679C50.9639 37.427 51.226 37.4443 51.6742 37.5083C52.0205 37.7726 52.1317 37.9276 52.2699 38.3423C52.2829 38.6003 52.2888 38.8588 52.291 39.1171C52.2921 39.2343 52.2921 39.2343 52.2933 39.3538C52.2957 39.612 52.2971 39.8703 52.2983 40.1285C52.2988 40.2168 52.2992 40.3051 52.2997 40.3961C52.3022 40.8634 52.3039 41.3306 52.305 41.7979C52.3064 42.2801 52.3105 42.7623 52.3152 43.2445C52.3183 43.6157 52.3193 43.987 52.3197 44.3582C52.3203 44.5359 52.3217 44.7137 52.3239 44.8914C52.3268 45.1404 52.3267 45.3892 52.3259 45.6382C52.3266 45.7797 52.3273 45.9213 52.328 46.0671C52.2578 46.5219 52.1168 46.7177 51.7933 47.0396C51.3579 47.191 51.1554 47.1893 50.7261 47.0184C50.3252 46.7783 50.1603 46.578 49.9103 46.187C49.8309 46.065 49.7515 45.9431 49.6697 45.8174C49.5891 45.69 49.5085 45.5625 49.4254 45.4312C49.2647 45.1815 49.1036 44.9321 48.9423 44.6828C48.8626 44.5595 48.783 44.4362 48.7009 44.3091C48.393 43.8448 48.068 43.3951 47.7369 42.9471C47.4566 42.5667 47.1826 42.1823 46.9085 41.7974C46.9074 41.9429 46.9063 42.0883 46.9052 42.2382C46.9004 42.7783 46.8926 43.3182 46.8838 43.8582C46.8805 44.0918 46.8779 44.3255 46.8763 44.5592C46.8737 44.8952 46.8682 45.2311 46.862 45.5671C46.8618 45.7236 46.8618 45.7236 46.8616 45.8834C46.8442 46.6051 46.8442 46.6051 46.5727 46.9869C46.1925 47.2383 45.9243 47.2144 45.4789 47.1587C45.0994 46.949 45.0222 46.861 44.8832 46.4439C44.8707 46.1822 44.8654 45.9201 44.864 45.6581C44.8634 45.5788 44.8628 45.4995 44.8622 45.4179C44.8604 45.1558 44.8596 44.8937 44.859 44.6316C44.8583 44.4492 44.8576 44.2669 44.8569 44.0845C44.8556 43.7021 44.855 43.3197 44.8545 42.9374C44.8539 42.4479 44.851 41.9585 44.8476 41.4691C44.8454 41.0924 44.8448 40.7156 44.8446 40.3389C44.8442 40.1585 44.8433 39.9781 44.8417 39.7977C44.8397 39.545 44.8399 39.2924 44.8407 39.0397C44.8403 38.8961 44.8398 38.7525 44.8394 38.6045C44.8874 38.186 44.9893 37.9621 45.2406 37.6275C45.5805 37.4575 45.8166 37.4713 46.1937 37.5083Z" fill="#F7B019"/>
<path d="M19.7622 37.4376C19.9713 37.438 19.9713 37.438 20.1847 37.4385C20.3294 37.4419 20.4741 37.4453 20.6231 37.4487C20.7669 37.4484 20.9106 37.4481 21.0588 37.4478C22.1507 37.4598 22.9054 37.6167 23.7264 38.3674C24.2871 39.003 24.4641 39.7196 24.4315 40.5534C24.3685 41.0058 24.2188 41.3807 24.0335 41.7974C24.081 41.8465 24.1285 41.8957 24.1774 41.9463C24.8495 42.679 25.1809 43.3766 25.1393 44.3836C25.0299 45.2754 24.7073 45.9653 24.0335 46.563C23.1217 47.2204 22.1791 47.2482 21.0987 47.2298C20.8296 47.2257 20.5609 47.2274 20.2918 47.2297C20.1196 47.2289 19.9474 47.2277 19.7752 47.2262C19.6206 47.2249 19.4659 47.2236 19.3066 47.2223C18.8322 47.1461 18.7212 47.0603 18.4339 46.6821C18.3726 46.3032 18.3726 46.3032 18.3704 45.85C18.3694 45.7673 18.3683 45.6845 18.3673 45.5992C18.3646 45.3261 18.3654 45.0532 18.3665 44.7801C18.3658 44.5899 18.3651 44.3996 18.3642 44.2094C18.363 43.8109 18.3635 43.4125 18.3653 43.0139C18.3673 42.5038 18.3645 41.9937 18.3603 41.4836C18.3577 41.0908 18.3579 40.698 18.3589 40.3052C18.359 40.1172 18.3581 39.9291 18.3564 39.7411C18.3543 39.4778 18.356 39.2148 18.3587 38.9515C18.3589 38.8019 18.359 38.6523 18.3591 38.4981C18.509 37.7087 19.0004 37.4325 19.7622 37.4376ZM20.3402 39.4146C20.3402 39.965 20.3402 40.5154 20.3402 41.0825C21.3685 41.1751 21.3685 41.1751 22.2911 40.8294C22.5139 40.4984 22.5139 40.4984 22.4922 40.1145C22.3443 39.7145 22.2559 39.622 21.889 39.4146C21.4986 39.3714 21.4986 39.3714 21.0848 39.3922C20.8391 39.3996 20.5934 39.407 20.3402 39.4146ZM20.3402 42.9888C20.3402 43.7358 20.3402 44.4828 20.3402 45.2524C20.8525 45.2709 20.8525 45.2709 21.3752 45.2897C21.4818 45.2951 21.5883 45.3005 21.6981 45.3061C22.2114 45.315 22.4223 45.3002 22.8435 44.9779C23.145 44.5692 23.2174 44.3311 23.1996 43.8228C22.9938 43.4621 22.7421 43.177 22.3656 42.9888C22.0218 42.9802 21.6816 42.9777 21.338 42.9813C20.8441 42.985 20.8441 42.985 20.3402 42.9888Z" fill="#F7B019"/>
<path d="M29.097 37.4711C29.3021 37.4659 29.3021 37.4659 29.5112 37.4606C30.6195 37.4524 31.5279 37.6174 32.3659 38.3795C32.9705 39.0495 33.2279 39.8299 33.2074 40.7251C33.0756 41.628 32.6948 42.267 32.016 42.8696C31.7089 43.0903 31.3954 43.2857 31.0628 43.4653C31.1106 43.5103 31.1584 43.5553 31.2076 43.6017C32.8597 45.2013 32.8597 45.2013 33.2074 46.0864C33.1909 46.4903 33.1618 46.7164 32.8946 47.0247C32.4941 47.2144 32.2161 47.2125 31.7777 47.1587C31.3324 46.8494 31.0096 46.4958 30.6756 46.0715C30.1528 45.4187 29.6028 44.7963 29.0375 44.1802C29.0363 44.2535 29.0352 44.3268 29.0341 44.4023C29.0277 44.7354 29.0177 45.0683 29.0077 45.4014C29.0051 45.5744 29.0051 45.5744 29.0025 45.7509C28.9732 46.6016 28.9732 46.6016 28.7042 46.9963C28.4306 47.1656 28.2844 47.2263 27.9652 47.2257C27.8472 47.2296 27.8472 47.2296 27.7269 47.2336C27.3501 47.1152 27.226 46.8877 27.0121 46.563C26.9523 46.1788 26.9523 46.1788 26.9523 45.7393C26.9516 45.6588 26.951 45.5783 26.9503 45.4954C26.9489 45.2307 26.9508 44.9661 26.953 44.7014C26.9529 44.5167 26.9528 44.332 26.9524 44.1473C26.9523 43.7607 26.9538 43.3742 26.9565 42.9876C26.9599 42.4928 26.9595 41.9981 26.958 41.5034C26.9572 41.1221 26.9581 40.7409 26.9596 40.3596C26.9601 40.1772 26.9602 39.9948 26.9597 39.8124C26.9594 39.5572 26.9613 39.3021 26.9639 39.0469C26.9646 38.9019 26.9652 38.7568 26.9659 38.6074C27.0162 38.1886 27.1178 37.9626 27.3695 37.6275C27.876 37.3742 28.5406 37.4756 29.097 37.4711ZM28.9183 39.4146C28.9183 40.1223 28.9183 40.83 28.9183 41.5591C29.2537 41.5701 29.2537 41.5701 29.5959 41.5814C29.7846 41.5877 29.7846 41.5877 29.9771 41.594C30.5077 41.5441 30.8109 41.3345 31.182 40.9634C31.2596 40.3712 31.2768 40.1403 30.9214 39.6528C30.3452 39.2357 29.5885 39.3804 28.9183 39.4146Z" fill="#F7B019"/>
<path d="M56.6111 37.7094C56.8316 37.7042 56.8316 37.7042 57.0567 37.6989C58.2578 37.6906 59.4045 37.8601 60.3049 38.7216C61.467 40.076 61.6899 41.6208 61.5628 43.3462C61.3596 44.6177 60.795 45.7555 59.7757 46.563C58.7624 47.1874 57.85 47.1871 56.6781 47.1959C56.4486 47.2011 56.4486 47.2011 56.2146 47.2064C56.0677 47.2074 55.9209 47.2084 55.7696 47.2094C55.5683 47.212 55.5683 47.212 55.3629 47.2147C55.0101 47.1587 55.0101 47.1587 54.7289 46.9761C54.461 46.573 54.4617 46.2093 54.461 45.7406C54.459 45.6475 54.457 45.5543 54.4549 45.4583C54.449 45.1538 54.4465 44.8495 54.4442 44.5451C54.4411 44.3352 54.4379 44.1254 54.4345 43.9156C54.4282 43.4919 54.4235 43.0682 54.42 42.6445C54.4161 42.174 54.4091 41.7036 54.4003 41.2331C54.3932 40.8429 54.389 40.4526 54.3846 40.0624C54.3821 39.9218 54.3795 39.7812 54.3768 39.6363C54.3722 38.4332 54.3722 38.4332 54.7718 37.8657C55.3042 37.5995 56.0267 37.7138 56.6111 37.7094ZM56.3207 39.6528C56.3035 41.523 56.3465 43.3846 56.4398 45.2525C57.5187 45.328 57.5187 45.328 58.5397 45.0514C59.3208 44.2908 59.6672 43.5561 59.7013 42.4601C59.6736 41.5642 59.4964 40.6456 58.8226 40.0103C58.2661 39.6699 57.8084 39.6064 57.1695 39.6305C57.0465 39.6329 57.0465 39.6329 56.921 39.6354C56.7209 39.6396 56.5207 39.646 56.3207 39.6528Z" fill="#F7B019"/>
<path d="M39.5218 37.5083C40.0218 37.92 40.2415 38.3124 40.4643 38.9143C40.494 38.9931 40.5237 39.0718 40.5543 39.153C40.651 39.4109 40.7455 39.6696 40.8398 39.9284C40.9066 40.1086 40.9736 40.2887 41.0407 40.4688C41.1445 40.7478 41.2482 41.0269 41.3511 41.3063C41.59 41.9541 41.8375 42.5981 42.0894 43.241C42.1894 43.4986 42.2892 43.7563 42.3889 44.014C42.4528 44.1783 42.5173 44.3423 42.5825 44.506C42.6732 44.7348 42.7616 44.9644 42.8494 45.1943C42.9254 45.3886 42.9254 45.3886 43.0029 45.5869C43.1281 46.098 43.1068 46.5644 42.8503 47.0321C42.4777 47.2365 42.073 47.2578 41.6664 47.1587C41.1898 46.6821 41.1898 46.6821 40.7132 45.3716C39.6124 45.3716 38.5115 45.3716 37.3773 45.3716C37.0824 46.0793 37.0824 46.0793 36.7816 46.8013C36.4242 47.1587 36.4242 47.1587 35.9551 47.2183C35.5707 47.2012 35.4835 47.1685 35.1658 46.9204C34.8939 46.3531 35.0349 45.8577 35.2188 45.2791C35.3588 44.8907 35.5059 44.5058 35.6558 44.1211C35.71 43.9795 35.7643 43.838 35.8202 43.6921C35.9347 43.3936 36.0497 43.0953 36.1654 42.7972C36.3125 42.4182 36.4585 42.0386 36.604 41.6589C36.7442 41.2931 36.8851 40.9274 37.0259 40.5618C37.0778 40.4269 37.1297 40.2921 37.1832 40.1532C37.4046 39.5824 37.6287 39.0128 37.8684 38.4493C37.9031 38.3675 37.9379 38.2857 37.9737 38.2014C38.336 37.539 38.7928 37.4342 39.5218 37.5083ZM39.0453 40.9634C38.683 41.7438 38.3796 42.5352 38.0921 43.3462C38.7212 43.3462 39.3503 43.3462 39.9984 43.3462C39.7232 42.5599 39.448 41.7735 39.1644 40.9634C39.1251 40.9634 39.0858 40.9634 39.0453 40.9634Z" fill="#F7B019"/>
</svg>
