<svg width="82" height="74" viewBox="0 0 82 74" fill="none" xmlns="http://www.w3.org/2000/svg">
<path d="M32.9976 70.4569C49.198 70.4569 62.3311 57.3703 62.3311 41.2272C62.3311 25.0841 49.198 11.9975 32.9976 11.9975C16.7971 11.9975 3.66406 25.0841 3.66406 41.2272C3.66406 57.3703 16.7971 70.4569 32.9976 70.4569Z" fill="#FFF8E8"/>
<path d="M47.2241 61.5995C63.4246 61.5995 76.5576 48.5129 76.5576 32.3698C76.5576 16.2267 63.4246 3.14008 47.2241 3.14008C31.0237 3.14008 17.8906 16.2267 17.8906 32.3698C17.8906 48.5129 31.0237 61.5995 47.2241 61.5995Z" fill="#FCF0D7"/>
<path d="M77.448 14.6548L78.4512 16.3124L80.1147 17.312L78.4512 18.3116L77.448 19.9693L76.4449 18.3116L74.7812 17.312L76.4449 16.3124L77.448 14.6548Z" fill="#FCEDCD"/>
<path d="M18.5547 3.09897L20.4841 3.32382L22.2959 2.62549L22.0702 4.5481L22.7711 6.35345L20.8416 6.1286L19.0299 6.82693L19.2555 4.90432L18.5547 3.09897Z" fill="#FCEDCD"/>
<path d="M15.2214 68.6855L16.2245 70.3432L17.888 71.3428L16.2245 72.3424L15.2214 74L14.2182 72.3424L12.5547 71.3428L14.2182 70.3432L15.2214 68.6855Z" fill="#FCEDCD"/>
<path d="M61.7585 70.4898C61.6103 70.0469 61.6696 69.1611 63.0918 69.1611" stroke="#FCEDCD"/>
<path d="M1.05536 54.0703C0.907211 53.6274 0.96647 52.7417 2.3887 52.7417" stroke="#FCEDCD"/>
<path d="M80.6647 45.2417C80.5166 44.7988 80.5758 43.9131 81.9981 43.9131" stroke="#FCEDCD"/>
<path d="M2.05145 24.4292C1.9033 23.9863 1.96256 23.1006 3.38479 23.1006" stroke="#FCEDCD"/>
<path d="M52.2245 1.31247C51.8192 1.54271 50.9409 1.65315 50.6699 0.25293" stroke="#FCEDCD"/>
<mask id="path-11-inside-1_5917_2084" fill="white">
<path d="M32.1995 65.978C32.1995 64.0729 32.1995 62.2088 32.1995 60.2606C31.8279 60.2606 31.4954 60.2606 31.1629 60.2606C23.0416 60.2606 14.9223 60.2489 6.80099 60.2685C4.4675 60.2743 2.60931 59.4528 1.58045 57.2914C1.22446 56.5443 1.02887 55.6445 1.02691 54.8132C0.993658 41.0978 0.995614 27.3804 1.00931 13.665C1.01322 10.1247 3.90613 7.67971 7.39757 8.19804C8.05283 8.29584 8.42838 8.69095 8.47532 9.3423C8.51835 9.94279 8.01762 10.4513 7.34867 10.5159C6.98681 10.5491 6.62104 10.5198 6.25723 10.5355C4.60833 10.6 3.42887 11.7716 3.35258 13.4127C3.34867 13.491 3.34867 13.5692 3.34867 13.6474C3.34867 27.3648 3.34476 41.0802 3.35258 54.7976C3.35454 56.7516 4.53987 57.8939 6.56627 57.8998C11.2254 57.9115 15.8846 57.9037 20.5438 57.9037C32.178 57.9037 43.8122 57.9037 55.4465 57.9076C55.8083 57.9076 56.18 57.9154 56.5281 57.9976C57.1091 58.1345 57.4044 58.555 57.377 59.1438C57.3477 59.7286 57.0171 60.112 56.4264 60.2098C56.1213 60.2606 55.8044 60.2606 55.4934 60.2606C51.2763 60.2645 47.0611 60.2626 42.844 60.2626C42.5389 60.2626 42.2338 60.2626 41.8269 60.2626C41.8269 62.1364 41.8113 63.9222 41.8543 65.7081C41.8582 65.8489 42.2474 66.0562 42.4841 66.1051C45.7389 66.7917 48.9995 67.4489 52.2562 68.1296C53.5765 68.4054 54.0382 68.9941 54.0616 70.3516C54.1086 72.9902 53.6646 73.4401 51.0181 73.4401C41.4924 73.4401 31.9668 73.4479 22.4411 73.4225C21.8719 73.4205 21.2577 73.2562 20.755 72.9941C20.444 72.8318 20.2875 72.3487 20.0939 71.9927C20.0254 71.8655 20.0411 71.6875 20.0391 71.5311C20.0157 69.1271 19.8122 68.4034 22.7951 67.9105C23.513 67.7912 24.221 67.6171 24.9369 67.4919C25.7467 67.3491 26.3198 67.6738 26.4606 68.3252C26.6132 69.0235 26.2298 69.5653 25.3946 69.7667C24.5614 69.9663 23.7105 70.1032 22.8831 70.3223C22.6602 70.3809 22.488 70.6411 22.2944 70.8093C22.3413 70.9012 22.3883 70.9951 22.4352 71.087C22.7091 71.087 22.9849 71.087 23.2587 71.087C32.446 71.087 41.6333 71.087 50.8206 71.087C50.9516 71.087 51.0983 71.1262 51.2078 71.0773C51.3878 70.9971 51.5404 70.8601 51.7047 70.7467C51.5599 70.6059 51.4367 70.3751 51.2685 70.3379C49.8504 70.0152 48.4225 69.7257 46.9985 69.4303C45.9814 69.2191 44.9487 69.0645 43.9472 68.7927C41.9012 68.2391 39.8201 68.3311 37.7428 68.3702C35.2548 68.4171 32.7511 68.112 30.2866 68.7633C29.5433 68.9589 28.935 68.4914 28.8215 67.8323C28.7159 67.2181 29.1188 66.6469 29.8328 66.4748C30.6152 66.2812 31.4073 66.1403 32.1995 65.978ZM39.425 60.3056C37.8093 60.3056 36.2367 60.3056 34.625 60.3056C34.625 62.2049 34.625 64.0611 34.625 65.935C36.2543 65.935 37.8426 65.935 39.425 65.935C39.425 64.0279 39.425 62.1892 39.425 60.3056Z"/>
<path d="M51.8122 13.7961C38.8968 13.7961 26.0812 13.7961 13.1853 13.7961C13.1853 14.1169 13.1853 14.3966 13.1853 14.6763C13.1853 24.9061 13.1853 35.134 13.1853 45.3638C13.1853 46.9306 13.602 47.3472 15.1805 47.3472C21.7135 47.3491 28.2465 47.3472 34.7795 47.3491C35.9941 47.3491 36.5497 47.713 36.5536 48.5051C36.5575 49.2934 35.9648 49.6963 34.7893 49.6963C28.2034 49.6983 21.6196 49.7002 15.0338 49.6944C12.3149 49.6924 10.8401 48.2078 10.8401 45.489C10.8382 32.0592 10.8382 18.6274 10.8401 5.19755C10.8401 2.46699 12.3051 1.00196 15.0298 1C26.666 1 38.3003 1 49.9345 1C52.7139 1 54.1594 2.44352 54.1614 5.23667C54.1653 14.7115 54.1633 24.1844 54.1633 33.6592C54.1633 34.8719 53.8054 35.4352 53.0269 35.4606C52.221 35.488 51.8122 34.8817 51.8122 33.6435C51.8103 27.3961 51.8122 21.1506 51.8122 14.9032C51.8122 14.5687 51.8122 14.2323 51.8122 13.7961ZM51.7849 11.3667C51.7849 9.0489 51.8142 6.81516 51.7692 4.58337C51.7536 3.76186 51.1609 3.34914 50.1809 3.34914C38.3922 3.34523 26.6034 3.34328 14.8166 3.34914C13.6959 3.34914 13.1971 3.8577 13.1873 4.98044C13.1736 6.41222 13.1834 7.84205 13.1834 9.27384C13.1834 9.9643 13.1834 10.6548 13.1834 11.3687C26.0949 11.3667 38.889 11.3667 51.7849 11.3667Z"/>
<path d="M29.8993 55.7306C22.9516 55.7306 16.0039 55.7325 9.05429 55.7286C7.16676 55.7266 5.95992 54.8836 5.61175 53.3266C5.53938 53.002 5.53155 52.6557 5.53155 52.3193C5.52764 40.245 5.53155 28.1707 5.52373 16.0963C5.52373 15.2318 5.69781 14.4435 6.27483 13.7804C6.75014 13.2347 7.42691 13.1311 7.93938 13.5105C8.43229 13.8743 8.48901 14.4787 8.19366 15.1183C8.01762 15.5017 7.88461 15.9457 7.88461 16.3623C7.86896 28.2548 7.87092 40.1472 7.87092 52.0396C7.87092 53.2738 7.97067 53.3775 9.20295 53.3775C23.0474 53.3775 36.8919 53.3775 50.7345 53.3814C51.1218 53.3814 51.5228 53.3834 51.8963 53.4733C52.4812 53.6122 52.7492 54.0445 52.7159 54.6352C52.6866 55.1946 52.3834 55.5643 51.8279 55.666C51.4993 55.7267 51.155 55.7266 50.8186 55.7286C43.8475 55.7306 36.8743 55.7306 29.8993 55.7306Z"/>
<path d="M73.0602 34.2499C73.0602 41.0156 73.0504 47.7795 73.066 54.5452C73.0719 56.82 72.2171 58.5785 70.1751 59.6777C69.0797 60.2665 67.8866 60.3271 66.6817 60.2176C66.0538 60.1609 65.6861 59.7697 65.6587 59.1398C65.6313 58.4709 65.9932 58.0523 66.6504 57.9565C67.11 57.89 67.5834 57.9095 68.0489 57.8724C69.4905 57.755 70.5565 56.691 70.6778 55.2553C70.7012 54.9697 70.7052 54.6841 70.7052 54.3985C70.7071 40.9452 70.711 27.4939 70.6895 14.0406C70.6876 13.3599 70.5839 12.6166 70.2944 12.0142C69.7741 10.9325 68.7687 10.5237 67.5814 10.5257C64.4323 10.5315 61.2851 10.5315 58.136 10.5218C57.8289 10.5218 57.422 10.5511 57.2401 10.379C56.935 10.0895 56.579 9.6357 56.6044 9.27579C56.6298 8.91589 57.0563 8.53839 57.3849 8.26259C57.5472 8.12763 57.8856 8.18435 58.1438 8.18435C61.2401 8.18044 64.3365 8.17653 67.4328 8.1824C70.8832 8.19022 73.0465 10.3692 73.0523 13.8724C73.068 20.6675 73.0602 27.4587 73.0602 34.2499Z"/>
<path d="M68.5301 34.246C68.5301 40.2293 68.5242 46.2147 68.536 52.198C68.5379 53.3169 68.3462 54.3594 67.38 55.0303C66.9105 55.357 66.312 55.6152 65.7506 55.668C64.6416 55.7736 63.5169 55.7384 62.3981 55.713C61.647 55.6954 61.1619 55.2201 61.1443 54.5902C61.1267 53.9447 61.6352 53.4284 62.4176 53.3951C63.3526 53.356 64.2915 53.3716 65.2264 53.3814C65.8719 53.3892 66.1946 53.1095 66.179 52.4465C66.1653 51.7971 66.177 51.1457 66.177 50.4944C66.177 39.177 66.177 27.8577 66.177 16.5403C66.177 15.089 66.1418 15.0557 64.6846 15.0557C62.4724 15.0557 60.2621 15.0597 58.0499 15.0538C57.0739 15.0518 56.534 14.6176 56.5418 13.8685C56.5496 13.1193 57.0778 12.7144 58.0753 12.7125C60.4421 12.7086 62.8108 12.7046 65.1775 12.7125C67.3252 12.7203 68.5184 13.9291 68.5223 16.1374C68.5379 22.1736 68.5301 28.2098 68.5301 34.246Z"/>
</mask>
<path d="M32.1995 65.978C32.1995 64.0729 32.1995 62.2088 32.1995 60.2606C31.8279 60.2606 31.4954 60.2606 31.1629 60.2606C23.0416 60.2606 14.9223 60.2489 6.80099 60.2685C4.4675 60.2743 2.60931 59.4528 1.58045 57.2914C1.22446 56.5443 1.02887 55.6445 1.02691 54.8132C0.993658 41.0978 0.995614 27.3804 1.00931 13.665C1.01322 10.1247 3.90613 7.67971 7.39757 8.19804C8.05283 8.29584 8.42838 8.69095 8.47532 9.3423C8.51835 9.94279 8.01762 10.4513 7.34867 10.5159C6.98681 10.5491 6.62104 10.5198 6.25723 10.5355C4.60833 10.6 3.42887 11.7716 3.35258 13.4127C3.34867 13.491 3.34867 13.5692 3.34867 13.6474C3.34867 27.3648 3.34476 41.0802 3.35258 54.7976C3.35454 56.7516 4.53987 57.8939 6.56627 57.8998C11.2254 57.9115 15.8846 57.9037 20.5438 57.9037C32.178 57.9037 43.8122 57.9037 55.4465 57.9076C55.8083 57.9076 56.18 57.9154 56.5281 57.9976C57.1091 58.1345 57.4044 58.555 57.377 59.1438C57.3477 59.7286 57.0171 60.112 56.4264 60.2098C56.1213 60.2606 55.8044 60.2606 55.4934 60.2606C51.2763 60.2645 47.0611 60.2626 42.844 60.2626C42.5389 60.2626 42.2338 60.2626 41.8269 60.2626C41.8269 62.1364 41.8113 63.9222 41.8543 65.7081C41.8582 65.8489 42.2474 66.0562 42.4841 66.1051C45.7389 66.7917 48.9995 67.4489 52.2562 68.1296C53.5765 68.4054 54.0382 68.9941 54.0616 70.3516C54.1086 72.9902 53.6646 73.4401 51.0181 73.4401C41.4924 73.4401 31.9668 73.4479 22.4411 73.4225C21.8719 73.4205 21.2577 73.2562 20.755 72.9941C20.444 72.8318 20.2875 72.3487 20.0939 71.9927C20.0254 71.8655 20.0411 71.6875 20.0391 71.5311C20.0157 69.1271 19.8122 68.4034 22.7951 67.9105C23.513 67.7912 24.221 67.6171 24.9369 67.4919C25.7467 67.3491 26.3198 67.6738 26.4606 68.3252C26.6132 69.0235 26.2298 69.5653 25.3946 69.7667C24.5614 69.9663 23.7105 70.1032 22.8831 70.3223C22.6602 70.3809 22.488 70.6411 22.2944 70.8093C22.3413 70.9012 22.3883 70.9951 22.4352 71.087C22.7091 71.087 22.9849 71.087 23.2587 71.087C32.446 71.087 41.6333 71.087 50.8206 71.087C50.9516 71.087 51.0983 71.1262 51.2078 71.0773C51.3878 70.9971 51.5404 70.8601 51.7047 70.7467C51.5599 70.6059 51.4367 70.3751 51.2685 70.3379C49.8504 70.0152 48.4225 69.7257 46.9985 69.4303C45.9814 69.2191 44.9487 69.0645 43.9472 68.7927C41.9012 68.2391 39.8201 68.3311 37.7428 68.3702C35.2548 68.4171 32.7511 68.112 30.2866 68.7633C29.5433 68.9589 28.935 68.4914 28.8215 67.8323C28.7159 67.2181 29.1188 66.6469 29.8328 66.4748C30.6152 66.2812 31.4073 66.1403 32.1995 65.978ZM39.425 60.3056C37.8093 60.3056 36.2367 60.3056 34.625 60.3056C34.625 62.2049 34.625 64.0611 34.625 65.935C36.2543 65.935 37.8426 65.935 39.425 65.935C39.425 64.0279 39.425 62.1892 39.425 60.3056Z" stroke="#0C253D" stroke-width="4" mask="url(#path-11-inside-1_5917_2084)"/>
<path d="M51.8122 13.7961C38.8968 13.7961 26.0812 13.7961 13.1853 13.7961C13.1853 14.1169 13.1853 14.3966 13.1853 14.6763C13.1853 24.9061 13.1853 35.134 13.1853 45.3638C13.1853 46.9306 13.602 47.3472 15.1805 47.3472C21.7135 47.3491 28.2465 47.3472 34.7795 47.3491C35.9941 47.3491 36.5497 47.713 36.5536 48.5051C36.5575 49.2934 35.9648 49.6963 34.7893 49.6963C28.2034 49.6983 21.6196 49.7002 15.0338 49.6944C12.3149 49.6924 10.8401 48.2078 10.8401 45.489C10.8382 32.0592 10.8382 18.6274 10.8401 5.19755C10.8401 2.46699 12.3051 1.00196 15.0298 1C26.666 1 38.3003 1 49.9345 1C52.7139 1 54.1594 2.44352 54.1614 5.23667C54.1653 14.7115 54.1633 24.1844 54.1633 33.6592C54.1633 34.8719 53.8054 35.4352 53.0269 35.4606C52.221 35.488 51.8122 34.8817 51.8122 33.6435C51.8103 27.3961 51.8122 21.1506 51.8122 14.9032C51.8122 14.5687 51.8122 14.2323 51.8122 13.7961ZM51.7849 11.3667C51.7849 9.0489 51.8142 6.81516 51.7692 4.58337C51.7536 3.76186 51.1609 3.34914 50.1809 3.34914C38.3922 3.34523 26.6034 3.34328 14.8166 3.34914C13.6959 3.34914 13.1971 3.8577 13.1873 4.98044C13.1736 6.41222 13.1834 7.84205 13.1834 9.27384C13.1834 9.9643 13.1834 10.6548 13.1834 11.3687C26.0949 11.3667 38.889 11.3667 51.7849 11.3667Z" stroke="#0C253D" stroke-width="4" mask="url(#path-11-inside-1_5917_2084)"/>
<path d="M29.8993 55.7306C22.9516 55.7306 16.0039 55.7325 9.05429 55.7286C7.16676 55.7266 5.95992 54.8836 5.61175 53.3266C5.53938 53.002 5.53155 52.6557 5.53155 52.3193C5.52764 40.245 5.53155 28.1707 5.52373 16.0963C5.52373 15.2318 5.69781 14.4435 6.27483 13.7804C6.75014 13.2347 7.42691 13.1311 7.93938 13.5105C8.43229 13.8743 8.48901 14.4787 8.19366 15.1183C8.01762 15.5017 7.88461 15.9457 7.88461 16.3623C7.86896 28.2548 7.87092 40.1472 7.87092 52.0396C7.87092 53.2738 7.97067 53.3775 9.20295 53.3775C23.0474 53.3775 36.8919 53.3775 50.7345 53.3814C51.1218 53.3814 51.5228 53.3834 51.8963 53.4733C52.4812 53.6122 52.7492 54.0445 52.7159 54.6352C52.6866 55.1946 52.3834 55.5643 51.8279 55.666C51.4993 55.7267 51.155 55.7266 50.8186 55.7286C43.8475 55.7306 36.8743 55.7306 29.8993 55.7306Z" stroke="#0C253D" stroke-width="4" mask="url(#path-11-inside-1_5917_2084)"/>
<path d="M73.0602 34.2499C73.0602 41.0156 73.0504 47.7795 73.066 54.5452C73.0719 56.82 72.2171 58.5785 70.1751 59.6777C69.0797 60.2665 67.8866 60.3271 66.6817 60.2176C66.0538 60.1609 65.6861 59.7697 65.6587 59.1398C65.6313 58.4709 65.9932 58.0523 66.6504 57.9565C67.11 57.89 67.5834 57.9095 68.0489 57.8724C69.4905 57.755 70.5565 56.691 70.6778 55.2553C70.7012 54.9697 70.7052 54.6841 70.7052 54.3985C70.7071 40.9452 70.711 27.4939 70.6895 14.0406C70.6876 13.3599 70.5839 12.6166 70.2944 12.0142C69.7741 10.9325 68.7687 10.5237 67.5814 10.5257C64.4323 10.5315 61.2851 10.5315 58.136 10.5218C57.8289 10.5218 57.422 10.5511 57.2401 10.379C56.935 10.0895 56.579 9.6357 56.6044 9.27579C56.6298 8.91589 57.0563 8.53839 57.3849 8.26259C57.5472 8.12763 57.8856 8.18435 58.1438 8.18435C61.2401 8.18044 64.3365 8.17653 67.4328 8.1824C70.8832 8.19022 73.0465 10.3692 73.0523 13.8724C73.068 20.6675 73.0602 27.4587 73.0602 34.2499Z" stroke="#0C253D" stroke-width="4" mask="url(#path-11-inside-1_5917_2084)"/>
<path d="M68.5301 34.246C68.5301 40.2293 68.5242 46.2147 68.536 52.198C68.5379 53.3169 68.3462 54.3594 67.38 55.0303C66.9105 55.357 66.312 55.6152 65.7506 55.668C64.6416 55.7736 63.5169 55.7384 62.3981 55.713C61.647 55.6954 61.1619 55.2201 61.1443 54.5902C61.1267 53.9447 61.6352 53.4284 62.4176 53.3951C63.3526 53.356 64.2915 53.3716 65.2264 53.3814C65.8719 53.3892 66.1946 53.1095 66.179 52.4465C66.1653 51.7971 66.177 51.1457 66.177 50.4944C66.177 39.177 66.177 27.8577 66.177 16.5403C66.177 15.089 66.1418 15.0557 64.6846 15.0557C62.4724 15.0557 60.2621 15.0597 58.0499 15.0538C57.0739 15.0518 56.534 14.6176 56.5418 13.8685C56.5496 13.1193 57.0778 12.7144 58.0753 12.7125C60.4421 12.7086 62.8108 12.7046 65.1775 12.7125C67.3252 12.7203 68.5184 13.9291 68.5223 16.1374C68.5379 22.1736 68.5301 28.2098 68.5301 34.246Z" stroke="#0C253D" stroke-width="4" mask="url(#path-11-inside-1_5917_2084)"/>
<mask id="path-12-inside-2_5917_2084" fill="white">
<path d="M20.8699 29.07C20.6966 29.07 20.5599 29.0367 20.4599 28.97C20.3599 28.9034 20.2866 28.8267 20.2399 28.74C20.1999 28.6534 20.1733 28.5934 20.1599 28.56L18.2799 23.11C18.1933 22.83 18.1799 22.6234 18.2399 22.49C18.2999 22.35 18.4733 22.2334 18.7599 22.14C18.9466 22.08 19.0966 22.0534 19.2099 22.06C19.3299 22.0667 19.4266 22.1134 19.4999 22.2C19.5799 22.2867 19.6499 22.4234 19.7099 22.61L20.9599 26.32L22.0099 22.66C22.0299 22.5934 22.0599 22.5167 22.0999 22.43C22.1466 22.3434 22.2199 22.2667 22.3199 22.2C22.4199 22.1334 22.5599 22.1 22.7399 22.1C22.9466 22.1 23.0999 22.1367 23.1999 22.21C23.3066 22.2834 23.3799 22.3634 23.4199 22.45C23.4599 22.5367 23.4899 22.6034 23.5099 22.65L24.5699 26.34L25.8099 22.62C25.8699 22.4334 25.9366 22.2967 26.0099 22.21C26.0899 22.1167 26.1899 22.0634 26.3099 22.05C26.4366 22.0367 26.5933 22.0634 26.7799 22.13C26.9799 22.2034 27.1199 22.28 27.1999 22.36C27.2799 22.44 27.3199 22.54 27.3199 22.66C27.3266 22.7734 27.3033 22.9234 27.2499 23.11L25.3699 28.56C25.3566 28.6 25.3266 28.6634 25.2799 28.75C25.2399 28.83 25.1699 28.9034 25.0699 28.97C24.9766 29.0367 24.8366 29.07 24.6499 29.07C24.4699 29.07 24.3266 29.03 24.2199 28.95C24.1133 28.87 24.0366 28.7867 23.9899 28.7C23.9499 28.6067 23.9233 28.5434 23.9099 28.51L22.7599 24.78L21.6099 28.51C21.6033 28.5434 21.5766 28.6067 21.5299 28.7C21.4833 28.7934 21.4066 28.88 21.2999 28.96C21.1999 29.0334 21.0566 29.07 20.8699 29.07ZM30.4012 29.07C30.2279 29.07 30.0912 29.0367 29.9912 28.97C29.8912 28.9034 29.8179 28.8267 29.7712 28.74C29.7312 28.6534 29.7045 28.5934 29.6912 28.56L27.8112 23.11C27.7245 22.83 27.7112 22.6234 27.7712 22.49C27.8312 22.35 28.0045 22.2334 28.2912 22.14C28.4779 22.08 28.6279 22.0534 28.7412 22.06C28.8612 22.0667 28.9579 22.1134 29.0312 22.2C29.1112 22.2867 29.1812 22.4234 29.2412 22.61L30.4912 26.32L31.5412 22.66C31.5612 22.5934 31.5912 22.5167 31.6312 22.43C31.6779 22.3434 31.7512 22.2667 31.8512 22.2C31.9512 22.1334 32.0912 22.1 32.2712 22.1C32.4779 22.1 32.6312 22.1367 32.7312 22.21C32.8379 22.2834 32.9112 22.3634 32.9512 22.45C32.9912 22.5367 33.0212 22.6034 33.0412 22.65L34.1012 26.34L35.3412 22.62C35.4012 22.4334 35.4679 22.2967 35.5412 22.21C35.6212 22.1167 35.7212 22.0634 35.8412 22.05C35.9679 22.0367 36.1245 22.0634 36.3112 22.13C36.5112 22.2034 36.6512 22.28 36.7312 22.36C36.8112 22.44 36.8512 22.54 36.8512 22.66C36.8579 22.7734 36.8345 22.9234 36.7812 23.11L34.9012 28.56C34.8879 28.6 34.8579 28.6634 34.8112 28.75C34.7712 28.83 34.7012 28.9034 34.6012 28.97C34.5079 29.0367 34.3679 29.07 34.1812 29.07C34.0012 29.07 33.8579 29.03 33.7512 28.95C33.6445 28.87 33.5679 28.7867 33.5212 28.7C33.4812 28.6067 33.4545 28.5434 33.4412 28.51L32.2912 24.78L31.1412 28.51C31.1345 28.5434 31.1079 28.6067 31.0612 28.7C31.0145 28.7934 30.9379 28.88 30.8312 28.96C30.7312 29.0334 30.5879 29.07 30.4012 29.07ZM39.9324 29.07C39.7591 29.07 39.6224 29.0367 39.5224 28.97C39.4224 28.9034 39.3491 28.8267 39.3024 28.74C39.2624 28.6534 39.2358 28.5934 39.2224 28.56L37.3424 23.11C37.2558 22.83 37.2424 22.6234 37.3024 22.49C37.3624 22.35 37.5358 22.2334 37.8224 22.14C38.0091 22.08 38.1591 22.0534 38.2724 22.06C38.3924 22.0667 38.4891 22.1134 38.5624 22.2C38.6424 22.2867 38.7124 22.4234 38.7724 22.61L40.0224 26.32L41.0724 22.66C41.0924 22.5934 41.1224 22.5167 41.1624 22.43C41.2091 22.3434 41.2824 22.2667 41.3824 22.2C41.4824 22.1334 41.6224 22.1 41.8024 22.1C42.0091 22.1 42.1624 22.1367 42.2624 22.21C42.3691 22.2834 42.4424 22.3634 42.4824 22.45C42.5224 22.5367 42.5524 22.6034 42.5724 22.65L43.6324 26.34L44.8724 22.62C44.9324 22.4334 44.9991 22.2967 45.0724 22.21C45.1524 22.1167 45.2524 22.0634 45.3724 22.05C45.4991 22.0367 45.6558 22.0634 45.8424 22.13C46.0424 22.2034 46.1824 22.28 46.2624 22.36C46.3424 22.44 46.3824 22.54 46.3824 22.66C46.3891 22.7734 46.3658 22.9234 46.3124 23.11L44.4324 28.56C44.4191 28.6 44.3891 28.6634 44.3424 28.75C44.3024 28.83 44.2324 28.9034 44.1324 28.97C44.0391 29.0367 43.8991 29.07 43.7124 29.07C43.5324 29.07 43.3891 29.03 43.2824 28.95C43.1758 28.87 43.0991 28.7867 43.0524 28.7C43.0124 28.6067 42.9858 28.5434 42.9724 28.51L41.8224 24.78L40.6724 28.51C40.6658 28.5434 40.6391 28.6067 40.5924 28.7C40.5458 28.7934 40.4691 28.88 40.3624 28.96C40.2624 29.0334 40.1191 29.07 39.9324 29.07Z"/>
</mask>
<path d="M20.8699 29.07C20.6966 29.07 20.5599 29.0367 20.4599 28.97C20.3599 28.9034 20.2866 28.8267 20.2399 28.74C20.1999 28.6534 20.1733 28.5934 20.1599 28.56L18.2799 23.11C18.1933 22.83 18.1799 22.6234 18.2399 22.49C18.2999 22.35 18.4733 22.2334 18.7599 22.14C18.9466 22.08 19.0966 22.0534 19.2099 22.06C19.3299 22.0667 19.4266 22.1134 19.4999 22.2C19.5799 22.2867 19.6499 22.4234 19.7099 22.61L20.9599 26.32L22.0099 22.66C22.0299 22.5934 22.0599 22.5167 22.0999 22.43C22.1466 22.3434 22.2199 22.2667 22.3199 22.2C22.4199 22.1334 22.5599 22.1 22.7399 22.1C22.9466 22.1 23.0999 22.1367 23.1999 22.21C23.3066 22.2834 23.3799 22.3634 23.4199 22.45C23.4599 22.5367 23.4899 22.6034 23.5099 22.65L24.5699 26.34L25.8099 22.62C25.8699 22.4334 25.9366 22.2967 26.0099 22.21C26.0899 22.1167 26.1899 22.0634 26.3099 22.05C26.4366 22.0367 26.5933 22.0634 26.7799 22.13C26.9799 22.2034 27.1199 22.28 27.1999 22.36C27.2799 22.44 27.3199 22.54 27.3199 22.66C27.3266 22.7734 27.3033 22.9234 27.2499 23.11L25.3699 28.56C25.3566 28.6 25.3266 28.6634 25.2799 28.75C25.2399 28.83 25.1699 28.9034 25.0699 28.97C24.9766 29.0367 24.8366 29.07 24.6499 29.07C24.4699 29.07 24.3266 29.03 24.2199 28.95C24.1133 28.87 24.0366 28.7867 23.9899 28.7C23.9499 28.6067 23.9233 28.5434 23.9099 28.51L22.7599 24.78L21.6099 28.51C21.6033 28.5434 21.5766 28.6067 21.5299 28.7C21.4833 28.7934 21.4066 28.88 21.2999 28.96C21.1999 29.0334 21.0566 29.07 20.8699 29.07ZM30.4012 29.07C30.2279 29.07 30.0912 29.0367 29.9912 28.97C29.8912 28.9034 29.8179 28.8267 29.7712 28.74C29.7312 28.6534 29.7045 28.5934 29.6912 28.56L27.8112 23.11C27.7245 22.83 27.7112 22.6234 27.7712 22.49C27.8312 22.35 28.0045 22.2334 28.2912 22.14C28.4779 22.08 28.6279 22.0534 28.7412 22.06C28.8612 22.0667 28.9579 22.1134 29.0312 22.2C29.1112 22.2867 29.1812 22.4234 29.2412 22.61L30.4912 26.32L31.5412 22.66C31.5612 22.5934 31.5912 22.5167 31.6312 22.43C31.6779 22.3434 31.7512 22.2667 31.8512 22.2C31.9512 22.1334 32.0912 22.1 32.2712 22.1C32.4779 22.1 32.6312 22.1367 32.7312 22.21C32.8379 22.2834 32.9112 22.3634 32.9512 22.45C32.9912 22.5367 33.0212 22.6034 33.0412 22.65L34.1012 26.34L35.3412 22.62C35.4012 22.4334 35.4679 22.2967 35.5412 22.21C35.6212 22.1167 35.7212 22.0634 35.8412 22.05C35.9679 22.0367 36.1245 22.0634 36.3112 22.13C36.5112 22.2034 36.6512 22.28 36.7312 22.36C36.8112 22.44 36.8512 22.54 36.8512 22.66C36.8579 22.7734 36.8345 22.9234 36.7812 23.11L34.9012 28.56C34.8879 28.6 34.8579 28.6634 34.8112 28.75C34.7712 28.83 34.7012 28.9034 34.6012 28.97C34.5079 29.0367 34.3679 29.07 34.1812 29.07C34.0012 29.07 33.8579 29.03 33.7512 28.95C33.6445 28.87 33.5679 28.7867 33.5212 28.7C33.4812 28.6067 33.4545 28.5434 33.4412 28.51L32.2912 24.78L31.1412 28.51C31.1345 28.5434 31.1079 28.6067 31.0612 28.7C31.0145 28.7934 30.9379 28.88 30.8312 28.96C30.7312 29.0334 30.5879 29.07 30.4012 29.07ZM39.9324 29.07C39.7591 29.07 39.6224 29.0367 39.5224 28.97C39.4224 28.9034 39.3491 28.8267 39.3024 28.74C39.2624 28.6534 39.2358 28.5934 39.2224 28.56L37.3424 23.11C37.2558 22.83 37.2424 22.6234 37.3024 22.49C37.3624 22.35 37.5358 22.2334 37.8224 22.14C38.0091 22.08 38.1591 22.0534 38.2724 22.06C38.3924 22.0667 38.4891 22.1134 38.5624 22.2C38.6424 22.2867 38.7124 22.4234 38.7724 22.61L40.0224 26.32L41.0724 22.66C41.0924 22.5934 41.1224 22.5167 41.1624 22.43C41.2091 22.3434 41.2824 22.2667 41.3824 22.2C41.4824 22.1334 41.6224 22.1 41.8024 22.1C42.0091 22.1 42.1624 22.1367 42.2624 22.21C42.3691 22.2834 42.4424 22.3634 42.4824 22.45C42.5224 22.5367 42.5524 22.6034 42.5724 22.65L43.6324 26.34L44.8724 22.62C44.9324 22.4334 44.9991 22.2967 45.0724 22.21C45.1524 22.1167 45.2524 22.0634 45.3724 22.05C45.4991 22.0367 45.6558 22.0634 45.8424 22.13C46.0424 22.2034 46.1824 22.28 46.2624 22.36C46.3424 22.44 46.3824 22.54 46.3824 22.66C46.3891 22.7734 46.3658 22.9234 46.3124 23.11L44.4324 28.56C44.4191 28.6 44.3891 28.6634 44.3424 28.75C44.3024 28.83 44.2324 28.9034 44.1324 28.97C44.0391 29.0367 43.8991 29.07 43.7124 29.07C43.5324 29.07 43.3891 29.03 43.2824 28.95C43.1758 28.87 43.0991 28.7867 43.0524 28.7C43.0124 28.6067 42.9858 28.5434 42.9724 28.51L41.8224 24.78L40.6724 28.51C40.6658 28.5434 40.6391 28.6067 40.5924 28.7C40.5458 28.7934 40.4691 28.88 40.3624 28.96C40.2624 29.0334 40.1191 29.07 39.9324 29.07Z" stroke="#F7B019" stroke-width="2" mask="url(#path-12-inside-2_5917_2084)"/>
<path d="M80.9644 52.5384C80.6455 53.043 80.2778 53.4597 79.5913 53.3384C78.9086 53.2171 78.7111 52.7027 78.5546 52.1218C78.4079 51.5702 78.2025 51.0362 78.0402 50.4885C77.8152 49.7218 78.0773 49.1252 78.7247 48.8846C79.3526 48.6499 79.9414 48.9531 80.2446 49.7198C80.5086 50.3888 80.7257 51.0773 80.9624 51.758C80.9644 52.0181 80.9644 52.2783 80.9644 52.5384Z" fill="#0C253D"/>
<path d="M36.1346 36.2919C40.5375 36.6812 44.8368 37.0567 49.138 37.4401C53.5409 37.8333 57.9438 38.2401 62.3487 38.6274C63.047 38.688 63.6632 38.8347 63.8059 39.6347C63.9487 40.4347 63.4245 40.8005 62.7869 41.088C61.1517 41.8215 59.5106 42.5452 57.8989 43.3296C57.5174 43.5154 57.1321 43.8714 56.9443 44.2469C55.6847 46.7545 54.4817 49.2895 53.2534 51.8127C52.6861 52.9765 52.0915 53.1291 51.0314 52.3839C49.7776 51.4998 48.5238 50.6137 47.2896 49.7022C46.9316 49.4381 46.6519 49.3892 46.2431 49.6122C44.8739 50.3575 43.4852 51.0655 42.0964 51.7736C40.9932 52.335 40.4338 52.1257 39.9644 50.9756C38.2412 46.7408 36.5257 42.5042 34.8123 38.2655C34.2607 36.9042 34.7595 36.2215 36.1346 36.2919ZM48.9541 45.577C45.2925 43.6875 41.76 41.8646 38.0182 39.934C39.3385 43.1868 40.5688 46.2166 41.8108 49.2797C44.2011 48.0416 46.5013 46.8484 48.9541 45.577ZM54.6773 43.4958C51.7786 42.7545 48.9561 42.0328 46.1355 41.309C47.9018 42.3888 49.7013 43.357 51.538 44.2509C52.3302 44.6362 52.7761 45.1369 52.7272 46.0445C52.7096 46.3516 52.7996 46.6626 52.8387 46.9716C52.8896 46.9716 52.9385 46.9736 52.9893 46.9736C53.5389 45.843 54.0886 44.7086 54.6773 43.4958ZM51.2231 39.9927C51.2074 40.0494 51.1918 40.1061 51.1742 40.1628C52.5473 40.5188 53.9438 40.8083 55.2876 41.2543C56.291 41.5868 57.0108 41.1682 57.9967 40.599C55.5908 40.3839 53.4059 40.1883 51.2231 39.9927ZM49.1282 48.1374C49.6759 48.5247 50.0984 48.822 50.6441 49.2073C50.5756 48.5306 50.5267 48.0494 50.468 47.4509C50.0221 47.6797 49.6446 47.8734 49.1282 48.1374Z" fill="#F7B019"/>
<path d="M77.4512 59.1457C77.9499 58.0093 78.3157 57.0098 78.8243 56.0924C79.0766 55.6387 79.7103 55.5076 80.127 55.8597C80.4517 56.1335 80.8233 56.7086 80.7411 57.0411C80.5162 57.9565 80.1426 58.8641 79.6595 59.6719C79.4795 59.9712 78.7852 60.1766 78.4077 60.0846C78.0321 59.9946 77.7641 59.4763 77.4512 59.1457Z" fill="#F7B019"/>
<path d="M57.3626 55.9457C56.5196 55.9438 54.5617 53.4988 54.7534 52.689C54.9548 51.8362 56.0169 51.4646 56.6428 52.1003C57.2746 52.7418 57.8458 53.4616 58.3328 54.2186C58.8199 54.9756 58.2272 55.9477 57.3626 55.9457Z" fill="#F7B019"/>
<path d="M77.5985 46.0425C77.5731 47.0088 76.6518 47.6073 75.934 47.1437C75.1359 46.6293 74.3692 46.023 73.7335 45.3247C73.5027 45.0723 73.5183 44.3154 73.7354 44.0161C73.9486 43.7208 74.7056 43.4684 74.9697 43.6249C75.844 44.1472 76.6146 44.8455 77.3951 45.5124C77.5437 45.6415 77.5574 45.9291 77.5985 46.0425Z" fill="#F7B019"/>
<path d="M66.3197 60.7711C67.464 61.2425 68.4791 61.5692 69.3847 62.0895C69.6527 62.244 69.7603 62.9755 69.6703 63.3843C69.551 63.9379 68.9877 64.2137 68.438 64.0494C67.5754 63.7931 66.7305 63.4547 65.9089 63.0811C65.371 62.8366 65.1578 62.2851 65.3847 61.7706C65.553 61.3853 65.9833 61.1134 66.3197 60.7711Z" fill="#F7B019"/>
<path d="M63.6221 59.4724C63.6378 60.3917 62.736 61.0841 62.0769 60.6675C61.2143 60.1237 60.4104 59.445 59.7199 58.6959C59.5087 58.467 59.6065 57.7003 59.8412 57.3932C60.0466 57.1232 60.7859 56.9276 61.0402 57.088C61.9028 57.6357 62.6637 58.3457 63.4402 59.0206C63.5752 59.1379 63.5928 59.3922 63.6221 59.4724Z" fill="#F7B019"/>
<path d="M73.423 64.4386C72.7873 64.2939 72.3472 64.0611 72.1985 63.4724C72.044 62.868 72.2455 62.3672 72.8225 62.113C73.5814 61.7805 74.3619 61.4929 75.1462 61.2171C75.7232 61.0137 76.1888 61.2465 76.4685 61.7511C76.7697 62.291 76.7149 62.8993 76.1712 63.1985C75.2929 63.6856 74.3423 64.0338 73.423 64.4386Z" fill="#F7B019"/>
<circle cx="46.5" cy="7.5" r="1.75" stroke="#0C253D" stroke-width="1.5"/>
<circle cx="39.5" cy="7.5" r="1.75" stroke="#0C253D" stroke-width="1.5"/>
<circle cx="32.5" cy="7.5" r="1.75" stroke="#0C253D" stroke-width="1.5"/>
</svg>
