<svg width="77" height="75" viewBox="0 0 77 75" fill="none" xmlns="http://www.w3.org/2000/svg">
<path d="M30.7382 68.2691C45.7944 68.2691 57.9999 56.1068 57.9999 41.1039C57.9999 26.101 45.7944 13.9387 30.7382 13.9387C15.682 13.9387 3.47656 26.101 3.47656 41.1039C3.47656 56.1068 15.682 68.2691 30.7382 68.2691Z" fill="#FFF8E8"/>
<path d="M43.9589 60.0373C59.0151 60.0373 71.2206 47.875 71.2206 32.8721C71.2206 17.8692 59.0151 5.70691 43.9589 5.70691C28.9027 5.70691 16.6973 17.8692 16.6973 32.8721C16.6973 47.875 28.9027 60.0373 43.9589 60.0373Z" fill="#FCF0D7"/>
<path d="M72.0487 16.4083L72.981 17.9488L74.527 18.8778L72.981 19.8068L72.0487 21.3475L71.1164 19.8068L69.5703 18.8778L71.1164 17.9488L72.0487 16.4083Z" fill="#FCEDCD"/>
<path d="M17.3145 5.66868L19.1076 5.87764L20.7914 5.22864L20.5817 7.01545L21.233 8.69329L19.4398 8.48432L17.7561 9.13333L17.9658 7.34651L17.3145 5.66868Z" fill="#FCEDCD"/>
<path d="M14.2166 66.6228L15.1489 68.1634L16.6949 69.0924L15.1489 70.0214L14.2166 71.5619L13.2843 70.0214L11.7383 69.0924L13.2843 68.1634L14.2166 66.6228Z" fill="#FCEDCD"/>
<path d="M57.4675 68.2997C57.3298 67.8881 57.3849 67.0648 58.7066 67.0648" stroke="#FCEDCD"/>
<path d="M1.05145 53.0399C0.913764 52.6283 0.968838 51.8052 2.29062 51.8052" stroke="#FCEDCD"/>
<path d="M75.0378 44.8349C74.9001 44.4232 74.9551 43.6001 76.277 43.6001" stroke="#FCEDCD"/>
<path d="M1.97723 25.4923C1.83955 25.0807 1.89462 24.2576 3.2164 24.2576" stroke="#FCEDCD"/>
<path d="M48.6069 4.00839C48.2302 4.22236 47.414 4.325 47.1621 3.02368" stroke="#FCEDCD"/>
<mask id="path-11-inside-1_5919_2085" fill="white">
<path d="M18.7277 40.8735C18.744 40.5746 18.7664 40.3509 18.7664 40.1272C18.7705 39.1673 18.7684 38.2074 18.7684 37.1295C18.4064 37.1295 18.1136 37.1295 17.8207 37.1295C13.2531 37.1295 8.68337 37.1356 4.11571 37.1254C2.43995 37.1214 1.48208 36.5072 1.12415 35.2036C1.0245 34.8436 1.01026 34.4532 1.00823 34.0769C0.998063 32.0209 0.998063 29.9669 1.00416 27.9108C1.01026 25.8141 1.97627 24.8257 4.07096 24.8216C8.63863 24.8094 13.2083 24.8176 17.776 24.8176C18.0729 24.8176 18.3719 24.8176 18.7684 24.8176C18.7684 24.4352 18.7684 24.1403 18.7684 23.8434C18.7684 17.5512 18.7623 11.2569 18.7725 4.9647C18.7766 2.52834 20.0781 0.708191 22.2054 0.173331C22.6894 0.0513096 23.21 0.0431748 23.7123 0.0431748C33.1791 0.0350401 42.6459 0.100118 52.1107 0.000467418C55.0758 -0.0300379 57.1299 1.43218 57.4858 4.51525C57.8945 4.53762 58.3155 4.55186 58.7344 4.5844C60.3472 4.71455 61.7158 5.37957 62.812 6.55708C63.117 6.8845 63.3896 6.95568 63.8024 6.86823C67.7335 6.03849 69.8506 8.95479 70.1516 11.2854C70.5868 14.6512 68.3863 17.4495 65.1202 17.5959C62.9421 17.6935 60.7559 17.6305 58.5738 17.6386C58.2769 17.6407 57.9799 17.6386 57.6383 17.6386C57.6383 21.9318 57.6383 26.1313 57.6383 30.4082C59.4503 30.4082 61.2237 30.4244 62.993 30.3878C63.2065 30.3838 63.4546 30.1214 63.6153 29.9201C66.6618 26.0866 72.4862 26.477 75.0263 30.6929C75.73 31.8602 75.2419 32.7591 73.8813 32.7774C73.0191 32.7896 72.1548 32.7693 71.2925 32.7835C70.4566 32.7977 69.9136 33.3224 69.9116 34.083C69.9075 34.8375 70.4526 35.3785 71.2823 35.3988C72.1954 35.4212 73.1106 35.3907 74.0237 35.411C75.1931 35.4375 75.6771 36.312 75.1178 37.3471C72.8421 41.5507 66.8529 42.1019 63.78 38.3639C63.3936 37.8942 63.0154 37.7315 62.4358 37.7437C60.8657 37.7762 59.2957 37.7559 57.6607 37.7559C57.6607 41.5589 57.6607 45.2947 57.6607 49.116C57.9474 49.116 58.2199 49.116 58.4924 49.116C62.5537 49.116 66.613 49.1059 70.6742 49.1201C72.9276 49.1283 74.7518 50.383 75.0507 52.4635C75.2968 54.1738 75.2927 55.9696 75.0751 57.686C74.8351 59.5712 73.0536 60.8077 71.0403 60.8138C66.8773 60.826 62.7164 60.8179 58.5534 60.8179C58.2748 60.8179 57.9983 60.8179 57.5956 60.8179C57.5956 61.1494 57.5956 61.4422 57.5956 61.733C57.5956 64.5497 57.6119 67.3664 57.5895 70.183C57.5712 72.5462 56.233 74.3541 54.1261 74.8747C53.6909 74.9825 53.2211 74.9947 52.7696 74.9947C43.0486 75.0008 33.3296 75.0008 23.6086 74.9988C20.6475 74.9988 18.8294 73.199 18.7745 70.2298C18.7664 69.8047 18.7725 69.3777 18.7725 68.916C18.1726 68.916 17.6682 68.9303 17.1659 68.914C15.6833 68.8631 14.5526 68.0293 14.0665 66.6444C13.613 65.3489 13.066 65.1313 11.8681 65.7679C10.6601 66.4085 9.18975 66.1807 8.22782 65.2045C7.96141 64.9341 7.69296 64.6636 7.42858 64.389C6.30395 63.2176 6.16363 61.7025 7.05235 60.3644C7.59128 59.5529 7.29436 58.7313 6.35683 58.4344C4.56312 57.865 3.80658 56.842 3.78828 54.9629C3.76794 52.8194 4.49804 51.6765 6.26328 51.0806C7.24962 50.7491 7.53027 50.1146 7.05642 49.295C6.21447 47.8348 6.39547 46.3502 7.56484 45.1178C8.91927 43.6942 10.3998 43.3607 11.9413 44.1335C13.1127 44.7212 13.8062 44.4304 14.2089 43.1797C14.6604 41.7724 15.7769 40.9264 17.2696 40.8755C17.7211 40.8593 18.1766 40.8735 18.7277 40.8735ZM21.1153 37.1295C21.1153 39.5943 21.1153 41.9615 21.1153 44.3308C21.1153 52.9312 21.1133 61.5317 21.1173 70.1322C21.1173 71.8933 21.9166 72.6844 23.6798 72.6844C33.3479 72.6865 43.014 72.6865 52.6822 72.6844C54.3702 72.6844 55.2467 71.8039 55.2487 70.1017C55.2528 67.2606 55.2507 64.4195 55.2507 61.5785C55.2507 61.3385 55.2507 61.0985 55.2507 60.822C54.8277 60.822 54.5247 60.822 54.2217 60.822C45.4423 60.822 36.6628 60.826 27.8834 60.8199C25.3149 60.8179 23.4805 58.9937 23.4378 56.421C23.4256 55.634 23.4357 54.849 23.4357 54.062C23.4378 50.8345 25.14 49.1242 28.3593 49.1221C37.0126 49.1201 45.6639 49.1221 54.3173 49.1221C54.6101 49.1221 54.905 49.1221 55.1958 49.1221C55.1958 38.5795 55.1958 28.1447 55.1958 17.6285C53.9776 17.6285 52.8123 17.6732 51.6531 17.6203C48.9117 17.4942 46.9513 15.3955 47.0102 12.709C47.0672 10.116 49.0968 8.20029 51.8219 8.12301C52.0639 8.11691 52.3466 7.92981 52.5337 7.74678C53.272 7.02889 53.9919 6.29066 54.6935 5.53616C54.8745 5.34093 55.0697 5.06435 55.0799 4.81827C55.147 3.2747 54.238 2.35751 52.672 2.35751C43.0547 2.35548 33.4394 2.35548 23.8221 2.35548C21.9572 2.35548 21.1214 3.18115 21.1214 5.02978C21.1194 11.3464 21.1214 17.663 21.1214 23.9817C21.1214 24.2298 21.1214 24.4779 21.1214 24.8176C21.4875 24.8176 21.7864 24.8176 22.0854 24.8176C27.3892 24.8176 32.691 24.8094 37.9949 24.8216C40.0815 24.8257 41.0719 25.8364 41.0759 27.9108C41.08 30.0929 41.1186 32.2751 41.0475 34.4552C41.0292 35.045 40.7729 35.6978 40.4313 36.1879C39.8639 37.0054 38.9365 37.1376 37.9847 37.1356C32.6809 37.1254 27.3791 37.1315 22.0752 37.1315C21.7701 37.1295 21.4732 37.1295 21.1153 37.1295ZM61.4454 51.4894C61.1078 51.4894 60.8088 51.4894 60.5119 51.4894C56.5787 51.4894 52.6456 51.4894 48.7124 51.4894C41.8101 51.4894 34.9078 51.4873 28.0075 51.4914C26.529 51.4914 25.8131 52.2052 25.7968 53.6756C25.7867 54.487 25.7928 55.2985 25.7948 56.1119C25.8009 57.8019 26.5066 58.5035 28.2108 58.5035C39.0199 58.5056 49.831 58.5035 60.64 58.5035C60.9085 58.5035 61.1769 58.5035 61.4474 58.5035C61.4454 56.114 61.4454 53.8403 61.4454 51.4894ZM29.0182 27.2071C28.8799 27.1827 28.8311 27.1685 28.7823 27.1685C20.5093 27.1665 12.2383 27.1685 3.96521 27.1522C3.37544 27.1502 3.3124 27.4369 3.31443 27.9067C3.32663 29.9119 3.35307 31.9151 3.30223 33.9183C3.28393 34.6525 3.55034 34.7989 4.22552 34.7989C12.2444 34.7786 20.2632 34.7867 28.28 34.7847C28.524 34.7847 28.766 34.7623 29.0162 34.7501C29.0182 32.1998 29.0182 29.7228 29.0182 27.2071ZM18.7644 49.6529C18.7644 47.6335 18.7684 45.6567 18.7583 43.68C18.7583 43.5458 18.6952 43.3627 18.5956 43.2895C17.9936 42.8401 16.6676 43.3465 16.3768 44.0379C16.1165 44.6541 15.8175 45.311 15.3579 45.7706C14.152 46.9705 12.5555 47.1251 11.0323 46.2913C10.353 45.9191 9.85274 46.0838 9.35448 46.6207C8.88267 47.1312 8.74438 47.5949 9.13078 48.2436C10.2737 50.1573 9.37482 52.4554 7.22115 53.22C6.19007 53.5861 6.15346 53.7081 6.13312 54.9914C6.12092 55.7967 6.51952 56.0896 7.23131 56.2665C9.44397 56.8197 10.5035 60.1508 9.05756 61.6253C8.661 62.0279 8.73828 62.4408 9.15315 62.8109C9.37889 63.0143 9.59649 63.2298 9.79783 63.4556C10.1476 63.8501 10.5401 63.8806 10.9408 63.5796C12.7609 62.215 15.4027 63.4983 16.0982 65.3286C16.5863 66.6119 16.6961 66.6464 18.0322 66.6037C18.5976 66.5854 18.7867 66.3414 18.7766 65.8045C18.7562 64.7388 18.7705 63.6732 18.7705 62.6096C18.7705 61.8612 18.7705 61.1128 18.7705 60.3766C14.5363 60.1508 12.2464 58.0866 12.3989 54.7412C12.5433 51.5077 15.0163 49.4943 18.7644 49.6529ZM58.3358 15.2958C60.516 15.2958 62.6961 15.308 64.8762 15.2918C66.1716 15.2816 67.2332 14.5108 67.6745 13.3191C68.1504 12.0358 67.8027 10.5797 66.8122 9.69912C65.9276 8.91412 64.7338 8.83481 63.4851 9.47948C62.7754 9.84555 62.2568 9.69912 61.7748 9.06054C61.4108 8.58059 61.0529 8.05997 60.5831 7.70001C58.3562 5.99985 55.2202 7.01466 54.1831 9.7337C53.8068 10.718 53.3757 10.9153 52.369 10.6183C52.0619 10.5289 51.7182 10.4699 51.405 10.5085C50.1299 10.6672 49.2534 11.7409 49.3286 12.9896C49.4039 14.2525 50.435 15.2735 51.7223 15.2877C53.9248 15.3121 56.1313 15.2958 58.3358 15.2958ZM31.4525 27.1624C31.4525 29.7553 31.4525 32.2486 31.4525 34.7847C33.7425 34.7847 35.9714 34.7806 38.2003 34.7887C38.5908 34.7908 38.7413 34.6423 38.7392 34.2518C38.7291 32.0717 38.7453 29.8916 38.7087 27.7115C38.7047 27.5244 38.3793 27.1868 38.1983 27.1848C35.9714 27.1482 33.7404 27.1624 31.4525 27.1624ZM63.8695 58.4974C66.3445 58.4974 68.726 58.5259 71.1074 58.4852C72.2442 58.4649 72.8848 57.7023 72.8889 56.5492C72.8909 55.5852 72.895 54.6233 72.8848 53.6593C72.8706 52.2601 72.1141 51.4995 70.719 51.4934C68.6405 51.4833 66.5621 51.4894 64.4837 51.4934C64.2905 51.4934 64.0952 51.528 63.8715 51.5504C63.8695 53.8647 63.8695 56.1343 63.8695 58.4974ZM71.3189 30.3085C69.6391 29.068 67.0441 29.4747 65.592 31.2054C64.1013 32.9808 64.262 35.6632 65.9134 37.282C67.4407 38.7768 70.2004 38.8805 71.266 37.823C68.7849 37.2474 67.6623 36.1655 67.579 34.2722C67.4895 32.267 68.4697 31.2277 71.3189 30.3085ZM18.7684 57.8162C18.7684 56.1689 18.7379 54.4992 18.7847 52.8316C18.803 52.1747 18.5162 51.9978 17.9488 51.9612C16.7469 51.8859 15.6142 52.5021 15.061 53.5637C14.4997 54.6436 14.638 55.9818 15.4088 56.9193C16.2039 57.8853 17.4201 58.2249 18.7684 57.8162ZM57.6424 32.8038C57.6424 33.6987 57.6424 34.5223 57.6424 35.35C59.2246 35.35 60.7559 35.35 62.2487 35.35C62.2487 34.4674 62.2487 33.6458 62.2487 32.8038C60.7092 32.8038 59.2185 32.8038 57.6424 32.8038Z"/>
</mask>
<path d="M18.7277 40.8735C18.744 40.5746 18.7664 40.3509 18.7664 40.1272C18.7705 39.1673 18.7684 38.2074 18.7684 37.1295C18.4064 37.1295 18.1136 37.1295 17.8207 37.1295C13.2531 37.1295 8.68337 37.1356 4.11571 37.1254C2.43995 37.1214 1.48208 36.5072 1.12415 35.2036C1.0245 34.8436 1.01026 34.4532 1.00823 34.0769C0.998063 32.0209 0.998063 29.9669 1.00416 27.9108C1.01026 25.8141 1.97627 24.8257 4.07096 24.8216C8.63863 24.8094 13.2083 24.8176 17.776 24.8176C18.0729 24.8176 18.3719 24.8176 18.7684 24.8176C18.7684 24.4352 18.7684 24.1403 18.7684 23.8434C18.7684 17.5512 18.7623 11.2569 18.7725 4.9647C18.7766 2.52834 20.0781 0.708191 22.2054 0.173331C22.6894 0.0513096 23.21 0.0431748 23.7123 0.0431748C33.1791 0.0350401 42.6459 0.100118 52.1107 0.000467418C55.0758 -0.0300379 57.1299 1.43218 57.4858 4.51525C57.8945 4.53762 58.3155 4.55186 58.7344 4.5844C60.3472 4.71455 61.7158 5.37957 62.812 6.55708C63.117 6.8845 63.3896 6.95568 63.8024 6.86823C67.7335 6.03849 69.8506 8.95479 70.1516 11.2854C70.5868 14.6512 68.3863 17.4495 65.1202 17.5959C62.9421 17.6935 60.7559 17.6305 58.5738 17.6386C58.2769 17.6407 57.9799 17.6386 57.6383 17.6386C57.6383 21.9318 57.6383 26.1313 57.6383 30.4082C59.4503 30.4082 61.2237 30.4244 62.993 30.3878C63.2065 30.3838 63.4546 30.1214 63.6153 29.9201C66.6618 26.0866 72.4862 26.477 75.0263 30.6929C75.73 31.8602 75.2419 32.7591 73.8813 32.7774C73.0191 32.7896 72.1548 32.7693 71.2925 32.7835C70.4566 32.7977 69.9136 33.3224 69.9116 34.083C69.9075 34.8375 70.4526 35.3785 71.2823 35.3988C72.1954 35.4212 73.1106 35.3907 74.0237 35.411C75.1931 35.4375 75.6771 36.312 75.1178 37.3471C72.8421 41.5507 66.8529 42.1019 63.78 38.3639C63.3936 37.8942 63.0154 37.7315 62.4358 37.7437C60.8657 37.7762 59.2957 37.7559 57.6607 37.7559C57.6607 41.5589 57.6607 45.2947 57.6607 49.116C57.9474 49.116 58.2199 49.116 58.4924 49.116C62.5537 49.116 66.613 49.1059 70.6742 49.1201C72.9276 49.1283 74.7518 50.383 75.0507 52.4635C75.2968 54.1738 75.2927 55.9696 75.0751 57.686C74.8351 59.5712 73.0536 60.8077 71.0403 60.8138C66.8773 60.826 62.7164 60.8179 58.5534 60.8179C58.2748 60.8179 57.9983 60.8179 57.5956 60.8179C57.5956 61.1494 57.5956 61.4422 57.5956 61.733C57.5956 64.5497 57.6119 67.3664 57.5895 70.183C57.5712 72.5462 56.233 74.3541 54.1261 74.8747C53.6909 74.9825 53.2211 74.9947 52.7696 74.9947C43.0486 75.0008 33.3296 75.0008 23.6086 74.9988C20.6475 74.9988 18.8294 73.199 18.7745 70.2298C18.7664 69.8047 18.7725 69.3777 18.7725 68.916C18.1726 68.916 17.6682 68.9303 17.1659 68.914C15.6833 68.8631 14.5526 68.0293 14.0665 66.6444C13.613 65.3489 13.066 65.1313 11.8681 65.7679C10.6601 66.4085 9.18975 66.1807 8.22782 65.2045C7.96141 64.9341 7.69296 64.6636 7.42858 64.389C6.30395 63.2176 6.16363 61.7025 7.05235 60.3644C7.59128 59.5529 7.29436 58.7313 6.35683 58.4344C4.56312 57.865 3.80658 56.842 3.78828 54.9629C3.76794 52.8194 4.49804 51.6765 6.26328 51.0806C7.24962 50.7491 7.53027 50.1146 7.05642 49.295C6.21447 47.8348 6.39547 46.3502 7.56484 45.1178C8.91927 43.6942 10.3998 43.3607 11.9413 44.1335C13.1127 44.7212 13.8062 44.4304 14.2089 43.1797C14.6604 41.7724 15.7769 40.9264 17.2696 40.8755C17.7211 40.8593 18.1766 40.8735 18.7277 40.8735ZM21.1153 37.1295C21.1153 39.5943 21.1153 41.9615 21.1153 44.3308C21.1153 52.9312 21.1133 61.5317 21.1173 70.1322C21.1173 71.8933 21.9166 72.6844 23.6798 72.6844C33.3479 72.6865 43.014 72.6865 52.6822 72.6844C54.3702 72.6844 55.2467 71.8039 55.2487 70.1017C55.2528 67.2606 55.2507 64.4195 55.2507 61.5785C55.2507 61.3385 55.2507 61.0985 55.2507 60.822C54.8277 60.822 54.5247 60.822 54.2217 60.822C45.4423 60.822 36.6628 60.826 27.8834 60.8199C25.3149 60.8179 23.4805 58.9937 23.4378 56.421C23.4256 55.634 23.4357 54.849 23.4357 54.062C23.4378 50.8345 25.14 49.1242 28.3593 49.1221C37.0126 49.1201 45.6639 49.1221 54.3173 49.1221C54.6101 49.1221 54.905 49.1221 55.1958 49.1221C55.1958 38.5795 55.1958 28.1447 55.1958 17.6285C53.9776 17.6285 52.8123 17.6732 51.6531 17.6203C48.9117 17.4942 46.9513 15.3955 47.0102 12.709C47.0672 10.116 49.0968 8.20029 51.8219 8.12301C52.0639 8.11691 52.3466 7.92981 52.5337 7.74678C53.272 7.02889 53.9919 6.29066 54.6935 5.53616C54.8745 5.34093 55.0697 5.06435 55.0799 4.81827C55.147 3.2747 54.238 2.35751 52.672 2.35751C43.0547 2.35548 33.4394 2.35548 23.8221 2.35548C21.9572 2.35548 21.1214 3.18115 21.1214 5.02978C21.1194 11.3464 21.1214 17.663 21.1214 23.9817C21.1214 24.2298 21.1214 24.4779 21.1214 24.8176C21.4875 24.8176 21.7864 24.8176 22.0854 24.8176C27.3892 24.8176 32.691 24.8094 37.9949 24.8216C40.0815 24.8257 41.0719 25.8364 41.0759 27.9108C41.08 30.0929 41.1186 32.2751 41.0475 34.4552C41.0292 35.045 40.7729 35.6978 40.4313 36.1879C39.8639 37.0054 38.9365 37.1376 37.9847 37.1356C32.6809 37.1254 27.3791 37.1315 22.0752 37.1315C21.7701 37.1295 21.4732 37.1295 21.1153 37.1295ZM61.4454 51.4894C61.1078 51.4894 60.8088 51.4894 60.5119 51.4894C56.5787 51.4894 52.6456 51.4894 48.7124 51.4894C41.8101 51.4894 34.9078 51.4873 28.0075 51.4914C26.529 51.4914 25.8131 52.2052 25.7968 53.6756C25.7867 54.487 25.7928 55.2985 25.7948 56.1119C25.8009 57.8019 26.5066 58.5035 28.2108 58.5035C39.0199 58.5056 49.831 58.5035 60.64 58.5035C60.9085 58.5035 61.1769 58.5035 61.4474 58.5035C61.4454 56.114 61.4454 53.8403 61.4454 51.4894ZM29.0182 27.2071C28.8799 27.1827 28.8311 27.1685 28.7823 27.1685C20.5093 27.1665 12.2383 27.1685 3.96521 27.1522C3.37544 27.1502 3.3124 27.4369 3.31443 27.9067C3.32663 29.9119 3.35307 31.9151 3.30223 33.9183C3.28393 34.6525 3.55034 34.7989 4.22552 34.7989C12.2444 34.7786 20.2632 34.7867 28.28 34.7847C28.524 34.7847 28.766 34.7623 29.0162 34.7501C29.0182 32.1998 29.0182 29.7228 29.0182 27.2071ZM18.7644 49.6529C18.7644 47.6335 18.7684 45.6567 18.7583 43.68C18.7583 43.5458 18.6952 43.3627 18.5956 43.2895C17.9936 42.8401 16.6676 43.3465 16.3768 44.0379C16.1165 44.6541 15.8175 45.311 15.3579 45.7706C14.152 46.9705 12.5555 47.1251 11.0323 46.2913C10.353 45.9191 9.85274 46.0838 9.35448 46.6207C8.88267 47.1312 8.74438 47.5949 9.13078 48.2436C10.2737 50.1573 9.37482 52.4554 7.22115 53.22C6.19007 53.5861 6.15346 53.7081 6.13312 54.9914C6.12092 55.7967 6.51952 56.0896 7.23131 56.2665C9.44397 56.8197 10.5035 60.1508 9.05756 61.6253C8.661 62.0279 8.73828 62.4408 9.15315 62.8109C9.37889 63.0143 9.59649 63.2298 9.79783 63.4556C10.1476 63.8501 10.5401 63.8806 10.9408 63.5796C12.7609 62.215 15.4027 63.4983 16.0982 65.3286C16.5863 66.6119 16.6961 66.6464 18.0322 66.6037C18.5976 66.5854 18.7867 66.3414 18.7766 65.8045C18.7562 64.7388 18.7705 63.6732 18.7705 62.6096C18.7705 61.8612 18.7705 61.1128 18.7705 60.3766C14.5363 60.1508 12.2464 58.0866 12.3989 54.7412C12.5433 51.5077 15.0163 49.4943 18.7644 49.6529ZM58.3358 15.2958C60.516 15.2958 62.6961 15.308 64.8762 15.2918C66.1716 15.2816 67.2332 14.5108 67.6745 13.3191C68.1504 12.0358 67.8027 10.5797 66.8122 9.69912C65.9276 8.91412 64.7338 8.83481 63.4851 9.47948C62.7754 9.84555 62.2568 9.69912 61.7748 9.06054C61.4108 8.58059 61.0529 8.05997 60.5831 7.70001C58.3562 5.99985 55.2202 7.01466 54.1831 9.7337C53.8068 10.718 53.3757 10.9153 52.369 10.6183C52.0619 10.5289 51.7182 10.4699 51.405 10.5085C50.1299 10.6672 49.2534 11.7409 49.3286 12.9896C49.4039 14.2525 50.435 15.2735 51.7223 15.2877C53.9248 15.3121 56.1313 15.2958 58.3358 15.2958ZM31.4525 27.1624C31.4525 29.7553 31.4525 32.2486 31.4525 34.7847C33.7425 34.7847 35.9714 34.7806 38.2003 34.7887C38.5908 34.7908 38.7413 34.6423 38.7392 34.2518C38.7291 32.0717 38.7453 29.8916 38.7087 27.7115C38.7047 27.5244 38.3793 27.1868 38.1983 27.1848C35.9714 27.1482 33.7404 27.1624 31.4525 27.1624ZM63.8695 58.4974C66.3445 58.4974 68.726 58.5259 71.1074 58.4852C72.2442 58.4649 72.8848 57.7023 72.8889 56.5492C72.8909 55.5852 72.895 54.6233 72.8848 53.6593C72.8706 52.2601 72.1141 51.4995 70.719 51.4934C68.6405 51.4833 66.5621 51.4894 64.4837 51.4934C64.2905 51.4934 64.0952 51.528 63.8715 51.5504C63.8695 53.8647 63.8695 56.1343 63.8695 58.4974ZM71.3189 30.3085C69.6391 29.068 67.0441 29.4747 65.592 31.2054C64.1013 32.9808 64.262 35.6632 65.9134 37.282C67.4407 38.7768 70.2004 38.8805 71.266 37.823C68.7849 37.2474 67.6623 36.1655 67.579 34.2722C67.4895 32.267 68.4697 31.2277 71.3189 30.3085ZM18.7684 57.8162C18.7684 56.1689 18.7379 54.4992 18.7847 52.8316C18.803 52.1747 18.5162 51.9978 17.9488 51.9612C16.7469 51.8859 15.6142 52.5021 15.061 53.5637C14.4997 54.6436 14.638 55.9818 15.4088 56.9193C16.2039 57.8853 17.4201 58.2249 18.7684 57.8162ZM57.6424 32.8038C57.6424 33.6987 57.6424 34.5223 57.6424 35.35C59.2246 35.35 60.7559 35.35 62.2487 35.35C62.2487 34.4674 62.2487 33.6458 62.2487 32.8038C60.7092 32.8038 59.2185 32.8038 57.6424 32.8038Z" stroke="#0C253D" stroke-width="4" mask="url(#path-11-inside-1_5919_2085)"/>
<path d="M3.70518 12.1355C3.69094 9.68287 5.18977 7.76104 7.41056 7.64309C8.27081 7.59631 9.15546 8.02135 10.032 8.21659C10.2496 8.26539 10.5323 8.34064 10.699 8.24709C12.3687 7.31159 14.0485 7.10416 15.5839 8.40775C17.1885 9.76829 17.4488 11.5945 16.9363 13.5428C16.3954 15.6009 15.0959 17.1648 13.355 18.2955C10.2191 20.3313 10.6441 20.3455 7.4675 18.3098C5.02911 16.7438 3.71941 14.4254 3.70518 12.1355ZM6.03375 12.2413C6.11917 13.795 6.98348 15.0416 8.2403 15.9649C10.6523 17.7363 10.1947 17.7078 12.5375 15.9751C13.7435 15.0823 14.622 13.8946 14.7847 12.3267C14.8783 11.4298 14.7359 10.5716 13.896 10.0571C13.0703 9.55068 12.328 9.96759 11.6488 10.4414C10.4326 11.2875 10.4428 11.2956 9.2063 10.4597C8.52908 10.0022 7.79899 9.68287 7.00789 10.1262C6.23509 10.5574 6.05002 11.322 6.03375 12.2413Z" fill="#F7B019"/>
<path d="M38.1901 6.73599C37.4295 6.73599 36.6668 6.74616 35.9062 6.73395C35.0358 6.71972 34.5213 6.26621 34.5274 5.54831C34.5335 4.85889 35.0236 4.39725 35.8513 4.38708C37.399 4.36674 38.9486 4.36674 40.4963 4.38708C41.328 4.39725 41.8222 4.84669 41.8365 5.53204C41.8527 6.24994 41.3362 6.71768 40.4739 6.73395C39.7133 6.74819 38.9507 6.73599 38.1901 6.73599Z" fill="#F7B019"/>
<path d="M38.1311 70.6589C37.3705 70.6589 36.6079 70.6772 35.8473 70.6549C35.0216 70.6305 34.5295 70.179 34.5254 69.4896C34.5213 68.7961 35.0196 68.3202 35.829 68.31C37.4031 68.2917 38.9751 68.2897 40.5492 68.31C41.3525 68.3202 41.8487 68.8164 41.8325 69.5099C41.8162 70.1709 41.3423 70.6244 40.5655 70.6508C39.7561 70.6793 38.9446 70.6569 38.1311 70.6589Z" fill="#F7B019"/>
<path d="M17.8531 32.1531C15.3414 32.1531 12.8298 32.1551 10.3182 32.151C10.0661 32.151 9.80575 32.1551 9.56374 32.0982C8.97601 31.9578 8.64045 31.5674 8.64858 30.9552C8.65672 30.3431 9.01058 29.9709 9.59425 29.8347C9.78745 29.7899 9.99692 29.794 10.1983 29.794C15.2987 29.792 20.3972 29.792 25.4977 29.794C25.6502 29.794 25.8048 29.7859 25.9532 29.8082C26.5877 29.9018 27.0636 30.4061 27.027 30.9878C26.9863 31.6223 26.6243 32.0128 25.9939 32.1246C25.7722 32.1633 25.5384 32.1531 25.3106 32.1531C22.8254 32.1531 20.3403 32.1531 17.8531 32.1531Z" fill="#F7B019"/>
<path d="M8.00909 30.941C8.02943 31.6081 7.48237 32.1287 6.73397 32.1511C5.97337 32.1734 5.41004 31.7138 5.3714 31.0407C5.33073 30.3533 5.84321 29.8327 6.59771 29.7961C7.38678 29.7554 7.98875 30.2455 8.00909 30.941Z" fill="#F7B019"/>
<path d="M65.5352 54.5785C65.5291 53.1569 66.613 52.0567 68.002 52.0791C69.3646 52.1014 70.4506 53.2586 70.3428 54.6883C70.3001 55.2598 69.7736 55.7626 70.4303 56.3356C71.1746 56.9396 71.201 57.1958 70.8899 57.5985C70.6438 57.9178 70.1232 57.7958 69.5965 57.3117C68.8054 56.5817 68.6406 56.9599 68.1017 57.0189C66.7025 57.1694 65.5433 56.0224 65.5352 54.5785ZM67.9004 53.4213C66.9181 53.5454 66.7432 54.3934 66.7676 54.7513C66.8001 55.2537 67.2455 55.9736 68.0244 55.9329C68.9111 55.9349 69.2243 55.0381 69.2243 54.6781C69.2223 54.2002 68.9152 53.4213 67.9004 53.4213Z" fill="#F7B019"/>
</svg>
