<svg width="34" height="34" viewBox="0 0 34 34" fill="none" xmlns="http://www.w3.org/2000/svg">
<g clip-path="url(#clip0_3796_1113)">
<mask id="mask0_3796_1113" style="mask-type:luminance" maskUnits="userSpaceOnUse" x="0" y="0" width="34" height="34">
<path d="M34 0H0V34H34V0Z" fill="white"/>
</mask>
<g mask="url(#mask0_3796_1113)">
<path d="M4.25 9.91683C4.25 9.16539 4.54851 8.44471 5.07987 7.91337C5.61122 7.382 6.33189 7.0835 7.08333 7.0835H26.9167C27.6681 7.0835 28.3887 7.382 28.9201 7.91337C29.4515 8.44471 29.75 9.16539 29.75 9.91683V24.0835C29.75 24.8349 29.4515 25.5556 28.9201 26.0869C28.3887 26.6183 27.6681 26.9168 26.9167 26.9168H7.08333C6.33189 26.9168 5.61122 26.6183 5.07987 26.0869C4.54851 25.5556 4.25 24.8349 4.25 24.0835V9.91683Z" stroke="white" stroke-width="2" stroke-linecap="round" stroke-linejoin="round"/>
<path d="M8 11.3335L17 17.0002L26 11.3335" stroke="#F7B019" stroke-width="2" stroke-linecap="round" stroke-linejoin="round"/>
</g>
</g>
<defs>
<clipPath id="clip0_3796_1113">
<rect width="34" height="34" fill="white"/>
</clipPath>
</defs>
</svg>
