<svg width="81" height="75" viewBox="0 0 81 75" fill="none" xmlns="http://www.w3.org/2000/svg">
<ellipse cx="33.1564" cy="41.3085" rx="29.4767" ry="29.2875" fill="#FFF8E8"/>
<ellipse cx="47.4454" cy="32.4335" rx="29.4767" ry="29.2875" fill="#FCF0D7"/>
<path d="M77.8203 14.6836L78.8284 16.3445L80.5 17.3461L78.8284 18.3477L77.8203 20.0086L76.8123 18.3477L75.1406 17.3461L76.8123 16.3445L77.8203 14.6836Z" fill="#FCEDCD"/>
<path d="M18.641 3.10509L20.5798 3.33039L22.4005 2.63067L22.1737 4.55708L22.8779 6.36601L20.9391 6.14071L19.1185 6.84042L19.3452 4.91401L18.641 3.10509Z" fill="#FCEDCD"/>
<path d="M15.2891 68.8213L16.2971 70.4822L17.9688 71.4838L16.2971 72.4854L15.2891 74.1463L14.281 72.4854L12.6094 71.4838L14.281 70.4822L15.2891 68.8213Z" fill="#FCEDCD"/>
<path d="M62.0556 70.6296C61.9068 70.1858 61.9663 69.2983 63.3955 69.2983" stroke="#FCEDCD"/>
<path d="M1.05563 54.1774C0.906758 53.7337 0.966307 52.8462 2.39548 52.8462" stroke="#FCEDCD"/>
<path d="M79.6572 46.1901C79.5083 45.7464 79.5679 44.8589 80.997 44.8589" stroke="#FCEDCD"/>
<path d="M2.05563 24.4772C1.90676 24.0335 1.96631 23.146 3.39548 23.146" stroke="#FCEDCD"/>
<path d="M52.4759 1.31526C52.0687 1.54596 51.1861 1.65661 50.9138 0.253623" stroke="#FCEDCD"/>
<rect x="23.1797" y="19.771" width="4.34684" height="4.51421" rx="1" fill="#FCEDCD" stroke="#F7B019" stroke-width="2"/>
<rect x="23.1797" y="29.543" width="4.34684" height="4.51421" rx="1" fill="#FCEDCD" stroke="#F7B019" stroke-width="2"/>
<rect x="23.1797" y="39.3135" width="4.34684" height="4.51421" rx="1" fill="#FCEDCD" stroke="#F7B019" stroke-width="2"/>
<rect x="31.8984" y="19.771" width="4.34684" height="4.51421" rx="1" fill="#FCEDCD" stroke="#F7B019" stroke-width="2"/>
<rect x="31.8984" y="29.543" width="4.34684" height="4.51421" rx="1" fill="#FCEDCD" stroke="#F7B019" stroke-width="2"/>
<rect x="31.8984" y="39.3135" width="4.34684" height="4.51421" rx="1" fill="#FCEDCD" stroke="#F7B019" stroke-width="2"/>
<rect x="40.625" y="19.771" width="4.34684" height="4.51421" rx="1" fill="#FCEDCD" stroke="#F7B019" stroke-width="2"/>
<path d="M39.625 29.7642V33.057C39.625 34.1615 40.5204 35.057 41.625 35.057H42.7997" stroke="#F7B019" stroke-width="2"/>
<path d="M45.9718 44.5957V42.3621V40.6407M39.625 43.4092V41.105C39.625 40.0004 40.5204 39.105 41.625 39.105H44.7079" stroke="#F7B019" stroke-width="2"/>
<path d="M23.7601 9H23C20.7909 9 19 10.7909 19 13V60.3708C19 62.5799 20.7909 64.3708 23 64.3708H45.9408C48.15 64.3708 49.9408 62.5799 49.9408 60.3708V55.0066V52.9709M28.3246 9H45.9408C48.15 9 49.9408 10.7909 49.9408 13V29.764V32.614V34.2426" stroke="#0C253D" stroke-width="2" stroke-linecap="round"/>
<path d="M66.6223 56.3241C67.1248 56.0949 67.3463 55.5018 67.1171 54.9993C66.8879 54.4968 66.2947 54.2753 65.7922 54.5045L66.6223 56.3241ZM59.0671 58.6714L59.1943 59.6633L59.3444 59.6441L59.4821 59.5812L59.0671 58.6714ZM54.5885 55.9919L53.711 56.4716L53.711 56.4716L54.5885 55.9919ZM53.7567 55.0837L54.2717 54.2266L54.2717 54.2266L53.7567 55.0837ZM40.1275 46.8953L39.6125 47.7525H39.6125L40.1275 46.8953ZM42.4756 42.5747L42.9147 41.6763H42.9147L42.4756 42.5747ZM45.832 44.2152L45.3929 45.1136H45.3929L45.832 44.2152ZM47.1392 42.8203L48.0073 42.3239L47.1392 42.8203ZM39.3668 29.2292L38.4987 29.7256H38.4987L39.3668 29.2292ZM44.1385 26.6186L43.2523 27.0819V27.0819L44.1385 26.6186ZM48.7535 35.4461L47.8673 35.9094L48.7535 35.4461ZM50.644 41.2207C50.8999 41.7101 51.5041 41.8994 51.9935 41.6436C52.4829 41.3877 52.6723 40.7835 52.4164 40.2941L50.644 41.2207ZM66.6875 32.134C66.4221 31.6497 65.8143 31.4722 65.33 31.7377C64.8457 32.0031 64.6682 32.6109 64.9336 33.0952L66.6875 32.134ZM68.5562 37.6244L69.4331 37.1438L68.5562 37.6244ZM69.7867 40.7957L68.8151 41.0323V41.0323L69.7867 40.7957ZM70.7111 44.5909L69.7395 44.8276V44.8276L70.7111 44.5909ZM71.4273 46.6218L70.4973 46.9892L71.4273 46.6218ZM68.9875 52.4592C68.4797 52.6764 68.2441 53.2641 68.4612 53.7719C68.6784 54.2796 69.2661 54.5153 69.7739 54.2981L68.9875 52.4592ZM40.3307 25.5451L39.817 24.6871L39.817 24.6871L40.3307 25.5451ZM39.2704 43.5438L38.4071 43.0391H38.4071L39.2704 43.5438ZM50.2508 40.4079C50.5074 40.897 51.1118 41.0854 51.6009 40.8288C52.09 40.5723 52.2784 39.9678 52.0219 39.4787L50.2508 40.4079ZM49.8406 37.4736L50.7262 37.009L49.8406 37.4736ZM55.3987 34.469L56.2724 33.9825L55.3987 34.469ZM56.2128 37.9869C56.4814 38.4695 57.0904 38.6428 57.5729 38.3742C58.0555 38.1055 58.2288 37.4966 57.9602 37.014L56.2128 37.9869ZM51.1959 33.195L51.6524 34.0847L51.1959 33.195ZM60.0201 31.7749L60.8938 31.2885V31.2885L60.0201 31.7749ZM60.9739 35.5439C61.2426 36.0265 61.8515 36.1999 62.3341 35.9312C62.8166 35.6625 62.99 35.0536 62.7214 34.571L60.9739 35.5439ZM54.6621 35.195C54.963 35.6582 55.5823 35.7898 56.0455 35.489C56.5086 35.1882 56.6403 34.5689 56.3395 34.1057L54.6621 35.195ZM55.4288 34.5396L56.2675 33.9949V33.9949L55.4288 34.5396ZM56.3003 30.7787L56.8139 31.6367L56.3003 30.7787ZM64.1817 29.3675L63.2877 29.8154L64.1817 29.3675ZM64.9143 33.0617C65.1617 33.5555 65.7626 33.7552 66.2563 33.5078C66.7501 33.2604 66.9498 32.6596 66.7024 32.1658L64.9143 33.0617ZM59.4162 32.7513C59.717 33.2145 60.3364 33.3461 60.7995 33.0453C61.2627 32.7445 61.3943 32.1251 61.0935 31.662L59.4162 32.7513ZM59.9758 31.777L60.8145 31.2323L59.9758 31.777ZM60.6672 28.4338L60.1134 27.6011L60.6672 28.4338ZM65.7922 54.5045L58.652 57.7616L59.4821 59.5812L66.6223 56.3241L65.7922 54.5045ZM58.9398 57.6796C58.2997 57.7617 56.5593 57.5124 55.4659 55.5123L53.711 56.4716C55.2583 59.3019 57.8662 59.8337 59.1943 59.6633L58.9398 57.6796ZM54.2717 54.2266L40.6425 46.0381L39.6125 47.7525L53.2417 55.9409L54.2717 54.2266ZM42.0365 43.4732L45.3929 45.1136L46.2711 43.3168L42.9147 41.6763L42.0365 43.4732ZM48.0073 42.3239L40.2348 28.7327L38.4987 29.7256L46.2711 43.3168L48.0073 42.3239ZM43.2523 27.0819L47.8673 35.9094L49.6397 34.9828L45.0247 26.1553L43.2523 27.0819ZM47.8673 35.9094L50.644 41.2207L52.4164 40.2941L49.6397 34.9828L47.8673 35.9094ZM64.9336 33.0952L67.6792 38.105L69.4331 37.1438L66.6875 32.134L64.9336 33.0952ZM68.8151 41.0323L69.7395 44.8276L71.6827 44.3542L70.7583 40.559L68.8151 41.0323ZM70.4973 46.9892C70.8778 47.9525 71.1158 49.1003 70.9471 50.1053C70.7901 51.0405 70.2794 51.9067 68.9875 52.4592L69.7739 54.2981C71.7268 53.4629 72.6561 52.0054 72.9195 50.4365C73.1712 48.9372 72.8101 47.4005 72.3574 46.2544L70.4973 46.9892ZM69.7395 44.8276C69.9302 45.6105 70.2475 46.3569 70.4973 46.9892L72.3574 46.2544C72.0791 45.5499 71.8322 44.9678 71.6827 44.3542L69.7395 44.8276ZM67.6792 38.105C68.1844 39.0268 68.5663 40.011 68.8151 41.0323L70.7583 40.559C70.468 39.3675 70.0225 38.2192 69.4331 37.1438L67.6792 38.105ZM40.8444 26.4031C41.6929 25.895 42.7941 26.2055 43.2523 27.0819L45.0247 26.1553C44.0337 24.2598 41.6522 23.5884 39.817 24.6871L40.8444 26.4031ZM40.2348 28.7327C39.7699 27.9197 40.0409 26.8842 40.8444 26.4031L39.817 24.6871C38.0792 25.7276 37.4931 27.9673 38.4987 29.7256L40.2348 28.7327ZM45.3929 45.1136C47.1627 45.9786 48.9852 44.0339 48.0073 42.3239L46.2711 43.3168H46.2711L45.3929 45.1136ZM40.1337 44.0484C40.5196 43.3882 41.3494 43.1374 42.0365 43.4732L42.9147 41.6763C41.2871 40.8808 39.3214 41.4751 38.4071 43.0391L40.1337 44.0484ZM40.6425 46.0381C39.9568 45.6261 39.7299 44.7391 40.1337 44.0484L38.4071 43.0391C37.4506 44.6753 37.9879 46.7764 39.6125 47.7525L40.6425 46.0381ZM55.4659 55.5123C55.2052 55.0353 54.8204 54.5562 54.2717 54.2266L53.2417 55.9409C53.4086 56.0412 53.5713 56.216 53.711 56.4716L55.4659 55.5123ZM52.0219 39.4787L50.7262 37.009L48.9551 37.9381L50.2508 40.4079L52.0219 39.4787ZM54.525 34.9554L56.2128 37.9869L57.9602 37.014L56.2724 33.9825L54.525 34.9554ZM51.6524 34.0847C52.6881 33.5532 53.9587 33.9383 54.525 34.9554L56.2724 33.9825C55.1817 32.0234 52.7342 31.2815 50.7393 32.3053L51.6524 34.0847ZM50.7262 37.009C50.1686 35.9462 50.5846 34.6326 51.6524 34.0847L50.7393 32.3053C48.6825 33.3608 47.8811 35.891 48.9551 37.9381L50.7262 37.009ZM59.1464 32.2614L60.9739 35.5439L62.7214 34.571L60.8938 31.2885L59.1464 32.2614ZM56.3395 34.1057L56.2675 33.9949L54.5902 35.0842L54.6621 35.195L56.3395 34.1057ZM56.8139 31.6367C57.6284 31.1491 58.6847 31.4321 59.1464 32.2614L60.8938 31.2885C59.8828 29.4726 57.5699 28.8531 55.7867 29.9207L56.8139 31.6367ZM55.7867 29.9207C53.997 30.9921 53.4541 33.3349 54.5902 35.0842L56.2675 33.9949C55.7487 33.196 55.9966 32.126 56.8139 31.6367L55.7867 29.9207ZM63.2877 29.8154L64.9143 33.0617L66.7024 32.1658L65.0758 28.9195L63.2877 29.8154ZM61.0935 31.662L60.8145 31.2323L59.1372 32.3216L59.4162 32.7513L61.0935 31.662ZM61.221 29.2664C61.935 28.7915 62.9036 29.0488 63.2877 29.8154L65.0758 28.9195C64.1534 27.0787 61.8277 26.4608 60.1134 27.6011L61.221 29.2664ZM60.1134 27.6011C58.5495 28.6414 58.1142 30.7464 59.1372 32.3216L60.8145 31.2323C60.3885 30.5763 60.5698 29.6996 61.221 29.2664L60.1134 27.6011Z" fill="#0C253D"/>
<path d="M19 14.7002H49.5442" stroke="#0C253D" stroke-width="2" stroke-linecap="round"/>
<path d="M19.3984 55.0068H49.5459" stroke="#0C253D" stroke-width="2" stroke-linecap="round"/>
<path d="M36.4144 61.1135H31.7379C30.8385 61.1135 30.1094 60.3844 30.1094 59.485C30.1094 58.5856 30.8385 57.8564 31.7379 57.8564H36.4144C37.3138 57.8564 38.0429 58.5856 38.0429 59.485C38.0429 60.3844 37.3138 61.1135 36.4144 61.1135Z" stroke="#F7B019" stroke-width="2" stroke-linecap="round"/>
</svg>
