<svg width="81" height="78" viewBox="0 0 81 78" fill="none" xmlns="http://www.w3.org/2000/svg">
<ellipse cx="33.1564" cy="44.309" rx="29.4767" ry="29.2875" fill="#FFF8E8"/>
<ellipse cx="47.4454" cy="35.434" rx="29.4767" ry="29.2875" fill="#FCF0D7"/>
<path d="M77.8203 17.6836L78.8284 19.3445L80.5 20.3461L78.8284 21.3477L77.8203 23.0086L76.8123 21.3477L75.1406 20.3461L76.8123 19.3445L77.8203 17.6836Z" fill="#FCEDCD"/>
<path d="M18.641 6.10509L20.5798 6.33039L22.4005 5.63067L22.1737 7.55708L22.8779 9.36601L20.9391 9.14071L19.1185 9.84042L19.3452 7.91401L18.641 6.10509Z" fill="#FCEDCD"/>
<path d="M15.2891 71.8213L16.2971 73.4822L17.9688 74.4838L16.2971 75.4854L15.2891 77.1463L14.281 75.4854L12.6094 74.4838L14.281 73.4822L15.2891 71.8213Z" fill="#FCEDCD"/>
<path d="M62.0556 73.6291C61.9068 73.1854 61.9663 72.2979 63.3955 72.2979" stroke="#FCEDCD"/>
<path d="M1.05563 57.1774C0.906758 56.7337 0.966307 55.8462 2.39548 55.8462" stroke="#FCEDCD"/>
<path d="M79.6572 49.1901C79.5083 48.7464 79.5679 47.8589 80.997 47.8589" stroke="#FCEDCD"/>
<path d="M2.05563 27.4777C1.90676 27.034 1.96631 26.1465 3.39548 26.1465" stroke="#FCEDCD"/>
<path d="M52.4759 4.31526C52.0687 4.54596 51.1861 4.65661 50.9138 3.25362" stroke="#FCEDCD"/>
<path d="M39.2656 63.7905L53.2757 59.8389" stroke="#0C253D" stroke-width="2" stroke-linecap="round"/>
<path d="M41.5078 67.1776L52.7159 63.7905" stroke="#0C253D" stroke-width="2" stroke-linecap="round"/>
<path d="M45.9922 70.0001L49.915 68.8711" stroke="#0C253D" stroke-width="2" stroke-linecap="round"/>
<path d="M41.7057 58.7611L36.5618 43.8667C35.9602 42.1247 34.4128 40.6622 32.6069 41.0271C31.1525 41.3209 30.1115 42.1897 30.7847 44.1475C31.5216 46.2906 33.7665 47.4963 36.0238 47.6943C41.2418 48.1521 48.059 47.1465 50.222 41.2062C50.7514 39.7524 49.9877 38.036 48.4518 37.847C46.4984 37.6065 44.5661 38.8074 45.0083 44.1897L47.3636 57.2634" stroke="#F7B019" stroke-width="2" stroke-linecap="round"/>
<path d="M19.3453 41.3291C16.512 30.3945 23.0159 19.2277 33.8558 16.3775C44.6957 13.5274 55.7877 20.0678 58.621 31.0024C60.7055 39.0472 57.7355 47.2219 51.6987 52.1142C51.0927 52.6053 50.7952 53.4163 50.9997 54.2055L51.5505 56.3314L38.0969 59.8688L37.5798 57.8732C37.3724 57.0728 36.7044 56.5083 35.925 56.3881C28.158 55.1903 21.4568 49.4783 19.3453 41.3291Z" stroke="#0C253D" stroke-width="2"/>
<path d="M19.0938 11.856L23.577 16.3721" stroke="#0C253D" stroke-width="2" stroke-linecap="round"/>
<path d="M44.2383 4.51709L42.6844 10.7091" stroke="#0C253D" stroke-width="2" stroke-linecap="round"/>
<path d="M31.7109 5.64648L32.886 11.9226" stroke="#0C253D" stroke-width="2" stroke-linecap="round"/>
<path d="M52.8126 9.98052L61.1488 13.0153C61.8026 13.2533 62.0201 14.0759 61.5705 14.6097L59.764 16.7545L60.18 22.8448C60.199 23.1234 60.1021 23.3973 59.9124 23.6007L50.7935 33.3836C50.5089 33.6889 50.066 33.7838 49.6825 33.6216L49.0657 33.3607L48.3968 33.0777C48.0396 32.9266 47.8016 32.5805 47.7864 32.1905L47.2643 18.7307C47.254 18.4653 47.3484 18.2066 47.527 18.0114L51.4461 13.7263L51.4789 10.9122C51.487 10.2217 52.1681 9.7459 52.8126 9.98052Z" fill="#FCEDCD"/>
<path d="M51.4461 13.7263L51.4789 10.9122C51.487 10.2217 52.1681 9.7459 52.8126 9.98052L61.1488 13.0153C61.8026 13.2533 62.0201 14.0759 61.5705 14.6097L59.764 16.7545M51.4461 13.7263L59.764 16.7545M51.4461 13.7263L47.527 18.0114C47.3484 18.2066 47.254 18.4653 47.2643 18.7307L47.7864 32.1905C47.8016 32.5805 48.0396 32.9266 48.3968 33.0777L49.0657 33.3607M59.764 16.7545L60.18 22.8448C60.199 23.1234 60.1021 23.3973 59.9124 23.6007L50.7935 33.3836C50.5089 33.6889 50.066 33.7838 49.6825 33.6216L49.0657 33.3607M49.0657 33.3607L52.6799 23.6488" stroke="#F7B019" stroke-width="2" stroke-linecap="round"/>
<path d="M52.7362 19.4419C53.6083 19.0301 54.6438 19.4089 55.0505 20.2832C55.4573 21.1574 55.0838 22.2014 54.2116 22.6131C53.3394 23.0249 52.304 22.6461 51.8973 21.7718C51.4905 20.8975 51.864 19.8536 52.7362 19.4419Z" stroke="#F7B019" stroke-width="2"/>
</svg>
