<svg width="81" height="75" viewBox="0 0 81 75" fill="none" xmlns="http://www.w3.org/2000/svg">
<ellipse cx="33.1564" cy="41.309" rx="29.4767" ry="29.2875" fill="#FFF8E8"/>
<ellipse cx="47.4454" cy="32.434" rx="29.4767" ry="29.2875" fill="#FCF0D7"/>
<path d="M77.8203 14.6836L78.8284 16.3445L80.5 17.3461L78.8284 18.3477L77.8203 20.0086L76.8123 18.3477L75.1406 17.3461L76.8123 16.3445L77.8203 14.6836Z" fill="#FCEDCD"/>
<path d="M18.641 3.10509L20.5798 3.33039L22.4005 2.63067L22.1737 4.55708L22.8779 6.36601L20.9391 6.14071L19.1185 6.84042L19.3452 4.91401L18.641 3.10509Z" fill="#FCEDCD"/>
<path d="M15.2891 68.8213L16.2971 70.4822L17.9688 71.4838L16.2971 72.4854L15.2891 74.1463L14.281 72.4854L12.6094 71.4838L14.281 70.4822L15.2891 68.8213Z" fill="#FCEDCD"/>
<path d="M62.0556 70.6291C61.9068 70.1854 61.9663 69.2979 63.3955 69.2979" stroke="#FCEDCD"/>
<path d="M1.05563 54.1774C0.906758 53.7337 0.966307 52.8462 2.39548 52.8462" stroke="#FCEDCD"/>
<path d="M79.6572 46.1901C79.5083 45.7464 79.5679 44.8589 80.997 44.8589" stroke="#FCEDCD"/>
<path d="M2.05563 24.4777C1.90676 24.034 1.96631 23.1465 3.39548 23.1465" stroke="#FCEDCD"/>
<path d="M52.4759 1.31526C52.0687 1.54596 51.1861 1.65661 50.9138 0.253623" stroke="#FCEDCD"/>
<path d="M14 48.2481V21.5532C14 18.2395 16.6863 15.5532 20 15.5532H61.5273C64.841 15.5532 67.5273 18.2395 67.5273 21.5532V48.2481C67.5273 51.5618 64.841 54.2481 61.5272 54.2481H20C16.6863 54.2481 14 51.5618 14 48.2481Z" stroke="#0C253D" stroke-width="2" stroke-linecap="round"/>
<path d="M38.5714 54.6875L36.8164 61.7229M43.8364 54.6875L46.0301 61.7229" stroke="#0C253D" stroke-width="2" stroke-linecap="round"/>
<path d="M24.0898 67H58.3122" stroke="#0C253D" stroke-width="2" stroke-linecap="round"/>
<path d="M29.7969 66.9999V66.1631C29.7969 63.9539 31.5877 62.1631 33.7969 62.1631H47.7343C49.9434 62.1631 51.7343 63.9539 51.7343 66.1631V66.5602" stroke="#0C253D" stroke-width="2" stroke-linecap="round"/>
<path d="M59.8041 32.6546L51.6305 36.4335C50.9286 36.758 50.1401 36.1945 50.2175 35.4237L51.1452 26.1835L63.046 9.45669C64.7971 6.99548 68.2089 6.42396 70.6664 8.18019C73.124 9.93641 73.6967 13.3553 71.9456 15.8165L60.1987 32.3271C60.0979 32.4688 59.9619 32.5817 59.8041 32.6546Z" fill="#FCEDCD" stroke="#F7B019" stroke-width="2" stroke-linecap="round"/>
<path d="M59.4883 32.146L51.7011 26.5811M67.8172 20.4395L60.03 14.8746M69.8003 17.6522L61.4569 11.6899" stroke="#F7B019" stroke-width="2" stroke-linecap="round"/>
<path d="M55.5938 29.3633L63.5261 18.2142" stroke="#F7B019" stroke-width="2" stroke-linecap="round"/>
<path d="M18.3867 26.9858H33.3041" stroke="#F7B019" stroke-width="2" stroke-linecap="round"/>
<path d="M18.3867 31.3828H42.0791" stroke="#F7B019" stroke-width="2" stroke-linecap="round"/>
<path d="M18.3867 35.7803H44.7116" stroke="#F7B019" stroke-width="2" stroke-linecap="round"/>
<path d="M14.4375 43.6948H19.7025M27.5999 43.6948H67.526" stroke="#0C253D" stroke-width="2" stroke-linecap="round"/>
<mask id="path-22-inside-1_2670_341" fill="white">
<ellipse cx="23.6509" cy="43.6949" rx="0.877496" ry="0.879428"/>
</mask>
<ellipse cx="23.6509" cy="43.6949" rx="0.877496" ry="0.879428" fill="#F7B019"/>
<path d="M23.5284 43.6949C23.5284 43.6303 23.5812 43.5743 23.6509 43.5743V45.5743C24.6899 45.5743 25.5284 44.7308 25.5284 43.6949H23.5284ZM23.6509 43.5743C23.7207 43.5743 23.7734 43.6303 23.7734 43.6949H21.7734C21.7734 44.7308 22.6119 45.5743 23.6509 45.5743V43.5743ZM23.7734 43.6949C23.7734 43.7594 23.7207 43.8154 23.6509 43.8154V41.8154C22.6119 41.8154 21.7734 42.659 21.7734 43.6949H23.7734ZM23.6509 43.8154C23.5812 43.8154 23.5284 43.7594 23.5284 43.6949H25.5284C25.5284 42.659 24.6899 41.8154 23.6509 41.8154V43.8154Z" fill="#F7B019" mask="url(#path-22-inside-1_2670_341)"/>
</svg>
