<svg width="82" height="74" viewBox="0 0 82 74" fill="none" xmlns="http://www.w3.org/2000/svg">
<ellipse cx="32.9975" cy="41.2272" rx="29.3335" ry="29.2297" fill="#FFF8E8"/>
<ellipse cx="47.2241" cy="32.3698" rx="29.3335" ry="29.2297" fill="#FCF0D7"/>
<path d="M77.4479 14.6548L78.4511 16.3124L80.1146 17.312L78.4511 18.3116L77.4479 19.9693L76.4448 18.3116L74.7812 17.312L76.4448 16.3124L77.4479 14.6548Z" fill="#FCEDCD"/>
<path d="M18.5549 3.09899L20.4843 3.32384L22.2961 2.62551L22.0704 4.54812L22.7713 6.35347L20.8418 6.12862L19.0301 6.82695L19.2557 4.90434L18.5549 3.09899Z" fill="#FCEDCD"/>
<path d="M15.2214 68.6855L16.2245 70.3432L17.888 71.3428L16.2245 72.3424L15.2214 74L14.2182 72.3424L12.5547 71.3428L14.2182 70.3432L15.2214 68.6855Z" fill="#FCEDCD"/>
<path d="M61.7585 70.4898C61.6103 70.0469 61.6696 69.1611 63.0918 69.1611" stroke="#FCEDCD"/>
<path d="M1.05536 54.0703C0.907211 53.6274 0.96647 52.7417 2.3887 52.7417" stroke="#FCEDCD"/>
<path d="M80.6647 45.2417C80.5166 44.7988 80.5758 43.9131 81.9981 43.9131" stroke="#FCEDCD"/>
<path d="M2.05145 24.4292C1.9033 23.9863 1.96256 23.1006 3.38479 23.1006" stroke="#FCEDCD"/>
<path d="M52.2236 1.31245C51.8183 1.54269 50.94 1.65313 50.669 0.252909" stroke="#FCEDCD"/>
<path d="M11.9453 52.1689V19.769C11.9453 17.5599 13.7362 15.769 15.9453 15.769H62.5792C64.7883 15.769 66.5792 17.5599 66.5792 19.769V52.1689C66.5792 54.3781 64.7883 56.1689 62.5792 56.1689H15.9453C13.7362 56.1689 11.9453 54.3781 11.9453 52.1689Z" stroke="#0C253D" stroke-width="2" stroke-linecap="round"/>
<path d="M66.4759 42.7665L71.8117 49.0278C72.1501 49.425 72.7367 49.4957 73.1593 49.1904L76.3549 46.8811C76.8145 46.549 76.9056 45.9013 76.5555 45.4546L70.9668 38.3225C70.6465 37.9137 70.6921 37.3283 71.0717 36.9747L71.5005 36.5751C72.0531 36.0603 71.8562 35.1418 71.1408 34.8973L61.9967 31.7731C61.2809 31.5286 60.5638 32.1357 60.6874 32.8816L62.3853 43.1274C62.5199 43.9396 63.5237 44.2513 64.0938 43.6578L64.9931 42.7216C65.4028 42.295 66.0919 42.3159 66.4759 42.7665Z" fill="#FCEDCD" stroke="#0C253D" stroke-width="2" stroke-linecap="square"/>
<path d="M28.8204 63.3719L31.1069 58.8143C31.7854 57.4618 33.169 56.6079 34.6822 56.6079H43.8444C45.3575 56.6079 46.7412 57.4618 47.4197 58.8143L49.7061 63.3719C50.3733 64.7019 49.4064 66.2688 47.9185 66.2688H30.6081C29.1202 66.2688 28.1532 64.7019 28.8204 63.3719Z" stroke="#0C253D" stroke-width="2" stroke-linecap="round"/>
<path d="M12.3828 47.8252H66.5761" stroke="#0C253D" stroke-width="2" stroke-linecap="round"/>
<rect x="20.875" y="7.98633" width="36.7724" height="30.4956" rx="3" fill="#FCEDCD" stroke="#F7B019" stroke-width="2"/>
<path d="M28.1888 13.134C28.1888 13.8263 27.6252 14.3905 26.9264 14.3905C26.2277 14.3905 25.6641 13.8263 25.6641 13.134C25.6641 12.4416 26.2277 11.8774 26.9264 11.8774C27.6252 11.8774 28.1888 12.4416 28.1888 13.134Z" fill="#F7B019" stroke="#F7B019"/>
<path d="M34.3568 13.134C34.3568 13.8263 33.7932 14.3905 33.0944 14.3905C32.3956 14.3905 31.832 13.8263 31.832 13.134C31.832 12.4416 32.3956 11.8774 33.0944 11.8774C33.7932 11.8774 34.3568 12.4416 34.3568 13.134Z" fill="#F7B019" stroke="#F7B019"/>
<path d="M40.5248 13.134C40.5248 13.8263 39.9612 14.3905 39.2624 14.3905C38.5636 14.3905 38 13.8263 38 13.134C38 12.4416 38.5636 11.8774 39.2624 11.8774C39.9612 11.8774 40.5248 12.4416 40.5248 13.134Z" fill="#F7B019" stroke="#F7B019"/>
<path d="M46.6927 13.134C46.6927 13.8263 46.1291 14.3905 45.4304 14.3905C44.7316 14.3905 44.168 13.8263 44.168 13.134C44.168 12.4416 44.7316 11.8774 45.4304 11.8774C46.1291 11.8774 46.6927 12.4416 46.6927 13.134Z" fill="#F7B019" stroke="#F7B019"/>
<path d="M52.8607 13.134C52.8607 13.8263 52.2971 14.3905 51.5983 14.3905C50.8996 14.3905 50.3359 13.8263 50.3359 13.134C50.3359 12.4416 50.8996 11.8774 51.5983 11.8774C52.2971 11.8774 52.8607 12.4416 52.8607 13.134Z" fill="#F7B019" stroke="#F7B019"/>
<path d="M25.1641 22.7954H32.7559" stroke="#0C253D" stroke-width="2" stroke-linecap="round"/>
<path d="M25.1641 28.0645H35.9191" stroke="#0C253D" stroke-width="2" stroke-linecap="round"/>
<path d="M25.1641 33.335H37.5007" stroke="#0C253D" stroke-width="2" stroke-linecap="round"/>
<path d="M22.5195 17.0864H56.0048" stroke="#0C253D" stroke-width="2" stroke-linecap="square"/>
<path d="M42.2208 23.2339L40.2056 25.7446C39.912 26.1103 39.912 26.6308 40.2056 26.9965L42.2208 29.5072" stroke="#0C253D" stroke-width="2" stroke-linecap="round"/>
<path d="M49.9628 23.5479L51.978 26.0585C52.2716 26.4242 52.2716 26.9448 51.978 27.3105L49.9628 29.8211" stroke="#0C253D" stroke-width="2" stroke-linecap="round"/>
<path d="M46.8782 23.2339L45.3047 29.5072" stroke="#0C253D" stroke-width="2" stroke-linecap="round"/>
</svg>
