<svg width="82" height="74" viewBox="0 0 82 74" fill="none" xmlns="http://www.w3.org/2000/svg">
<ellipse cx="32.9975" cy="41.2272" rx="29.3335" ry="29.2297" fill="#FFF8E8"/>
<ellipse cx="47.2241" cy="32.3698" rx="29.3335" ry="29.2297" fill="#FCF0D7"/>
<path d="M77.4479 14.6548L78.4511 16.3124L80.1146 17.312L78.4511 18.3116L77.4479 19.9693L76.4448 18.3116L74.7812 17.312L76.4448 16.3124L77.4479 14.6548Z" fill="#FCEDCD"/>
<path d="M18.5549 3.09899L20.4843 3.32384L22.2961 2.62551L22.0704 4.54812L22.7713 6.35347L20.8418 6.12862L19.0301 6.82695L19.2557 4.90434L18.5549 3.09899Z" fill="#FCEDCD"/>
<path d="M15.2214 68.6855L16.2245 70.3432L17.888 71.3428L16.2245 72.3424L15.2214 74L14.2182 72.3424L12.5547 71.3428L14.2182 70.3432L15.2214 68.6855Z" fill="#FCEDCD"/>
<path d="M61.7585 70.4898C61.6103 70.0469 61.6696 69.1611 63.0918 69.1611" stroke="#FCEDCD"/>
<path d="M1.05536 54.0703C0.907211 53.6274 0.96647 52.7417 2.3887 52.7417" stroke="#FCEDCD"/>
<path d="M80.6647 45.2417C80.5166 44.7988 80.5758 43.9131 81.9981 43.9131" stroke="#FCEDCD"/>
<path d="M2.05145 24.4292C1.9033 23.9863 1.96256 23.1006 3.38479 23.1006" stroke="#FCEDCD"/>
<path d="M52.2236 1.31245C51.8183 1.54269 50.94 1.65313 50.669 0.252909" stroke="#FCEDCD"/>
<path d="M12.9414 55.5532V20.5073C12.9414 19.955 13.3891 19.5073 13.9414 19.5073H68.0675C68.6198 19.5073 69.0675 19.955 69.0675 20.5073V55.5532C69.0675 56.1055 68.6198 56.5532 68.0675 56.5532H13.9414C13.3891 56.5532 12.9414 56.1055 12.9414 55.5532Z" stroke="#0C253D" stroke-width="2" stroke-linecap="square"/>
<path d="M13.8359 48.5401L17.1882 48.5401M24.8968 48.5401L67.8888 48.54" stroke="#0C253D" stroke-width="2" stroke-linecap="round"/>
<mask id="path-13-inside-1_2670_459" fill="white">
<ellipse cx="21.3461" cy="48.418" rx="0.885149" ry="0.900867"/>
</mask>
<ellipse cx="21.3461" cy="48.418" rx="0.885149" ry="0.900867" fill="#F7B019"/>
<path d="M21.2312 48.418C21.2312 48.3799 21.2661 48.3188 21.3461 48.3188V50.3188C22.4037 50.3188 23.2312 49.4511 23.2312 48.418H21.2312ZM21.3461 48.3188C21.426 48.3188 21.4609 48.3799 21.4609 48.418H19.4609C19.4609 49.4511 20.2884 50.3188 21.3461 50.3188V48.3188ZM21.4609 48.418C21.4609 48.456 21.426 48.5171 21.3461 48.5171V46.5171C20.2884 46.5171 19.4609 47.3848 19.4609 48.418H21.4609ZM21.3461 48.5171C21.2661 48.5171 21.2312 48.456 21.2312 48.418H23.2312C23.2312 47.3848 22.4037 46.5171 21.3461 46.5171V48.5171Z" fill="#F7B019" mask="url(#path-13-inside-1_2670_459)"/>
<path d="M37.6094 56.5098V63.3791H42.7117V56.5098" stroke="#0C253D" stroke-width="2"/>
<path d="M40.5831 60.6616C36.1694 60.6616 32.2307 62.5812 29.9995 65.5624C29.5228 66.1994 29.5305 66.9761 29.8718 67.569C30.2035 68.1453 30.8356 68.5328 31.5672 68.5328H49.599C50.3305 68.5328 50.9626 68.1453 51.2944 67.569C51.6356 66.9761 51.6433 66.1994 51.1666 65.5624C48.9354 62.5812 44.9967 60.6616 40.5831 60.6616Z" fill="#FCEDCD" stroke="#0C253D" stroke-width="2"/>
<mask id="path-17-inside-2_2670_459" fill="white">
<path fill-rule="evenodd" clip-rule="evenodd" d="M37.3174 6.99023C37.3174 5.88566 38.2128 4.99023 39.3174 4.99023H43.0383C44.1428 4.99023 45.0383 5.88566 45.0383 6.99023V9.4636C46.4344 9.83319 47.7541 10.3986 48.9681 11.1297L50.6422 9.39303C51.4088 8.59779 52.657 8.5927 53.43 9.38165L56.1123 12.119C56.8853 12.9079 56.8906 14.1922 56.124 14.9874L54.4501 16.7238C55.1919 18.0033 55.7639 19.3992 56.1341 20.8784H58.4795C59.584 20.8784 60.4795 21.7738 60.4795 22.8784V26.8226C60.4795 27.9272 59.584 28.8226 58.4795 28.8226H56.1347C55.7701 30.2807 55.2093 31.6579 54.4831 32.9225L56.1637 34.6517C56.9335 35.4438 56.9335 36.7281 56.1637 37.5202L53.492 40.2691C52.7222 41.0612 51.474 41.0612 50.7042 40.2691L49.0237 38.5401C47.7945 39.2875 46.4557 39.8646 45.0383 40.2399V42.7111C45.0383 43.8157 44.1428 44.7111 43.0383 44.7111H39.3174C38.2128 44.7111 37.3174 43.8157 37.3174 42.7111V40.2392C35.9215 39.8694 34.602 39.3038 33.3882 38.5726L31.7143 40.309C30.9477 41.1043 29.6996 41.1094 28.9265 40.3204L26.2443 37.5831C25.4712 36.7941 25.466 35.5099 26.2326 34.7146L27.9069 32.9777C27.1652 31.698 26.5934 30.302 26.2235 28.8226H23.875C22.7704 28.8226 21.875 27.9272 21.875 26.8226V22.8784C21.875 21.7738 22.7704 20.8784 23.875 20.8784H26.2241C26.5888 19.4209 27.1495 18.0443 27.8755 16.7802L26.1945 15.0506C25.4247 14.2585 25.4247 12.9743 26.1945 12.1822L28.8662 9.43325C29.636 8.64115 30.8842 8.64115 31.654 9.43325L33.3351 11.163C34.5635 10.4162 35.9011 9.83946 37.3174 9.46427V6.99023Z"/>
</mask>
<path fill-rule="evenodd" clip-rule="evenodd" d="M37.3174 6.99023C37.3174 5.88566 38.2128 4.99023 39.3174 4.99023H43.0383C44.1428 4.99023 45.0383 5.88566 45.0383 6.99023V9.4636C46.4344 9.83319 47.7541 10.3986 48.9681 11.1297L50.6422 9.39303C51.4088 8.59779 52.657 8.5927 53.43 9.38165L56.1123 12.119C56.8853 12.9079 56.8906 14.1922 56.124 14.9874L54.4501 16.7238C55.1919 18.0033 55.7639 19.3992 56.1341 20.8784H58.4795C59.584 20.8784 60.4795 21.7738 60.4795 22.8784V26.8226C60.4795 27.9272 59.584 28.8226 58.4795 28.8226H56.1347C55.7701 30.2807 55.2093 31.6579 54.4831 32.9225L56.1637 34.6517C56.9335 35.4438 56.9335 36.7281 56.1637 37.5202L53.492 40.2691C52.7222 41.0612 51.474 41.0612 50.7042 40.2691L49.0237 38.5401C47.7945 39.2875 46.4557 39.8646 45.0383 40.2399V42.7111C45.0383 43.8157 44.1428 44.7111 43.0383 44.7111H39.3174C38.2128 44.7111 37.3174 43.8157 37.3174 42.7111V40.2392C35.9215 39.8694 34.602 39.3038 33.3882 38.5726L31.7143 40.309C30.9477 41.1043 29.6996 41.1094 28.9265 40.3204L26.2443 37.5831C25.4712 36.7941 25.466 35.5099 26.2326 34.7146L27.9069 32.9777C27.1652 31.698 26.5934 30.302 26.2235 28.8226H23.875C22.7704 28.8226 21.875 27.9272 21.875 26.8226V22.8784C21.875 21.7738 22.7704 20.8784 23.875 20.8784H26.2241C26.5888 19.4209 27.1495 18.0443 27.8755 16.7802L26.1945 15.0506C25.4247 14.2585 25.4247 12.9743 26.1945 12.1822L28.8662 9.43325C29.636 8.64115 30.8842 8.64115 31.654 9.43325L33.3351 11.163C34.5635 10.4162 35.9011 9.83946 37.3174 9.46427V6.99023Z" fill="#FCEDCD"/>
<path d="M45.0383 9.4636H43.0383V11.003L44.5264 11.397L45.0383 9.4636ZM48.9681 11.1297L47.9363 12.843L49.3017 13.6653L50.408 12.5178L48.9681 11.1297ZM50.6422 9.39303L52.0821 10.7811L52.0821 10.7811L50.6422 9.39303ZM53.43 9.38165L52.0015 10.7814L52.0015 10.7814L53.43 9.38165ZM56.1123 12.119L54.6837 13.5188L54.6837 13.5188L56.1123 12.119ZM56.124 14.9874L57.5639 16.3755L57.5639 16.3755L56.124 14.9874ZM54.4501 16.7238L53.0102 15.3358L51.9632 16.4218L52.7199 17.7269L54.4501 16.7238ZM56.1341 20.8784L54.1939 21.3639L54.5729 22.8784H56.1341V20.8784ZM56.1347 28.8226V26.8226H54.5732L54.1944 28.3374L56.1347 28.8226ZM54.4831 32.9225L52.7487 31.9265L51.9975 33.2347L53.0489 34.3164L54.4831 32.9225ZM56.1637 34.6517L54.7295 36.0456L54.7295 36.0456L56.1637 34.6517ZM56.1637 37.5202L57.5979 38.9141L57.5979 38.9141L56.1637 37.5202ZM53.492 40.2691L52.0578 38.8752L52.0578 38.8752L53.492 40.2691ZM50.7042 40.2691L52.1384 38.8752L52.1384 38.8752L50.7042 40.2691ZM49.0237 38.5401L50.458 37.1461L49.3469 36.0029L47.9847 36.8311L49.0237 38.5401ZM45.0383 40.2399L44.5264 38.3065L43.0383 38.7004V40.2399H45.0383ZM37.3174 40.2392H39.3174V38.7L37.8295 38.3059L37.3174 40.2392ZM33.3882 38.5726L34.4203 36.8595L33.0547 36.0368L31.9483 37.1846L33.3882 38.5726ZM31.7143 40.309L33.1542 41.6971L33.1542 41.6971L31.7143 40.309ZM28.9265 40.3204L30.355 38.9207L30.355 38.9207L28.9265 40.3204ZM26.2443 37.5831L24.8158 38.9828L24.8158 38.9828L26.2443 37.5831ZM26.2326 34.7146L27.6725 36.1027L27.6725 36.1027L26.2326 34.7146ZM27.9069 32.9777L29.3468 34.3658L30.3936 33.2798L29.6373 31.9748L27.9069 32.9777ZM26.2235 28.8226L28.1637 28.3374L27.7849 26.8226H26.2235V28.8226ZM26.2241 20.8784V22.8784H27.7853L28.1643 21.3639L26.2241 20.8784ZM27.8755 16.7802L29.6098 17.7763L30.3611 16.4681L29.3097 15.3863L27.8755 16.7802ZM26.1945 15.0506L24.7603 16.4446L24.7603 16.4446L26.1945 15.0506ZM26.1945 12.1822L27.6288 13.5761L27.6288 13.5761L26.1945 12.1822ZM28.8662 9.43325L27.432 8.03934L27.432 8.03934L28.8662 9.43325ZM31.654 9.43325L30.2198 10.8272L30.2198 10.8272L31.654 9.43325ZM33.3351 11.163L31.9009 12.5569L33.012 13.7001L34.3741 12.8719L33.3351 11.163ZM37.3174 9.46427L37.8295 11.3976L39.3174 11.0034V9.46427H37.3174ZM39.3174 2.99023C37.1082 2.99023 35.3174 4.78109 35.3174 6.99023H39.3174V6.99023V2.99023ZM43.0383 2.99023H39.3174V6.99023H43.0383V2.99023ZM47.0383 6.99023C47.0383 4.7811 45.2474 2.99023 43.0383 2.99023V6.99023H43.0383H47.0383ZM47.0383 9.4636V6.99023H43.0383V9.4636H47.0383ZM44.5264 11.397C45.7357 11.7171 46.8808 12.2074 47.9363 12.843L49.9999 9.41643C48.6274 8.58987 47.133 7.94925 45.5501 7.5302L44.5264 11.397ZM49.2023 8.00498L47.5282 9.74168L50.408 12.5178L52.0821 10.7811L49.2023 8.00498ZM54.8585 7.98189C53.2968 6.38804 50.751 6.39843 49.2023 8.00498L52.0821 10.7811C52.0847 10.7784 52.0807 10.783 52.0702 10.7874C52.061 10.7913 52.0512 10.7932 52.0419 10.7932C52.0325 10.7933 52.0227 10.7915 52.0135 10.7877C52.003 10.7833 51.9989 10.7788 52.0015 10.7814L54.8585 7.98189ZM57.5408 10.7192L54.8585 7.98189L52.0015 10.7814L54.6837 13.5188L57.5408 10.7192ZM57.5639 16.3755C59.0817 14.801 59.0714 12.2813 57.5408 10.7192L54.6837 13.5188C54.6865 13.5216 54.6884 13.5242 54.6903 13.5291C54.6928 13.5354 54.6954 13.5458 54.6955 13.559C54.6956 13.5722 54.693 13.5826 54.6906 13.589C54.6886 13.5939 54.6868 13.5965 54.6841 13.5994L57.5639 16.3755ZM55.89 18.1119L57.5639 16.3755L54.6841 13.5994L53.0102 15.3358L55.89 18.1119ZM52.7199 17.7269C53.3689 18.8463 53.8697 20.0681 54.1939 21.3639L58.0743 20.3929C57.6582 18.7302 57.015 17.1603 56.1804 15.7207L52.7199 17.7269ZM58.4795 18.8784H56.1341V22.8784H58.4795V18.8784ZM62.4795 22.8784C62.4795 20.6693 60.6886 18.8784 58.4795 18.8784V22.8784H62.4795ZM62.4795 26.8226V22.8784H58.4795V26.8226H62.4795ZM58.4795 30.8226C60.6886 30.8226 62.4795 29.0317 62.4795 26.8226H58.4795V26.8226V30.8226ZM56.1347 30.8226H58.4795V26.8226H56.1347V30.8226ZM54.1944 28.3374C53.875 29.6147 53.3841 30.8202 52.7487 31.9265L56.2175 33.9185C57.0345 32.4956 57.6651 30.9468 58.0749 29.3078L54.1944 28.3374ZM57.5979 33.2578L55.9173 31.5286L53.0489 34.3164L54.7295 36.0456L57.5979 33.2578ZM57.5979 38.9141C59.1221 37.3458 59.1221 34.8261 57.5979 33.2578L54.7295 36.0456C54.7322 36.0485 54.7341 36.0511 54.736 36.056C54.7385 36.0623 54.7411 36.0727 54.7411 36.0859C54.7411 36.0991 54.7385 36.1095 54.736 36.1159C54.7341 36.1208 54.7322 36.1234 54.7295 36.1263L57.5979 38.9141ZM54.9262 41.663L57.5979 38.9141L54.7295 36.1262L52.0578 38.8752L54.9262 41.663ZM49.27 41.663C50.8252 43.2632 53.371 43.2632 54.9262 41.663L52.0578 38.8752C52.0552 38.8778 52.0593 38.8733 52.0698 38.8689C52.079 38.865 52.0887 38.8632 52.0981 38.8632C52.1075 38.8632 52.1172 38.865 52.1264 38.8689C52.1369 38.8733 52.141 38.8778 52.1384 38.8752L49.27 41.663ZM47.5895 39.934L49.27 41.663L52.1384 38.8752L50.458 37.1461L47.5895 39.934ZM47.9847 36.8311C46.9158 37.4811 45.7542 37.9814 44.5264 38.3065L45.5501 42.1733C47.1572 41.7478 48.6731 41.0939 50.0628 40.249L47.9847 36.8311ZM47.0383 42.7111V40.2399H43.0383V42.7111H47.0383ZM43.0383 46.7111C45.2474 46.7111 47.0383 44.9203 47.0383 42.7111H43.0383V42.7111V46.7111ZM39.3174 46.7111H43.0383V42.7111H39.3174V46.7111ZM35.3174 42.7111C35.3174 44.9203 37.1082 46.7111 39.3174 46.7111V42.7111H39.3174H35.3174ZM35.3174 40.2392V42.7111H39.3174V40.2392H35.3174ZM37.8295 38.3059C36.6204 37.9856 35.4756 37.4952 34.4203 36.8595L32.3562 40.2858C33.7284 41.1124 35.2225 41.7532 36.8052 42.1725L37.8295 38.3059ZM33.1542 41.6971L34.8281 39.9607L31.9483 37.1846L30.2744 38.921L33.1542 41.6971ZM27.498 41.7202C29.0597 43.314 31.6055 43.3036 33.1542 41.6971L30.2744 38.921C30.2719 38.9236 30.2759 38.9191 30.2864 38.9146C30.2956 38.9108 30.3053 38.9089 30.3147 38.9088C30.3241 38.9088 30.3338 38.9106 30.343 38.9144C30.3536 38.9187 30.3576 38.9233 30.355 38.9207L27.498 41.7202ZM24.8158 38.9828L27.498 41.7202L30.355 38.9207L27.6728 36.1833L24.8158 38.9828ZM24.7927 33.3266C23.2749 34.9011 23.2852 37.4208 24.8158 38.9828L27.6728 36.1833C27.67 36.1805 27.6682 36.1779 27.6662 36.1729C27.6637 36.1666 27.6611 36.1563 27.661 36.143C27.661 36.1298 27.6635 36.1194 27.666 36.1131C27.6679 36.1081 27.6697 36.1056 27.6725 36.1027L24.7927 33.3266ZM26.467 31.5897L24.7927 33.3266L27.6725 36.1027L29.3468 34.3658L26.467 31.5897ZM29.6373 31.9748C28.9884 30.8553 28.4878 29.6333 28.1637 28.3374L24.2832 29.3078C24.699 30.9707 25.342 32.5408 26.1765 33.9806L29.6373 31.9748ZM23.875 30.8226H26.2235V26.8226H23.875V30.8226ZM19.875 26.8226C19.875 29.0317 21.6659 30.8226 23.875 30.8226V26.8226H23.875H19.875ZM19.875 22.8784V26.8226H23.875V22.8784H19.875ZM23.875 18.8784C21.6659 18.8784 19.875 20.6693 19.875 22.8784H23.875V22.8784V18.8784ZM26.2241 18.8784H23.875V22.8784H26.2241V18.8784ZM28.1643 21.3639C28.4837 20.0871 28.9746 18.8822 29.6098 17.7763L26.1412 15.7841C25.3243 17.2064 24.6939 18.7546 24.2839 20.3929L28.1643 21.3639ZM24.7603 16.4446L26.4413 18.1741L29.3097 15.3863L27.6288 13.6567L24.7603 16.4446ZM24.7603 10.7883C23.2361 12.3566 23.2361 14.8763 24.7603 16.4446L27.6288 13.6567C27.626 13.6539 27.6242 13.6513 27.6222 13.6463C27.6197 13.64 27.6172 13.6296 27.6172 13.6164C27.6172 13.6032 27.6197 13.5928 27.6222 13.5865C27.6242 13.5815 27.626 13.579 27.6288 13.5761L24.7603 10.7883ZM27.432 8.03934L24.7603 10.7883L27.6288 13.5761L30.3004 10.8272L27.432 8.03934ZM33.0883 8.03934C31.533 6.43912 28.9872 6.43912 27.432 8.03934L30.3004 10.8272C30.303 10.8245 30.299 10.8291 30.2885 10.8335C30.2793 10.8373 30.2695 10.8392 30.2601 10.8392C30.2507 10.8392 30.241 10.8373 30.2318 10.8335C30.2213 10.8291 30.2173 10.8245 30.2198 10.8272L33.0883 8.03934ZM34.7694 9.76906L33.0883 8.03934L30.2198 10.8272L31.9009 12.5569L34.7694 9.76906ZM34.3741 12.8719C35.4422 12.2226 36.6028 11.7226 37.8295 11.3976L36.8052 7.53096C35.1994 7.95636 33.6848 8.60978 32.2962 9.45401L34.3741 12.8719ZM35.3174 6.99023V9.46427H39.3174V6.99023H35.3174Z" fill="#F7B019" mask="url(#path-17-inside-2_2670_459)"/>
<path d="M41.1545 33.7946C45.9976 33.7946 49.8754 29.7631 49.8754 24.8504C49.8754 19.9378 45.9976 15.9062 41.1545 15.9062C36.3114 15.9062 32.4336 19.9378 32.4336 24.8504C32.4336 29.7631 36.3114 33.7946 41.1545 33.7946Z" stroke="#0C253D" stroke-width="2"/>
<path d="M37.9423 22.1445L36.5762 23.9166C36.2988 24.2763 36.2988 24.7779 36.5762 25.1377L37.9423 26.9097" stroke="#F7B019" stroke-width="2" stroke-linecap="round"/>
<path d="M44.96 22.3828L46.3262 24.1548C46.6035 24.5146 46.6035 25.0162 46.3262 25.376L44.96 27.148" stroke="#F7B019" stroke-width="2" stroke-linecap="round"/>
<path d="M42.6069 21.0728L40.2109 28.2205" stroke="#F7B019" stroke-width="2" stroke-linecap="round"/>
</svg>
