<svg width="82" height="74" viewBox="0 0 82 74" fill="none" xmlns="http://www.w3.org/2000/svg">
<ellipse cx="32.9975" cy="41.2272" rx="29.3335" ry="29.2297" fill="#FFF8E8"/>
<ellipse cx="47.2241" cy="32.3698" rx="29.3335" ry="29.2297" fill="#FCF0D7"/>
<path d="M77.4479 14.6548L78.4511 16.3124L80.1146 17.312L78.4511 18.3116L77.4479 19.9693L76.4448 18.3116L74.7812 17.312L76.4448 16.3124L77.4479 14.6548Z" fill="#FCEDCD"/>
<path d="M18.5549 3.09899L20.4843 3.32384L22.2961 2.62551L22.0704 4.54812L22.7713 6.35347L20.8418 6.12862L19.0301 6.82695L19.2557 4.90434L18.5549 3.09899Z" fill="#FCEDCD"/>
<path d="M15.2214 68.6855L16.2245 70.3432L17.888 71.3428L16.2245 72.3424L15.2214 74L14.2182 72.3424L12.5547 71.3428L14.2182 70.3432L15.2214 68.6855Z" fill="#FCEDCD"/>
<path d="M61.7585 70.4898C61.6103 70.0469 61.6696 69.1611 63.0918 69.1611" stroke="#FCEDCD"/>
<path d="M1.05536 54.0703C0.907211 53.6274 0.96647 52.7417 2.3887 52.7417" stroke="#FCEDCD"/>
<path d="M80.6647 45.2417C80.5166 44.7988 80.5758 43.9131 81.9981 43.9131" stroke="#FCEDCD"/>
<path d="M2.05145 24.4292C1.9033 23.9863 1.96256 23.1006 3.38479 23.1006" stroke="#FCEDCD"/>
<path d="M52.2236 1.31245C51.8183 1.54269 50.94 1.65313 50.669 0.252909" stroke="#FCEDCD"/>
<path d="M10.9531 55.4498V20.1924C10.9531 19.6401 11.4008 19.1924 11.9531 19.1924H67.11C67.6623 19.1924 68.11 19.6401 68.11 20.1924V55.4498C68.11 56.0021 67.6623 56.4498 67.11 56.4498H11.9531C11.4008 56.4498 10.9531 56.0021 10.9531 55.4498Z" stroke="#0C253D" stroke-width="2" stroke-linecap="square"/>
<path d="M34.4766 56.8257C35.2497 58.1952 36.4852 61.3942 34.6297 64.5494" stroke="#0C253D" stroke-width="2" stroke-linecap="square"/>
<path d="M44.9453 56.8257C44.1722 58.1952 42.9829 61.3942 44.8385 64.5494" stroke="#0C253D" stroke-width="2" stroke-linecap="square"/>
<path d="M30.832 65.043H48.559" stroke="#0C253D" stroke-width="2" stroke-linecap="round"/>
<path d="M50.7603 43.8965L49.0472 45.957C48.7391 46.3275 48.7391 46.8651 49.0472 47.2356L50.7603 49.2961" stroke="#0C253D" stroke-width="2" stroke-linecap="round"/>
<path d="M59.3334 44.1665L61.0466 46.227C61.3547 46.5975 61.3547 47.1351 61.0466 47.5056L59.3334 49.5661" stroke="#0C253D" stroke-width="2" stroke-linecap="round"/>
<path d="M56.4631 42.6816L53.5352 50.7811" stroke="#0C253D" stroke-width="2" stroke-linecap="round"/>
<mask id="path-18-inside-1_2670_418" fill="white">
<path fill-rule="evenodd" clip-rule="evenodd" d="M54.5538 4.99414C54.5538 3.88957 55.4492 2.99414 56.5538 2.99414H59.2493C60.3539 2.99414 61.2493 3.88957 61.2493 4.99414V6.82408C62.4605 7.14061 63.6053 7.62497 64.6584 8.25133L65.9165 6.96245C66.6881 6.17202 67.9442 6.16689 68.7222 6.95099L70.6586 8.90264C71.4366 9.68674 71.4418 10.9632 70.6703 11.7536L69.4124 13.0422C70.0559 14.1383 70.552 15.3339 70.8729 16.6011H72.6417C73.7463 16.6011 74.6417 17.4965 74.6417 18.6011V21.4046C74.6417 22.5092 73.7463 23.4046 72.6417 23.4046H70.873C70.5568 24.6533 70.0705 25.8327 69.4407 26.9156L70.7037 28.199C71.4784 28.9863 71.4784 30.2627 70.7037 31.05L68.7749 33.0099C68.0002 33.7971 66.744 33.7971 65.9692 33.0099L64.7061 31.7263C63.6399 32.3665 62.4787 32.8608 61.2493 33.1821V35.0118C61.2493 36.1164 60.3539 37.0118 59.2493 37.0118H56.5538C55.4492 37.0118 54.5538 36.1164 54.5538 35.0118V33.1809C53.3437 32.8642 52.1999 32.3799 51.1477 31.7539L49.889 33.0434C49.1174 33.8338 47.8613 33.8389 47.0833 33.0548L45.1469 31.1032C44.3689 30.3191 44.3637 29.0427 45.1352 28.2523L46.3943 26.9624C45.7512 25.8666 45.2554 24.6713 44.9346 23.4046H43.1641C42.0595 23.4046 41.1641 22.5092 41.1641 21.4046V18.6011C41.1641 17.4965 42.0595 16.6011 43.1641 16.6011H44.9347C45.2509 15.3527 45.7371 14.1737 46.3667 13.0911L45.1027 11.8067C44.3279 11.0194 44.3279 9.743 45.1027 8.95572L47.0314 6.99587C47.8062 6.20859 49.0624 6.20859 49.8371 6.99586L51.101 8.28013C52.1661 7.6406 53.3258 7.14666 54.5538 6.82527V4.99414Z"/>
</mask>
<path fill-rule="evenodd" clip-rule="evenodd" d="M54.5538 4.99414C54.5538 3.88957 55.4492 2.99414 56.5538 2.99414H59.2493C60.3539 2.99414 61.2493 3.88957 61.2493 4.99414V6.82408C62.4605 7.14061 63.6053 7.62497 64.6584 8.25133L65.9165 6.96245C66.6881 6.17202 67.9442 6.16689 68.7222 6.95099L70.6586 8.90264C71.4366 9.68674 71.4418 10.9632 70.6703 11.7536L69.4124 13.0422C70.0559 14.1383 70.552 15.3339 70.8729 16.6011H72.6417C73.7463 16.6011 74.6417 17.4965 74.6417 18.6011V21.4046C74.6417 22.5092 73.7463 23.4046 72.6417 23.4046H70.873C70.5568 24.6533 70.0705 25.8327 69.4407 26.9156L70.7037 28.199C71.4784 28.9863 71.4784 30.2627 70.7037 31.05L68.7749 33.0099C68.0002 33.7971 66.744 33.7971 65.9692 33.0099L64.7061 31.7263C63.6399 32.3665 62.4787 32.8608 61.2493 33.1821V35.0118C61.2493 36.1164 60.3539 37.0118 59.2493 37.0118H56.5538C55.4492 37.0118 54.5538 36.1164 54.5538 35.0118V33.1809C53.3437 32.8642 52.1999 32.3799 51.1477 31.7539L49.889 33.0434C49.1174 33.8338 47.8613 33.8389 47.0833 33.0548L45.1469 31.1032C44.3689 30.3191 44.3637 29.0427 45.1352 28.2523L46.3943 26.9624C45.7512 25.8666 45.2554 24.6713 44.9346 23.4046H43.1641C42.0595 23.4046 41.1641 22.5092 41.1641 21.4046V18.6011C41.1641 17.4965 42.0595 16.6011 43.1641 16.6011H44.9347C45.2509 15.3527 45.7371 14.1737 46.3667 13.0911L45.1027 11.8067C44.3279 11.0194 44.3279 9.743 45.1027 8.95572L47.0314 6.99587C47.8062 6.20859 49.0624 6.20859 49.8371 6.99586L51.101 8.28013C52.1661 7.6406 53.3258 7.14666 54.5538 6.82527V4.99414Z" fill="#FCEDCD"/>
<path d="M61.2493 6.82408H59.2493V8.36857L60.7436 8.7591L61.2493 6.82408ZM64.6584 8.25133L63.6361 9.97028L64.9896 10.7753L66.0896 9.64834L64.6584 8.25133ZM65.9165 6.96245L64.4853 5.56543L64.4853 5.56543L65.9165 6.96245ZM68.7222 6.95099L70.142 5.54233L70.142 5.54233L68.7222 6.95099ZM70.6586 8.90264L72.0784 7.49398L72.0784 7.49398L70.6586 8.90264ZM70.6703 11.7536L72.1015 13.1506L72.1015 13.1506L70.6703 11.7536ZM69.4124 13.0422L67.9812 11.6452L66.9146 12.7379L67.6877 14.0547L69.4124 13.0422ZM70.8729 16.6011L68.9342 17.0922L69.3164 18.6011H70.8729V16.6011ZM70.873 23.4046V21.4046H69.3165L68.9343 22.9136L70.873 23.4046ZM69.4407 26.9156L67.7118 25.9102L66.9441 27.2302L68.0152 28.3185L69.4407 26.9156ZM70.7037 28.199L69.2782 29.6019L69.2782 29.6019L70.7037 28.199ZM70.7037 31.05L72.1292 32.4528L72.1292 32.4528L70.7037 31.05ZM68.7749 33.0099L67.3494 31.607L67.3494 31.607L68.7749 33.0099ZM65.9692 33.0099L64.5437 34.4127L64.5437 34.4127L65.9692 33.0099ZM64.7061 31.7263L66.1316 30.3235L65.0269 29.201L63.6766 30.0117L64.7061 31.7263ZM61.2493 33.1821L60.7436 31.247L59.2493 31.6376V33.1821H61.2493ZM54.5538 33.1809H56.5538V31.637L55.0602 31.246L54.5538 33.1809ZM51.1477 31.7539L52.1702 30.0351L50.8166 29.2298L49.7165 30.3569L51.1477 31.7539ZM49.889 33.0434L48.4578 31.6464L48.4578 31.6464L49.889 33.0434ZM47.0833 33.0548L48.503 31.6462L48.503 31.6462L47.0833 33.0548ZM45.1469 31.1032L43.7271 32.5119L43.7271 32.5119L45.1469 31.1032ZM45.1352 28.2523L46.5664 29.6493L46.5664 29.6493L45.1352 28.2523ZM46.3943 26.9624L47.8255 28.3594L48.892 27.2668L48.1192 25.9501L46.3943 26.9624ZM44.9346 23.4046L46.8734 22.9136L46.4912 21.4046H44.9346V23.4046ZM43.1641 16.6011L43.1641 18.6011H43.1641V16.6011ZM44.9347 16.6011V18.6011H46.4913L46.8735 17.0922L44.9347 16.6011ZM46.3667 13.0911L48.0956 14.0964L48.8631 12.7765L47.7922 11.6882L46.3667 13.0911ZM45.1027 11.8067L43.6772 13.2095L43.6772 13.2095L45.1027 11.8067ZM45.1027 8.95572L43.6772 7.55287L43.6772 7.55287L45.1027 8.95572ZM47.0314 6.99587L48.4569 8.39872L48.4569 8.39872L47.0314 6.99587ZM49.8371 6.99586L51.2626 5.59301L51.2626 5.59301L49.8371 6.99586ZM51.101 8.28013L49.6755 9.68298L50.7803 10.8056L52.1306 9.99476L51.101 8.28013ZM54.5538 6.82527L55.0602 8.7601L56.5538 8.36919V6.82527H54.5538ZM56.5538 0.994141C54.3447 0.994141 52.5538 2.785 52.5538 4.99414H56.5538V4.99414V0.994141ZM59.2493 0.994141H56.5538V4.99414H59.2493V0.994141ZM63.2493 4.99414C63.2493 2.785 61.4585 0.994141 59.2493 0.994141V4.99414H59.2493H63.2493ZM63.2493 6.82408V4.99414H59.2493V6.82408H63.2493ZM60.7436 8.7591C61.7698 9.02728 62.7411 9.43797 63.6361 9.97028L65.6808 6.53237C64.4696 5.81198 63.1511 5.25394 61.755 4.88907L60.7436 8.7591ZM64.4853 5.56543L63.2272 6.85431L66.0896 9.64834L67.3477 8.35947L64.4853 5.56543ZM70.142 5.54233C68.5772 3.96524 66.0372 3.97561 64.4853 5.56543L67.3477 8.35947C67.3496 8.35758 67.3496 8.35786 67.3478 8.35913C67.346 8.36034 67.3435 8.36174 67.3405 8.36297C67.3347 8.36539 67.3295 8.36624 67.3251 8.36625C67.3208 8.36627 67.3155 8.36547 67.3097 8.3631C67.3068 8.36189 67.3043 8.36051 67.3025 8.35932C67.3006 8.35806 67.3006 8.35778 67.3025 8.35966L70.142 5.54233ZM72.0784 7.49398L70.142 5.54233L67.3025 8.35966L69.2389 10.3113L72.0784 7.49398ZM72.1015 13.1506C73.6359 11.5787 73.6256 9.05332 72.0784 7.49398L69.2389 10.3113C69.2416 10.314 69.242 10.3151 69.2427 10.3166C69.2438 10.3195 69.2455 10.3256 69.2456 10.3339C69.2456 10.3423 69.244 10.3483 69.2428 10.3512C69.2422 10.3528 69.2418 10.3538 69.2391 10.3566L72.1015 13.1506ZM70.8436 14.4392L72.1015 13.1506L69.2391 10.3566L67.9812 11.6452L70.8436 14.4392ZM67.6877 14.0547C68.2368 14.9901 68.6602 16.0105 68.9342 17.0922L72.8117 16.11C72.4437 14.6574 71.8749 13.2864 71.1372 12.0297L67.6877 14.0547ZM72.6417 14.6011H70.8729V18.6011H72.6417V14.6011ZM76.6417 18.6011C76.6417 16.3919 74.8508 14.6011 72.6417 14.6011V18.6011H72.6417H76.6417ZM76.6417 21.4046V18.6011H72.6417V21.4046H76.6417ZM72.6417 25.4046C74.8508 25.4046 76.6417 23.6138 76.6417 21.4046H72.6417V21.4046V25.4046ZM70.873 25.4046H72.6417V21.4046H70.873V25.4046ZM68.9343 22.9136C68.6643 23.9795 68.2492 24.986 67.7118 25.9102L71.1695 27.9211C71.8917 26.6794 72.4493 25.3271 72.8118 23.8957L68.9343 22.9136ZM72.1292 26.7962L70.8661 25.5128L68.0152 28.3185L69.2782 29.6019L72.1292 26.7962ZM72.1292 32.4528C73.6699 30.8872 73.67 28.3618 72.1292 26.7962L69.2782 29.6019C69.2809 29.6046 69.2813 29.6057 69.2819 29.6072C69.2831 29.6101 69.2848 29.6162 69.2848 29.6245C69.2848 29.6329 69.2831 29.6389 69.2819 29.6418C69.2813 29.6434 69.2809 29.6444 69.2782 29.6471L72.1292 32.4528ZM70.2004 34.4127L72.1292 32.4528L69.2782 29.6471L67.3494 31.607L70.2004 34.4127ZM64.5437 34.4127C66.1021 35.9962 68.6421 35.9962 70.2004 34.4127L67.3494 31.607C67.3476 31.6089 67.3475 31.6086 67.3494 31.6073C67.3512 31.6061 67.3537 31.6047 67.3567 31.6035C67.3625 31.6011 67.3677 31.6003 67.3721 31.6003C67.3764 31.6003 67.3817 31.6011 67.3875 31.6035C67.3904 31.6047 67.3929 31.6061 67.3947 31.6073C67.3966 31.6086 67.3966 31.6089 67.3947 31.607L64.5437 34.4127ZM63.2806 33.1292L64.5437 34.4127L67.3947 31.607L66.1316 30.3235L63.2806 33.1292ZM63.6766 30.0117C62.7704 30.5557 61.7853 30.9748 60.7436 31.247L61.755 35.1171C63.1722 34.7467 64.5094 34.1773 65.7356 33.441L63.6766 30.0117ZM63.2493 35.0118V33.1821H59.2493V35.0118H63.2493ZM59.2493 39.0118C61.4585 39.0118 63.2493 37.221 63.2493 35.0118H59.2493V39.0118ZM56.5538 39.0118H59.2493V35.0118H56.5538V39.0118ZM52.5538 35.0118C52.5538 37.221 54.3446 39.0118 56.5538 39.0118V35.0118H56.5538H52.5538ZM52.5538 33.1809V35.0118H56.5538V33.1809H52.5538ZM55.0602 31.246C54.0349 30.9777 53.0645 30.5671 52.1702 30.0351L50.1251 33.4727C51.3353 34.1927 52.6525 34.7506 54.0474 35.1157L55.0602 31.246ZM51.3202 34.4404L52.5789 33.1509L49.7165 30.3569L48.4578 31.6464L51.3202 34.4404ZM45.6636 34.4635C47.2283 36.0406 49.7683 36.0302 51.3202 34.4404L48.4578 31.6464C48.4559 31.6483 48.4559 31.648 48.4578 31.6467C48.4596 31.6455 48.462 31.6441 48.465 31.6429C48.4708 31.6404 48.476 31.6396 48.4804 31.6396C48.4847 31.6396 48.49 31.6404 48.4958 31.6427C48.4988 31.6439 48.5013 31.6453 48.5031 31.6465C48.505 31.6478 48.5049 31.6481 48.503 31.6462L45.6636 34.4635ZM43.7271 32.5119L45.6636 34.4635L48.503 31.6462L46.5666 29.6945L43.7271 32.5119ZM43.704 26.8552C42.1696 28.4272 42.18 30.9525 43.7271 32.5119L46.5666 29.6945C46.5639 29.6918 46.5635 29.6908 46.5628 29.6892C46.5617 29.6863 46.56 29.6803 46.56 29.6719C46.5599 29.6636 46.5616 29.6575 46.5627 29.6546C46.5633 29.6531 46.5638 29.652 46.5664 29.6493L43.704 26.8552ZM44.9631 25.5654L43.704 26.8552L46.5664 29.6493L47.8255 28.3594L44.9631 25.5654ZM48.1192 25.9501C47.5704 25.015 47.1472 23.9949 46.8734 22.9136L42.9958 23.8957C43.3636 25.3477 43.9321 26.7183 44.6694 27.9747L48.1192 25.9501ZM43.1641 25.4046H44.9346V21.4046H43.1641V25.4046ZM39.1641 21.4046C39.1641 23.6137 40.9549 25.4046 43.1641 25.4046V21.4046H43.1641H39.1641ZM39.1641 18.6011V21.4046H43.1641V18.6011H39.1641ZM43.1641 14.6011C40.9549 14.6011 39.1641 16.3919 39.1641 18.6011H43.1641L43.1641 18.6011L43.1641 14.6011ZM44.9347 14.6011H43.1641V18.6011H44.9347V14.6011ZM46.8735 17.0922C47.1434 16.0266 47.5583 15.0204 48.0956 14.0964L44.6377 12.0857C43.9159 13.3271 43.3584 14.6789 42.9959 16.11L46.8735 17.0922ZM43.6772 13.2095L44.9412 14.4939L47.7922 11.6882L46.5282 10.4038L43.6772 13.2095ZM43.6772 7.55287C42.1364 9.11852 42.1364 11.6439 43.6772 13.2095L46.5282 10.4038C46.5255 10.4011 46.525 10.4001 46.5244 10.3985C46.5233 10.3956 46.5216 10.3896 46.5216 10.3812C46.5216 10.3729 46.5233 10.3668 46.5244 10.3639C46.525 10.3624 46.5255 10.3613 46.5282 10.3586L43.6772 7.55287ZM45.6059 5.59301L43.6772 7.55287L46.5282 10.3586L48.4569 8.39872L45.6059 5.59301ZM51.2626 5.59301C49.7043 4.00954 47.1643 4.00954 45.6059 5.59301L48.4569 8.39872C48.4588 8.39684 48.4588 8.39711 48.4569 8.39838C48.4551 8.39958 48.4526 8.40097 48.4497 8.40219C48.4439 8.40458 48.4386 8.40541 48.4343 8.40541C48.4299 8.40541 48.4247 8.40458 48.4189 8.40219C48.4159 8.40097 48.4134 8.39958 48.4116 8.39838C48.4097 8.39711 48.4098 8.39684 48.4116 8.39872L51.2626 5.59301ZM52.5265 6.87727L51.2626 5.59301L48.4116 8.39872L49.6755 9.68298L52.5265 6.87727ZM52.1306 9.99476C53.0358 9.45121 54.0198 9.03241 55.0602 8.7601L54.0474 4.89044C52.6319 5.26092 51.2963 5.82998 50.0714 6.56549L52.1306 9.99476ZM52.5538 4.99414V6.82527H56.5538V4.99414H52.5538Z" fill="#F7B019" mask="url(#path-18-inside-1_2670_418)"/>
<path d="M57.9104 27.8058C62.1755 27.8058 65.6059 24.2969 65.6059 20.0023C65.6059 15.7076 62.1755 12.1987 57.9104 12.1987C53.6452 12.1987 50.2148 15.7076 50.2148 20.0023C50.2148 24.2969 53.6452 27.8058 57.9104 27.8058Z" stroke="#0C253D" stroke-width="2"/>
<path d="M54.5586 19.6025L56.1602 21.4462C56.5451 21.8893 57.227 21.9072 57.6346 21.4849L61.2541 17.7349" stroke="#F7B019" stroke-width="2" stroke-linecap="round"/>
<path d="M16.6719 47.5405H41.1677" stroke="#F7B019" stroke-width="2" stroke-linecap="round"/>
<path d="M16.6719 43.4912L36.2685 43.4912" stroke="#F7B019" stroke-width="2" stroke-linecap="round"/>
<path d="M16.6719 39.4409L31.3694 39.4409" stroke="#F7B019" stroke-width="2" stroke-linecap="round"/>
<path d="M16.6719 35.3921L26.4702 35.3921" stroke="#F7B019" stroke-width="2" stroke-linecap="round"/>
<path d="M16.6719 31.3418L22.3876 31.3418" stroke="#F7B019" stroke-width="2" stroke-linecap="round"/>
</svg>
