<svg width="680" height="541" viewBox="0 0 680 541" fill="none" xmlns="http://www.w3.org/2000/svg">
<path d="M617.371 58.0811C606.644 52.834 602.313 40.0133 607.752 29.5192C613.141 19.025 626.235 14.8175 637.013 20.1141C647.741 25.3611 652.072 38.1818 646.683 48.676C641.244 59.1701 628.149 63.3777 617.371 58.0811Z" fill="#026BCD"/>
<path d="M492.104 165.231C484.852 161.618 481.931 153.005 485.557 145.926C489.234 138.798 498.098 135.976 505.35 139.541C512.602 143.105 515.523 151.767 511.897 158.846C508.221 165.924 499.357 168.795 492.104 165.231Z" fill="#FFBB4D"/>
<path d="M663.201 252.873C657.661 250.101 655.394 243.518 658.215 238.073C661.035 232.628 667.784 230.45 673.374 233.172C678.914 235.944 681.18 242.528 678.36 247.973C675.59 253.418 668.791 255.596 663.201 252.873Z" fill="#53C1DE"/>
<path d="M400.192 265.941C331.597 316.597 295.688 341.017 292.465 339.202C291.155 338.459 282.493 332.42 270.506 323.956C262.398 331.282 253.634 337.915 244.166 343.459C237.367 347.419 233.741 359.794 226.287 362.467C217.927 365.437 206.645 368.952 197.68 368.655C181.614 368.11 165.548 349.449 155.224 337.667C145.202 326.282 126.718 273.069 125.761 255.991C124.855 238.963 132.359 209.065 145.554 196.046C159.505 182.285 179.247 175.751 198.285 167.236C198.352 167.203 229.292 153.343 291.105 125.656L314.222 115.36C321.373 110.954 329.784 108.43 338.85 108.43C364.485 108.43 385.285 128.725 385.285 153.723C385.285 171.642 374.658 187.086 359.197 194.462L400.192 265.941Z" fill="#53C1DE"/>
<path d="M281.838 163.178C275.392 172.088 266.125 178.671 255.246 181.493C249.052 183.077 242.605 183.523 236.209 183.226C229.863 182.929 223.467 181.988 217.423 180.008C209.97 177.483 203.12 173.177 198.285 167.237L291.105 125.656C291.34 127.438 291.475 129.204 291.508 130.953C291.861 142.387 288.688 153.872 281.838 163.178Z" fill="#F6B399"/>
<path d="M281.284 114.37C287.876 114.37 293.22 109.162 293.22 102.737C293.22 96.3126 287.876 91.1045 281.284 91.1045C274.692 91.1045 269.348 96.3126 269.348 102.737C269.348 109.162 274.692 114.37 281.284 114.37Z" fill="#F6B399"/>
<path d="M282.795 76.2544C285.363 85.7585 287.327 96.1537 281.888 105.014C281.485 105.608 280.931 105.856 280.377 105.856C274.233 109.915 266.326 109.766 259.627 106.895C252.677 103.925 246.986 98.4307 242.051 92.9856C237.216 87.6396 232.935 81.4025 232.23 74.1259C231.575 67.0473 234.949 60.2162 239.835 55.2166C244.065 50.9596 249.454 48.039 255.044 45.762C254.742 45.267 254.742 44.673 255.195 44.079C258.822 39.3764 265.369 37.8914 270.909 40.1684C276.247 42.3464 279.471 47.4945 280.428 52.8901C282.493 52.7416 284.608 53.5336 286.32 54.8206C288.788 56.8006 289.896 59.7707 289.946 62.7902C289.997 67.5423 287.73 74.3734 282.795 76.2544Z" fill="#36174D"/>
<path d="M237.72 145.358C263.366 145.358 284.156 125.079 284.156 100.065C284.156 75.0499 263.366 54.7715 237.72 54.7715C212.075 54.7715 191.285 75.0499 191.285 100.065C191.285 125.079 212.075 145.358 237.72 145.358Z" fill="#F6B399"/>
<path d="M263.002 120.904L257.915 158.376L227.898 169.86L231.625 128.478L263.002 120.904Z" fill="#F6B399"/>
<path d="M283.399 107.44C283.399 132.438 265.52 149.317 239.884 149.317C214.249 149.317 193.449 129.022 193.449 104.024C193.449 78.9769 214.249 58.6816 239.884 58.6816C265.52 58.6816 283.399 82.3925 283.399 107.44Z" fill="#F6B399"/>
<path d="M238.426 120.706C236.613 122.29 233.793 122.141 232.181 120.409C230.57 118.627 230.721 115.904 232.534 114.32C234.347 112.687 237.117 112.835 238.779 114.617C240.391 116.399 240.24 119.122 238.426 120.706Z" fill="#36174D"/>
<path d="M273.127 102.985C274.789 104.767 274.638 107.489 272.825 109.123C271.011 110.707 268.191 110.558 266.579 108.776C264.917 106.994 265.069 104.272 266.882 102.688C268.695 101.104 271.515 101.252 273.127 102.985Z" fill="#36174D"/>
<path d="M190.934 319.996L186.3 326.778L183.883 330.342L168.623 352.567L139.613 342.222L160.665 312.026L190.934 319.996Z" fill="#F6B399"/>
<path fill-rule="evenodd" clip-rule="evenodd" d="M225.582 303.809C217.272 303.809 210.523 297.176 210.523 289.058C210.523 280.94 217.272 274.356 225.582 274.356C233.892 274.356 240.641 280.94 240.641 289.058C240.641 297.176 233.892 303.809 225.582 303.809ZM225.582 277.97C219.287 277.97 214.15 282.92 214.15 289.058C214.15 295.196 219.287 300.196 225.582 300.196C231.878 300.196 236.964 295.196 236.964 289.058C236.964 282.92 231.878 277.97 225.582 277.97Z" fill="white"/>
<path d="M233.74 303.958C231.524 308.264 228.553 312.224 224.977 315.64C210.775 329.104 192.14 330.738 173.354 326.184C154.871 321.679 140.114 306.829 136.186 288.613C135.431 285.246 135.078 281.781 135.078 278.316C135.078 251.091 157.691 229.014 185.593 229.014C213.494 229.014 236.108 251.091 236.108 278.316C236.108 282.524 230.265 288.761 229.258 292.622C229.208 296.038 230.719 299.305 233.438 301.582C234.093 302.176 234.093 303.215 233.74 303.958Z" fill="#F6B399"/>
<path d="M217.576 283.019C219.188 284.801 219.087 287.523 217.274 289.107C215.41 290.741 212.64 290.592 211.029 288.81C209.367 287.028 209.518 284.306 211.331 282.722C213.144 281.138 215.964 281.286 217.576 283.019Z" fill="#36174D"/>
<path d="M436.705 216.242C433.079 217.876 429.05 218.767 425.172 219.658C421.042 220.599 416.913 221.341 412.732 221.787C403.818 222.678 394.904 222.084 385.989 221.638C381.389 221.407 376.773 221.176 372.139 220.945C369.923 220.813 367.724 220.697 365.542 220.598C363.578 220.499 361.563 220.45 359.649 219.905C357.836 219.41 355.922 218.42 354.915 216.787C354.008 215.302 353.958 213.421 354.16 211.738C354.562 207.728 356.426 204.065 358.39 200.551C362.268 193.571 367.053 187.136 372.24 181.047C376.017 176.592 381.154 167.979 388.407 170.207C389.313 170.504 390.169 171.147 390.472 172.038C390.723 172.979 390.22 174.117 389.263 174.315C389.666 174.216 391.932 175.899 392.436 176.147C393.645 176.708 394.87 177.17 396.112 177.533C398.58 178.226 401.098 178.275 403.617 178.572C408.502 179.117 413.337 179.661 418.222 180.255C422.906 180.8 427.388 181.592 431.719 183.572C438.519 186.74 445.015 191.542 446.174 199.363C447.131 206.342 443.303 213.272 436.705 216.242Z" fill="#E09071"/>
<path d="M376.372 196.046C376.372 198.274 376.02 201.689 373.754 202.877C372.545 203.521 370.984 203.422 369.674 203.422C368.297 203.488 366.904 203.504 365.494 203.471C362.472 203.471 359.45 203.273 356.378 203.026C353.91 202.778 351.392 202.531 349.075 201.541C348.975 201.541 348.891 201.541 348.824 201.541C347.867 201.541 346.859 200.699 346.96 199.759C347.615 194.165 350.939 189.265 355.421 185.849C359.501 182.78 365.091 181.146 370.027 183.225C374.811 185.255 376.372 191.344 376.372 196.046Z" fill="#F6B399"/>
<path d="M665.259 499.238H402.613C395.008 499.238 389.417 492.308 391.23 485.081C400.044 449.589 408.253 413.899 418.276 378.704C425.629 352.666 440.788 320.837 472.97 320.837C479.669 320.837 486.015 322.273 491.806 324.748C497.951 326.068 504.112 327.388 510.29 328.708C538.896 334.846 567.604 340.737 596.16 347.073C616.104 351.478 632.774 353.458 647.934 368.655C656.546 377.219 662.64 388.208 666.115 399.89C668.734 408.652 669.943 417.809 669.691 426.719C669.389 436.917 671.856 446.718 673.267 456.915C673.569 458.994 674.979 472.805 676.893 486.219C677.85 493.1 672.36 499.238 665.259 499.238Z" fill="#026BCD"/>
<path d="M466.171 499.238H462.495C461.857 494.783 461.303 490.328 460.832 485.873C460.564 483.133 460.312 480.411 460.077 477.705C459.876 475.279 460.228 472.012 458.919 469.834C457.811 468.003 455.494 466.914 453.832 465.577C452.22 464.29 450.81 462.805 449.551 461.221C444.364 454.687 442.097 446.42 441.644 438.253C440.737 419.74 448.745 400.929 461.135 387.168C462.696 385.436 465.265 388.01 463.703 389.693C456.602 397.613 451.314 407.018 448.242 417.116C443.709 431.917 442.903 452.212 456.451 463.053C458.113 464.389 460.077 465.429 461.437 467.062C462.998 468.993 463.25 471.27 463.451 473.646C463.854 479.041 464.308 484.487 464.962 489.932C465.332 493.034 465.735 496.136 466.171 499.238Z" fill="white"/>
<path d="M459.522 199.066H275.241C268.427 199.066 262.902 204.496 262.902 211.194V339.004C262.902 345.702 268.427 351.132 275.241 351.132H459.522C466.337 351.132 471.861 345.702 471.861 339.004V211.194C471.861 204.496 466.337 199.066 459.522 199.066Z" fill="#DADEF1"/>
<path d="M320.923 302.126C318.002 287.804 315.45 273.416 313.268 258.962C301.684 258.302 290.084 258.005 278.467 258.071C276.1 258.071 276.1 254.506 278.467 254.457C290.52 254.391 302.574 254.721 314.628 255.447C315.182 255.496 315.635 255.744 315.937 256.041C316.29 256.239 316.642 256.586 316.693 257.18C318.909 271.898 321.511 286.566 324.499 301.186C324.952 303.413 321.377 304.403 320.923 302.126Z" fill="white"/>
<path d="M471.86 211.144V338.955C471.86 345.687 466.32 351.083 459.47 351.083H398.883V199.066H459.47C466.32 199.066 471.86 204.462 471.86 211.144Z" fill="white"/>
<path d="M471.861 211.144V215.599H262.902V211.144C262.902 204.462 268.442 199.066 275.292 199.066H459.472C466.321 199.066 471.861 204.462 471.861 211.144Z" fill="#ACB1CD"/>
<path d="M273.983 358.805H255.953V341.232H273.983V358.805Z" fill="#36174D"/>
<path d="M609.405 234.904C609.455 236.884 608.801 238.815 607.944 240.993C607.139 243.105 606.266 245.2 605.326 247.279C603.462 251.586 601.347 255.793 598.778 259.803C593.692 267.773 586.893 274.554 578.129 278.712C573.194 281.088 567.956 282.672 562.668 284.108C557.128 285.692 551.537 287.078 545.897 288.068C540.205 289.107 534.414 289.751 528.571 289.8C523.283 289.85 517.643 289.553 512.556 288.018C507.52 286.484 504.195 283.266 501.929 278.663C499.663 274.01 500.368 273.614 497.85 269.06C488.381 251.734 494.475 229.806 506.915 218.668C515.628 210.847 531.744 204.412 543.63 203.719C563.574 202.531 581.353 207.233 597.116 218.816C599.282 220.45 606.434 228.123 607.894 230.35C608.952 231.934 609.355 233.419 609.405 234.904Z" fill="#36174D"/>
<path d="M562.818 316.481C593.692 316.481 618.721 292.059 618.721 261.932C618.721 231.805 593.692 207.382 562.818 207.382C531.943 207.382 506.914 231.805 506.914 261.932C506.914 292.059 531.943 316.481 562.818 316.481Z" fill="#36174D"/>
<path d="M605.376 253.665C603.26 249.507 600.641 245.695 597.62 242.181C598.375 245.151 598.828 247.972 598.98 249.061C599.886 256.041 599.483 263.219 597.821 270.05C595.001 281.682 588.453 292.275 579.741 300.592C570.927 309.007 566.193 320.194 554.156 322.867C540.104 326.035 522.93 319.105 509.483 315.095C503.138 313.214 493.015 307.967 487.928 303.611C483.194 299.651 480.071 296.532 476.747 291.483C476.092 290.493 476.697 289.107 477.805 288.81C483.798 287.375 489.388 283.959 492.612 278.762C494.425 275.841 495.13 272.525 495.784 269.208C496.54 265.644 497.346 262.08 498.303 258.565C501.476 246.883 506.814 235.201 516.585 227.331C526.657 219.262 540.709 216.737 553.501 217.232C576.618 218.173 598.123 231.588 608.549 251.833C609.606 253.912 606.433 255.694 605.376 253.665Z" fill="#36174D"/>
<path d="M575.712 339.252L538.191 337.816L534.716 310.64L534.263 307.076L532.551 293.711L568.107 280.792L575.712 339.252Z" fill="#F6B399"/>
<path d="M535.469 316.482L572.033 311.086L579.134 352.568L536.627 341.232L535.469 316.482Z" fill="#026BCD"/>
<path d="M579.034 297.82C571.278 304.948 560.903 309.304 549.471 309.304C525.599 309.304 504.043 292.523 504.043 269.01C504.043 259.11 508.878 253.319 515.123 245.596C517.692 231.687 528.52 221.094 539.851 215.896C544.888 218.767 549.924 221.589 554.91 224.509C568.055 226.143 579.387 233.518 586.136 244.062C592.784 248.715 599.281 253.616 605.425 258.912C604.669 276.089 594.093 290.791 579.034 297.82Z" fill="#F6B399"/>
<path d="M532.902 244.309C533.607 246.587 532.298 249.012 529.981 249.705C527.664 250.398 525.146 249.161 524.441 246.884C523.736 244.557 525.045 242.181 527.362 241.488C529.729 240.745 532.197 242.032 532.902 244.309Z" fill="#36174D"/>
<path d="M560.602 251.784C561.609 253.962 560.552 256.487 558.336 257.427C556.069 258.417 553.501 257.427 552.493 255.2C551.536 253.022 552.544 250.497 554.81 249.556C557.026 248.566 559.645 249.606 560.602 251.784Z" fill="#36174D"/>
<path d="M617.411 250.349C618.183 253.187 618.62 255.167 618.72 256.289C619.274 263.417 619.325 280.594 613.986 297.523C609.621 311.416 606.768 323.329 605.424 333.262C588.502 335.308 574.619 334.863 563.774 331.926C552.962 328.989 545.912 324.765 542.621 319.254C555.212 317.703 564.596 313.215 570.774 305.789C576.952 298.397 581.065 277.376 583.113 242.726L617.411 250.349Z" fill="#36174D"/>
<path d="M579.134 312.026C585.532 312.026 590.718 306.951 590.718 300.691C590.718 294.43 585.532 289.355 579.134 289.355C572.737 289.355 567.551 294.43 567.551 300.691C567.551 306.951 572.737 312.026 579.134 312.026Z" fill="#F6B399"/>
<path d="M575.713 231.439C575.864 232.627 574.454 233.469 573.396 233.172C572.993 233.04 572.607 232.891 572.238 232.726C572.087 233.568 571.331 233.964 570.576 234.013C570.525 234.31 570.374 234.409 570.122 234.261C563.071 230.301 544.135 225.202 536.127 226.984C527.817 228.865 516.485 235.696 511.952 242.725C510.744 243.072 509.182 242.082 509.535 240.696C511.147 234.558 514.622 229.162 519.356 224.806C529.076 215.797 542.372 212.431 555.416 210.946C558.337 210.599 561.359 210.352 564.028 211.837C566.043 212.975 567.755 214.807 568.914 216.787C569.585 217.546 570.223 218.322 570.828 219.114C571.432 219.312 571.835 219.213 571.381 219.856C573.749 223.321 575.209 227.281 575.713 231.439Z" fill="#36174D"/>
<path d="M514.066 241.884C513.915 241.983 513.764 242.082 513.562 242.131C512.958 242.296 512.37 242.461 511.8 242.626C511.397 243.27 514.721 241.884 514.066 241.884Z" fill="#36174D"/>
<path d="M613.987 265.991C614.138 279.505 606.885 292.87 594.949 299.849C593.69 300.542 592.532 299.701 592.28 298.612C587.092 298.513 582.006 297.028 577.574 294.404C573.041 291.731 569.213 287.969 566.645 283.465C563.472 277.97 562.716 271.733 562.817 265.545C562.918 258.714 563.774 251.834 565.285 245.201C566.544 239.805 568.256 234.508 571.58 230.053C571.48 229.558 571.631 229.063 572.185 228.667C575.559 225.994 579.84 226.192 583.819 227.43C587.495 228.519 591.021 230.202 594.244 232.281C605.777 239.706 613.836 252.329 613.987 265.991Z" fill="#36174D"/>
<path d="M568.257 250.2C565.185 245.646 559.191 242.973 553.651 243.814C552.644 243.963 551.637 243.616 551.385 242.577C551.133 241.735 551.687 240.498 552.644 240.349C559.896 239.211 567.4 242.379 571.43 248.418C572.689 250.348 569.516 252.13 568.257 250.2Z" fill="#36174D"/>
<path d="M539.197 248.27C537.082 250.497 534.161 251.091 531.139 251.24C531.206 252.329 531.307 253.401 531.441 254.457C531.542 255.447 530.484 256.289 529.628 256.289C528.52 256.289 527.865 255.447 527.765 254.457C527.563 252.807 527.446 251.157 527.412 249.507C527.362 248.517 528.268 247.676 529.225 247.676C531.844 247.725 534.664 247.725 536.629 245.745C538.492 243.765 538.794 240.943 538.794 238.369C538.744 236.092 542.42 236.092 542.471 238.369C542.471 241.933 541.766 245.596 539.197 248.27Z" fill="#36174D"/>
<path d="M542.119 238.617C542.22 239.607 541.162 240.349 540.256 240.399C539.198 240.448 538.543 239.508 538.442 238.617C538.493 238.963 538.392 238.468 538.392 238.419C538.359 238.287 538.325 238.155 538.291 238.023C538.224 237.792 538.157 237.577 538.09 237.379C538.09 237.33 537.989 237.132 537.989 237.082C537.922 236.983 537.855 236.884 537.788 236.785C537.687 236.538 537.536 236.34 537.284 235.993C537.183 235.894 537.083 235.795 536.982 235.696C536.814 235.465 536.613 235.267 536.378 235.102C536.378 235.053 536.226 234.954 536.176 234.904C536.075 234.855 535.924 234.756 535.924 234.756C535.723 234.607 535.521 234.508 535.068 234.31C534.967 234.244 534.85 234.195 534.716 234.162C534.413 234.063 534.111 233.98 533.809 233.914C533.759 233.914 533.658 233.914 533.608 233.914C533.473 233.881 533.339 233.865 533.205 233.865C532.936 233.865 532.667 233.865 532.399 233.865C532.399 233.865 532.097 233.914 532.046 233.914C531.946 233.914 531.862 233.914 531.794 233.914C531.492 233.98 531.19 234.063 530.888 234.162C530.888 234.162 530.737 234.211 530.636 234.261C530.535 234.261 530.334 234.36 530.334 234.409C530.065 234.541 529.797 234.69 529.528 234.855C528.672 235.399 527.514 234.954 527.01 234.211C526.456 233.37 526.859 232.231 527.665 231.736C530.485 229.954 534.162 229.806 537.133 231.291C540.004 232.726 541.716 235.548 542.119 238.617Z" fill="#36174D"/>
<path d="M519.706 259.803L542.117 263.318C541.58 267.971 537.836 270.314 530.886 270.347C522.593 270.347 518.866 266.832 519.706 259.803Z" fill="white"/>
<path d="M555.213 309.155C551.033 310.74 546.55 311.185 542.118 311.086C539.852 311.037 537.586 310.888 535.319 310.69C535.118 310.657 534.916 310.641 534.715 310.641L534.262 307.076C535.068 307.126 535.924 307.126 536.629 307.225C538.593 307.373 540.608 307.472 542.572 307.522C546.55 307.571 550.479 307.126 554.206 305.69C555.163 305.344 556.271 306.086 556.472 306.977C556.774 307.967 556.12 308.809 555.213 309.155Z" fill="#E09071"/>
<path d="M584.425 302.275C584.173 303.265 583.166 303.71 582.159 303.512C579.842 303.083 577.508 302.654 575.158 302.225C574.017 302.027 572.858 301.813 571.683 301.582C571.112 301.483 570.541 301.384 569.971 301.285C569.669 301.219 569.35 301.153 569.014 301.087C568.208 301.483 567.1 301.087 566.647 300.344C566.093 299.453 566.496 298.463 567.301 297.919C568.46 297.077 570.122 297.671 571.381 297.869C572.69 298.133 574 298.381 575.309 298.612C577.928 299.107 580.547 299.585 583.166 300.047C584.123 300.245 584.677 301.384 584.425 302.275Z" fill="#E09071"/>
<path d="M511.751 431.075C511.046 433.253 508.125 435.827 507.017 436.966C503.944 440.184 500.973 443.5 497.699 446.52C494.678 449.341 491.253 451.816 487.324 453.252C482.943 454.885 478.158 454.786 473.525 454.687C472.87 455.133 472.115 455.38 471.309 454.935C465.92 452.212 460.581 449.242 455.847 445.48C451.667 442.213 447.991 438.253 445.573 433.55C443.105 428.699 441.997 423.403 441.494 418.007C440.486 407.761 438.824 402.909 433.738 393.702C427.241 381.921 419.787 372.071 412.686 363.408C408.153 357.864 403.268 345.34 413.189 340.044C414.902 339.153 416.664 339.103 418.377 339.499C417.873 335.737 419.182 331.826 422.355 329.203C426.636 325.738 431.924 325.985 436.659 327.916C436.961 324.154 438.119 320.491 441.443 318.362C446.631 315.095 452.825 318.511 456.804 322.075C461.186 326.084 464.963 330.935 468.086 335.935C469.748 338.658 471.258 341.479 472.568 344.35C472.568 336.529 471.259 328.708 468.74 321.233C467.532 317.719 466.172 313.561 468.388 310.145C470.402 306.928 474.683 305.888 478.259 306.878C485.914 309.007 489.692 317.372 491.555 324.253C493.872 332.965 494.98 342.172 495.534 351.181C495.869 356.164 495.953 361.131 495.786 366.081C495.937 366.279 496.088 366.576 496.138 366.922C499.714 388.059 505.204 408.899 512.557 429.095C512.96 430.036 512.456 430.778 511.751 431.075Z" fill="#F6B399"/>
<path d="M254.643 383.357C252.679 387.218 248.398 388.951 244.419 390.287C239.937 391.822 235.001 392.812 230.267 391.574C225.986 390.485 222.914 387.664 221.202 383.704C219.64 380.04 218.935 376.031 219.086 372.12C219.338 365.982 221.454 359.993 225.18 355.142C225.08 354.647 225.231 354.152 225.684 353.657C226.44 352.964 227.245 352.419 228.102 351.924C228.337 351.693 228.588 351.462 228.857 351.231C229.361 350.736 229.965 350.687 230.519 350.786C233.39 349.845 236.563 349.796 239.584 350.489C244.319 351.578 249.758 354.201 252.679 358.112C255.449 361.824 255.096 366.576 255.499 370.883C255.902 375.041 256.658 379.446 254.643 383.357Z" fill="#EE796A"/>
<path d="M458.666 203.026C457.609 205.105 454.939 207.332 451.867 207.431C449.601 207.53 447.435 206.887 445.773 205.303C445.672 205.204 445.572 205.105 445.521 205.006C445.32 208.025 445.37 211.887 441.492 213.57C438.218 214.956 434.391 215.104 430.362 213.669C429.757 214.362 429.657 215.896 426.987 217.183C422.253 219.411 416.361 218.272 413.641 214.51C412.835 217.035 411.375 219.312 408.756 220.45C404.727 222.183 399.993 220.648 397.122 217.777C393.294 214.065 391.431 208.57 389.215 203.867C385.891 196.789 379.696 188.176 379.293 180.256C379.092 175.9 380.804 171.048 385.84 169.613C389.869 168.474 394.251 170.009 397.223 172.533C397.424 172.731 397.625 172.929 397.827 173.078C398.179 170.207 400.043 167.732 402.561 166.197C405.734 164.316 409.713 164.465 413.087 165.801C416.159 166.989 418.627 169.118 420.591 171.642C423.16 167.138 430.06 167.435 434.189 169.761C437.715 171.741 440.032 174.91 441.694 178.424C444.866 176.444 449.701 176.543 452.723 178.82C456.349 181.493 463.048 194.215 458.666 203.026Z" fill="#F6B399"/>
<path d="M416.51 216.193C415.754 218.371 412.179 217.43 412.934 215.203C413.589 213.322 413.186 211.441 412.783 209.56C412.414 207.778 411.944 206.029 411.373 204.313C410.315 200.947 408.955 197.68 407.444 194.462C404.171 187.68 400.444 181.047 396.868 174.414C395.76 172.385 398.933 170.553 400.041 172.583C403.869 179.711 407.948 186.789 411.272 194.165C412.884 197.63 414.344 201.244 415.402 204.907C416.409 208.421 417.719 212.579 416.51 216.193Z" fill="#E09071"/>
<path d="M431.317 214.857C430.108 216.837 426.935 215.005 428.144 213.025C429.05 211.59 429 209.61 429.05 208.025C429.101 206.243 429.05 204.511 428.849 202.729C428.446 199.313 427.59 195.898 426.532 192.581C424.266 185.701 421.143 179.068 418.776 172.187C418.071 170.009 421.597 169.068 422.352 171.246C424.87 178.672 428.345 185.75 430.561 193.225C431.619 196.888 432.425 200.6 432.677 204.412C432.878 207.679 433.08 211.936 431.317 214.857Z" fill="#E09071"/>
<path d="M447.738 203.224C447.738 205.699 447.435 208.125 446.176 210.352C445.068 212.382 441.895 210.55 443.003 208.521C444.212 206.392 444.111 203.917 444.061 201.591C443.994 199.115 443.809 196.64 443.507 194.165C442.953 189.067 441.795 184.018 440.233 179.117C439.528 176.89 443.054 175.949 443.759 178.127C445.471 183.572 446.63 189.116 447.284 194.759C447.586 197.531 447.738 200.403 447.738 203.224Z" fill="#E09071"/>
<path d="M242.102 263.07C236.511 265.446 231.626 263.664 227.496 259.704C223.719 256.091 220.546 251.883 214.704 251.883C209.718 251.834 204.933 254.111 200.652 256.635C199.377 262.773 197.983 268.895 196.472 275C196.17 277.31 195.801 279.603 195.364 281.88C194.894 284.289 194.323 286.682 193.652 289.058C193.048 291.187 192.544 293.612 191.486 295.592C190.63 297.226 188.716 298.216 186.954 297.176C184.989 296.038 184.989 293.761 185.694 291.929C186.752 289.207 187.457 286.583 187.81 283.86C187.038 284.124 186.265 284.405 185.493 284.702C183.479 285.445 181.565 285.643 180.003 283.959C179.903 283.86 179.852 283.712 179.752 283.613C170.082 292.573 160.865 302.027 152.152 311.927C151.397 312.818 150.138 312.521 149.332 311.927C141.022 305.641 135.129 296.582 132.359 286.732C127.323 268.713 133.518 249.507 146.914 236.488C147.67 235.696 148.526 234.954 149.332 234.211C149.198 234.178 149.08 234.129 148.979 234.063C148.744 233.898 148.526 233.749 148.325 233.617C148.09 233.452 147.855 233.271 147.62 233.073C147.418 232.941 147.233 232.809 147.066 232.677C146.931 232.578 146.797 232.479 146.663 232.38C145.907 231.786 145.958 230.548 146.512 229.855C146.763 229.509 147.116 229.261 147.519 229.113C147.972 229.014 148.728 229.063 149.08 229.311C149.651 229.707 150.205 230.103 150.742 230.499C151.095 230.746 151.498 230.994 151.951 231.241V227.479C152.001 226.39 152.857 225.598 153.965 225.549C155.023 225.499 155.98 226.489 155.98 227.479C155.98 228.106 155.98 228.733 155.98 229.36C169.125 221.094 185.543 218.272 201.005 220.896C205.286 216.738 210.977 213.768 217.121 214.51C222.863 215.203 228.151 219.262 229.561 224.707C234.598 223.173 240.54 224.856 243.713 229.113C246.534 232.924 246.584 238.171 244.368 242.181C247.994 243.121 250.915 246.339 251.268 250.25C251.772 255.942 247.088 260.942 242.102 263.07Z" fill="#36174D"/>
<path d="M174.916 300.493C182.092 300.493 187.91 294.819 187.91 287.821C187.91 280.822 182.092 275.148 174.916 275.148C167.739 275.148 161.922 280.822 161.922 287.821C161.922 294.819 167.739 300.493 174.916 300.493Z" fill="#F6B399"/>
<path d="M182.675 293.859C182.222 294.602 181.013 295.047 180.207 294.552C179.368 293.991 178.528 293.43 177.689 292.869C177.42 293.265 177.135 293.645 176.833 294.008C176.228 294.75 175.423 295.394 174.617 295.988C174.214 296.285 173.66 296.285 173.207 296.186C172.753 296.087 172.35 295.74 172.099 295.344C171.847 294.998 171.796 294.404 171.947 294.008C172.048 293.562 172.3 293.265 172.602 293.018C173.207 292.556 173.744 292.044 174.214 291.483C174.382 291.285 174.516 291.087 174.617 290.889C172.972 289.8 171.326 288.711 169.681 287.622C168.875 287.078 168.472 286.137 168.976 285.246C169.429 284.454 170.638 284.058 171.444 284.553C174.936 286.863 178.444 289.173 181.97 291.483C182.776 291.978 183.179 292.968 182.675 293.859Z" fill="#EE796A"/>
<path d="M186.3 328.956L183.882 332.52C181.062 332.371 178.191 331.975 175.522 331.579C171.593 330.985 167.867 329.698 164.442 327.817C162.377 326.629 164.24 323.56 166.305 324.699C169.478 326.481 172.903 327.57 176.479 328.114C179.652 328.609 183.076 329.055 186.3 328.956Z" fill="#EE796A"/>
<path d="M276.703 362.566C276.098 370.14 269.098 373.853 264.263 378.902C259.327 384.099 257.212 391.079 254.945 397.613C252.578 404.345 249.607 410.632 244.873 416.077C241.901 419.591 238.325 422.759 234.347 425.482L232.483 457.014L175.824 450.381C180.709 426.818 185.444 403.355 190.681 379.842C193.099 369.001 197.027 356.181 204.683 347.667C216.971 333.955 240.944 316.828 260.083 326.728C262.953 328.213 267.285 331.034 269.047 333.757C272.623 339.4 264.716 348.855 259.126 346.429C249.254 342.172 243.916 344.845 234.901 351.379C226.843 357.121 223.871 365.19 226.289 374.397C228.253 377.169 232.383 377.516 235.455 376.328C239.484 374.744 242.556 371.378 245.376 368.209C250.513 362.418 255.6 355.537 263.407 353.112C266.781 352.023 270.709 351.924 273.58 354.25C276.098 356.28 277.005 359.448 276.703 362.566Z" fill="#F6B399"/>
<path d="M232.483 457.014L230.619 487.902C230.267 493.941 225.13 498.694 218.935 498.694H166.355C170.015 478.992 172.987 463.73 175.27 452.905C175.438 452.08 175.622 451.239 175.824 450.381L232.483 457.014Z" fill="#FFBB4D"/>
<path d="M199.394 498.693H11.7392C3.27816 498.693 -2.41292 490.179 1.0118 482.606C18.2362 444.787 63.0598 352.468 96.602 337.371C139.008 318.362 196.876 340.093 199.293 384.545C200.099 399.032 200.133 437.081 199.394 498.693Z" fill="#FFBB4D"/>
<path d="M117.555 498.693V497.258C117.454 473.151 115.994 448.995 113.274 425.036C113.022 422.759 116.699 422.759 116.951 425.036C117.706 431.917 118.411 438.798 118.965 445.728C120.426 463.35 121.181 481.022 121.232 498.693H117.555Z" fill="#36174D"/>
<path d="M267.034 121.301C266.631 123.924 264.617 125.904 262.451 127.241C260.437 128.478 258.573 125.36 260.588 124.122C262.451 122.984 264.315 120.954 262.955 118.776C261.796 116.895 259.782 115.657 258.775 113.677C256.005 108.43 258.523 102.738 260.94 97.9362C261.998 95.8572 265.171 97.6887 264.113 99.7183C262.753 102.441 261.242 105.312 261.242 108.381C261.192 111.153 262.501 112.836 264.315 114.766C266.027 116.598 267.487 118.727 267.034 121.301Z" fill="#E09071"/>
<path d="M260.333 133.081C255.549 136.794 248.246 136.448 243.965 132.141C243.26 131.448 243.311 130.26 244.016 129.616C244.771 128.923 245.929 129.022 246.635 129.715C246.769 129.847 246.903 129.963 247.037 130.062C247.037 130.111 247.189 130.21 247.239 130.26C247.289 130.309 247.491 130.458 247.491 130.458C247.591 130.524 247.692 130.59 247.793 130.656C248.028 130.788 248.263 130.936 248.498 131.101C248.649 131.151 248.8 131.2 249.052 131.349C249.606 131.547 250.16 131.745 250.714 131.893C250.764 131.893 250.915 131.893 251.016 131.943C251.117 131.943 251.318 131.992 251.318 131.992C251.587 132.025 251.856 132.042 252.124 132.042C252.426 132.075 252.712 132.091 252.98 132.091C253.131 132.091 253.283 132.091 253.585 132.042C254.122 131.976 254.676 131.877 255.247 131.745C256.002 131.547 257.211 130.953 257.815 130.458C258.621 129.864 259.679 129.814 260.434 130.557C261.039 131.2 261.089 132.487 260.333 133.081Z" fill="#E09071"/>
<path d="M276.096 97.1438C275.089 97.2428 274.081 96.9953 273.074 97.1933C269.398 97.9358 265.62 100.757 262.548 102.49C261.491 103.133 259.627 102.341 259.778 100.955C260.03 98.9753 260.634 97.0943 261.742 95.4113C264.764 90.8077 270.757 90.1147 275.693 91.6987C277.003 92.1442 278.413 92.7878 278.665 94.2728C278.967 95.9063 277.607 97.0448 276.096 97.1438Z" fill="#36174D"/>
<path d="M244.821 108.381C243.562 110.212 240.943 109.42 239.13 109.074C234.345 108.133 229.259 108.925 225.179 111.945C224.373 112.539 223.114 112.093 222.661 111.301C221.805 109.915 223.215 106.846 224.021 105.609C225.129 103.975 226.892 102.787 228.705 101.945C232.18 100.312 236.763 99.4705 240.591 100.559C242.253 101.054 243.814 102.044 244.67 103.579C245.526 105.015 245.778 106.995 244.821 108.381Z" fill="#36174D"/>
<path d="M275.242 73.3341C275.242 74.3241 274.537 74.9181 273.731 75.0171C267.99 82.0957 258.673 84.7193 249.859 86.0063C239.938 87.4418 229.663 87.2438 220.296 83.3828C219.641 85.7588 218.332 87.8378 217.173 90.0159C215.763 92.6394 215.259 95.2134 215.259 98.134C215.259 104.272 215.713 110.41 216.418 116.449C216.67 118.825 217.425 121.597 216.216 123.775C215.058 125.755 212.741 126.448 210.576 125.805C208.259 125.112 206.798 123.28 205.892 121.201C205.64 120.558 205.338 119.419 204.985 118.33C203.928 119.667 202.668 120.904 201.309 121.944C199.294 123.429 196.222 124.666 193.754 123.726C193.099 123.825 192.445 123.577 192.042 122.835C185.646 111.004 183.933 97.0449 187.408 84.0758C181.868 81.3037 179.904 74.7696 181.163 68.9286C182.271 63.5825 186.552 56.1574 192.848 56.6029C193.351 53.0388 195.315 49.7223 198.388 47.6433C201.309 45.6137 204.935 45.0692 208.36 45.7127C208.813 41.5052 213.295 38.3866 217.425 37.9411C220.447 37.5946 223.318 38.6341 225.735 40.3172C228.455 35.4661 233.34 31.902 239.132 31.11C243.614 30.4665 248.247 31.3575 252.176 33.6346C256.003 35.8126 259.428 39.5747 259.327 44.1287C261.594 45.3167 263.558 47.0493 265.522 48.6828C267.688 50.4648 269.753 52.3953 271.415 54.6229C275.343 59.9194 275.242 67.0475 275.242 73.3341Z" fill="#36174D"/>
<path d="M197.479 138.427C204.071 138.427 209.415 133.219 209.415 126.795C209.415 120.37 204.071 115.162 197.479 115.162C190.887 115.162 185.543 120.37 185.543 126.795C185.543 133.219 190.887 138.427 197.479 138.427Z" fill="#F6B399"/>
<path d="M208.509 131.399C207.854 132.092 206.545 132.092 205.89 131.399C204.581 129.914 203.187 128.495 201.71 127.142C200.971 126.449 200.216 125.772 199.443 125.112C199.074 124.815 198.705 124.518 198.335 124.221C198.134 124.056 197.933 123.908 197.731 123.776C197.63 123.71 197.53 123.627 197.429 123.528C197.328 123.429 197.127 123.33 197.379 123.479C196.522 122.835 196.17 121.993 196.724 121.003C196.925 120.607 197.379 120.31 197.781 120.211C198.184 120.063 198.839 120.112 199.192 120.36C202.566 122.934 205.689 125.706 208.509 128.874C209.164 129.617 209.214 130.607 208.509 131.399Z" fill="#E09071"/>
<path d="M278.414 133.428C270.053 147.04 252.93 149.812 238.022 150.555C235.655 150.654 235.705 147.09 238.022 146.941C251.57 146.298 267.586 144.07 275.241 131.596C276.45 129.616 279.622 131.448 278.414 133.428Z" fill="#E09071"/>
<path d="M260.688 146.496C260.587 150.357 260.184 154.268 259.58 158.129C259.428 159.119 258.22 159.564 257.364 159.366C256.306 159.119 255.903 158.079 256.054 157.188C256.558 153.773 256.91 150.06 257.011 146.496C257.061 145.457 257.867 144.714 258.874 144.665C259.831 144.665 260.738 145.556 260.688 146.496Z" fill="#E09071"/>
<path d="M202.718 417.76C202.752 423.601 202.735 429.442 202.668 435.283C202.533 456.04 202.097 476.781 201.358 497.505C201.258 499.782 197.581 499.832 197.682 497.505C197.883 491.664 198.068 485.806 198.236 479.932C198.807 459.208 199.075 438.484 199.042 417.76C199.042 415.433 202.718 415.433 202.718 417.76Z" fill="white"/>
<path d="M522.83 439.738L472.97 470.033L464.207 451.123L508.225 416.522L522.83 439.738Z" fill="#FFE9E0"/>
<path d="M560.148 499.238H486.416L483.293 492.506L472.969 470.033L473.724 469.587L488.38 460.677L522.275 440.035L522.829 439.738L530.887 452.559C530.887 452.592 540.641 468.152 560.148 499.238Z" fill="#026BCD"/>
<path d="M605.424 540.967C605.424 541.033 605.34 541 605.172 540.868C605.373 540.901 605.457 540.934 605.424 540.967Z" fill="#19C5FF"/>
<path d="M468.287 375.486C469.143 377.664 465.567 378.555 464.711 376.476C461.085 367.566 457.811 358.409 453.228 349.944C448.847 341.826 442.753 334.995 434.543 330.441C432.479 329.302 434.342 326.233 436.407 327.372C444.969 332.124 451.516 339.202 456.149 347.667C461.035 356.528 464.459 366.18 468.287 375.486Z" fill="#E09071"/>
<path d="M480.12 370.239C473.623 350.983 465.766 328.956 445.369 319.897C443.253 318.956 445.117 315.887 447.232 316.828C451.412 318.659 455.19 321.134 458.614 324.104C472.212 335.787 478.155 353.013 483.645 369.299C484.4 371.526 480.825 372.417 480.12 370.239Z" fill="#E09071"/>
<path d="M452.723 384.792C453.277 387.069 449.702 388.01 449.148 385.782C446.932 376.773 443.003 368.308 437.665 360.685C434.995 356.973 432.024 353.458 428.75 350.29C427.038 348.64 425.258 347.056 423.412 345.538C421.599 344.103 419.584 342.271 417.368 341.43C415.152 340.638 416.109 337.172 418.325 337.964C420.793 338.905 422.858 340.539 424.872 342.123C426.887 343.674 428.817 345.324 430.664 347.073C434.19 350.439 437.413 354.151 440.284 358.111C446.075 366.13 450.306 375.239 452.723 384.792Z" fill="#E09071"/>
<path d="M567.199 499.238H562.767L530.886 452.608C530.886 452.575 528.016 448.384 522.274 440.035L520.713 437.708C519.403 435.827 522.576 433.996 523.886 435.926C529.493 444.111 535.083 452.278 540.657 460.429C549.521 473.365 558.368 486.302 567.199 499.238Z" fill="white"/>
<path d="M592.783 499.238H589.106C589.106 499.139 589.073 498.891 589.006 498.495C586.118 477.21 583.247 455.925 580.393 434.64C580.242 433.65 581.3 432.808 582.206 432.858C583.264 432.858 583.919 433.65 584.02 434.64L586.538 452.955C586.689 454.093 586.84 455.182 586.991 456.321C588.938 470.643 590.869 484.949 592.783 499.238Z" fill="white"/>
<path d="M605.424 540.967C605.424 541.033 605.34 541 605.172 540.868C605.373 540.901 605.457 540.934 605.424 540.967Z" fill="#AB5A44"/>
<path fill-rule="evenodd" clip-rule="evenodd" d="M461.689 271.188C461.689 271.535 461.588 271.782 461.387 272.03C461.337 272.723 460.833 273.416 459.876 273.416C443.525 273.383 427.19 273.828 410.872 274.752C410.268 274.802 409.815 274.505 409.563 274.109C409.059 273.911 408.656 273.465 408.656 272.723L409.412 240.696C409.462 239.31 411.023 238.864 411.98 239.409C420.273 238.914 428.583 238.435 436.91 237.973C440.889 237.726 444.868 237.429 448.897 237.28C452.473 237.181 456.048 237.478 459.272 239.112C461.538 239.062 461.689 242.428 461.79 244.111C461.924 247.081 462.008 250.068 462.042 253.071C462.142 259.11 462.025 265.149 461.689 271.188ZM423.765 262.724C420.777 265.628 417.789 268.532 414.801 271.436C429.137 270.71 443.474 270.33 457.811 270.297C453.95 267.327 450.089 264.357 446.227 261.387C445.573 260.843 445.673 259.704 446.227 259.16C446.933 258.516 447.839 258.665 448.494 259.16C451.885 261.8 455.276 264.423 458.667 267.03C458.818 263.417 458.919 259.754 458.869 256.14C458.869 253.665 458.835 251.19 458.768 248.715C458.734 247.527 458.701 246.339 458.667 245.151C458.634 244.458 458.6 243.781 458.567 243.121C458.516 242.824 458.516 242.527 458.416 242.23C458.416 243.072 457.66 243.913 456.905 244.408C454.638 245.992 452.422 247.527 450.206 249.16C445.774 252.477 441.443 255.991 437.313 259.655C436.104 260.694 434.493 259.556 434.543 258.368C428.248 252.378 420.794 247.527 412.534 244.26L411.93 269.802C415.12 266.7 418.309 263.598 421.499 260.496C422.96 259.061 425.226 261.288 423.765 262.724ZM435.853 241.141C429.205 241.537 422.557 241.917 415.909 242.28C423.564 245.695 430.615 250.299 436.658 256.041C439.428 253.665 442.198 251.388 445.069 249.16C446.782 247.84 448.527 246.537 450.307 245.25C451.18 244.623 452.053 243.996 452.926 243.369C453.396 243.039 453.866 242.709 454.336 242.379C454.487 242.28 454.638 242.181 454.84 242.082C454.873 241.917 454.924 241.735 454.991 241.537C455.159 241.306 455.343 241.125 455.545 240.993C452.976 240.25 450.156 240.349 447.487 240.498C443.609 240.696 439.731 240.943 435.853 241.141Z" fill="#DADEF1"/>
<path d="M418.273 229.459C418.323 229.707 418.374 229.954 418.374 230.152C418.323 230.4 418.323 230.647 418.223 230.845C418.122 231.043 418.072 231.291 417.92 231.489C417.769 231.637 417.618 231.885 417.467 232.033C417.266 232.182 417.115 232.33 416.913 232.429C416.712 232.528 416.561 232.578 416.258 232.677C416.057 232.726 415.856 232.776 415.503 232.776C415.352 232.776 415.15 232.776 414.748 232.677C414.546 232.677 414.361 232.627 414.194 232.528C413.992 232.462 413.824 232.363 413.69 232.231C413.539 232.083 413.438 231.934 413.337 231.786C413.237 231.637 413.186 231.489 413.086 231.192C413.035 230.994 413.035 230.845 413.035 230.499C413.035 230.4 413.035 230.301 413.035 230.004C413.035 229.905 413.086 229.756 413.086 229.657C413.086 229.558 413.086 229.41 413.136 229.311C413.186 229.162 413.287 229.014 413.438 228.717C413.539 228.568 413.64 228.37 413.841 228.271C413.992 228.123 414.143 227.974 414.345 227.875C414.798 227.677 415.15 227.578 415.604 227.578C415.856 227.578 416.057 227.578 416.258 227.628C416.359 227.628 416.46 227.644 416.561 227.677C416.762 227.776 416.964 227.826 417.115 227.974C417.266 228.024 417.417 228.172 417.669 228.321C417.769 228.469 417.87 228.618 418.021 228.865C418.122 228.997 418.206 229.146 418.273 229.311C418.273 229.377 418.273 229.426 418.273 229.459Z" fill="#DADEF1"/>
<path d="M429.958 228.42C430.16 228.816 430.311 229.311 430.311 229.756C430.311 230.202 430.16 230.598 429.958 230.994C429.925 231.093 429.874 231.175 429.807 231.241C429.706 231.439 429.555 231.637 429.404 231.736C429.052 232.033 428.699 232.281 428.246 232.38C427.843 232.479 427.289 232.479 426.886 232.33C426.433 232.182 426.03 231.984 425.728 231.637C425.375 231.291 425.224 230.944 425.023 230.499C424.872 230.103 424.922 229.608 424.972 229.162C425.073 228.618 425.476 228.172 425.929 227.875C426.097 227.743 426.298 227.661 426.534 227.628C426.685 227.578 426.836 227.578 427.138 227.529C427.239 227.529 427.339 227.578 427.44 227.578C427.642 227.545 427.843 227.529 428.044 227.529C428.75 227.479 429.555 227.826 429.958 228.42Z" fill="#DADEF1"/>
<path d="M441.088 229.509C441.038 229.657 440.987 229.756 440.786 230.053C440.735 230.202 440.735 230.35 440.685 230.548C440.635 230.746 440.534 230.994 440.433 231.142C440.333 231.291 440.232 231.439 440.03 231.637C439.93 231.736 439.779 231.835 439.577 231.984C439.426 232.033 439.275 232.083 439.023 232.182C438.889 232.215 438.721 232.231 438.519 232.231C438.318 232.231 438.167 232.231 437.965 232.182C437.764 232.132 437.613 232.033 437.361 231.934C437.193 231.835 437.042 231.72 436.908 231.588C436.857 231.538 436.807 231.439 436.706 231.34C436.639 231.274 436.572 231.192 436.505 231.093C436.455 230.944 436.354 230.796 436.253 230.499C436.253 230.367 436.236 230.251 436.203 230.152C436.203 230.053 436.186 229.938 436.152 229.806C436.152 229.707 436.203 229.608 436.203 229.459C436.203 229.36 436.253 229.261 436.253 229.162C436.303 228.964 436.404 228.816 436.555 228.568C436.656 228.403 436.757 228.255 436.857 228.123C436.958 228.073 437.059 227.974 437.16 227.925C437.227 227.859 437.311 227.793 437.411 227.727C437.563 227.628 437.764 227.578 437.915 227.479C438.016 227.446 438.117 227.43 438.217 227.43C438.469 227.38 438.721 227.331 438.973 227.331C439.174 227.38 439.325 227.38 439.678 227.479C439.879 227.529 440.03 227.628 440.333 227.727C440.568 227.892 440.769 228.09 440.937 228.321C440.97 228.453 441.021 228.568 441.088 228.667C441.155 228.964 441.155 229.245 441.088 229.509Z" fill="#DADEF1"/>
<path d="M459.32 285.296C443.305 287.177 427.189 287.969 411.072 287.771C408.705 287.771 408.705 284.158 411.072 284.207C427.189 284.405 443.305 283.564 459.32 281.732C461.637 281.485 461.637 285.049 459.32 285.296Z" fill="#DADEF1"/>
<path d="M419.33 296.681C419.078 297.671 418.021 298.166 417.064 297.968C416.51 297.82 415.906 297.721 415.301 297.622C415.167 297.622 415.033 297.622 414.898 297.622C414.63 297.589 414.344 297.556 414.042 297.523C412.901 297.457 411.759 297.44 410.617 297.473C409.61 297.572 408.804 296.632 408.754 295.691C408.754 294.701 409.66 293.959 410.617 293.909C413.085 293.761 415.603 294.008 418.071 294.503C419.078 294.701 419.532 295.79 419.33 296.681Z" fill="#DADEF1"/>
<path d="M456.096 296.285C446.191 296.681 436.286 297.093 426.381 297.522C424.014 297.621 424.065 294.008 426.381 293.909C436.286 293.513 446.191 293.1 456.096 292.671C458.463 292.572 458.463 296.186 456.096 296.285Z" fill="#DADEF1"/>
<path d="M457.508 307.819C442.365 308.512 427.205 308.743 412.029 308.512C409.662 308.512 409.662 304.898 412.029 304.948C427.205 305.146 442.365 304.898 457.508 304.205C459.875 304.106 459.875 307.67 457.508 307.819Z" fill="#DADEF1"/>
<path d="M389.313 239.013V327.223C389.313 327.965 388.911 328.51 388.407 328.757C388.961 329.797 388.457 331.43 386.846 331.43H281.636C280.981 331.43 280.478 331.133 280.176 330.737C279.118 330.737 278.01 329.846 278.413 328.51C281.284 319.154 285.867 308.908 294.932 303.809C304.854 298.265 315.883 302.423 326.46 301.086C336.432 299.898 343.533 292.176 348.217 284.058C353.656 274.653 356.527 264.01 362.873 255.1C368.664 246.933 376.773 240.646 386.191 236.785C386.846 236.538 387.601 236.884 388.054 237.379C388.759 237.577 389.313 238.122 389.313 239.013Z" fill="white"/>
<path d="M277.61 335.044C279.668 335.044 281.337 333.426 281.337 331.43C281.337 329.435 279.668 327.817 277.61 327.817C275.551 327.817 273.883 329.435 273.883 331.43C273.883 333.426 275.551 335.044 277.61 335.044Z" fill="#19C5FF"/>
<path d="M323.288 305.344C325.68 305.344 327.62 303.438 327.62 301.087C327.62 298.736 325.68 296.83 323.288 296.83C320.896 296.83 318.957 298.736 318.957 301.087C318.957 303.438 320.896 305.344 323.288 305.344Z" fill="#19C5FF"/>
<path d="M385.689 242.924C388.971 242.924 391.632 240.331 391.632 237.132C391.632 233.933 388.971 231.34 385.689 231.34C382.407 231.34 379.746 233.933 379.746 237.132C379.746 240.331 382.407 242.924 385.689 242.924Z" fill="#19C5FF"/>
<path d="M288.488 247.676C288.539 248.666 287.632 249.458 286.675 249.458H278.768C277.761 249.458 277.005 248.666 276.955 247.676C276.905 246.686 277.811 245.894 278.768 245.894H286.675C287.683 245.894 288.488 246.686 288.488 247.676Z" fill="white"/>
<path d="M313.617 249.458H293.623C291.256 249.458 291.256 245.894 293.623 245.894H313.617C315.984 245.894 315.984 249.458 313.617 249.458Z" fill="white"/>
<path opacity="0.1" fill-rule="evenodd" clip-rule="evenodd" d="M571.582 140.506C571.28 137.668 570.826 134.863 570.222 132.091C565.337 109.865 551.688 89.6689 533.104 76.1057C523.837 69.2746 513.361 64.077 502.13 61.0575C492.612 58.4834 481.935 57.2459 472.063 59.3249C472.13 59.4569 472.181 59.6054 472.214 59.7704C475.992 70.7101 475.236 83.5803 467.933 93.0349C464.408 97.6385 458.364 101.698 452.22 101.005C445.27 100.213 442.047 93.7774 441.895 87.5898C441.593 74.7692 451.364 63.384 462.998 58.4339C464.358 57.8894 465.768 57.3944 467.178 56.9489C466.372 55.2329 465.449 53.5664 464.408 51.9493C457.911 41.9007 446.881 35.8616 435.147 33.5351C408.353 28.189 381.711 41.2077 362.673 58.8299C360.961 60.414 358.342 57.8894 360.105 56.3054C362.724 53.8799 365.444 51.5038 368.264 49.3258C390.122 32.3966 420.793 22.0509 447.738 33.6836C458.062 38.1881 466.221 46.0092 470.703 56.0084C482.74 53.2858 495.734 55.1174 507.318 58.8299C519.304 62.691 530.334 68.9281 539.953 76.8482C559.293 92.8369 572.488 115.805 575.258 140.506C575.51 142.783 571.834 142.783 571.582 140.506ZM468.487 60.2159C465.969 61.008 463.552 61.998 461.185 63.3345C455.997 66.255 451.565 70.4626 448.695 75.6602C445.975 80.5607 444.464 86.8968 446.428 92.2924C447.385 94.8664 449.45 96.995 452.27 97.391C454.99 97.787 457.71 96.797 459.976 95.4109C464.66 92.5894 467.732 87.5898 469.344 82.4913C471.66 75.2147 471.106 67.3935 468.487 60.2159Z" fill="#0C253D"/>
<path fill-rule="evenodd" clip-rule="evenodd" d="M350.534 399.197C350.232 399.94 349.577 400.237 348.822 400.336C343.785 400.897 338.749 401.474 333.713 402.068C332.403 402.217 331.748 400.831 331.95 399.791C332.705 395.881 334.116 392.069 336.13 388.356C334.468 386.673 337.037 384.149 338.699 385.832C342.526 389.627 346.337 393.439 350.131 397.267C350.685 397.811 350.786 398.554 350.534 399.197ZM336.08 398.207C339.034 397.877 341.989 397.531 344.944 397.168L338.9 391.178C337.691 393.422 336.751 395.765 336.08 398.207Z" fill="#F66957"/>
<path d="M297.904 29.2784C305.861 28.1563 313.835 27.0343 321.826 25.9123C323.589 25.6648 324.949 27.4963 323.589 28.8824C320.332 32.3804 317.075 35.8784 313.819 39.3765C312.173 41.1255 310.528 42.8745 308.883 44.6236C308.581 44.9701 307.775 45.6136 307.926 46.0591C308.077 46.5046 309.185 46.7521 309.588 46.9006C311.502 47.3956 313.466 47.5441 315.38 48.0391C317.495 48.5341 319.56 49.2271 321.625 50.0191C325.704 51.6527 329.482 53.8307 333.007 56.5037C333.863 57.1472 333.612 58.8798 332.604 59.3253C326.309 61.9488 319.61 63.2853 312.761 63.1863C315.38 68.6314 319.157 73.3835 323.791 77.294C324.899 78.2345 324.042 80.5116 322.481 80.3631C316.488 79.7691 310.746 78.2345 305.358 75.611C303.192 74.621 305.055 71.5024 307.171 72.4925C310.344 74.027 313.668 75.1655 317.092 75.908C313.265 71.7994 310.293 66.9979 308.178 61.7508C307.775 60.7608 308.833 59.4243 309.941 59.5233C316.035 59.9193 322.129 59.2263 327.87 57.2957C324.546 55.1177 320.92 53.4347 317.143 52.2467C314.776 51.5042 312.408 51.0587 309.941 50.6131C308.279 50.3656 306.516 49.7716 305.307 48.5836C304.048 47.3461 303.897 45.4651 304.753 43.9306C305.358 42.9405 306.314 42.099 307.12 41.208C308.06 40.185 309.017 39.1785 309.991 38.1885C312.509 35.4824 315.011 32.7929 317.495 30.1199C311.284 30.9779 305.072 31.8524 298.861 32.7434C296.544 33.0404 295.537 29.5754 297.904 29.2784Z" fill="#FFBB4D"/>
<path d="M225.836 273.663C225.769 273.861 225.702 274.076 225.635 274.307C225.534 274.752 225.182 275.099 224.779 275.297C224.074 276.237 222.462 276.584 221.656 275.297C220.699 273.663 218.987 272.426 217.224 271.733C214.807 270.792 212.238 270.545 209.67 270.396C208.209 270.297 207.101 268.416 208.411 267.327C211.533 264.605 215.764 264.555 219.642 265.496C221.455 265.941 223.872 266.337 225.081 267.971C225.635 268.713 225.836 269.703 225.836 270.693C225.836 271.188 225.736 271.782 225.635 272.327C225.887 272.673 225.987 273.119 225.836 273.663Z" fill="#36174D"/>
<path fill-rule="evenodd" clip-rule="evenodd" d="M212.336 300.641C204.026 300.641 197.277 294.058 197.277 285.94C197.277 277.822 204.026 271.188 212.336 271.188C220.646 271.188 227.395 277.822 227.395 285.94C227.395 294.058 220.646 300.641 212.336 300.641ZM212.336 274.802C206.041 274.802 200.954 279.802 200.954 285.94C200.954 292.078 206.041 297.028 212.336 297.028C218.632 297.028 223.769 292.078 223.769 285.94C223.769 279.802 218.632 274.802 212.336 274.802Z" fill="white"/>
<path d="M223.519 314.006C218.836 315.145 213.648 314.254 209.77 311.432C208.964 310.838 208.561 309.848 209.115 308.957C209.569 308.165 210.828 307.72 211.634 308.314C213.346 309.551 214.907 310.244 216.972 310.69C218.685 311.036 220.8 310.987 222.562 310.541C223.519 310.343 224.527 310.838 224.829 311.828C225.081 312.719 224.476 313.808 223.519 314.006Z" fill="#EE796A"/>
<path d="M236.11 295.543C235.304 296.038 233.995 295.741 233.592 294.899C233.491 294.701 233.441 294.553 233.189 294.256C233.088 294.124 232.987 294.008 232.887 293.909C232.836 293.86 232.736 293.81 232.585 293.662C232.484 293.629 232.4 293.579 232.333 293.513C232.282 293.464 232.182 293.464 231.98 293.365C231.913 293.332 231.829 293.299 231.728 293.266C231.628 293.266 231.527 293.216 231.376 293.167C231.275 293.167 231.124 293.167 231.074 293.167C230.973 293.134 230.872 293.117 230.771 293.117C230.57 293.117 230.368 293.117 230.167 293.117C229.731 293.15 229.311 293.183 228.908 293.216C227.951 293.266 227.045 293.266 226.088 293.117C225.08 292.969 224.577 291.781 224.778 290.89C224.879 290.493 225.231 290.048 225.634 289.85C226.088 289.553 226.541 289.602 227.045 289.652C226.642 289.602 227.045 289.652 227.095 289.652C227.229 289.652 227.363 289.652 227.498 289.652C227.733 289.652 227.968 289.652 228.203 289.652C228.639 289.619 229.093 289.602 229.563 289.602C230.57 289.503 231.577 289.553 232.585 289.8C234.347 290.196 235.959 291.484 236.765 293.068C237.218 294.008 236.966 294.998 236.11 295.543Z" fill="white"/>
</svg>
