<svg width="24" height="24" viewBox="0 0 24 24" fill="none" xmlns="http://www.w3.org/2000/svg">
<g clip-path="url(#clip0_15351_7605)">
<mask id="mask0_15351_7605" style="mask-type:luminance" maskUnits="userSpaceOnUse" x="0" y="0" width="24" height="24">
<path d="M24 0H0V24H24V0Z" fill="white"/>
</mask>
<g mask="url(#mask0_15351_7605)">
<path d="M0.720057 -0.0170397C0.779923 -0.0175039 0.839791 -0.0179682 0.901471 -0.0184466C0.967471 -0.0182479 1.03347 -0.0180343 1.09947 -0.0178071C1.16924 -0.0180745 1.23902 -0.018401 1.30879 -0.018782C1.49804 -0.0196228 1.68727 -0.0195677 1.87652 -0.0193004C2.03459 -0.0191554 2.19267 -0.019441 2.35075 -0.019724C2.72371 -0.0203824 3.09667 -0.0203092 3.46963 -0.0197755C3.85421 -0.0192373 4.23876 -0.0198971 4.62334 -0.0211535C4.95372 -0.0221923 5.2841 -0.0225032 5.61449 -0.022228C5.81172 -0.0220701 6.00895 -0.0221833 6.20618 -0.0229898C6.39168 -0.0237153 6.57715 -0.0235293 6.76265 -0.0226473C6.83061 -0.0224746 6.89861 -0.0226201 6.9666 -0.0231107C7.05957 -0.0237304 7.15255 -0.0230754 7.24553 -0.0223611C7.29751 -0.0223514 7.34949 -0.0223415 7.40304 -0.0223314C7.62955 0.0142647 7.76978 0.117816 7.91625 0.291419C7.99212 0.476656 7.98998 0.642496 7.98883 0.840916C7.98914 0.883036 7.98945 0.925156 7.98979 0.968553C7.99065 1.1097 7.99053 1.25082 7.99041 1.39197C7.99085 1.49314 7.99133 1.59431 7.99185 1.69548C7.99315 1.97022 7.99358 2.24496 7.99387 2.51969C7.9943 2.8068 7.99553 3.09389 7.99668 3.38098C7.99874 3.92465 8.00006 4.46832 8.00114 5.01202C8.00241 5.63098 8.00448 6.24991 8.00659 6.86885C8.01096 8.14212 8.01432 9.41537 8.01703 10.6886C8.18414 10.5923 8.35125 10.496 8.51834 10.3997C8.57503 10.367 8.63172 10.3343 8.68843 10.3016C9.08347 10.074 9.47721 9.84444 9.86858 9.61051C10.3309 9.33535 10.7957 9.06492 11.2622 8.79696C11.6807 8.55619 12.0959 8.31031 12.5108 8.06345C12.933 7.81263 13.3579 7.56672 13.7837 7.32221C14.1197 7.12913 14.4527 6.93204 14.7829 6.72953C15.0233 6.59043 15.2455 6.58613 15.517 6.61051C15.6919 6.68655 15.8136 6.79541 15.9389 6.93864C15.994 7.10395 15.994 7.25446 15.9954 7.42656C15.9959 7.46177 15.9963 7.497 15.9968 7.53329C15.9983 7.64971 15.9995 7.76611 16.0006 7.88254C16.0016 7.96327 16.0025 8.04399 16.0036 8.1247C16.0061 8.33717 16.0085 8.54962 16.0107 8.76209C16.0131 8.97888 16.0157 9.19567 16.0183 9.41249C16.0233 9.83787 16.0281 10.2632 16.0326 10.6886C16.9614 10.1547 16.9614 10.1547 17.8842 9.61051C18.3465 9.33535 18.8113 9.06492 19.2778 8.79696C19.6963 8.55619 20.1116 8.31031 20.5265 8.06345C20.9487 7.81263 21.3735 7.56672 21.7994 7.32221C22.1353 7.12913 22.4683 6.93204 22.7986 6.72953C23.039 6.59043 23.2611 6.58613 23.5326 6.61051C23.7075 6.68655 23.8292 6.79541 23.9545 6.93864C24.0045 7.08867 24.0074 7.19573 24.0076 7.35346C24.0079 7.41103 24.0081 7.46863 24.0083 7.52796C24.0083 7.59219 24.0083 7.65643 24.0083 7.72068C24.0083 7.78865 24.0086 7.85664 24.0088 7.92461C24.0093 8.11188 24.0095 8.29915 24.0095 8.48643C24.0098 8.68819 24.0103 8.88999 24.0105 9.09178C24.0115 9.57929 24.0119 10.0668 24.0124 10.5543C24.0127 10.7838 24.0129 11.0132 24.0131 11.2427C24.0139 12.0052 24.0146 12.7677 24.0151 13.5302C24.0151 13.7281 24.0151 13.9261 24.0153 14.124C24.0153 14.1732 24.0153 14.2224 24.0153 14.273C24.0158 15.0703 24.017 15.8677 24.0184 16.665C24.0199 17.4831 24.0208 18.3013 24.0208 19.1195C24.0211 19.579 24.0215 20.0385 24.0227 20.4981C24.0237 20.8894 24.0239 21.2806 24.0237 21.6719C24.0235 21.8716 24.0235 22.0712 24.0244 22.2709C24.0251 22.4537 24.0251 22.6365 24.0244 22.8192C24.0244 22.8854 24.0244 22.9515 24.0251 23.0177C24.0295 23.5732 24.0295 23.5732 23.9209 23.7523C23.7268 23.9486 23.5801 24.0168 23.3003 24.0199C23.2638 24.0197 23.2274 24.0192 23.1898 24.0189C23.1505 24.0192 23.1113 24.0194 23.0708 24.0197C22.9385 24.0201 22.8064 24.0197 22.6741 24.0194C22.5786 24.0194 22.4831 24.0197 22.3876 24.0201C22.1246 24.0209 21.8617 24.0206 21.5987 24.0201C21.3154 24.0199 21.0319 24.0206 20.7485 24.0211C20.2253 24.0218 19.7021 24.0218 19.1788 24.0216C18.6954 24.0216 18.212 24.0216 17.7287 24.0218C17.6639 24.0218 17.5991 24.0218 17.5342 24.0218C17.4366 24.0218 17.3389 24.0221 17.2413 24.0221C16.3333 24.0225 15.4253 24.0228 14.5172 24.0223C14.483 24.0223 14.4488 24.0223 14.4135 24.0223C14.1354 24.0223 13.8574 24.0221 13.5793 24.0221C12.4945 24.0216 11.4098 24.0218 10.325 24.023C9.10668 24.0242 7.88834 24.0249 6.67001 24.0245C6.54014 24.0245 6.41028 24.0245 6.28041 24.0245C6.24845 24.0245 6.21648 24.0245 6.18353 24.0245C5.70045 24.0242 5.21736 24.0247 4.73429 24.0252C4.18502 24.0259 3.63576 24.0259 3.0865 24.0252C2.80613 24.0247 2.52576 24.0247 2.24537 24.0254C1.98887 24.0261 1.73239 24.0259 1.4759 24.0249C1.38294 24.0247 1.28998 24.0249 1.19702 24.0254C1.07095 24.0259 0.944932 24.0254 0.818865 24.0247C0.78252 24.0249 0.746176 24.0254 0.708729 24.0259C0.465871 24.0228 0.326162 23.9715 0.142023 23.8136C-0.0186145 23.6201 -0.0185232 23.4312 -0.0164296 23.1896C-0.0167573 23.1307 -0.0167573 23.1307 -0.0170916 23.0705C-0.0176538 22.9383 -0.0172105 22.8061 -0.0167748 22.6739C-0.0169703 22.5783 -0.017227 22.4828 -0.0175398 22.3873C-0.0182197 22.1244 -0.0180176 21.8614 -0.0176726 21.5985C-0.0174515 21.3151 -0.0180366 21.0317 -0.0185172 20.7483C-0.0192777 20.225 -0.0193903 19.7018 -0.0191591 19.1785C-0.0189456 18.6952 -0.0189734 18.2118 -0.0192454 17.7284C-0.0192808 17.6636 -0.0193163 17.5988 -0.0193517 17.534C-0.0194054 17.4363 -0.0194593 17.3387 -0.0195138 17.241C-0.0200157 16.333 -0.020237 15.425 -0.0198668 14.517C-0.0198529 14.4827 -0.019839 14.4485 -0.0198246 14.4132C-0.0197098 14.1352 -0.0195873 13.8571 -0.0194644 13.579C-0.0189908 12.4943 -0.0193825 11.4095 -0.0204719 10.3248C-0.0216936 9.10642 -0.0222965 7.88808 -0.0219632 6.66972C-0.0219296 6.53988 -0.021898 6.41002 -0.0218675 6.28015C-0.0218595 6.24819 -0.0218516 6.21619 -0.0218434 6.18327C-0.0217353 5.70017 -0.0221098 5.2171 -0.0227249 4.73403C-0.0234231 4.18476 -0.0234469 3.6355 -0.0226277 3.08623C-0.0222275 2.80587 -0.0221316 2.52547 -0.0228459 2.24511C-0.0234913 1.98861 -0.0232765 1.73213 -0.0223659 1.47563C-0.0221885 1.38267 -0.0223299 1.28971 -0.0228164 1.19675C-0.0234296 1.07068 -0.0228946 0.944668 -0.0220666 0.818601C-0.0225189 0.782255 -0.0229714 0.74591 -0.0234375 0.708465C-0.0201525 0.465981 0.036064 0.32871 0.188898 0.141758C0.365558 0.00288091 0.498062 -0.016553 0.720057 -0.0170397ZM1.40765 1.40738C1.40765 1.71676 1.40765 2.02613 1.40765 2.34488C3.1092 2.34488 4.81077 2.34488 6.5639 2.34488C6.5639 2.03551 6.5639 1.72613 6.5639 1.40738C4.86233 1.40738 3.16078 1.40738 1.40765 1.40738ZM1.40765 3.75113C1.40765 9.96958 1.40765 16.188 1.40765 22.5949C8.39952 22.5949 15.3914 22.5949 22.5951 22.5949C22.5951 17.9697 22.5951 13.3446 22.5951 8.57926C22.2179 8.78503 21.8431 8.99302 21.4701 9.20621C21.442 9.22229 21.4138 9.23837 21.3848 9.25493C20.9105 9.52603 20.4399 9.8029 19.9705 10.0825C19.6127 10.2953 19.2531 10.5047 18.892 10.7121C18.476 10.951 18.0622 11.1933 17.6498 11.4386C17.2168 11.6961 16.7824 11.9512 16.3461 12.2033C16.2698 12.2475 16.2698 12.2475 16.192 12.2925C16.1444 12.3199 16.0968 12.3474 16.0478 12.3756C16.0063 12.3995 15.9648 12.4235 15.922 12.4482C15.5517 12.6535 15.301 12.7115 14.8842 12.6222C14.767 12.5636 14.767 12.5636 14.7055 12.4728C14.6377 12.2696 14.6185 12.0969 14.6168 11.8839C14.6163 11.8482 14.6159 11.8125 14.6154 11.7758C14.6139 11.6579 14.6127 11.5399 14.6116 11.422C14.6106 11.3402 14.6096 11.2584 14.6086 11.1767C14.606 10.9614 14.6037 10.7462 14.6015 10.531C14.5991 10.3113 14.5965 10.0917 14.5939 9.87207C14.5889 9.44115 14.5841 9.0102 14.5795 8.57926C14.2022 8.78436 13.8274 8.99309 13.4545 9.20621C13.4264 9.22229 13.3982 9.23837 13.3692 9.25493C12.8949 9.52603 12.4243 9.8029 11.9549 10.0825C11.5971 10.2953 11.2374 10.5047 10.8764 10.7121C10.4604 10.951 10.0465 11.1933 9.6342 11.4386C9.20114 11.6961 8.76677 11.9512 8.33049 12.2033C8.25417 12.2475 8.25417 12.2475 8.17632 12.2925C8.10499 12.3337 8.10499 12.3337 8.03222 12.3756C7.99068 12.3995 7.94916 12.4235 7.90637 12.4482C7.53612 12.6535 7.28534 12.7115 6.86858 12.6222C6.75139 12.5636 6.75139 12.5636 6.68988 12.4728C6.6233 12.2731 6.60365 12.1057 6.60336 11.8965C6.603 11.8443 6.603 11.8443 6.60266 11.7912C6.60194 11.6743 6.60153 11.5575 6.60115 11.4407C6.60069 11.3571 6.60024 11.2735 6.59973 11.1899C6.59846 10.9626 6.59748 10.7353 6.59654 10.508C6.59553 10.2706 6.59424 10.0332 6.59299 9.79575C6.59064 9.34603 6.58855 8.89632 6.58651 8.44659C6.58377 7.83898 6.58065 7.23137 6.57758 6.62376C6.57271 5.66621 6.56834 4.70868 6.5639 3.75113C4.86233 3.75113 3.16078 3.75113 1.40765 3.75113Z" fill="#026BCD"/>
<path d="M15.4012 15.5097C15.4319 15.5094 15.4625 15.5092 15.4941 15.509C15.5955 15.5083 15.6968 15.508 15.7982 15.5077C15.8688 15.5074 15.9394 15.5072 16.01 15.5069C16.158 15.5064 16.3061 15.5061 16.4541 15.506C16.6434 15.5057 16.8327 15.5046 17.022 15.5032C17.1678 15.5024 17.3137 15.5021 17.4595 15.5021C17.5293 15.5019 17.5991 15.5015 17.6688 15.5009C17.7667 15.5001 17.8644 15.5002 17.9623 15.5005C18.0456 15.5003 18.0456 15.5003 18.1307 15.5C18.3653 15.5263 18.5167 15.6034 18.6742 15.778C18.8034 15.9645 18.8067 16.0701 18.8085 16.2977C18.8088 16.3297 18.8091 16.3617 18.8094 16.3947C18.8104 16.5009 18.8109 16.6071 18.8114 16.7133C18.8116 16.7495 18.8118 16.7858 18.812 16.8232C18.8129 17.0153 18.8136 17.2074 18.8141 17.3995C18.8146 17.5977 18.8162 17.7959 18.818 17.9941C18.8193 18.1466 18.8196 18.2992 18.8198 18.4518C18.8201 18.5248 18.8206 18.5978 18.8215 18.6709C18.8226 18.7733 18.8226 18.8757 18.8222 18.9782C18.8225 19.0364 18.8228 19.0946 18.8231 19.1546C18.7903 19.383 18.6878 19.5294 18.516 19.6803C18.3374 19.7898 18.1854 19.7892 17.9805 19.7904C17.9498 19.7906 17.9192 19.7909 17.8876 19.7911C17.7862 19.7918 17.6848 19.7921 17.5835 19.7924C17.5129 19.7926 17.4423 19.7929 17.3717 19.7932C17.2237 19.7937 17.0756 19.7939 16.9276 19.7941C16.7383 19.7944 16.549 19.7955 16.3597 19.7968C16.2138 19.7977 16.068 19.7979 15.9221 19.798C15.8524 19.7982 15.7826 19.7985 15.7128 19.7991C15.615 19.8 15.5172 19.7999 15.4194 19.7996C15.3638 19.7997 15.3082 19.7999 15.251 19.8001C15.0164 19.7738 14.865 19.6967 14.7074 19.5221C14.5783 19.3355 14.575 19.23 14.5732 19.0024C14.5728 18.9704 14.5725 18.9384 14.5722 18.9054C14.5713 18.7992 14.5708 18.693 14.5703 18.5868C14.5701 18.5505 14.5699 18.5142 14.5697 18.4769C14.5687 18.2847 14.5681 18.0926 14.5676 17.9006C14.5671 17.7024 14.5655 17.5042 14.5636 17.306C14.5624 17.1534 14.562 17.0009 14.5618 16.8483C14.5616 16.7753 14.5611 16.7022 14.5602 16.6292C14.559 16.5267 14.5591 16.4244 14.5594 16.3219C14.5591 16.2637 14.5589 16.2055 14.5586 16.1455C14.5913 15.917 14.6939 15.7707 14.8656 15.6198C15.0443 15.5103 15.1963 15.5108 15.4012 15.5097ZM15.9877 16.9703C15.9877 17.4189 15.9877 17.8675 15.9877 18.3297C16.4518 18.3297 16.9158 18.3297 17.394 18.3297C17.394 17.8811 17.394 17.4325 17.394 16.9703C16.9299 16.9703 16.4658 16.9703 15.9877 16.9703Z" fill="#026BCD"/>
<path d="M7.38556 15.5097C7.41621 15.5094 7.44688 15.5092 7.47846 15.509C7.57982 15.5083 7.68119 15.508 7.78257 15.5077C7.85315 15.5074 7.92374 15.5072 7.99432 15.5069C8.14238 15.5064 8.29041 15.5061 8.43846 15.506C8.62775 15.5057 8.81704 15.5046 9.00635 15.5032C9.1522 15.5024 9.29805 15.5021 9.44392 15.5021C9.51366 15.5019 9.58343 15.5015 9.6532 15.5009C9.75102 15.5001 9.84882 15.5002 9.94665 15.5005C10.03 15.5003 10.03 15.5003 10.1151 15.5C10.3496 15.5263 10.501 15.6034 10.6586 15.778C10.7878 15.9645 10.7911 16.0701 10.7929 16.2977C10.7932 16.3297 10.7935 16.3617 10.7938 16.3947C10.7947 16.5009 10.7953 16.6071 10.7957 16.7133C10.7959 16.7495 10.7961 16.7858 10.7963 16.8232C10.7973 17.0153 10.798 17.2074 10.7984 17.3995C10.7989 17.5977 10.8005 17.7959 10.8024 17.9941C10.8036 18.1466 10.804 18.2992 10.8042 18.4518C10.8044 18.5248 10.805 18.5978 10.8058 18.6709C10.807 18.7733 10.8069 18.8757 10.8066 18.9782C10.8069 19.0364 10.8071 19.0946 10.8074 19.1546C10.7747 19.383 10.6721 19.5294 10.5004 19.6803C10.3218 19.7898 10.1698 19.7892 9.96484 19.7904C9.93419 19.7906 9.90352 19.7909 9.87194 19.7911C9.77058 19.7918 9.66921 19.7921 9.56783 19.7924C9.49725 19.7926 9.42666 19.7929 9.35608 19.7932C9.20802 19.7937 9.05999 19.7939 8.91194 19.7941C8.72265 19.7944 8.53336 19.7955 8.34405 19.7968C8.1982 19.7977 8.05235 19.7979 7.90648 19.798C7.83674 19.7982 7.76697 19.7985 7.6972 19.7991C7.59938 19.8 7.50158 19.7999 7.40375 19.7996C7.34817 19.7997 7.29261 19.7999 7.23534 19.8001C7.00077 19.7738 6.84935 19.6967 6.69179 19.5221C6.56265 19.3355 6.55934 19.23 6.55754 19.0024C6.55722 18.9704 6.55691 18.9384 6.5566 18.9054C6.55566 18.7992 6.55511 18.693 6.55466 18.5868C6.55446 18.5505 6.55427 18.5142 6.55408 18.4769C6.5531 18.2847 6.55242 18.0926 6.55199 17.9006C6.55146 17.7024 6.54986 17.5042 6.54801 17.306C6.54676 17.1534 6.54638 17.0009 6.54621 16.8483C6.54599 16.7753 6.54544 16.7022 6.54458 16.6292C6.54342 16.5267 6.54347 16.4244 6.54378 16.3219C6.54352 16.2637 6.54326 16.2055 6.54297 16.1455C6.5757 15.917 6.67826 15.7707 6.85 15.6198C7.02863 15.5103 7.18062 15.5108 7.38556 15.5097ZM7.97207 16.9703C7.97207 17.4189 7.97207 17.8675 7.97207 18.3297C8.43614 18.3297 8.9002 18.3297 9.37833 18.3297C9.37833 17.8811 9.37833 17.4325 9.37833 16.9703C8.91426 16.9703 8.4502 16.9703 7.97207 16.9703Z" fill="#026BCD"/>
</g>
</g>
<defs>
<clipPath id="clip0_15351_7605">
<rect width="24" height="24" fill="white"/>
</clipPath>
</defs>
</svg>
