<svg width="119" height="100" viewBox="0 0 119 100" fill="none" xmlns="http://www.w3.org/2000/svg">
<g style="mix-blend-mode:multiply">
<path d="M109.632 50.847C106.564 48.7321 102.995 47.4573 99.2809 47.1493C95.5669 46.8414 91.8369 47.511 88.4619 49.0916L84.0418 51.3069L81.507 52.5743L62.1236 8.6889C61.0013 6.14706 59.1758 3.97895 56.8623 2.44001C54.5488 0.901059 51.8437 0.0553869 49.0655 0.00262874C46.2874 -0.0501295 43.5521 0.692216 41.1819 2.14222C38.8116 3.59221 36.9051 5.68946 35.6871 8.18686L1.71973 74.9138L1.646 75.0613C0.156992 78.1638 -0.338311 81.6503 0.227683 85.0447C0.793678 88.4392 2.3934 91.5764 4.80849 94.028C7.22359 96.4795 10.3364 98.1261 13.722 98.7429C17.1076 99.3597 20.6011 98.9167 23.7256 97.4744L23.831 97.4253L74.5274 71.9787L81.7562 88.3568C84.8914 95.4557 91.5866 99.7424 99.0401 99.7424C100.217 99.7397 101.392 99.6339 102.551 99.4264C111.377 97.8431 117.676 90.7687 118.223 81.8161L118.954 69.9249C119.199 66.2081 118.468 62.4918 116.833 59.145C115.198 55.7982 112.715 52.9375 109.632 50.847ZM17.6835 84.5861C17.2231 84.78 16.7149 84.8307 16.2253 84.7316C15.7357 84.6324 15.2873 84.388 14.9386 84.0302C14.5899 83.6724 14.3572 83.2179 14.2706 82.7259C14.1841 82.2338 14.2478 81.7272 14.4535 81.2719L48.4033 14.5485L48.477 14.401C48.5062 14.3426 48.551 14.2935 48.6065 14.2591C48.662 14.2248 48.726 14.2066 48.7913 14.2066C48.8565 14.2066 48.9205 14.2248 48.976 14.2591C49.0315 14.2935 49.0763 14.3426 49.1055 14.401L68.7661 58.943L17.6835 84.5861ZM104.752 69.0647L104.025 80.9559C103.815 84.3825 101.175 85.2216 100.048 85.4217C98.9207 85.6218 96.1542 85.7728 94.7814 82.613L87.2647 65.5925L89.9505 64.2479L94.5146 61.9553C95.6598 61.4457 96.9169 61.2397 98.1648 61.3573C99.4127 61.4748 100.609 61.9118 101.639 62.6263C102.669 63.3408 103.498 64.3085 104.045 65.4362C104.592 66.564 104.839 67.8136 104.763 69.0647H104.752Z" fill="url(#paint0_linear_6309_66)"/>
</g>
<path style="mix-blend-mode:multiply" opacity="0.35" d="M91.456 63.4965L87.264 65.596L81.5098 52.5603L85.3296 50.6504L91.456 63.4965Z" fill="url(#paint1_linear_6309_66)"/>
<path style="mix-blend-mode:multiply" opacity="0.35" d="M74.5246 71.9879L68.7668 58.9521L64.1816 61.2517L70.4239 74.0452L74.5246 71.9879Z" fill="url(#paint2_linear_6309_66)"/>
<defs>
<linearGradient id="paint0_linear_6309_66" x1="0.249823" y1="49.2392" x2="119.172" y2="50.2355" gradientUnits="userSpaceOnUse">
<stop stop-color="#026BCD"/>
<stop offset="1" stop-color="#026BCD"/>
</linearGradient>
<linearGradient id="paint1_linear_6309_66" x1="88.7316" y1="56.9874" x2="84.1288" y2="59.1326" gradientUnits="userSpaceOnUse">
<stop stop-color="#026BCD" stop-opacity="0"/>
<stop offset="1" stop-color="#026BCD"/>
</linearGradient>
<linearGradient id="paint2_linear_6309_66" x1="67.5099" y1="67.5291" x2="70.9049" y2="65.8509" gradientUnits="userSpaceOnUse">
<stop stop-color="#026BCD" stop-opacity="0"/>
<stop offset="1" stop-color="#026BCD"/>
</linearGradient>
</defs>
</svg>
