<svg width="50" height="50" viewBox="0 0 50 50" fill="none" xmlns="http://www.w3.org/2000/svg">
<g clip-path="url(#clip0_127_549)">
<path d="M22 25C22 25.7956 22.3161 26.5587 22.8787 27.1213C23.4413 27.6839 24.2044 28 25 28C25.7956 28 26.5587 27.6839 27.1213 27.1213C27.6839 26.5587 28 25.7956 28 25C28 24.2044 27.6839 23.4413 27.1213 22.8787C26.5587 22.3161 25.7956 22 25 22C24.2044 22 23.4413 22.3161 22.8787 22.8787C22.3161 23.4413 22 24.2044 22 25Z" stroke="#0C253D" stroke-width="1.5" stroke-linecap="round" stroke-linejoin="round"/>
<path d="M25.0007 14.5833C22.9404 14.5833 20.9265 15.1942 19.2135 16.3388C17.5005 17.4834 16.1653 19.1102 15.3769 21.0136C14.5885 22.917 14.3822 25.0115 14.7841 27.0321C15.1861 29.0527 16.1782 30.9088 17.635 32.3656C19.0918 33.8224 20.9478 34.8145 22.9685 35.2164C24.9891 35.6184 27.0835 35.4121 28.9869 34.6237C30.8903 33.8353 32.5172 32.5001 33.6618 30.7871C34.8064 29.0741 35.4173 27.0601 35.4173 24.9999" stroke="#0C253D" stroke-width="1.5" stroke-linecap="round" stroke-linejoin="round"/>
<path d="M27.0826 6.36447C23.2203 5.93116 19.3187 6.7088 15.9176 8.58983C12.5165 10.4709 9.78404 13.3623 8.09811 16.8642C6.41218 20.3661 5.85614 24.3053 6.50691 28.137C7.15767 31.9688 8.98307 35.5036 11.7306 38.2525C14.4782 41.0014 18.012 42.8286 21.8434 43.4813C25.6748 44.134 29.6144 43.5799 33.1171 41.8958C36.6198 40.2116 39.5126 37.4806 41.3954 34.0804C43.2781 30.6803 44.0577 26.7791 43.6264 22.9166" stroke="#0C253D" stroke-width="1.5" stroke-linecap="round" stroke-linejoin="round"/>
<path d="M31.25 12.5V18.75H37.5L43.75 12.5H37.5V6.25L31.25 12.5Z" fill="#F7B019" stroke="#0C253D" stroke-width="1.5" stroke-linecap="round" stroke-linejoin="round"/>
<path d="M31.25 18.75L25 25" stroke="#0C253D" stroke-width="1.5" stroke-linecap="round" stroke-linejoin="round"/>
</g>
<defs>
<clipPath id="clip0_127_549">
<rect width="50" height="50" fill="white"/>
</clipPath>
</defs>
</svg>
