<svg width="81" height="75" viewBox="0 0 81 75" fill="none" xmlns="http://www.w3.org/2000/svg">
<ellipse cx="33.1564" cy="41.3085" rx="29.4767" ry="29.2875" fill="#FFF8E8"/>
<ellipse cx="47.4454" cy="32.4335" rx="29.4767" ry="29.2875" fill="#FCF0D7"/>
<path d="M77.8203 14.6836L78.8284 16.3445L80.5 17.3461L78.8284 18.3477L77.8203 20.0086L76.8123 18.3477L75.1406 17.3461L76.8123 16.3445L77.8203 14.6836Z" fill="#FCEDCD"/>
<path d="M19.641 8.213L21.5798 8.4383L23.4005 7.73858L23.1737 9.66499L23.8779 11.4739L21.9391 11.2486L20.1185 11.9483L20.3452 10.0219L19.641 8.213Z" fill="#FCEDCD"/>
<path d="M15.2891 68.8213L16.2971 70.4822L17.9688 71.4838L16.2971 72.4854L15.2891 74.1463L14.281 72.4854L12.6094 71.4838L14.281 70.4822L15.2891 68.8213Z" fill="#FCEDCD"/>
<path d="M62.0556 70.6296C61.9068 70.1858 61.9663 69.2983 63.3955 69.2983" stroke="#FCEDCD"/>
<path d="M1.05563 54.1774C0.906758 53.7337 0.966307 52.8462 2.39548 52.8462" stroke="#FCEDCD"/>
<path d="M79.6572 46.1901C79.5083 45.7464 79.5679 44.8589 80.997 44.8589" stroke="#FCEDCD"/>
<path d="M2.05563 24.4772C1.90676 24.0335 1.96631 23.146 3.39548 23.146" stroke="#FCEDCD"/>
<path d="M52.472 1.31526C52.0648 1.54596 51.1822 1.65661 50.9099 0.253623" stroke="#FCEDCD"/>
<path d="M15.8067 30.2138L14.8047 23.875L22.7637 20.827L25.8575 12.9857L34.2972 14.2667L40.956 9L47.6149 14.2667L56.0545 12.9857L59.1484 20.827L67.1074 23.875L66.1048 30.2138M15.8971 46.825L14.8047 53.625L22.7637 56.673L25.8575 64.5142L34.2972 63.2333L40.956 68.4999L47.6149 63.2333L56.0545 64.5142L59.1484 56.673L67.1074 53.625L66.0038 46.825" stroke="#0F3656" stroke-width="2"/>
<path d="M28.8903 21.7747C26.0649 23.8317 22.9566 27.9575 21.5 31.1624M30.6299 20.6387C33.6581 18.8738 37.1856 17.8618 40.9512 17.8618C49.236 17.8618 56.8014 23.6248 60 30.6624M22.5 46.6624C25.868 53.2512 32.9969 58.3724 40.9512 58.3724C48.9056 58.3724 56.132 53.2512 59.5 46.6624" stroke="#0F3656" stroke-width="2"/>
<rect x="13" y="31.3374" width="56.2477" height="14.9956" rx="2" fill="#FCEDCD" stroke="#F7B019" stroke-width="2"/>
<rect x="45.9844" y="22.3105" width="1.6766" height="1.66383" fill="#F7B019"/>
<rect x="48.4961" y="23.9741" width="1.6766" height="1.66383" fill="#F7B019"/>
<path d="M20.026 41.813V35.513H22.744C23.446 35.513 23.989 35.654 24.373 35.936C24.763 36.218 24.958 36.617 24.958 37.133C24.958 37.475 24.877 37.763 24.715 37.997C24.559 38.231 24.343 38.408 24.067 38.528C23.797 38.648 23.5 38.708 23.176 38.708L23.329 38.492C23.731 38.492 24.076 38.555 24.364 38.681C24.658 38.801 24.886 38.984 25.048 39.23C25.21 39.47 25.291 39.77 25.291 40.13C25.291 40.664 25.093 41.078 24.697 41.372C24.307 41.666 23.716 41.813 22.924 41.813H20.026ZM20.692 41.264H22.915C23.467 41.264 23.89 41.171 24.184 40.985C24.478 40.793 24.625 40.49 24.625 40.076C24.625 39.668 24.478 39.371 24.184 39.185C23.89 38.993 23.467 38.897 22.915 38.897H20.62V38.348H22.699C23.203 38.348 23.593 38.252 23.869 38.06C24.151 37.868 24.292 37.583 24.292 37.205C24.292 36.821 24.151 36.536 23.869 36.35C23.593 36.158 23.203 36.062 22.699 36.062H20.692V41.264ZM29.1666 41.813V35.513H31.5246C32.0586 35.513 32.5176 35.6 32.9016 35.774C33.2856 35.942 33.5796 36.188 33.7836 36.512C33.9936 36.83 34.0986 37.217 34.0986 37.673C34.0986 38.117 33.9936 38.501 33.7836 38.825C33.5796 39.143 33.2856 39.389 32.9016 39.563C32.5176 39.731 32.0586 39.815 31.5246 39.815H29.5356L29.8326 39.509V41.813H29.1666ZM33.4686 41.813L31.8486 39.527H32.5686L34.1976 41.813H33.4686ZM29.8326 39.563L29.5356 39.248H31.5066C32.1366 39.248 32.6136 39.11 32.9376 38.834C33.2676 38.558 33.4326 38.171 33.4326 37.673C33.4326 37.169 33.2676 36.779 32.9376 36.503C32.6136 36.227 32.1366 36.089 31.5066 36.089H29.5356L29.8326 35.774V39.563ZM37.018 41.813L39.898 35.513H40.555L43.435 41.813H42.733L40.087 35.9H40.357L37.711 41.813H37.018ZM38.152 40.13L38.35 39.59H42.013L42.211 40.13H38.152ZM46.8326 41.813V35.513H47.3816L51.7286 40.985H51.4406V35.513H52.0976V41.813H51.5486L47.2106 36.341H47.4986V41.813H46.8326ZM56.5094 41.813V35.513H59.0744C59.7464 35.513 60.3344 35.648 60.8384 35.918C61.3484 36.182 61.7444 36.551 62.0264 37.025C62.3084 37.499 62.4494 38.045 62.4494 38.663C62.4494 39.281 62.3084 39.827 62.0264 40.301C61.7444 40.775 61.3484 41.147 60.8384 41.417C60.3344 41.681 59.7464 41.813 59.0744 41.813H56.5094ZM57.1754 41.237H59.0384C59.5964 41.237 60.0794 41.129 60.4874 40.913C60.9014 40.691 61.2224 40.388 61.4504 40.004C61.6784 39.614 61.7924 39.167 61.7924 38.663C61.7924 38.153 61.6784 37.706 61.4504 37.322C61.2224 36.938 60.9014 36.638 60.4874 36.422C60.0794 36.2 59.5964 36.089 59.0384 36.089H57.1754V41.237Z" fill="#0F3656"/>
</svg>
