<svg width="81" height="75" viewBox="0 0 81 75" fill="none" xmlns="http://www.w3.org/2000/svg">
<ellipse cx="33.1564" cy="41.3085" rx="29.4767" ry="29.2875" fill="#FFF8E8"/>
<ellipse cx="47.4454" cy="32.4335" rx="29.4767" ry="29.2875" fill="#FCF0D7"/>
<path d="M77.8203 14.6836L78.8284 16.3445L80.5 17.3461L78.8284 18.3477L77.8203 20.0086L76.8123 18.3477L75.1406 17.3461L76.8123 16.3445L77.8203 14.6836Z" fill="#FCF0D7"/>
<path d="M19.641 8.213L21.5798 8.4383L23.4005 7.73858L23.1737 9.66499L23.8779 11.4739L21.9391 11.2486L20.1185 11.9483L20.3452 10.0219L19.641 8.213Z" fill="#FCF0D7"/>
<path d="M15.2891 68.8213L16.2971 70.4822L17.9688 71.4838L16.2971 72.4854L15.2891 74.1463L14.281 72.4854L12.6094 71.4838L14.281 70.4822L15.2891 68.8213Z" fill="#FCF0D7"/>
<path d="M62.0556 70.6296C61.9068 70.1858 61.9663 69.2983 63.3955 69.2983" stroke="#FCF0D7"/>
<path d="M1.05563 54.1774C0.906758 53.7337 0.966307 52.8462 2.39548 52.8462" stroke="#FCF0D7"/>
<path d="M79.6572 46.1901C79.5083 45.7464 79.5679 44.8589 80.997 44.8589" stroke="#FCF0D7"/>
<path d="M2.05563 24.4772C1.90676 24.0335 1.96631 23.146 3.39548 23.146" stroke="#FCF0D7"/>
<path d="M52.472 1.31526C52.0648 1.54596 51.1822 1.65661 50.9099 0.253623" stroke="#FCF0D7"/>
<path d="M37.5677 6.78906L27.5129 16.7861M11.375 32.8313L21.2419 23.0211" stroke="#0F3656" stroke-width="2" stroke-linecap="round"/>
<path d="M61.4348 44.8786L67.2576 47.6735C67.8801 47.9723 68.0196 48.7972 67.5299 49.2841L54.0046 62.7318C53.5117 63.2218 52.6817 63.0721 52.3911 62.4408L49.6849 56.5611M61.4348 44.8786L49.6849 56.5611M61.4348 44.8786L57.1858 34.5517C57.0851 34.3071 56.8916 34.1123 56.6476 34.01L32.6437 23.9488C32.2872 23.7994 31.8765 23.8688 31.5889 24.127L30.1628 25.4078M49.6849 56.5611L38.7091 52.3369C38.4496 52.237 38.2433 52.0335 38.14 51.7753L28.5254 27.7603C28.3694 27.3706 28.4733 26.925 28.7856 26.6446L30.1628 25.4078M30.1628 25.4078L43.6875 39.1591" stroke="#0F3656" stroke-width="2" stroke-linecap="round"/>
<path d="M51.625 42.5662C51.625 44.8312 49.7766 46.6773 47.4844 46.6773C45.1921 46.6773 43.3438 44.8312 43.3438 42.5662C43.3438 40.3011 45.1921 38.4551 47.4844 38.4551C49.7766 38.4551 51.625 40.3011 51.625 42.5662Z" fill="#FCF0D7" stroke="#F7B019" stroke-width="2"/>
<path d="M11.2344 34.778C11.2344 35.8334 10.3724 36.6987 9.29687 36.6987C8.22138 36.6987 7.35938 35.8334 7.35938 34.778C7.35938 33.7227 8.22138 32.8574 9.29687 32.8574C10.3724 32.8574 11.2344 33.7227 11.2344 34.778Z" stroke="#0F3656" stroke-width="2"/>
<path d="M41.3437 4.84201C41.3437 5.89732 40.4817 6.76264 39.4062 6.76264C38.3308 6.76264 37.4688 5.89732 37.4688 4.84201C37.4688 3.7867 38.3308 2.92139 39.4062 2.92139C40.4817 2.92139 41.3437 3.7867 41.3437 4.84201Z" stroke="#0F3656" stroke-width="2"/>
<path d="M21.5449 56.5022C17.5472 51.6694 16.1523 46.1483 16.1523 39.4024C16.1523 33.0467 18.283 27.1857 21.8729 22.4871M60.8472 17.1938C56.0045 13.2788 51.0313 11.4131 44.3033 11.4131C37.8556 11.4131 31.9141 13.5683 27.168 17.1938" stroke="#0F3656" stroke-width="2"/>
<path d="M28.6172 19.9319C28.6172 22.197 26.7688 24.043 24.4766 24.043C22.1843 24.043 20.3359 22.197 20.3359 19.9319C20.3359 17.6668 22.1843 15.8208 24.4766 15.8208C26.7688 15.8208 28.6172 17.6668 28.6172 19.9319Z" fill="#FCF0D7" stroke="#F7B019" stroke-width="2"/>
<rect x="-1.41819" y="0.0161988" width="9.3228" height="9.32376" rx="2" transform="matrix(0.70104 -0.713122 0.717146 0.696923 18.8535 57.9355)" fill="#FCF0D7" stroke="#F7B019" stroke-width="2"/>
<rect x="-1.41819" y="0.0161988" width="9.3228" height="9.32376" rx="2" transform="matrix(0.70104 -0.713122 0.717146 0.696923 58.0644 19.0365)" fill="#FCF0D7" stroke="#F7B019" stroke-width="2"/>
</svg>
