<svg width="81" height="75" viewBox="0 0 81 75" fill="none" xmlns="http://www.w3.org/2000/svg">
<ellipse cx="33.1564" cy="41.3085" rx="29.4767" ry="29.2875" fill="#FFF8E8"/>
<ellipse cx="47.4454" cy="32.4335" rx="29.4767" ry="29.2875" fill="#FCF0D7"/>
<path d="M77.8203 14.6836L78.8284 16.3445L80.5 17.3461L78.8284 18.3477L77.8203 20.0086L76.8123 18.3477L75.1406 17.3461L76.8123 16.3445L77.8203 14.6836Z" fill="#FCEDCD"/>
<path d="M16.641 6.10509L18.5798 6.33039L20.4005 5.63067L20.1737 7.55708L20.8779 9.36601L18.9391 9.14071L17.1185 9.84042L17.3452 7.91401L16.641 6.10509Z" fill="#FCEDCD"/>
<path d="M15.2891 68.8213L16.2971 70.4822L17.9688 71.4838L16.2971 72.4854L15.2891 74.1463L14.281 72.4854L12.6094 71.4838L14.281 70.4822L15.2891 68.8213Z" fill="#FCEDCD"/>
<path d="M62.0556 70.6296C61.9068 70.1858 61.9663 69.2983 63.3955 69.2983" stroke="#FCEDCD"/>
<path d="M1.05563 54.1774C0.906758 53.7337 0.966307 52.8462 2.39548 52.8462" stroke="#FCEDCD"/>
<path d="M79.6572 46.1901C79.5083 45.7464 79.5679 44.8589 80.997 44.8589" stroke="#FCEDCD"/>
<path d="M2.05563 24.4772C1.90676 24.0335 1.96631 23.146 3.39548 23.146" stroke="#FCEDCD"/>
<path d="M52.4759 1.31526C52.0687 1.54596 51.1861 1.65661 50.9138 0.253623" stroke="#FCEDCD"/>
<path d="M15.7742 15.0513V15.0513C13.1375 15.0513 11 17.1887 11 19.8255V49.738C11 53.0517 13.6863 55.738 17 55.738H65C68.3137 55.738 71 53.0517 71 49.738V20.0835C71 17.3043 68.747 15.0513 65.9677 15.0513V15.0513" stroke="#0F3656" stroke-width="2" stroke-linecap="round"/>
<path d="M19 15V48H62V15.0035C62 11.6898 59.3137 9 56 9H25C21.6863 9 19 11.6863 19 15Z" fill="#FCEDCD" stroke="#F7B019" stroke-width="2" stroke-linecap="round"/>
<path d="M11.1289 47.8843H70.7418" stroke="#0F3656" stroke-width="2"/>
<path d="M19.3867 17.2402H62.2254" stroke="#0F3656" stroke-width="2"/>
<path d="M45.1953 12.9912H59.1308" stroke="#0F3656" stroke-width="2" stroke-linecap="round"/>
<path d="M37.9688 52.2617H43.7752" stroke="#F7B019" stroke-width="2" stroke-linecap="round"/>
<path d="M33.0654 26.897L27.0413 31.795C26.5526 32.1923 26.5485 32.9371 27.0328 33.3398L33.0654 38.3562" stroke="#0F3656" stroke-width="2" stroke-linecap="round"/>
<path d="M48.5479 26.897L54.572 31.795C55.0607 32.1923 55.0648 32.9371 54.5805 33.3398L48.5479 38.3562" stroke="#0F3656" stroke-width="2" stroke-linecap="round"/>
<path d="M44.03 22.7764L37.3203 42.3472" stroke="#0F3656" stroke-width="2" stroke-linecap="round"/>
<path d="M54.2542 69H27.3587C27.1606 69 27 68.8394 27 68.6413C27 66.0661 29.0876 63.9785 31.6628 63.9785H49.9501C52.5253 63.9785 54.6129 66.0661 54.6129 68.6413C54.6129 68.8394 54.4523 69 54.2542 69Z" stroke="#0F3656" stroke-width="2" stroke-linecap="round"/>
<path d="M46.2266 59.8584C46.7427 60.8026 48.2137 62.9228 49.9685 63.8498" stroke="#0F3656" stroke-width="2" stroke-linecap="round"/>
<path d="M35.2578 59.8584C34.7417 60.8026 33.2707 62.9228 31.5159 63.8498" stroke="#0F3656" stroke-width="2" stroke-linecap="round"/>
<ellipse cx="23.2588" cy="12.9915" rx="1.03226" ry="1.03004" fill="#0F3656"/>
<ellipse cx="27.3877" cy="12.9915" rx="1.03226" ry="1.03004" fill="#0F3656"/>
<ellipse cx="31.5166" cy="12.9915" rx="1.03226" ry="1.03004" fill="#0F3656"/>
</svg>
