<svg width="81" height="75" viewBox="0 0 81 75" fill="none" xmlns="http://www.w3.org/2000/svg">
<ellipse cx="33.1564" cy="41.3085" rx="29.4767" ry="29.2875" fill="#FFF8E8"/>
<ellipse cx="47.4454" cy="32.4335" rx="29.4767" ry="29.2875" fill="#FCF0D7"/>
<path d="M77.8203 14.6836L78.8284 16.3445L80.5 17.3461L78.8284 18.3477L77.8203 20.0086L76.8123 18.3477L75.1406 17.3461L76.8123 16.3445L77.8203 14.6836Z" fill="#FCEDCD"/>
<path d="M19.641 8.213L21.5798 8.4383L23.4005 7.73858L23.1737 9.66499L23.8779 11.4739L21.9391 11.2486L20.1185 11.9483L20.3452 10.0219L19.641 8.213Z" fill="#FCEDCD"/>
<path d="M15.2891 68.8213L16.2971 70.4822L17.9688 71.4838L16.2971 72.4854L15.2891 74.1463L14.281 72.4854L12.6094 71.4838L14.281 70.4822L15.2891 68.8213Z" fill="#FCEDCD"/>
<path d="M62.0556 70.6296C61.9068 70.1858 61.9663 69.2983 63.3955 69.2983" stroke="#FCEDCD"/>
<path d="M1.05563 54.1774C0.906758 53.7337 0.966307 52.8462 2.39548 52.8462" stroke="#FCEDCD"/>
<path d="M79.6572 46.1901C79.5083 45.7464 79.5679 44.8589 80.997 44.8589" stroke="#FCEDCD"/>
<path d="M2.05563 24.4772C1.90676 24.0335 1.96631 23.146 3.39548 23.146" stroke="#FCEDCD"/>
<path d="M52.472 1.31526C52.0648 1.54596 51.1822 1.65661 50.9099 0.253623" stroke="#FCEDCD"/>
<path d="M33.0913 24.9165V24.9165C30.1865 24.9165 27.5496 23.2191 26.3469 20.5749L26.2275 20.3124C25.4717 18.6506 25.4301 16.7759 25.4343 14.9503C25.4375 13.5499 25.1324 12.1181 24.2119 11.1942C22.6533 9.62993 21.3964 9.06994 23.4099 8.16331C25.0874 7.40795 27.7775 6.45634 31.9512 5.30851C32.7053 5.10112 33.4874 5 34.2694 5H47.7553C48.2707 5 48.7862 5.03373 49.2844 5.16542C53.2918 6.22463 58.6346 10.4909 55.269 20.7318C54.406 23.3576 51.7959 24.9165 49.0319 24.9165V24.9165M33.0913 24.9165H37.1421C38.4402 24.9165 39.4925 25.9689 39.4925 27.267V27.267M33.0913 24.9165V28.1486C33.0913 29.9163 34.5243 31.3492 36.2919 31.3492V31.3492C38.0596 31.3492 39.4925 29.9163 39.4925 28.1486V27.267M49.0319 24.9165H44.4788C43.1807 24.9165 42.1284 25.9689 42.1284 27.267V27.267M49.0319 24.9165V27.8975C49.0319 29.8038 47.4865 31.3492 45.5801 31.3492V31.3492C43.6738 31.3492 42.1284 29.8038 42.1284 27.8975V27.267M39.4925 27.267H42.1284" stroke="#0F3656" stroke-width="2" stroke-linecap="round"/>
<path d="M62.5859 48.5459V48.5459C67.2305 48.5459 70.9956 52.311 70.9956 56.9556V63.847C70.9956 64.4172 70.5378 64.8817 69.9677 64.8901L62.5859 64.9987" stroke="#0F3656" stroke-width="2" stroke-linecap="round"/>
<path d="M19.1586 64.9949V48.2947M19.1586 64.9949H11.501C11.2243 64.9949 11 64.7706 11 64.4939V56.4533C11 51.9475 14.6527 48.2947 19.1586 48.2947V48.2947M19.1586 64.9949H62.5876V51.6354C62.5876 45.0079 57.215 39.6354 50.5876 39.6354H48.9062M19.1586 48.2947V48.2947C19.1586 43.5123 23.0356 39.6354 27.818 39.6354H32.84M32.84 39.6354C31.5172 37.5349 29.0713 32.1013 28.6314 25.5802C28.5099 23.7794 29.1488 22.0181 30.5562 20.8881C31.8636 19.8383 33.7988 18.533 36.4569 17.1854C37.3774 16.7187 38.3864 16.4591 39.4082 16.3138C40.4519 16.1655 41.7765 15.9397 43.0069 15.6365C43.7292 15.3721 44.8811 14.8749 46.0077 14.2371C48.0876 13.0593 50.1173 12.6066 51.1622 14.7563C51.5972 15.6513 52.0791 16.8044 52.5986 18.2772C52.8193 18.9029 52.9606 19.5551 53.0056 20.2171C53.3432 25.1796 52.9356 34.6483 48.9062 39.6354M32.84 39.6354H48.9062" stroke="#0F3656" stroke-width="2" stroke-linecap="round"/>
<path d="M18.6801 48.6767L19.0006 65H62.5006L63.401 53.5162C63.9936 45.9591 58.021 39.5 50.4408 39.5H27.6784C22.6387 39.5 18.5812 43.6379 18.6801 48.6767Z" fill="#FCF0D7"/>
<path d="M19.0006 65L18.6801 48.6767C18.5812 43.6379 22.6387 39.5 27.6784 39.5H50.4408C58.021 39.5 63.9936 45.9591 63.401 53.5162L62.5006 65H18" stroke="#F7B019" stroke-width="2"/>
<path d="M43.8832 48.7285L38.1094 56.3982" stroke="#F7B019" stroke-width="2" stroke-linecap="round"/>
<path d="M34.977 48.854L31.8086 51.9766C31.4112 52.3683 31.4112 53.0094 31.8086 53.4011L34.7259 56.2763" stroke="#F7B019" stroke-width="2" stroke-linecap="round"/>
<path d="M47.023 48.7285L50.1914 51.8512C50.5888 52.2428 50.5888 52.8839 50.1914 53.2756L47.2741 56.1508" stroke="#F7B019" stroke-width="2" stroke-linecap="round"/>
<path d="M53.2987 24.9943V24.9943C57.7046 24.2529 55.1794 30.4763 51.918 33.53V33.53" stroke="#0F3656" stroke-width="2" stroke-linecap="round"/>
<path d="M28.338 24.9943V24.9943C23.9329 24.2531 26.4149 30.4278 29.6843 33.4718L30.3281 34.0712" stroke="#0F3656" stroke-width="2" stroke-linecap="round"/>
</svg>
